<svg xmlns="http://www.w3.org/2000/svg" xmlns:xlink="http://www.w3.org/1999/xlink" viewBox="0 0 794.75 868"><defs><style>.cls-1{isolation:isolate;}.cls-2,.cls-40,.cls-43,.cls-48,.cls-68{fill:#002e61;}.cls-2,.cls-52{opacity:0.06;}.cls-3{fill:#909db2;}.cls-4{fill:#ffb9b3;}.cls-5{fill:#becbe4;}.cls-6{fill:#030058;}.cls-7{fill:#1a3474;}.cls-8{fill:#afbbd2;}.cls-9{fill:#ffa8a4;}.cls-10{fill:#23014d;}.cls-11{fill:#4a8dbd;}.cls-12{fill:#070784;}.cls-13{fill:#697982;}.cls-14{fill:#ff9912;}.cls-15,.cls-35{fill:#d8e4ef;}.cls-16{fill:#757f96;}.cls-17{fill:#ffb510;}.cls-18{fill:#ffd600;}.cls-19{fill:#00467f;opacity:0.08;}.cls-20{fill:#ccd9ed;}.cls-21{fill:#1a336b;}.cls-22{fill:#39679e;}.cls-23{fill:#fff;}.cls-24{fill:#f3f8fc;}.cls-25,.cls-34{opacity:0.83;}.cls-26,.cls-34{fill:#f3faff;}.cls-27{fill:#264dab;}.cls-28{fill:#b6d1e8;}.cls-29{fill:#008f4d;}.cls-30{fill:#006ee9;}.cls-31{fill:#189aff;}.cls-32{fill:#ffdb43;}.cls-33{fill:#e7edf2;}.cls-33,.cls-39,.cls-43,.cls-60,.cls-62,.cls-68{mix-blend-mode:multiply;}.cls-35{opacity:0.58;}.cls-36{fill:#265b9c;}.cls-37{fill:#c6b9cd;}.cls-38{fill:#e4edf4;}.cls-39,.cls-68{opacity:0.07;}.cls-41{fill:#007a7a;}.cls-42{fill:#0087ad;}.cls-43,.cls-48{opacity:0.1;}.cls-44{fill:#67b4c6;}.cls-45{fill:#ffb5a8;}.cls-46{fill:#b4e6f3;}.cls-47{fill:#d7f2f9;}.cls-49{fill:#c3d1de;}.cls-50{fill:#ffaa9b;}.cls-51{fill:#1010c4;}.cls-53{fill:#0019ca;}.cls-54{fill:#1d4e7f;}.cls-55{fill:#6f2f9d;}.cls-56{fill:#824baa;}.cls-57{fill:#87b6c1;}.cls-58{fill:#001784;}.cls-59{fill:#ffd19d;}.cls-60{fill:url(#鍊踑臇蜸馯鳺艜_2);}.cls-61{fill:#ff7415;}.cls-62{fill:url(#鍊踑臇蜸馯鳺艜_2-2);}.cls-63{fill:#00147a;}.cls-64{fill:#ffae84;}.cls-65{fill:#ffbb98;}.cls-66{fill:#ff8700;}.cls-67{fill:#4f7b78;}.cls-69{fill:#faf2ef;}.cls-70{fill:#1c4c7c;}.cls-71{fill:#b5a4be;}.cls-72{fill:#f9f9f9;}</style><linearGradient id="鍊踑臇蜸馯鳺艜_2" x1="8707.47" y1="784.32" x2="8676.1" y2="792.22" gradientTransform="translate(-8138.64)" gradientUnits="userSpaceOnUse"><stop offset="0" stop-color="#fff"/><stop offset="1" stop-color="#ffa424"/></linearGradient><linearGradient id="鍊踑臇蜸馯鳺艜_2-2" x1="8616.35" y1="748.28" x2="8617.69" y2="759.95" xlink:href="#鍊踑臇蜸馯鳺艜_2"/></defs><g class="cls-1"><g id="圖層_2" data-name="圖層 2"><g id="design"><ellipse class="cls-2" cx="728.4" cy="548.15" rx="66.36" ry="33.61"/><path class="cls-3" d="M667.85,304.7c-3.74,2.29-6.12,5.19-5.33,6.49s4.48.5,8.21-1.79,6.13-5.19,5.33-6.49S671.59,302.41,667.85,304.7Z"/><polygon class="cls-4" points="677 311.21 670.1 295.23 661.98 297.43 667.82 318.66 677 311.21"/><path class="cls-5" d="M662.66,309.71l0,0a1.52,1.52,0,0,0-.12,1.44c.75,1.21,4.35.37,8.05-1.89s6.08-5.09,5.34-6.31c0,0,0,0-.05-.05a.69.69,0,0,1,.22.14,1.65,1.65,0,0,1,.53,1.18c0,2.86,6,19.63,6,19.63s6.11-16.05,11.37-24.35c16.15-25.44,33.26-12.12,29.39,1.26-4.32,14.94-31.6,45.21-40.5,46.43-10,1.38-14.15-22.54-17-31.27a6.25,6.25,0,0,0-2.28-3.22C663,312.19,661.78,311.25,662.66,309.71Z"/><path class="cls-4" d="M719.72,511.72v6.33l.27,8.54-24.78.36s8.37-8,8.37-10.39c0-4.34-.32-12.89-.32-12.89Z"/><polygon class="cls-4" points="757.74 531.32 755.96 519.82 773.15 523.27 773.93 529.27 774.74 538.04 758.9 547.88 755.88 539.49 757.74 531.32"/><path class="cls-6" d="M705.38,344.66a779.57,779.57,0,0,0-7,78c0,8.4,2.61,86.88,2.61,86.88s.28,4.87,10.21,5.16,14.88-4.2,13.17-8.31,1.82-6.21,1.73-8.4-2-4.3-1.73-7.74,3.73-4.48,2.3-9.92-2.5-9.93-2.3-13.75S742,382.3,739.76,360.91,705.38,344.66,705.38,344.66Z"/><path class="cls-7" d="M751.67,347.21s9.84,7.69,12,24,.42,50.73,1.39,66c2.24,17.24,3.32,26.64,3.32,26.64s6.13,11,6.53,15.33-2.36,7.51-2.23,10,3.59,7.09,3.28,9.62-2.34,7.72-2.07,10.68,3.34,9.09,2,12.16-6.28,6.34-14.91,5-6.64-5.92-7.25-9-22-74.7-22-74.7-12.39-73-10.46-93.45S751.67,347.21,751.67,347.21Z"/><path class="cls-8" d="M764.33,307.51s-25.37-20.18-52-22.32c-6.51-.34-9.31,11.45-8.21,33.72.61,12.46.61,25.92.61,25.92s-.16,4.26,13,8.05,26.69,3.48,36.34-3.41C752.64,337.87,770.88,317.56,764.33,307.51Z"/><path class="cls-9" d="M739,283.92s-.86,6.33-.86,9.55c0,1.64-1.3,3.29-3.35,4.17s-7.56.85-7.56-1.72l.12-5.27Z"/><path class="cls-4" d="M737.21,285.33s-3.07,8.72-12.06,8.34c-4.53-.19-4.77-8.53-4.71-10.36s.69-2.52.69-3.34-.56-1.44-.5-2.85,1.1-6.46,1.1-6.46l13.52,1.11,2.84,9.11Z"/><path class="cls-7" d="M720.62,271.42a13.87,13.87,0,0,0,0,3.75c0,.13.25.19.27,0a22.88,22.88,0,0,1,.56-2.42,4.4,4.4,0,0,0,.56.58,5,5,0,0,0,2.86,1.2c1.77.39,5.12-.09,7.12.35,2.21.49,1.49,3.72,1.46,5s1.38,1.81,1.61,2.16a7.91,7.91,0,0,1,.2,2.1l4.32-.09s5.44-8.14,3.63-13.73-5.19-7.87-12.1-8.13c-4.16-.16-6.46,2.18-8.07,4.1a3.52,3.52,0,0,1-.63.27,4.68,4.68,0,0,0-1.51.53,2.44,2.44,0,0,0-.87,1.85,1.59,1.59,0,0,0,0,.37A5.32,5.32,0,0,0,720.62,271.42Z"/><path class="cls-10" d="M725.28,289.58l.21,0a1.78,1.78,0,0,0,1.23-.95.2.2,0,0,0-.07-.29.21.21,0,0,0-.3.07,1.38,1.38,0,0,1-.93.74,1.32,1.32,0,0,1-.94-.29.22.22,0,0,0-.31,0,.23.23,0,0,0,0,.31A1.76,1.76,0,0,0,725.28,289.58Z"/><path class="cls-10" d="M720.44,278.47a.26.26,0,0,0,.18-.1s.53-.69,2.31-.45a.22.22,0,0,0,.25-.18.23.23,0,0,0-.19-.25c-2.1-.29-2.71.6-2.74.64a.22.22,0,0,0,.06.3A.2.2,0,0,0,720.44,278.47Z"/><path class="cls-10" d="M728.65,282h.08a.23.23,0,0,0,.12-.29,3.41,3.41,0,0,0-2.72-2.29.22.22,0,1,0,0,.43h0a3,3,0,0,1,2.35,2A.21.21,0,0,0,728.65,282Z"/><ellipse class="cls-10" cx="721.94" cy="280.6" rx="0.69" ry="0.91"/><ellipse class="cls-10" cx="726.19" cy="282.6" rx="0.69" ry="0.91"/><path class="cls-10" d="M723.5,285.77h.22a.22.22,0,0,0,.2-.24.21.21,0,0,0-.23-.2c-.38,0-.63,0-.72-.15s.14-.88.37-1.34c.1-.21.19-.41.26-.58a.22.22,0,0,0-.13-.28.21.21,0,0,0-.28.13c-.06.16-.15.34-.24.54-.3.62-.65,1.33-.34,1.78A1,1,0,0,0,723.5,285.77Z"/><path class="cls-4" d="M736.46,285.5s.1-3.45,2.07-3.53,1.4,4.76-1.17,4.78C736.58,286.75,736.46,285.5,736.46,285.5Z"/><path class="cls-11" d="M774,529.42s-.6,8.39-12.14,7.71a4.83,4.83,0,0,1-1.79-.42c-3.34-1.53-2.26-5.31-2.26-5.31a1.83,1.83,0,0,1,0-.26c-1.56,3.12-3.33,10.07-6,13.87s-7.23,11-7.57,13.09c-1,6.26,3.23,8.57,7,9.31s13.09,0,17.82-8.54a143.21,143.21,0,0,1,7.74-12.77L775,530.36a1.09,1.09,0,0,0-1.07-.94Z"/><path class="cls-12" d="M750.8,563.81c3.76.74,13.09,0,17.82-8.54,3.31-6,6.23-10.59,7.68-12.81l.39,3.64A143.21,143.21,0,0,0,769,558.87c-4.73,8.57-14.06,9.28-17.82,8.54s-7.65-2.88-7.08-8.62C745.09,561.91,748.06,563.28,750.8,563.81Z"/><path class="cls-13" d="M740.19,537.19a.61.61,0,0,1-.05-.12l0-.08C740.18,537.08,740.19,537.15,740.19,537.19Z"/><path class="cls-11" d="M719.72,518.19l.91.28s1.22,14.85,1.19,17.25-4,3.44-11.83,4.49-17.77,8.52-27.37,7.58-5.22-8.63-1.6-11.34c1.33-1,8.14-5,12.48-8.45a53.73,53.73,0,0,0,8.44-8.34s.77,4.34,9,4S719.72,518.19,719.72,518.19Z"/><path class="cls-12" d="M682.62,545.21c9.6.94,19.58-6.54,27.37-7.58,5.91-.79,10.1-1.65,11.8-3.06,0,.5,0,.9,0,1.15,0,2.4-4,3.44-11.83,4.49s-17.77,8.52-27.37,7.58c-5.25-.51-6.31-3-5.62-5.67C677.52,543.66,679.16,544.87,682.62,545.21Z"/><ellipse class="cls-3" cx="753.58" cy="394" rx="3.65" ry="6.57" transform="translate(-27.61 729.94) rotate(-50.87)"/><path class="cls-4" d="M749,393.52l-6,2-3.12,3.06-1.36,6.16s1.94,0,3.28-3.93c1.16-1.32.71.29,3.3-1S749,393.52,749,393.52Z"/><path class="cls-4" d="M756.25,384.33l-9,9.84a75.6,75.6,0,0,0-4.18,7.39c-2.22,4.67-5.78,11.66-5.15,12.78,1.12,2,13-2.74,13.91-6.15s3.35-11.55,3.35-11.55l17.16-17.58Z"/><path class="cls-5" d="M759.31,304.68c-8.29-3.55-24.4,11.74-12.26,29.6,7.59,11.17,15.84,23.42,15.84,23.42l-10.64,29.13a3.8,3.8,0,0,1-1.46,1.21,5.47,5.47,0,0,0-2.24,1.73c2.17-1.69,12.82,5.34,9.61,8.83a6,6,0,0,0,2.57-3.36,3.42,3.42,0,0,1,1.42-2c5.31-3.62,18.12-21.78,22.3-31.91C789.27,349.63,775.32,311.54,759.31,304.68Z"/><path class="cls-7" d="M674.09,288.07s-10.44,16-14.36,14.53,5.39-12,7-15.12S674.09,288.07,674.09,288.07Z"/><path class="cls-14" d="M665.85,264.41c12.59,4.52,22.28,8.54,20.19,17s-14.89,9.09-24.59,5.93S661.13,286.25,665.85,264.41Z"/><path class="cls-4" d="M672.73,291.23l.22,2.08a2.19,2.19,0,0,1-.33,1.43c-.41.66-1.06,1.68-1.58,2.47a2,2,0,0,1-1.5.88,10.44,10.44,0,0,0-2,.37s-.87-.53-.07-2.06,2-1.46,3.34-4.42l.44-1A.78.78,0,0,1,672.73,291.23Z"/><path class="cls-4" d="M662.49,287a2.12,2.12,0,0,0-2.52.78c-1.43,2.67-4.46,8.55-4.06,9.74a7,7,0,0,0,2.41,2.61,1.64,1.64,0,0,0,2.12-.07l8.12-9.12c.7-.79.16-2-1.06-2.38Z"/><path class="cls-15" d="M632.16,300.08l10.9-56.73S663,260.9,665.42,263.11s5,9.49,2.6,16.47c-1.56,4.55-4.26,7.81-7,8.95h0l-.07,0Z"/><ellipse class="cls-8" cx="631.43" cy="271.2" rx="30.87" ry="17.79" transform="translate(215.8 818.48) rotate(-76.03)"/><ellipse class="cls-16" cx="630.79" cy="271.53" rx="27.99" ry="15.58" transform="translate(205 810.35) rotate(-74.97)"/><path class="cls-17" d="M632.45,275.88l3-9.9,12,.66a49.63,49.63,0,0,1-2.66,12.55c-.14.38-.27.75-.41,1.12Z"/><path class="cls-18" d="M631.36,269.52c-.94,2.68-.55,5.48.87,6.26s3.33-.76,4.27-3.43.55-5.48-.87-6.26S632.3,266.84,631.36,269.52Z"/><path class="cls-19" d="M343.08,383.84v-4.56h-5.49c-17.62-8.43-55.89-26.82-62.18-30.4-8.21-4.68-7.69-14.25-7.69-14.25l3-83.63-35.93,8.73s-19.62,67-24.3,87S219,378,219,378l50.2,47a2.92,2.92,0,0,0,3.55.52l68.92-39.28A2.69,2.69,0,0,0,343.08,383.84Z"/><path class="cls-8" d="M344.07,379.86v-4.57h-5.49c-17.62-8.43-55.89-26.81-62.18-30.39-8.21-4.68-7.69-14.25-7.69-14.25l3-83.64-35.94,8.74s-19.61,67-24.29,87S220,374,220,374l50.2,47a2.92,2.92,0,0,0,3.55.53l68.92-39.28A2.7,2.7,0,0,0,344.07,379.86Z"/><path class="cls-20" d="M270.15,416.52s-40.26-40.63-46.86-47.41-9.52-16-6.49-27.38C222.07,321.8,242.08,254,242.08,254l29.64-11.46-3,83.64s-.52,9.57,7.69,14.25c6.8,3.87,51,25.05,66,32.25a2.9,2.9,0,0,1,.18,5.14L273.7,417.05A2.92,2.92,0,0,1,270.15,416.52Z"/><path class="cls-5" d="M220.82,360.32c16.05-9.69,33-17.82,49.58-26.41a17.73,17.73,0,0,1-1.69-7.78l3-83.64L242.08,254s-20,67.85-25.28,87.78c-2.07,7.8-1.36,14.54,1.4,20.2C219.07,361.39,219.94,360.85,220.82,360.32Z"/><path class="cls-19" d="M184.32,433.82l236.41-135a6.12,6.12,0,0,0,0-10.58l-4.15-2.34a6.07,6.07,0,0,0-6.11,0l-236.41,135a6.12,6.12,0,0,0,0,10.58l4.15,2.35A6.12,6.12,0,0,0,184.32,433.82Z"/><path class="cls-21" d="M387.77,19l3.41-1.58-4.74-3.63h0a3.43,3.43,0,0,0-4.07-.47L129,159a3.45,3.45,0,0,0-1.72,3.25l14.47,197.68a3.42,3.42,0,0,0,1.34,2.46l4.79,3.7,3.61-3.08-2.85-1.32,252.4-145.34a3.45,3.45,0,0,0,1.73-3.26Z"/><path class="cls-22" d="M134,162.84,387.36,17.19a3.45,3.45,0,0,1,5.17,2.73l15.26,197a3.46,3.46,0,0,1-1.72,3.26L152,366.51a3.45,3.45,0,0,1-5.17-2.74L132.3,166.09A3.44,3.44,0,0,1,134,162.84Z"/><polygon class="cls-23" points="139.73 168.42 384.07 27.82 398.13 215.25 153.15 357.04 139.73 168.42"/><polygon class="cls-24" points="148.08 173.48 236.63 122.52 241.73 190.45 152.94 241.84 148.08 173.48"/><polygon class="cls-24" points="156 253.01 204.49 225.1 207.28 262.3 158.66 290.44 156 253.01"/><polygon class="cls-24" points="218.64 223.25 378.61 130.51 381.28 159.24 221.07 252.41 218.64 223.25"/><polygon class="cls-24" points="161.03 300.3 209.52 272.4 212.31 309.6 163.69 337.73 161.03 300.3"/><polygon class="cls-24" points="223.67 270.55 383.64 177.81 386.31 206.53 226.1 299.71 223.67 270.55"/><polygon class="cls-24" points="241.73 120.97 372.95 44.8 375.62 73.53 244.16 150.13 241.73 120.97"/><g class="cls-25"><path class="cls-26" d="M302.26,2.87l-232,132.48a2.19,2.19,0,0,0-1.11,1.89V396.72a2.18,2.18,0,0,0,3.25,1.9l232-132.48a2.18,2.18,0,0,0,1.1-1.89V4.77A2.18,2.18,0,0,0,302.26,2.87Z"/></g><path class="cls-27" d="M138,321.82l148.59-85.23V125.32s-6.51,45.35-22.67,54.77-23.14-4.07-35.23,9.18-8.37,44.07-19.18,53.25-16.51,1.17-28.72,12S170.41,299.84,138,321.82Z"/><path class="cls-18" d="M286.56,160.2s-7.2,25.12-17.32,34.89-19.77,9.06-29.07,16.39-9.3,31-20.81,37.21-24.77,6-33.37,13.72-19.3,45-48,59.41l148.59-85.23Z"/><path class="cls-11" d="M286.56,192.53s-1.32,24.18-17.9,32.55c-11.74,5.93-19.53-6.86-30.35,17.56-7.77,17.54-21.83,29.69-35,29.77C182,272.52,173.53,302,138,321.82c46.39-26.39,148.59-85.23,148.59-85.23Z"/><polygon class="cls-28" points="170.25 322.27 144.28 336.98 144.28 329.1 170.25 314.39 170.25 322.27"/><polygon class="cls-28" points="209.02 300.49 183.05 315.2 183.05 307.31 209.02 292.61 209.02 300.49"/><polygon class="cls-28" points="247.79 278.7 221.82 293.41 221.82 285.53 247.79 270.82 247.79 278.7"/><polygon class="cls-28" points="286.56 256.92 260.59 271.63 260.59 263.74 286.56 249.03 286.56 256.92"/><path class="cls-29" d="M289,125.07c0-1.6-1.07-2.23-2.39-1.41a5.72,5.72,0,0,0-2.38,4.38c0,1.6,1.07,2.23,2.38,1.41A5.7,5.7,0,0,0,289,125.07Z"/><ellipse class="cls-30" cx="286.56" cy="160.95" rx="3.53" ry="1.96" transform="translate(10.76 339.71) rotate(-62.27)"/><path class="cls-31" d="M289,191.52c0-1.6-1.07-2.24-2.39-1.42a5.74,5.74,0,0,0-2.38,4.39c0,1.59,1.07,2.23,2.38,1.41A5.7,5.7,0,0,0,289,191.52Z"/><path class="cls-18" d="M141.28,319.67a2,2,0,0,0-2.55-2.11,4,4,0,0,0-2.55,3.68c0,1.6,1.14,2.55,2.55,2.12A4,4,0,0,0,141.28,319.67Z"/><ellipse class="cls-11" cx="133.19" cy="324.12" rx="3.18" ry="2.32" transform="translate(-214.78 282.73) rotate(-60.88)"/><path class="cls-7" d="M130.21,327a1.94,1.94,0,0,0-2.55-2.11,4,4,0,0,0-2.55,3.68c0,1.6,1.14,2.55,2.55,2.11A4,4,0,0,0,130.21,327Z"/><polygon class="cls-18" points="121.94 257.37 106.42 266.36 106.42 218.29 121.94 209.3 121.94 257.37"/><path class="cls-17" d="M163,234.37,148.18,243a.35.35,0,0,1-.53-.3V218.49a.34.34,0,0,1,.18-.3l14.82-8.59a.36.36,0,0,1,.53.31v24.15A.35.35,0,0,1,163,234.37Z"/><path class="cls-11" d="M142.87,245.46,128.05,254a.34.34,0,0,1-.52-.3v-62.8a.34.34,0,0,1,.17-.31l14.82-8.58a.35.35,0,0,1,.53.3v62.8A.35.35,0,0,1,142.87,245.46Z"/><path class="cls-11" d="M182.54,223.66l-14.82,8.58a.35.35,0,0,1-.52-.31V157.6a.34.34,0,0,1,.17-.3l14.82-8.58a.35.35,0,0,1,.53.3v74.33A.37.37,0,0,1,182.54,223.66Z"/><path class="cls-27" d="M203.06,212.13l-14.82,8.58a.36.36,0,0,1-.53-.31V130.24a.35.35,0,0,1,.18-.3l14.82-8.58a.35.35,0,0,1,.53.3v90.16A.37.37,0,0,1,203.06,212.13Z"/><path class="cls-28" d="M194.42,118c-24.09,14-30.63,38.42-35.46,56.44-3.09,11.51-5.53,20.61-11.42,22.36-7.17,2.12-14.71-.71-22-3.46-8.6-3.23-17.5-6.58-25.77-1.7-3.5,2.07-6.36,5.86-8.49,11.26a65.21,65.21,0,0,0-3.69,15.77,124.92,124.92,0,0,0-.71,20.15l.78-.05a124.55,124.55,0,0,1,.71-20c1.17-9.57,4.17-21.94,11.8-26.44,8-4.69,16.28-1.56,25.1,1.76,5.57,2.09,11.29,4.24,16.94,4.24a19.63,19.63,0,0,0,5.56-.77c6.3-1.87,8.79-11.16,11.94-22.91,4.77-17.79,11.22-41.85,34.71-55.74Z"/><ellipse class="cls-32" cx="135.29" cy="196.81" rx="3.18" ry="2.32" transform="translate(-102.48 219.21) rotate(-60.88)"/><ellipse class="cls-18" cx="115.02" cy="274.65" rx="3.18" ry="2.32" transform="translate(-180.89 241.46) rotate(-60.88)"/><path class="cls-18" d="M140.68,261a2,2,0,0,0-2.56-2.11,4,4,0,0,0-2.55,3.68,1.94,1.94,0,0,0,2.55,2.11A4,4,0,0,0,140.68,261Z"/><path class="cls-18" d="M161.13,249.42a2,2,0,0,0-2.56-2.11A4,4,0,0,0,156,251a1.94,1.94,0,0,0,2.55,2.11A4,4,0,0,0,161.13,249.42Z"/><path class="cls-18" d="M181.11,238.31a1.94,1.94,0,0,0-2.55-2.11,4,4,0,0,0-2.55,3.68c0,1.6,1.14,2.55,2.55,2.12A4,4,0,0,0,181.11,238.31Z"/><path class="cls-18" d="M200.91,227.2a2,2,0,0,0-2.56-2.11,4,4,0,0,0-2.55,3.68,1.94,1.94,0,0,0,2.55,2.11A4,4,0,0,0,200.91,227.2Z"/><path class="cls-32" d="M155.42,193a2,2,0,0,0-2.56-2.11,4,4,0,0,0-2.55,3.68,1.94,1.94,0,0,0,2.55,2.11A4,4,0,0,0,155.42,193Z"/><path class="cls-32" d="M174.65,141a2,2,0,0,0-2.56-2.11,4,4,0,0,0-2.55,3.68c0,1.6,1.14,2.55,2.55,2.12A4,4,0,0,0,174.65,141Z"/><path class="cls-32" d="M196.42,117.08c0-1.6-1.14-2.55-2.55-2.11a4,4,0,0,0-2.55,3.68,1.94,1.94,0,0,0,2.55,2.11A4,4,0,0,0,196.42,117.08Z"/><path class="cls-32" d="M113.13,188.2a1.94,1.94,0,0,0-2.55-2.11,4,4,0,0,0-2.56,3.68,2,2,0,0,0,2.56,2.11A4,4,0,0,0,113.13,188.2Z"/><path class="cls-32" d="M89.69,237a1.94,1.94,0,0,0-2.55-2.11,4,4,0,0,0-2.56,3.68,2,2,0,0,0,2.56,2.11A4,4,0,0,0,89.69,237Z"/><rect class="cls-30" x="99.91" y="244.35" width="111.02" height="0.59" transform="translate(-99.85 107.37) rotate(-29.3)"/><path class="cls-18" d="M95.37,135.47l-14.53,8.16a.94.94,0,0,0-.48.82V176.8a.94.94,0,0,0,1.4.82l14.53-8.15a.94.94,0,0,0,.48-.82V136.29A.94.94,0,0,0,95.37,135.47Z"/><path class="cls-27" d="M115.77,124.14l-14.53,8.16a.93.93,0,0,0-.48.82v32.35a.94.94,0,0,0,1.4.82l14.53-8.15a1,1,0,0,0,.48-.83V125A.94.94,0,0,0,115.77,124.14Z"/><path class="cls-17" d="M136.17,112.81,121.64,121a.94.94,0,0,0-.48.82v32.36a.94.94,0,0,0,1.4.82l14.53-8.16a.94.94,0,0,0,.48-.82V113.63A.94.94,0,0,0,136.17,112.81Z"/><path class="cls-11" d="M156.57,101.47,142,109.63a.93.93,0,0,0-.48.82V142.8a.94.94,0,0,0,1.4.82l14.53-8.15a.94.94,0,0,0,.48-.82V102.29A.94.94,0,0,0,156.57,101.47Z"/><ellipse class="cls-18" cx="111.38" cy="307.94" rx="16.64" ry="11.78" transform="translate(-215.84 320.51) rotate(-72.31)"/><ellipse class="cls-27" cx="91.61" cy="319.79" rx="16.64" ry="11.78" transform="translate(-240.9 309.93) rotate(-72.31)"/><ellipse class="cls-11" cx="102" cy="332.98" rx="16.64" ry="11.78" transform="translate(-246.22 329) rotate(-72.31)"/><path class="cls-11" d="M254.92,91.75l33.32,2.34A57.36,57.36,0,0,0,287.46,72C283,53.86,269.64,44.7,254.92,47.78Z"/><path class="cls-18" d="M254.77,92.91,241,140.46c7,1.53,14.86,0,22.57-5,12.69-8.26,21.68-23.9,24.46-40.21Z"/><path class="cls-27" d="M253.75,92.21V48.05a34.88,34.88,0,0,0-10.51,4.71c-18.8,12.23-29.49,40.66-23.87,63.5,3.19,13,10.95,21.34,20.51,23.92Z"/><path class="cls-33" d="M305.51,264.25V59.86l-83.32,47.78a5.2,5.2,0,0,0-2.59,4.51V307.81a5.19,5.19,0,0,0,3.31,4.86l81.5-46.53A2.18,2.18,0,0,0,305.51,264.25Z"/><path class="cls-34" d="M443.18,205.4,250.86,315.67a5.21,5.21,0,0,1-7.84-4.51V115.5a5.22,5.22,0,0,1,2.59-4.51L437.93.72a5.22,5.22,0,0,1,7.85,4.51V200.89A5.21,5.21,0,0,1,443.18,205.4Z"/><path class="cls-33" d="M445.78,90.25l-22.85,13.3a1.57,1.57,0,0,0-.77,1.35v62.2a1.56,1.56,0,0,0,2.35,1.35l21.27-12.39Z"/><path class="cls-35" d="M262.81,237.84l103.33-60.19a1.57,1.57,0,0,0,.78-1.35V140a1.56,1.56,0,0,0-2.35-1.35L264.8,196.79a1.55,1.55,0,0,0-.78,1.35v28.73a1.6,1.6,0,0,1-.11.57l-3.34,8.48A1.56,1.56,0,0,0,262.81,237.84Z"/><path class="cls-35" d="M262.81,285.92l103.33-60.19a1.57,1.57,0,0,0,.78-1.35V188.1a1.57,1.57,0,0,0-2.35-1.35L264.8,244.87a1.55,1.55,0,0,0-.78,1.35v28.72a1.62,1.62,0,0,1-.11.58L260.57,284A1.56,1.56,0,0,0,262.81,285.92Z"/><polygon class="cls-11" points="356.64 200.75 275.43 248.05 275.43 250.17 356.64 202.87 356.64 200.75"/><polygon class="cls-11" points="356.64 208.21 275.43 255.52 275.43 257.64 356.64 210.34 356.64 208.21"/><polygon class="cls-11" points="356.64 161.25 275.43 208.56 275.43 210.68 356.64 163.38 356.64 161.25"/><polygon class="cls-11" points="333.14 229.37 275.43 262.99 275.43 265.11 333.14 231.5 333.14 229.37"/><polygon class="cls-11" points="333.14 167.26 275.43 200.87 275.43 203 333.14 169.38 333.14 167.26"/><polygon class="cls-11" points="311.39 196.26 275.43 217.21 275.43 219.34 311.39 198.39 311.39 196.26"/><polygon class="cls-15" points="425.35 38.86 279.01 124.11 279.01 126.48 425.35 41.24 425.35 38.86"/><polygon class="cls-15" points="425.35 66.45 279.01 151.7 279.01 154.07 425.35 68.83 425.35 66.45"/><polygon class="cls-11" points="270.57 137.99 260.62 143.78 260.62 127.56 270.57 121.77 270.57 137.99"/><polygon class="cls-11" points="270.57 165.91 260.62 171.71 260.62 155.49 270.57 149.69 270.57 165.91"/><path class="cls-18" d="M319.31,91.7c0-2.64-1.31-4-2.93-3.07s-2.92,3.84-2.92,6.48,1.31,4,2.92,3.06S319.31,94.33,319.31,91.7Z"/><path class="cls-36" d="M361.12,67.34c0-2.63-1.31-4-2.92-3.06s-2.93,3.84-2.93,6.47,1.31,4,2.93,3.07S361.12,70,361.12,67.34Z"/><path class="cls-36" d="M337.59,109c0-2.64-1.31-4-2.93-3.07s-2.92,3.84-2.92,6.48,1.31,4,2.92,3.06S337.59,111.64,337.59,109Z"/><path class="cls-18" d="M420.12,60.73c0-2.63-1.31-4-2.92-3.06s-2.93,3.84-2.93,6.47,1.31,4,2.93,3.07S420.12,63.37,420.12,60.73Z"/><path class="cls-37" d="M402.93,43c0-2.64-1.31-4-2.92-3.07s-2.93,3.84-2.93,6.47,1.31,4,2.93,3.07S402.93,45.62,402.93,43Z"/><polygon class="cls-8" points="317.06 99.2 315.67 100.01 315.67 108.63 317.06 107.83 317.06 99.2"/><polygon class="cls-8" points="358.89 74.84 357.5 75.64 357.5 84.27 358.89 83.46 358.89 74.84"/><polygon class="cls-8" points="400.72 50.47 399.33 51.28 399.33 59.9 400.72 59.09 400.72 50.47"/><polygon class="cls-8" points="417.89 68.86 416.5 69.67 416.5 78.29 417.89 77.49 417.89 68.86"/><polygon class="cls-8" points="335.36 116.94 333.97 117.75 333.97 126.37 335.36 125.56 335.36 116.94"/><path class="cls-36" d="M405,128.11a7,7,0,0,0-2.9.95,14,14,0,0,0-4.52,4.41L392,127.55a30.86,30.86,0,0,1,9.83-9.56,14.78,14.78,0,0,1,7-2.13Z"/><path class="cls-7" d="M410.26,134c-.26-3.47-2-5.61-4.36-5.88l3.81-12.23c5.46.35,9.42,5,10.08,12.69Z"/><path class="cls-11" d="M391.23,128.73l5.61,6A18.34,18.34,0,0,0,394.4,143l-9.53,5.42A40.74,40.74,0,0,1,391.23,128.73Z"/><path class="cls-6" d="M407.57,143.92a18.42,18.42,0,0,0,2.72-8.82l9.58-5.45c0,.14,0,.27,0,.42.17,6.85-2.14,14.38-5.91,20.65Z"/><path class="cls-17" d="M394,144.49c.23,3.16,1.67,5.22,3.74,5.76l-4.45,14.26c-5.13-1-8.68-6.11-8.88-14.13,0-.15,0-.3,0-.44Z"/><path class="cls-18" d="M399,150.13a6.4,6.4,0,0,0,3.55-.95,13.69,13.69,0,0,0,4.2-4l6.45,6.82a31.43,31.43,0,0,1-10.32,10.31,14,14,0,0,1-8.34,2.08Z"/><path class="cls-34" d="M498.12,132.89,432.77,171a1.57,1.57,0,0,1-2.35-1.35V107.4a1.57,1.57,0,0,1,.78-1.35L496.54,68a1.57,1.57,0,0,1,2.35,1.35v62.2A1.55,1.55,0,0,1,498.12,132.89Z"/><polygon class="cls-11" points="446.49 136.95 438.56 141.57 438.56 160.63 446.49 156 446.49 136.95"/><polygon class="cls-8" points="460.36 120.58 452.43 125.21 452.43 152.55 460.36 147.92 460.36 120.58"/><polygon class="cls-18" points="475.44 114.38 467.6 118.95 467.6 144.49 475.44 139.92 475.44 114.38"/><polygon class="cls-7" points="489.15 83.98 481.31 88.55 481.31 136.5 489.15 131.93 489.15 83.98"/><path class="cls-2" d="M426.88,545l152.43,89.75a4.93,4.93,0,0,0,4.64.19,2.45,2.45,0,0,0,.6-.41l6.33-5.67.21-.2c2-2.11,1.9-3.89,0-5.08l-67.82-42.35c-.12-.07-.25-.15-.38-.21l-88.14-44.89a7.92,7.92,0,0,0-7.42.13l-.34.19A4.93,4.93,0,0,0,426.88,545Z"/><path class="cls-8" d="M583.68,437.31l-98.82-56a2.68,2.68,0,0,0-3,.21l-3.16,2.23,2.1,1.91V567.15a2.7,2.7,0,0,0,1.35,2.33l97.42,56.25-.12.19,1.11,2.83,3.1-2.2a2.67,2.67,0,0,0,1.36-2.34V439.66A2.7,2.7,0,0,0,583.68,437.31Z"/><path class="cls-23" d="M581.8,626.5V442a2.68,2.68,0,0,0-1.37-2.34l-98.82-56a2.7,2.7,0,0,0-4,2.35v183.5a2.7,2.7,0,0,0,1.35,2.34l98.82,57.06A2.7,2.7,0,0,0,581.8,626.5Z"/><ellipse class="cls-8" cx="494.52" cy="412.27" rx="8.6" ry="15.19" transform="translate(-124.51 235.3) rotate(-23.86)"/><polygon class="cls-15" points="534.42 432.12 508.92 417.27 508.92 414.35 534.42 429.19 534.42 432.12"/><polygon class="cls-15" points="534.42 437.06 508.92 422.21 508.92 419.29 534.42 434.13 534.42 437.06"/><polygon class="cls-15" points="534.42 441.8 508.92 426.96 508.92 424.04 534.42 438.88 534.42 441.8"/><polygon class="cls-18" points="574.12 468.18 540.76 448.76 540.76 429.62 574.12 449.04 574.12 468.18"/><polygon class="cls-14" points="574.12 621.09 484.22 568.76 484.22 549.61 574.12 601.94 574.12 621.09"/><polygon class="cls-15" points="510.6 530.4 483.34 514.53 483.34 480.79 510.6 496.66 510.6 530.4"/><polygon class="cls-15" points="542.32 548.87 515.06 533 515.06 499.26 542.32 515.13 542.32 548.87"/><polygon class="cls-15" points="574.04 567.33 546.78 551.46 546.78 517.72 574.04 533.59 574.04 567.33"/><polygon class="cls-15" points="574.12 524.82 483.33 471.97 483.33 425.59 574.12 478.44 574.12 524.82"/><polygon class="cls-8" points="567.6 494.95 542.1 480.11 542.1 477.19 567.6 492.03 567.6 494.95"/><polygon class="cls-8" points="567.6 499.89 542.1 485.05 542.1 482.13 567.6 496.97 567.6 499.89"/><polygon class="cls-8" points="567.6 504.64 542.1 489.8 542.1 486.87 567.6 501.72 567.6 504.64"/><polygon class="cls-8" points="573.16 574.49 547.66 559.65 547.66 557.41 573.16 572.25 573.16 574.49"/><polygon class="cls-8" points="573.16 578.27 547.66 563.43 547.66 561.19 573.16 576.03 573.16 578.27"/><polygon class="cls-8" points="567.15 576.17 547.66 564.82 547.66 567.06 567.15 578.4 567.15 576.17"/><polygon class="cls-8" points="541.44 556.03 515.94 541.18 515.94 538.95 541.44 553.79 541.44 556.03"/><polygon class="cls-8" points="541.44 559.81 515.94 544.96 515.94 542.73 541.44 557.57 541.44 559.81"/><polygon class="cls-8" points="535.43 557.7 515.94 546.36 515.94 548.6 535.43 559.94 535.43 557.7"/><polygon class="cls-8" points="509.72 537.56 484.22 522.72 484.22 520.48 509.72 535.33 509.72 537.56"/><polygon class="cls-8" points="509.72 541.34 484.22 526.5 484.22 524.26 509.72 539.11 509.72 541.34"/><polygon class="cls-8" points="503.71 539.24 484.22 527.89 484.22 530.13 503.71 541.48 503.71 539.24"/><polygon class="cls-8" points="573.16 587.98 547.66 573.13 547.66 570.9 573.16 585.74 573.16 587.98"/><polygon class="cls-8" points="573.16 591.76 547.66 576.91 547.66 574.68 573.16 589.52 573.16 591.76"/><polygon class="cls-8" points="567.15 589.65 547.66 578.31 547.66 580.54 567.15 591.89 567.15 589.65"/><polygon class="cls-8" points="541.44 569.51 515.94 554.67 515.94 552.43 541.44 567.28 541.44 569.51"/><polygon class="cls-8" points="541.44 573.29 515.94 558.45 515.94 556.22 541.44 571.06 541.44 573.29"/><polygon class="cls-8" points="535.43 571.19 515.94 559.85 515.94 562.08 535.43 573.43 535.43 571.19"/><polygon class="cls-8" points="509.72 551.05 484.22 536.21 484.22 533.97 509.72 548.81 509.72 551.05"/><polygon class="cls-8" points="509.72 554.83 484.22 539.99 484.22 537.75 509.72 552.59 509.72 554.83"/><polygon class="cls-8" points="503.71 552.73 484.22 541.38 484.22 543.62 503.71 554.96 503.71 552.73"/><path class="cls-2" d="M342.1,536.33l147.79,87.29a4.94,4.94,0,0,0,5,0l8.67-5a3,3,0,0,0,.09-5.19L438.5,572.57l-.39-.22-89.55-45.6a4.94,4.94,0,0,0-4.62.08l-1.73,1A4.92,4.92,0,0,0,342.1,536.33Z"/><path class="cls-8" d="M499.43,488.15l-144-83.23a3.5,3.5,0,0,0-3.84.21h0l-3.81,2.32,2.38,2V529.59a3.51,3.51,0,0,0,1.73,3l142.37,84c.14,1,.29,2,.29,2l1.14,1.31,3.84-2.32h0a3.45,3.45,0,0,0,1.7-3V491.19A3.5,3.5,0,0,0,499.43,488.15Z"/><path class="cls-38" d="M346.39,410.22V531.86a3.49,3.49,0,0,0,1.73,3l144,85a3.52,3.52,0,0,0,5.3-3V493.45a3.52,3.52,0,0,0-1.76-3l-144-83.23A3.51,3.51,0,0,0,346.39,410.22Z"/><polygon class="cls-23" points="352.07 415.27 352.07 529.63 491.96 612.14 491.96 496.13 352.07 415.27"/><path class="cls-15" d="M360.72,434.34v36.13a1,1,0,0,0,.51.9L392.7,490a1,1,0,0,0,1.57-.9V452.47a1.05,1.05,0,0,0-.52-.91l-31.47-18.13A1,1,0,0,0,360.72,434.34Z"/><path class="cls-15" d="M402.37,458.4v36.13a1,1,0,0,0,.51.9l31.47,18.66a1,1,0,0,0,1.58-.9V476.53a1,1,0,0,0-.52-.9L403.94,457.5A1,1,0,0,0,402.37,458.4Z"/><g class="cls-39"><path class="cls-40" d="M446.78,480.18v36.13a1,1,0,0,0,.51.9l31.47,18.66a1,1,0,0,0,1.57-.9V498.31a1,1,0,0,0-.52-.9l-31.47-18.13A1,1,0,0,0,446.78,480.18Z"/></g><path class="cls-15" d="M444,482.48v36.14a1,1,0,0,0,.51.89L476,538.18a1,1,0,0,0,1.57-.9V500.61a1,1,0,0,0-.52-.9l-31.47-18.13A1,1,0,0,0,444,482.48Z"/><path class="cls-2" d="M459,464.78l8.48,4.88-4.75,1.68a15.83,15.83,0,0,1-10.85,11.72c-10.1,3.32-38.95-5-50.89-21.35s-7.22-15.59-7.22-15.59Z"/><polygon class="cls-41" points="393.74 557.08 393.74 557.08 393.74 557.08 393.74 557.08"/><path class="cls-41" d="M361.12,500.55h0l.06-.05Z"/><path class="cls-42" d="M393.75,557.07h0Z"/><path class="cls-42" d="M361.18,500.51l.1-.06Z"/><path class="cls-15" d="M393.75,518.6l-31.47-18.13a1,1,0,0,0-1,0l-.1.06-.06.05a1,1,0,0,0-.4.82v33.35l1.1.66,32.45,19.14v-35A1.05,1.05,0,0,0,393.75,518.6Z"/><polygon class="cls-41" points="435.39 581.8 435.4 581.8 435.39 581.8 435.39 581.8"/><path class="cls-41" d="M402.77,525.27h0l.06,0Z"/><path class="cls-42" d="M435.4,581.79h0Z"/><path class="cls-42" d="M402.84,525.23l.1-.05Z"/><path class="cls-15" d="M435.41,543.32l-31.47-18.13a1,1,0,0,0-1,0l-.1.05-.06,0a1,1,0,0,0-.41.82v33.2l1.11.66,32.45,19.14V544.23A1.05,1.05,0,0,0,435.41,543.32Z"/><polygon class="cls-41" points="477.05 606.05 477.05 606.04 477.05 606.05 477.05 606.05"/><path class="cls-41" d="M444.43,549.52h0s0,0,.06,0Z"/><path class="cls-42" d="M477.06,606h0Z"/><path class="cls-42" d="M444.5,549.48l.09-.06Z"/><path class="cls-15" d="M477.06,567.57l-31.47-18.13a1,1,0,0,0-1,0l-.09.06s0,0-.06,0a1,1,0,0,0-.41.81v33.53l1.1.66,32.45,19.13V568.47A1,1,0,0,0,477.06,567.57Z"/><polygon class="cls-8" points="445.94 528.65 445.94 531.07 474.62 548.07 474.62 545.65 445.94 528.65"/><polygon class="cls-8" points="445.94 533.5 445.94 535.92 474.62 552.92 474.62 550.5 445.94 533.5"/><polygon class="cls-8" points="445.94 538.35 445.94 540.76 474.62 557.77 474.62 555.35 445.94 538.35"/><polygon class="cls-8" points="404.54 504.71 404.54 507.13 433.21 524.13 433.21 521.72 404.54 504.71"/><polygon class="cls-8" points="404.54 509.56 404.54 511.98 433.21 528.98 433.21 526.57 404.54 509.56"/><polygon class="cls-8" points="404.54 514.41 404.54 516.83 433.21 533.83 433.21 531.41 404.54 514.41"/><polygon class="cls-8" points="363.14 480.8 363.14 483.22 391.81 500.22 391.81 497.8 363.14 480.8"/><polygon class="cls-8" points="363.14 485.65 363.14 488.07 391.81 505.07 391.81 502.65 363.14 485.65"/><polygon class="cls-8" points="363.14 490.5 363.14 492.92 391.81 509.92 391.81 507.5 363.14 490.5"/><path class="cls-43" d="M468.22,531.49c0-4.74-3.14-10.39-7-12.64s-7-.22-7,4.51a16.48,16.48,0,0,0,4.74,10.85.36.36,0,0,1,.11.25c0,3.56-.32,8.95-1.94,12a.35.35,0,0,0,.45.49,8.1,8.1,0,0,0,4-3.08.36.36,0,0,1,.66.17,24.29,24.29,0,0,1-.31,5.06.35.35,0,0,0,.58.33c4-3.47,3.67-9.35,3.12-12.48a.36.36,0,0,1,.21-.39C467.27,535.86,468.22,534.08,468.22,531.49Z"/><polygon class="cls-38" points="485.93 606.43 484.7 605.64 484.7 500.54 485.93 501.34 485.93 606.43"/><path class="cls-14" d="M456.61,530s.84,12.2-2.42,16.44c5.25-1.86,5.46-4.73,5.46-4.73s.63,2.28-.28,7.38c6.66-4.68,3.38-15.19,3.38-15.19Z"/><ellipse class="cls-18" cx="458.87" cy="526.53" rx="5.88" ry="10.23" transform="translate(-189.98 268.1) rotate(-27.21)"/><ellipse class="cls-2" cx="322.11" cy="557.41" rx="26.68" ry="13.68" transform="translate(-88.13 61.26) rotate(-9.56)"/><ellipse class="cls-2" cx="373.82" cy="587.98" rx="29.23" ry="15.92" transform="translate(-92.21 70.03) rotate(-9.53)"/><ellipse class="cls-12" cx="336.33" cy="535" rx="3.09" ry="9.42" transform="translate(-283.98 655.67) rotate(-68.85)"/><path class="cls-4" d="M328.7,528.5c-2.12,7.32-3.69,11.13-3.69,11.13s4.69,6.39,6.53,7.61c3.6,2.4,7.66-6.22,7.66-6.22V538.5l5.09-11.1S330.82,521.19,328.7,528.5Z"/><ellipse class="cls-12" cx="382.24" cy="560.55" rx="3.1" ry="9.69" transform="translate(-253.57 797.34) rotate(-76.14)"/><polygon class="cls-4" points="373.23 556.16 371.55 566.77 373.75 573.9 385.87 574.42 387.26 567.64 387.26 564.75 391.21 543.47 373.23 556.16"/><path class="cls-36" d="M445.46,417.83l-21.56-.53,0,2.3L360,425.51s-7.3,1.38-10.66,10.88S334.31,490,327.61,531.48c.79-1.42,5-1.2,9.64.57,4.86,1.84,8.39,4.65,7.88,6.29l-.06.13,0,0c8.75-25.79,26.09-59.88,27.24-80.79,15.15-.7,59.6-.23,71.21-14.61S445.46,417.83,445.46,417.83Z"/><path class="cls-11" d="M465.84,423.17l-22.29,3.08-.44,6.83L393,443s-5.73,2.79-7.54,8.67c-4.82,14.24-13.11,106.63-13.11,106.63h0s0,0,0,0c.39-1.66,4.92-2,10.11-.7,5,1.24,8.83,3.51,8.71,5.16,4.54-36.18,19-54.41,22.14-88.24,44.24,3.74,55.92-11.73,55.92-24.75A125.4,125.4,0,0,0,465.84,423.17Z"/><ellipse class="cls-44" cx="348.43" cy="358.78" rx="3.23" ry="6.89"/><path class="cls-45" d="M362.45,357.28l-16.79-5.19-27.28-9.27s-.14,3.34,7.52,5.92a35.05,35.05,0,0,0,2.83,8.05l13,1.49L356,364.41l3.73-5.23Z"/><path class="cls-46" d="M393.88,366.22l-44.67-14.1c1.39.76,2.42,3.45,2.42,6.66,0,3.81-1.44,6.89-3.23,6.89l-.19,0h0s8.24,1.3,11.89,2.23,19.64,11.35,32.8,12.22a179.49,179.49,0,0,0,37.61,12.69L436,367.47Z"/><path class="cls-47" d="M452.62,372c-11.07-3.71-20.22-7.13-24.45-1.74a20,20,0,0,0-4.31,11s.25,26.7,0,29.46-2.08,3.12-1.28,6.11,17.62,13.93,29.67,15.29a14.94,14.94,0,0,0,15.34-7.76v-26.7l6-11S461.78,375.54,452.62,372Z"/><path class="cls-2" d="M444.22,436.72,413.69,419v2.6H402.4v-3.5l-15.08,8.82a1.77,1.77,0,0,0,0,3.07l35.87,20.79a1.78,1.78,0,0,0,1.77,0l19.25-11A1.78,1.78,0,0,0,444.22,436.72Z"/><polygon class="cls-48" points="404.54 440.7 424.46 455.66 449.26 439.58 469.01 443.3 468.03 434.57 445.11 432.57 407.84 436.39 390.18 425.11 379.43 427.44 401.83 441.24 404.54 440.7"/><polygon class="cls-15" points="425.03 447.9 445.67 436.12 409.81 415.32 389.4 427.25 425.03 447.9"/><polygon class="cls-49" points="423.78 431.72 429.43 428.5 420.4 423.17 415.04 426.31 423.78 431.72"/><polygon class="cls-49" points="422.7 445.22 434.1 438.7 406.04 422.01 394.79 428.63 422.7 445.22"/><path class="cls-8" d="M445.67,436.12a6.61,6.61,0,0,1-2.73,2.47c-2.16,1.24-15.56,8.67-15.56,8.67a3.1,3.1,0,0,1-2.4.73C423.71,447.72,445.67,436.12,445.67,436.12Z"/><path class="cls-50" d="M433,422.7s-5.24-.68-6.25-.06-2.91,3.81-2.91,3.81l.71,3.77Z"/><ellipse class="cls-44" cx="441.53" cy="429.14" rx="2.73" ry="7.24"/><path class="cls-45" d="M421.05,440s3.07-13.63,6.81-16.72c5.89-1.83,19.45.26,19.45.26l2.93,9.16-11.4-2.94-1.23,5.58-7.22,1.76-3.72-4.16S423.16,440.53,421.05,440Z"/><path class="cls-46" d="M478.63,391.33c-4.05-7.25-10.8-7-14.66-5.25s-6.75,5.74-5.45,13.27,15.18,25.13,15.18,25.13l-32.17-2.58c1.51,0,2.74,3.24,2.74,7.24,0,3.72-1.06,6.77-2.42,7.19l6.85-1.15s33.84,10.94,43.77,1.63C497.73,418.38,478.63,391.33,478.63,391.33Z"/><path class="cls-8" d="M423.9,448.42l1.08-.54-5.54-22.08c-.32-1.51-.67-2.46-1.76-3.11l-33.86-20.1-.9.72Z"/><path class="cls-15" d="M423.9,448.42l-35.45-20.36-5.53-24.75,34.21,20.12a2.87,2.87,0,0,1,1.24,2.17Z"/><ellipse class="cls-8" cx="402.45" cy="425.87" rx="2.18" ry="3.77" transform="translate(-116.99 154.74) rotate(-19.06)"/><path class="cls-7" d="M354.34,595.32s-.5-3.71.23-5.06,9.27-11.32,10.32-13.64,4.59-10.7,5.91-10.74,6.41,2.82,6.41,2.82,2.9,4.37,6.22,2.63a7.16,7.16,0,0,0,3.59-5.45s2.79.47,2.79,2.2.34,13.33.34,13.33-16.38,16.31-18.93,17.77S361.45,602.24,354.34,595.32Z"/><path class="cls-12" d="M371.19,596.52c-2.58,1.49-9.81,3.09-17-3.6a24,24,0,0,0,.17,2.4c7.11,6.92,14.33,5.33,16.88,3.86s18.93-17.77,18.93-17.77,0-1.06-.07-2.58C386.94,581.93,373.51,595.19,371.19,596.52Z"/><path class="cls-7" d="M303.21,561.23S302.15,556,305,553.1s14.35-8.75,14.43-8.75,3.22-6.19,4.72-6.45c.77-.14,3.36,1.84,3.36,1.84s2.87,4.61,6,4.28c5.3-.55,5.72-3.49,5.72-3.49s1.89.05,2,.9c.08.62,0,7.52,0,11.3a3.36,3.36,0,0,1-2.36,3.18l-28.16,8.7S304.93,565.79,303.21,561.23Z"/><path class="cls-12" d="M310.5,562.61s-5.59,1.15-7.48-3.14a11.74,11.74,0,0,0,.19,1.76c1.72,4.56,7.48,3.38,7.48,3.38l29.07-9a2,2,0,0,0,1.44-1.94v-.57Z"/><path class="cls-9" d="M454.06,365.23s-.87,6.42-.87,9.69c0,1.66-1.32,3.33-3.4,4.23s-7.66.86-7.66-1.75l.12-5.34Z"/><path class="cls-4" d="M436,361.23c0-.83-.57-1.46-.51-2.9,0-.83.4-2.88.7-4.46.42-.62.69-1.36,1.08-2l13.05,1.07,2.88,9.23-.89,4.52s-3.12,8.84-12.23,8.46c-4.6-.19-4.84-8.65-4.78-10.51S436,362.06,436,361.23Z"/><path class="cls-12" d="M439.73,371.48a2.4,2.4,0,0,1-1.58-.71.25.25,0,0,1,0-.36.27.27,0,0,1,.37,0,1.84,1.84,0,0,0,1.28.54,1.91,1.91,0,0,0,1.38-.89.25.25,0,0,1,.36-.05.27.27,0,0,1,.05.36,2.47,2.47,0,0,1-1.77,1.1Z"/><path class="cls-12" d="M435,360.14a.23.23,0,0,1-.14,0,.26.26,0,0,1-.07-.36,2.86,2.86,0,0,1,3.42-.85.26.26,0,0,1,.15.33.27.27,0,0,1-.34.15,2.32,2.32,0,0,0-2.8.66A.27.27,0,0,1,435,360.14Z"/><path class="cls-12" d="M444,363.56a.25.25,0,0,1-.25-.24,2.44,2.44,0,0,0-2.55-2.18.26.26,0,0,1-.26-.26.26.26,0,0,1,.26-.26h0a3,3,0,0,1,3.06,2.66.25.25,0,0,1-.24.27Z"/><path class="cls-12" d="M437.74,362.28a.89.89,0,0,1-.71,1c-.41,0-.77-.41-.79-1s.29-1,.71-1S437.72,361.74,437.74,362.28Z"/><path class="cls-12" d="M441.87,364.5a.78.78,0,1,1-1.5.06.88.88,0,0,1,.71-1C441.49,363.53,441.85,364,441.87,364.5Z"/><path class="cls-12" d="M438.34,367.87h-.07A1.65,1.65,0,0,1,437,367c-.23-.63.21-1.31.61-1.91a3.47,3.47,0,0,0,.37-.63.26.26,0,0,1,.34-.15.25.25,0,0,1,.14.33,4.06,4.06,0,0,1-.42.73c-.31.48-.7,1.06-.56,1.45.09.24.39.43.9.58a.25.25,0,0,1-.07.5Z"/><path class="cls-4" d="M436,355c-.05,1.54,1-1.24,1-1.25,1.48,3.72,6.91,5.42,9.87,7.43,1.44,1,3.93,3.82,6,3.45a1.84,1.84,0,0,0,.84-.49l0,.34s0,0,0,0l.14-.5c.38-.43,3-7.17,2.46-10.36-.52-2.88-2.92-5-5.57-5.95-3.17-1.16-7.72-1.26-10.67.52A7.67,7.67,0,0,0,436,355Z"/><path class="cls-51" d="M435.29,358.26c.11.09.23.06.25-.07.06-.67.18-1.34.29-2,1.15-2,5.39-.19,6.56.55s2,1.95,3.14,2.75c1.58,1.08,3.13.67,4.58-.2-.63,1-.41,2.69-.32,3.69.12,1.38.47,3.07,1.65,3.93.11.08.23,0,.24-.14a.43.43,0,0,0,0,0,.93.93,0,0,0,.95-.08c.65-.35.91-1.32,1.27-1.89a37.54,37.54,0,0,1,2.79-3.5c1.39-1.7,2.83-4.12,2.29-6.43a2.68,2.68,0,0,0-2-2.18,4.15,4.15,0,0,0,.82-5.3c-1.27-1.73-4.27-1.62-6-1.16a9.24,9.24,0,0,1-5.84-.41c-5.06-1.69-6.6-1.58-8.5-.69-2.55,1.19-2.51,4.26-1.92,6.46C434.43,352.14,432.18,355.72,435.29,358.26Z"/><path class="cls-4" d="M454.2,363.4c1.28.8.57,4.68-1.74,4.7-.8,0-.92-1.26-.92-1.26S452.31,362.51,454.2,363.4Z"/><path class="cls-2" d="M170.13,767.69S159.18,760,159,752.58s-.1-15.36-.1-15.36S152.38,733,139,729.35,95.08,709.76,67.8,692.6c-36.24-22.81-10.64-22.33-2.76-20s126.18,30.15,126.18,30.15l34.87,25.75s9.65,4.53,4.15,6.35-18.61-1.63-22.4-4.14c-4.77,5.66-23.13,14-23.13,14l5.63,21.93s13.94,1.35,13.94,4.16-13.36,2-18.79,1.21A56.5,56.5,0,0,1,170.13,767.69Z"/><g class="cls-52"><path class="cls-40" d="M256.13,734.47l28.29,12.87s3.67,2,.72,4.91c-3.2,3.17-37.16,32.59-37.16,32.59s-2.23,2.94-7.62.76-28.7-14.21-28.7-14.21-4.07-1.93,1.14-5.4,37.5-31.34,37.5-31.34S253.43,733.25,256.13,734.47Z"/></g><path class="cls-8" d="M211.89,767.53l.13.66c.1,1.1,1.24,2.1,2.7,2.73,5.76,2.49,21,10.77,24,12.15a7.21,7.21,0,0,0,7.5-.58c4.33-3,37.09-31.3,37.79-31.84a2.54,2.54,0,0,0,1-2.36l-15.79,1.61Z"/><path class="cls-15" d="M256.85,733.3l26.32,12.23s3.7,2.26.52,4.67-37.12,30.4-37.12,30.4-2.19,2.78-7.22.71-26.75-12.57-26.75-12.57-2.75-2.17,2.28-5.46,36.45-29.82,36.45-29.82S254.33,732.13,256.85,733.3Z"/><path class="cls-49" d="M244.6,743.46l9.16,4.26s1.29.79.18,1.63S241,759.92,241,759.92s-.77,1-2.52.25-9.3-4.37-9.3-4.37-1-.76.79-1.91,12.68-10.37,12.68-10.37A2.66,2.66,0,0,1,244.6,743.46Z"/><polygon class="cls-16" points="238.05 781.26 239.81 782 240 782.99 238.23 782.24 238.05 781.26"/><polygon class="cls-16" points="237.16 780.87 237.34 781.84 235.8 781.15 235.62 780.21 237.16 780.87"/><polygon class="cls-53" points="253.24 775.66 253.32 776.08 247.09 781.29 246.99 780.79 253.24 775.66"/><polygon class="cls-53" points="282.15 751.61 282.23 752.03 276 757.24 275.9 756.74 282.15 751.61"/><path class="cls-16" d="M264.3,743.37l-1.94,1.6c-.05,0,0,.1,0,.13l2.21,1a.2.2,0,0,0,.21,0l1.94-1.59c.05,0,0-.1,0-.13l-2.2-1A.24.24,0,0,0,264.3,743.37Z"/><path class="cls-16" d="M261.6,745.6l-2.53,2.08c-.05,0,0,.1,0,.13l2.2,1a.24.24,0,0,0,.22,0l2.53-2.09c.05,0,0-.1,0-.13l-2.2-1A.22.22,0,0,0,261.6,745.6Z"/><path class="cls-16" d="M279.25,750.82l1.59-1.31c.06,0,0-.1,0-.13l-1.09-.49a.22.22,0,0,0-.21,0l-1.59,1.31c-.05,0,0,.1,0,.13l1.08.49A.22.22,0,0,0,279.25,750.82Z"/><path class="cls-16" d="M267.54,740.7l-2.47,2a.08.08,0,0,0,0,.14l2.2,1a.21.21,0,0,0,.22,0l2.47-2c.05,0,0-.1,0-.13l-2.21-1A.22.22,0,0,0,267.54,740.7Z"/><path class="cls-16" d="M277.3,749.77a.22.22,0,0,0,.21,0l1.38-1.14c.05,0,0-.1,0-.13l-1.81-.82a.22.22,0,0,0-.21,0l-1.39,1.14c-.05,0,0,.1,0,.13Z"/><path class="cls-16" d="M242.06,761.71l-1.94,1.59c-.05.05,0,.1,0,.14l2.21,1a.22.22,0,0,0,.21,0l1.94-1.6c.05,0,0-.1,0-.13l-2.2-1A.22.22,0,0,0,242.06,761.71Z"/><path class="cls-16" d="M252.81,756.93l-1.38,1.13c-.05.05,0,.1,0,.14l1.81.82a.24.24,0,0,0,.22,0l1.38-1.14c0-.05,0-.1,0-.13L253,756.9A.22.22,0,0,0,252.81,756.93Z"/><path class="cls-16" d="M277,752.69l1.59-1.31c.05,0,0-.1,0-.13l-1.08-.49a.22.22,0,0,0-.21,0l-1.6,1.32s0,.1,0,.13l1.08.49A.22.22,0,0,0,277,752.69Z"/><path class="cls-16" d="M247.15,761.75l1.81.82a.22.22,0,0,0,.21,0l1.39-1.14c.05,0,0-.1,0-.13l-1.82-.82a.22.22,0,0,0-.21,0l-1.38,1.14C247.07,761.66,247.08,761.72,247.15,761.75Z"/><path class="cls-16" d="M263.86,748a.22.22,0,0,0-.21,0l-1.38,1.14s0,.1,0,.13l1.81.82a.22.22,0,0,0,.21,0l1.39-1.14c.05,0,0-.1,0-.13Z"/><path class="cls-16" d="M274.53,752.2c.05,0,0-.1,0-.13l-1.81-.82a.22.22,0,0,0-.21,0l-1.39,1.14s0,.1,0,.13l1.82.82a.22.22,0,0,0,.21,0Z"/><path class="cls-16" d="M254.53,771.2l1.6-1.31c.05,0,0-.1,0-.13l-1.08-.49a.24.24,0,0,0-.22,0l-1.59,1.31c-.05,0,0,.1,0,.13l1.08.49A.22.22,0,0,0,254.53,771.2Z"/><path class="cls-16" d="M260.1,750.91a.08.08,0,0,0,0,.14l1.82.82a.22.22,0,0,0,.21,0l1.38-1.14s0-.1,0-.13l-1.81-.83a.22.22,0,0,0-.22,0Z"/><path class="cls-16" d="M265.74,762l1.59-1.31c.05,0,0-.1,0-.13l-1.08-.49a.24.24,0,0,0-.22,0l-1.59,1.31c-.05,0,0,.1,0,.14l1.08.48A.19.19,0,0,0,265.74,762Z"/><path class="cls-16" d="M256.81,769.33,258.4,768c.05,0,0-.1,0-.13l-1.08-.49a.24.24,0,0,0-.22,0l-1.59,1.32s0,.1,0,.13l1.08.49A.24.24,0,0,0,256.81,769.33Z"/><path class="cls-16" d="M268,760.11l1.59-1.32c.05,0,0-.1,0-.13l-1.08-.49a.22.22,0,0,0-.21,0l-1.6,1.32c-.05,0,0,.1,0,.13l1.08.49A.24.24,0,0,0,268,760.11Z"/><path class="cls-16" d="M263.46,763.84l1.6-1.32c.05,0,0-.1,0-.13L264,761.9a.24.24,0,0,0-.22,0l-1.59,1.32c-.05,0,0,.1,0,.13l1.08.49A.22.22,0,0,0,263.46,763.84Z"/><path class="cls-16" d="M259,767.52l1.59-1.31c.05-.05,0-.1,0-.13l-1.08-.49a.22.22,0,0,0-.21,0l-1.6,1.31c-.05,0,0,.1,0,.13l1.08.49A.24.24,0,0,0,259,767.52Z"/><path class="cls-16" d="M261.25,765.66l1.59-1.31c.05,0,0-.1,0-.13l-1.08-.49a.22.22,0,0,0-.21,0l-1.6,1.31a.08.08,0,0,0,0,.14l1.08.48A.21.21,0,0,0,261.25,765.66Z"/><path class="cls-16" d="M249.26,759.85s0,.1,0,.13l1.82.82a.22.22,0,0,0,.21,0l1.38-1.14c.05,0,0-.1,0-.13l-1.81-.82a.22.22,0,0,0-.21,0Z"/><path class="cls-16" d="M233.6,772.87s0,.1,0,.13l1.81.82a.24.24,0,0,0,.22,0l1.38-1.14c.05,0,0-.1,0-.13l-1.81-.82a.24.24,0,0,0-.22,0Z"/><path class="cls-16" d="M239.69,773.74l-1.81-.82a.24.24,0,0,0-.22,0l-1.38,1.14c-.05,0,0,.1,0,.14l1.81.82a.22.22,0,0,0,.22,0l1.38-1.13A.08.08,0,0,0,239.69,773.74Z"/><path class="cls-16" d="M245.8,778.4l1.42-1.17c.05,0,0-.1,0-.13l-1.08-.49a.24.24,0,0,0-.22,0l-1.42,1.17c-.05,0,0,.1,0,.13l1.08.49A.24.24,0,0,0,245.8,778.4Z"/><path class="cls-16" d="M231.71,770.24l-1.44,1.18a.08.08,0,0,0,0,.14l2.2,1a.21.21,0,0,0,.22,0l1.43-1.18s0-.1,0-.13l-2.2-1A.22.22,0,0,0,231.71,770.24Z"/><path class="cls-16" d="M243.92,774.82s0,.1,0,.13l1.81.82a.24.24,0,0,0,.22,0l1.38-1.14s0-.1,0-.13l-1.82-.82a.22.22,0,0,0-.21,0Z"/><path class="cls-16" d="M242.51,775l-1.81-.82a.24.24,0,0,0-.22,0l-1.38,1.14s0,.1,0,.13l1.81.82a.21.21,0,0,0,.22,0l1.38-1.14C242.59,775.11,242.58,775.05,242.51,775Z"/><path class="cls-16" d="M229.58,772.06l-1.38,1.13s0,.1,0,.13l5,2.28a.22.22,0,0,0,.21,0l1.38-1.14c.06,0,0-.1,0-.13l-5-2.27A.2.2,0,0,0,229.58,772.06Z"/><path class="cls-16" d="M236.93,777.15c-.05,0,0,.1,0,.13l1.82.82a.22.22,0,0,0,.21,0l1.38-1.14s0-.1,0-.13l-1.81-.82a.22.22,0,0,0-.21,0Z"/><path class="cls-16" d="M241.79,776.58c-.06,0,0,.1,0,.13l1.82.82a.22.22,0,0,0,.21,0l1.38-1.14c.05,0,0-.1,0-.13l-1.81-.82a.2.2,0,0,0-.21,0Z"/><path class="cls-16" d="M243.62,780.2,245,779c.06,0,0-.1,0-.13l-1.08-.49a.24.24,0,0,0-.22,0l-1.42,1.17s0,.1,0,.13l1.08.49A.24.24,0,0,0,243.62,780.2Z"/><path class="cls-16" d="M239.62,778.36a.08.08,0,0,0,0,.14l1.82.82a.22.22,0,0,0,.21,0l1.38-1.14s0-.1,0-.13l-1.81-.83a.2.2,0,0,0-.21,0Z"/><path class="cls-16" d="M244.65,773.26l-1.82-.82a.22.22,0,0,0-.21,0l-1.38,1.14c-.05,0,0,.1,0,.13l1.81.82a.22.22,0,0,0,.21,0l1.39-1.14S244.71,773.29,244.65,773.26Z"/><path class="cls-16" d="M235.49,774.73l-1.38,1.14c-.05,0,0,.1,0,.13l1.82.82a.2.2,0,0,0,.21,0l1.38-1.14s0-.1,0-.13l-1.81-.82A.24.24,0,0,0,235.49,774.73Z"/><path class="cls-16" d="M236,766.69l-3.62,3c-.05,0,0,.1,0,.13l2.21,1a.22.22,0,0,0,.21,0l3.62-3a.08.08,0,0,0,0-.14l-2.2-1A.19.19,0,0,0,236,766.69Z"/><path class="cls-2" d="M212.27,768.38a31.37,31.37,0,0,1,12-2.31c6.08.23,14.93,3.24,17.1,3.38a6.05,6.05,0,0,0,6.78-5.41c.78-4.84-2.08-8.38-7.51-8.26s-20.48,8.06-23.71,8.11S210.82,765.93,212.27,768.38Z"/><path class="cls-2" d="M263.5,741s2.47,3.07.25,5.41a16.57,16.57,0,0,1-4.33,2.81c-1,.46-2.05,4.47-3.07,4.82-1.25.42-2.42-2.86-3.53-2.76a4.76,4.76,0,0,1-2.9-.45c-3-1.85-.93-8.66-2.83-11.18S245.9,738,245.9,738s5-5.08,7.09-5.06S263.5,741,263.5,741Z"/><path class="cls-16" d="M249.58,772.78s0-.1,0-.13l-1.82-.82a.22.22,0,0,0-.21,0L246.14,773s0,.1,0,.13l1.81.82a.22.22,0,0,0,.21,0Z"/><path class="cls-16" d="M250.15,774.82l1.47-1.22s0-.1,0-.13l-1.08-.49a.22.22,0,0,0-.21,0l-1.48,1.22s0,.1,0,.13l1.08.49A.24.24,0,0,0,250.15,774.82Z"/><path class="cls-16" d="M247.93,776.64l1.48-1.21a.08.08,0,0,0,0-.14l-1.08-.49a.22.22,0,0,0-.22,0L246.61,776c-.05,0,0,.1,0,.13l1.08.49A.22.22,0,0,0,247.93,776.64Z"/><path class="cls-16" d="M237.12,770l-1.39,1.14s0,.1,0,.13l1.82.82a.22.22,0,0,0,.21,0l1.38-1.14c.05,0,0-.1,0-.13l-1.81-.82A.22.22,0,0,0,237.12,770Z"/><path class="cls-16" d="M243.48,771.9l1.82.82a.2.2,0,0,0,.21,0l1.38-1.14c.05,0,0-.1,0-.13l-1.81-.82a.22.22,0,0,0-.21,0l-1.38,1.14A.07.07,0,0,0,243.48,771.9Z"/><path class="cls-16" d="M241.82,772l-1.81-.83a.22.22,0,0,0-.21,0l-1.38,1.14s0,.1,0,.13l1.81.83a.22.22,0,0,0,.21,0l1.38-1.14C241.9,772.08,241.89,772,241.82,772Z"/><path class="cls-16" d="M240.66,770.63l1.82.82a.22.22,0,0,0,.21,0l1.38-1.14c.05,0,0-.1,0-.13l-1.81-.83a.22.22,0,0,0-.21,0l-1.38,1.14C240.58,770.54,240.6,770.59,240.66,770.63Z"/><path class="cls-16" d="M239.33,768.14,238,769.28s0,.1,0,.13l1.82.82a.22.22,0,0,0,.21,0l1.38-1.14c.05,0,0-.1,0-.13l-1.81-.82A.24.24,0,0,0,239.33,768.14Z"/><path class="cls-16" d="M270.74,742.15l-4.11,3.38a.08.08,0,0,0,0,.14l1.81.82a.22.22,0,0,0,.21,0l4.11-3.39s0-.1,0-.13l-1.81-.82A.22.22,0,0,0,270.74,742.15Z"/><path class="cls-16" d="M265.84,746.18l-1.38,1.14s0,.1,0,.13l1.81.82a.24.24,0,0,0,.22,0l1.38-1.14c.05,0,0-.1,0-.13l-1.81-.82A.24.24,0,0,0,265.84,746.18Z"/><path class="cls-16" d="M275.88,747.6l2.45-2c.05-.05,0-.1,0-.14l-1.82-.82a.22.22,0,0,0-.21,0l-2.45,2c-.05.05,0,.1,0,.13l1.81.83A.22.22,0,0,0,275.88,747.6Z"/><path class="cls-16" d="M252.33,760.82,251,762c-.06,0,0,.1,0,.13l1.82.82a.18.18,0,0,0,.21,0l1.38-1.14c.05,0,0-.1,0-.13l-1.81-.82A.22.22,0,0,0,252.33,760.82Z"/><path class="cls-16" d="M265.31,750.12l-1.38,1.14c-.05,0,0,.1,0,.13l1.81.82a.24.24,0,0,0,.22,0l1.38-1.14c.05,0,0-.1,0-.13l-1.81-.82A.24.24,0,0,0,265.31,750.12Z"/><path class="cls-16" d="M273.71,749.39l1.38-1.14a.07.07,0,0,0,0-.13l-1.82-.82a.22.22,0,0,0-.21,0l-1.38,1.14a.07.07,0,0,0,0,.13l1.82.82A.22.22,0,0,0,273.71,749.39Z"/><path class="cls-16" d="M260.17,764.05l1.38-1.14c.05,0,0-.1,0-.13l-1.81-.83a.22.22,0,0,0-.22,0l-1.38,1.13a.08.08,0,0,0,0,.14l1.81.82A.24.24,0,0,0,260.17,764.05Z"/><path class="cls-16" d="M258,765.86l1.38-1.14c.06,0,0-.1,0-.13l-1.81-.83a.2.2,0,0,0-.21,0l-1.38,1.13a.08.08,0,0,0,0,.14l1.81.82A.22.22,0,0,0,258,765.86Z"/><path class="cls-16" d="M255.8,767.65l1.38-1.14c.05,0,0-.1,0-.13l-1.81-.82a.24.24,0,0,0-.22,0l-1.38,1.14c-.05,0,0,.1,0,.13l1.81.82A.24.24,0,0,0,255.8,767.65Z"/><path class="cls-16" d="M272.39,754c.05,0,0-.1,0-.13l-1.82-.82a.22.22,0,0,0-.21,0L269,754.18c-.05,0,0,.1,0,.13l1.81.82a.24.24,0,0,0,.22,0Z"/><path class="cls-16" d="M253.66,769.41l1.38-1.14c.05,0,0-.1,0-.13l-1.81-.82a.22.22,0,0,0-.21,0l-1.38,1.14a.07.07,0,0,0,0,.13l1.82.82A.22.22,0,0,0,253.66,769.41Z"/><path class="cls-16" d="M264.48,760.49l1.38-1.14c.05,0,0-.1,0-.13L264,758.4a.24.24,0,0,0-.22,0l-1.38,1.14c-.05,0,0,.1,0,.13l1.82.82A.22.22,0,0,0,264.48,760.49Z"/><path class="cls-16" d="M262.33,762.26l1.38-1.14c.06,0,0-.1,0-.13l-1.82-.82a.22.22,0,0,0-.21,0l-1.38,1.14s0,.1,0,.13l1.81.82A.22.22,0,0,0,262.33,762.26Z"/><path class="cls-16" d="M246.33,762.27,245,763.41s0,.1,0,.13l1.82.82a.22.22,0,0,0,.21,0l1.38-1.14c.05,0,0-.1,0-.13l-1.81-.83A.22.22,0,0,0,246.33,762.27Z"/><path class="cls-16" d="M245.3,759l-2.47,2c-.05,0,0,.1,0,.13l2.2,1a.24.24,0,0,0,.22,0l2.46-2c.06,0,0-.1,0-.13l-2.21-1A.2.2,0,0,0,245.3,759Z"/><path class="cls-16" d="M258.38,748.26l-12.33,10.16c-.05,0,0,.1,0,.13l2.2,1a.22.22,0,0,0,.22,0l12.32-10.16c.05,0,0-.1,0-.13l-2.2-1A.2.2,0,0,0,258.38,748.26Z"/><path class="cls-16" d="M281.06,746.82c.05,0,0-.1,0-.13l-1.81-.82a.24.24,0,0,0-.22,0L277.62,747c-.05,0,0,.1,0,.13l1.81.82a.24.24,0,0,0,.22,0Z"/><path class="cls-16" d="M281.5,749l1.6-1.31s0-.1,0-.13L282,747a.24.24,0,0,0-.22,0l-1.59,1.31a.08.08,0,0,0,0,.14l1.08.49A.2.2,0,0,0,281.5,749Z"/><path class="cls-16" d="M252.28,773.06l1.59-1.32c.06,0,0-.1,0-.13l-1.08-.49a.24.24,0,0,0-.22,0L251,772.46c-.05,0,0,.1,0,.13l1.08.49A.22.22,0,0,0,252.28,773.06Z"/><path class="cls-16" d="M239.36,763.93,236.83,766c-.05,0,0,.1,0,.13l2.2,1a.24.24,0,0,0,.22,0l2.53-2.09c.05,0,0-.1,0-.13l-2.2-1A.24.24,0,0,0,239.36,763.93Z"/><path class="cls-16" d="M272.51,756.38l1.59-1.32c.06,0,0-.1,0-.13l-1.08-.49a.24.24,0,0,0-.22,0l-1.59,1.32c-.05,0,0,.1,0,.13l1.08.49A.22.22,0,0,0,272.51,756.38Z"/><path class="cls-16" d="M270.22,755.76s0-.1,0-.13l-1.81-.82a.22.22,0,0,0-.22,0L266.78,756s0,.1,0,.13l1.82.82a.22.22,0,0,0,.21,0Z"/><path class="cls-16" d="M270.26,758.23l1.59-1.31s0-.1,0-.13l-1.08-.49a.22.22,0,0,0-.21,0l-1.59,1.31c-.05,0,0,.1,0,.13l1.08.49A.2.2,0,0,0,270.26,758.23Z"/><path class="cls-16" d="M276.7,750.42c.05,0,0-.1,0-.13l-1.82-.82a.2.2,0,0,0-.21,0l-1.38,1.14c-.05,0,0,.1,0,.13l1.81.82a.24.24,0,0,0,.22,0Z"/><path class="cls-16" d="M268,757.57c.05,0,0-.1,0-.13l-1.82-.83a.2.2,0,0,0-.21,0l-1.38,1.13a.08.08,0,0,0,0,.14l1.81.82a.24.24,0,0,0,.22,0Z"/><path class="cls-16" d="M274.73,754.55l1.59-1.31c.05,0,0-.1,0-.13l-1.08-.49a.22.22,0,0,0-.21,0L273.4,754s0,.1,0,.13l1.08.49A.24.24,0,0,0,274.73,754.55Z"/><path class="cls-16" d="M244.14,764.08l-4.13,3.4s0,.1,0,.13l1.82.82a.22.22,0,0,0,.21,0l4.13-3.4c.05,0,0-.1,0-.13l-1.82-.83A.2.2,0,0,0,244.14,764.08Z"/><path class="cls-16" d="M266.53,752.68l-1.38,1.14s0,.1,0,.13l1.81.83a.22.22,0,0,0,.22,0l1.38-1.13a.08.08,0,0,0,0-.14l-1.81-.82A.24.24,0,0,0,266.53,752.68Z"/><path class="cls-16" d="M269.14,753a.2.2,0,0,0,.21,0l1.38-1.13a.08.08,0,0,0,0-.14l-1.82-.82a.22.22,0,0,0-.21,0l-1.38,1.14a.07.07,0,0,0,0,.13Z"/><path class="cls-16" d="M252,767.28l1.38-1.13a.08.08,0,0,0,0-.14l-1.81-.82a.24.24,0,0,0-.22,0L250,766.35s0,.1,0,.13l1.81.83A.22.22,0,0,0,252,767.28Z"/><path class="cls-16" d="M255,755.14l-1.38,1.14s0,.1,0,.13l1.81.82a.22.22,0,0,0,.21,0l1.38-1.14c.06,0,0-.1,0-.13l-1.82-.82A.22.22,0,0,0,255,755.14Z"/><path class="cls-16" d="M250.16,762.61l-1.38,1.14c-.05,0,0,.1,0,.13l1.81.82a.24.24,0,0,0,.22,0l1.38-1.14c.05,0,0-.1,0-.13l-1.81-.82A.24.24,0,0,0,250.16,762.61Z"/><path class="cls-16" d="M248,764.42l-1.38,1.14c-.06,0,0,.1,0,.13l1.82.82a.22.22,0,0,0,.21,0l1.38-1.14s0-.1,0-.13l-1.81-.82A.22.22,0,0,0,248,764.42Z"/><path class="cls-16" d="M249.84,769.07l1.38-1.14a.07.07,0,0,0,0-.13l-1.82-.82a.22.22,0,0,0-.21,0l-1.38,1.14s0,.1,0,.13l1.81.82A.22.22,0,0,0,249.84,769.07Z"/><path class="cls-16" d="M271.52,751.2l1.38-1.14c.05,0,0-.1,0-.13l-1.81-.82a.24.24,0,0,0-.22,0l-1.38,1.14s0,.1,0,.13l1.81.82A.24.24,0,0,0,271.52,751.2Z"/><path class="cls-16" d="M267.48,748.33l-1.39,1.14s0,.1,0,.13l1.82.82a.2.2,0,0,0,.21,0l1.38-1.14c.05,0,0-.1,0-.13l-1.81-.82A.22.22,0,0,0,267.48,748.33Z"/><path class="cls-16" d="M259.34,751.55,258,752.68c0,.05,0,.1,0,.14l1.81.82a.22.22,0,0,0,.21,0l1.38-1.14c.06,0,0-.1,0-.13l-1.82-.83A.2.2,0,0,0,259.34,751.55Z"/><path class="cls-16" d="M273.48,743.38l-3,2.5c-.06,0,0,.1,0,.13l1.82.82a.22.22,0,0,0,.21,0l3-2.5s0-.1,0-.13l-1.81-.82A.24.24,0,0,0,273.48,743.38Z"/><path class="cls-16" d="M257.17,753.33l-1.38,1.14s0,.1,0,.13l1.81.82a.24.24,0,0,0,.22,0l1.38-1.14s0-.1,0-.13l-1.81-.82A.24.24,0,0,0,257.17,753.33Z"/><path class="cls-16" d="M269.67,746.52l-1.38,1.14c-.05,0,0,.1,0,.13l1.81.82a.2.2,0,0,0,.22,0l1.38-1.14s0-.1,0-.13l-1.82-.82A.22.22,0,0,0,269.67,746.52Z"/><path class="cls-16" d="M253.53,763.41l-1.38,1.13c-.05.05,0,.1,0,.13l1.81.83a.2.2,0,0,0,.21,0l1.38-1.13a.07.07,0,0,0,0-.13l-1.82-.83A.2.2,0,0,0,253.53,763.41Z"/><path class="cls-16" d="M261,753.67l-1.38,1.14c-.05,0,0,.1,0,.13l1.81.82a.22.22,0,0,0,.21,0l1.39-1.14c.05,0,0-.1,0-.13l-1.82-.82A.22.22,0,0,0,261,753.67Z"/><path class="cls-16" d="M256.64,757.27l-1.38,1.14s0,.1,0,.13l1.81.82a.22.22,0,0,0,.21,0l1.39-1.14c.05,0,0-.1,0-.13l-1.82-.82A.22.22,0,0,0,256.64,757.27Z"/><path class="cls-16" d="M258.8,755.48l-1.38,1.14c-.05,0,0,.1,0,.13l1.82.82a.22.22,0,0,0,.21,0l1.38-1.14c.05,0,0-.1,0-.13l-1.81-.82A.24.24,0,0,0,258.8,755.48Z"/><path class="cls-16" d="M254.47,759.05l-1.38,1.14c-.05,0,0,.1,0,.13l1.81.82a.19.19,0,0,0,.22,0l1.38-1.13a.08.08,0,0,0,0-.14l-1.81-.82A.24.24,0,0,0,254.47,759.05Z"/><path class="cls-16" d="M242.78,768.69c-.05,0,0,.1,0,.13l1.81.83a.22.22,0,0,0,.22,0l3-2.49s0-.1,0-.13l-1.81-.82a.24.24,0,0,0-.22,0Z"/><path class="cls-16" d="M245.64,769.91s0,.1,0,.13l1.81.82a.22.22,0,0,0,.21,0l1.38-1.14a.07.07,0,0,0,0-.13l-1.82-.82a.22.22,0,0,0-.21,0Z"/><path class="cls-16" d="M262.85,758.35l1.38-1.14s0-.1,0-.13l-1.81-.82a.24.24,0,0,0-.22,0l-1.38,1.14c-.05,0,0,.1,0,.13l1.81.82A.24.24,0,0,0,262.85,758.35Z"/><path class="cls-16" d="M260.68,760.13l1.38-1.14c.05,0,0-.1,0-.13l-1.81-.82a.22.22,0,0,0-.21,0l-1.38,1.14a.07.07,0,0,0,0,.13l1.82.83A.23.23,0,0,0,260.68,760.13Z"/><path class="cls-16" d="M263.16,751.89,261.78,753s0,.1,0,.13l1.82.82a.22.22,0,0,0,.21,0l1.38-1.14s0-.1,0-.13l-1.81-.82A.22.22,0,0,0,263.16,751.89Z"/><path class="cls-16" d="M265,756.54l1.38-1.14c.05,0,0-.1,0-.13l-1.81-.82a.22.22,0,0,0-.21,0L263,755.61c-.06,0,0,.1,0,.13l1.82.82A.22.22,0,0,0,265,756.54Z"/><path class="cls-16" d="M258.51,761.92l1.38-1.14c.06,0,0-.1,0-.13l-1.82-.82a.22.22,0,0,0-.21,0L256.46,761s0,.1,0,.13l1.81.82A.22.22,0,0,0,258.51,761.92Z"/><path class="cls-16" d="M250.35,772.14,253,770c.06,0,0-.1,0-.13l-1.81-.83a.22.22,0,0,0-.21,0l-2.61,2.16c-.05,0,0,.1,0,.13l1.81.82A.22.22,0,0,0,250.35,772.14Z"/><path class="cls-16" d="M255.69,761.62l-1.38,1.14c-.05,0,0,.1,0,.13l1.81.82a.24.24,0,0,0,.22,0l1.38-1.14c.05,0,0-.1,0-.13l-1.81-.82A.24.24,0,0,0,255.69,761.62Z"/><path class="cls-8" d="M296.27,728l-1.82-1.07s-35.23,31.51-35.56,31.69-13.32,22.58-13.32,22.58l2.12,2,12.85-23.57Z"/><polygon class="cls-15" points="296.27 728.01 285.58 749.99 247.69 783.21 260.61 759.3 296.27 728.01"/><path class="cls-8" d="M271,754.83c-1,2.7-.53,4.63,1.14,4.31s3.85-2.76,4.89-5.46.54-4.63-1.13-4.32S272,752.13,271,754.83Z"/><ellipse class="cls-54" cx="119.32" cy="586.27" rx="5.28" ry="11.82" transform="translate(-451.13 405.89) rotate(-60.95)"/><ellipse class="cls-54" cx="89.24" cy="578.13" rx="11.82" ry="5.28" transform="translate(-159.61 48.72) rotate(-16.4)"/><path class="cls-9" d="M120.79,534.85s-9.43,1.75-6.5,13,4.76,12.21,5.43,18.45-10.36,20.51-10.36,20.51,4.61,6.21,12,8.16c3.55-5.07,8.69-14.3,11-16.46s8-8.46,8-8.46l-11-17.34Z"/><path class="cls-11" d="M117.35,557.64a43.85,43.85,0,0,1,4.43,1c2.54,1,3.25,3.8,4.64,5.92,1.74,2.65,3.37,6.09,5.69,8.24a17.41,17.41,0,0,0,3.43,2.39c2.3-2.45,4.7-5.1,4.7-5.1l-11-17.34-8.48-17.89s-9.43,1.75-6.5,13A96,96,0,0,0,117.35,557.64Z"/><path class="cls-36" d="M120.79,534.85c-2.48.71-5.68,4.94-4.68,9.88s9.16,11.54,11.29,15c2.53,4,3.77,13,10.36,11.95,4.36-.69,4.14-7.46,1.28-10.58-2.45-2.68-4.7-4-6-6.48-.87-1.74-1.8-5.92-3.41-9.89C127.43,539.15,124.18,533.88,120.79,534.85Z"/><path class="cls-9" d="M94,554.87c0,4.46-1.1,6.72-.88,10.51s2,16.8,2,16.8S87.3,588.49,81,584.9c-.44-7.39-1.68-17.15-5-20.22-4.78-4.41-21.64-9.93-17-22.55,5,1.13,13.56,6.31,20.49,8.38C87.69,553,94,552.44,94,554.87Z"/><path class="cls-11" d="M67.66,559.19c1.51-.27,2.84-1.27,4.22-1.9,2.56-1.18,4.81-.55,7.28.64,1.68.8,3.23,2,5,2.6a14.27,14.27,0,0,0,5.41.43,18.21,18.21,0,0,0,4-.73,32.52,32.52,0,0,0,.5-5.36c0-2.43-6.33-1.89-14.59-4.36-6.93-2.07-15.45-7.25-20.49-8.38C56,550.19,61.83,555.36,67.66,559.19Z"/><polygon class="cls-55" points="100.66 575.29 100.66 575.29 100.66 575.29 100.66 575.29"/><path class="cls-55" d="M78.92,657.7a.39.39,0,0,0,0-.09A.22.22,0,0,1,78.92,657.7Z"/><path class="cls-36" d="M90.73,583.19c5.08-1.49,9-4.26,9.78-6.74-3.08,24.39,11.38,55.43,4.22,75.35,16.3,8.07,32.44,1.32,49,7.77s20,22.76,20,22.76l-20,10.15S93,667.12,85.93,665c-6-1.79-6.89-6.15-7-7.34,0,0,0-.76-.12-5.83-.21-7.82-.9-70.4-.9-70.4C78.73,584.26,84.47,585,90.73,583.19Z"/><path class="cls-55" d="M78.91,657.61c0-.14,0-.22,0-.22S78.91,657.52,78.91,657.61Z"/><path class="cls-36" d="M93.57,556.55c-1.41,2.62-4.66,3.79-8.36,2.74-2.81-.79-3.72-2.3-5.22-2.89-4.51-1.78-10.15-.7-15-3s-6.47-4.94-6.51-8.7,2.14-4.55,3.3-4.72c1.68-.24,6.54,0,12,3,4.41,2.36,5.24,4,7.5,5.1s5.44.83,8.21,1.73S95.16,553.6,93.57,556.55Z"/><polygon class="cls-56" points="109.36 580.04 109.36 580.03 109.36 580.03 109.36 580.04"/><path class="cls-11" d="M56,653.21c4.11-6.13,48.45-66.51,53-72.67-1.39,2.55,2.08,7.18,7.78,10.34,4.95,2.75,10,3.49,12.12,2-17.9,19.71-22.8,38.9-30.33,51.61A50.33,50.33,0,0,1,86,659.19c11.28,10.06,38.63,7,51.07,10.25,10.42,2.73,14.48,6.61,19.73,15.7s-15.26,37.17-15.26,37.17a172.36,172.36,0,0,1-30.76-11.37c-15.4-7.58-39.74-24.49-51.26-34S51.69,659.67,56,653.21Z"/><ellipse class="cls-57" cx="214.81" cy="758.62" rx="4.28" ry="7.69" transform="translate(-76.12 25.81) rotate(-5.84)"/><path class="cls-9" d="M242.76,752.32,241,749.69a2.05,2.05,0,0,0-1.48-.9l-3-.33a2,2,0,0,0-1.71.63L230.19,754Z"/><path class="cls-4" d="M193.13,767.44s33.53-4,33.42-4h11.22s4.67,1.25,5.1,2.81-1.2,1.78-.76,2.49,5.28,0,4.66-9.82c-1.46-2.37-1.93-2.62-1.93-2.62l3.54,1.46s2.18,4.55,4.44,4.15a47.47,47.47,0,0,0-3.39-6.59s-8.63-4.74-10-4.74-14.54,5.06-14.54,5.06-29.33-.07-38.37-1.16C188.28,760.41,193.13,767.44,193.13,767.44Z"/><ellipse class="cls-57" cx="248.38" cy="732.1" rx="7.69" ry="4.28" transform="translate(-509.31 578.57) rotate(-59.81)"/><path class="cls-4" d="M218.07,727.07l8-11.19,29.11,12.6s10,9.06,6.47,14.1c-.3.28-3.48,3-3.48,3s-1.28,8.5-2.05,8.21-.09-11.16-3.72-11.49c-2.12-.19,2.3,5-1.59,6.34-1.47-4.65-1.57-4.88-1.58-4.89s.14-9.55.14-9.55Z"/><path class="cls-55" d="M244.45,738.7l-.07,0-.07-.06Z"/><path class="cls-47" d="M210.14,695.07c7.93,7.22,17.61,21.15,17.61,21.15l23.65,8.93c-2-.34-4.85,1.6-6.72,4.8s-2.13,6.42-.94,8.08c-1.5-1.67-3.14-4.33-4.22-4.95s-10.17-1-24.16-4.7c-12.45-9-20.57-19.75-21.56-26.82C192.61,693.14,204.48,689.93,210.14,695.07Z"/><path class="cls-46" d="M212.1,701.85C207.66,688,182.16,689.13,179,687.2s-6.49-10.42-6.49-10.42-.29-1.39-2.18-.73-23.4,13.05-29.45,26.6c-2.62,5.88-2.47,19.9.37,21.21.8.37,1.77-.05,4.6.68,9.32,2.42,20.91,11.71,20.91,11.71a41.9,41.9,0,0,0,34.47-7.69C217.51,715.87,212.92,704.42,212.1,701.85Z"/><path class="cls-47" d="M165.09,724.8c3.45-10.84,16.38-9.54,20.33-.24s1,28.11,1,28.11l17.23,2.51,9.21-3.77c-1.66,1.12-2.64,4.18-2.29,7.65.42,4.08,2.54,7.24,4.81,7.22-3.5.76-27.82,5.49-43.89-.5C163.84,756.43,161.65,735.63,165.09,724.8Z"/><path class="cls-55" d="M213.89,751h0Z"/><path class="cls-9" d="M207.11,715.09l-3.4,4.39s-2.09,2.25-5.86-.11-2-5.19-2-5.19l3.63-6.25,5.95-4.79Z"/><path class="cls-4" d="M221.28,704.28a36.06,36.06,0,0,1-.22,3.84c-.2,1-1.26,1.75-1.56,3a19.33,19.33,0,0,1-.68,3.13c-.34.63-3.2,5-6.58,4.66s-7.24-4.37-7.8-8.77,1.8-9,1.8-9Z"/><path class="cls-58" d="M217.47,711.12c-.11.55.07,1.06.41,1.13s.71-.33.82-.88-.07-1.06-.41-1.13S217.59,710.57,217.47,711.12Z"/><path class="cls-58" d="M213.82,711.8c-.11.56.07,1.06.41,1.13s.7-.33.81-.88-.07-1.06-.41-1.12S213.93,711.25,213.82,711.8Z"/><path class="cls-58" d="M219.76,709.44h.06a.14.14,0,0,0,.08-.19,2.55,2.55,0,0,0-2-1.37.15.15,0,0,0,0,.29,2.23,2.23,0,0,1,1.76,1.19A.14.14,0,0,0,219.76,709.44Z"/><path class="cls-58" d="M213.41,709.7a.16.16,0,0,0,.11-.05,5,5,0,0,1,1.91-1.25.15.15,0,0,0-.09-.28,5.31,5.31,0,0,0-2,1.34.13.13,0,0,0,0,.2A.13.13,0,0,0,213.41,709.7Z"/><path class="cls-58" d="M216.29,715.41a.92.92,0,0,0,.77-.27c.27-.34.08-.87-.11-1.42l-.11-.32a.14.14,0,0,0-.18-.09.13.13,0,0,0-.09.18c0,.11.07.21.11.32.15.46.32.93.15,1.15s-.36.18-.76.15a.14.14,0,0,0-.16.13.15.15,0,0,0,.13.16Z"/><path class="cls-58" d="M213.35,717.33a1.59,1.59,0,0,0,1.48-.85.15.15,0,0,0-.08-.19.14.14,0,0,0-.19.08,1.39,1.39,0,0,1-1.45.65,1.27,1.27,0,0,1-1.06-1.29.16.16,0,0,0-.16-.14.15.15,0,0,0-.13.16,1.55,1.55,0,0,0,1.3,1.55Z"/><path class="cls-58" d="M211.48,716a1,1,0,0,0,.61-.19,1,1,0,0,0,.39-.76.15.15,0,1,0-.29,0,.79.79,0,0,1-.27.54,1,1,0,0,1-.89.06.15.15,0,0,0-.18.1.15.15,0,0,0,.11.18A2.06,2.06,0,0,0,211.48,716Z"/><path class="cls-6" d="M209,705s1.89,2.32,8.07,1.3,10.69-4.74,8.45-10.2-6.15-2.89-6.15-2.89-4.77-11.41-18.46-5.57c-10,4.28-.17,16.11-2.79,22.11a3.56,3.56,0,0,0,.48,1.06,2.56,2.56,0,0,0,4.4-.39l1.46-3s2,1.63,2.5,1.44S207.5,705.94,209,705Z"/><path class="cls-4" d="M202.83,707.31c-.33,1.33.26,2.87,1.14,3.14s1.62-.88,2-2.18,0-2.57-.87-2.84S203.24,705.65,202.83,707.31Z"/><path class="cls-7" d="M209.78,688.27s3.63-4,2.44-10.93-6.56-7.12-9.48-5.93-6.87,5.34-4.23,9.94,5,4.44,5.43,6.92a3.71,3.71,0,0,0,3.34,1.94Z"/><path class="cls-17" d="M206.86,689.31a3.94,3.94,0,0,0,2.92-1,1.25,1.25,0,0,1,.32.8c0,1-1.45,1.85-3.24,1.85s-3.24-.83-3.24-1.85a1.2,1.2,0,0,1,.32-.8A3.92,3.92,0,0,0,206.86,689.31Z"/><path class="cls-59" d="M249.2,743.73h0Z"/><path class="cls-2" d="M446.41,816.37s-5-2.58-9.52.62-19.28,16-29.14,6.89,24.84-23,24.84-23l14.6-9.86S432,778,421.76,761.17c-9.11-15,0-19.49,16.12-17s139,41.05,144.82,53.53,27.81,40.73,5.79,39.74-75.26-10.21-75.26-10.21,16.48,11.2,11.91,17S490.68,879.66,479.42,863c-5.12-8.33,7.63-21.65,7.63-21.65l-14.6-22Z"/><path class="cls-6" d="M540,669.58c-1.14-4.69.51-21.6,23.76-18.11,12.65,1.89,15.14,11.11,13.84,19.73s-10.7,20.78-8.8,28.51c-17.51-8.55-19.24-9.2-22.18-10.91.31-8,15.38-17.69,9.19-24.67-4.79-5.38-13.15.51-12.39,5.07C543.73,670.93,540.35,670.93,540,669.58Z"/><path class="cls-9" d="M462.94,791.15l-17.86-3.67s-6.2-3.1-9.22-1.84-8.73,8.2-12.2,10.85-16.35,8.4-15.9,17.74,7.18,10.52,12.6,7.83,13.87-10.72,20.35-13.25,19.78-.25,19.78-.25Z"/><path class="cls-11" d="M423.4,812.33c-2.92-2.94-1.32-6.85.89-9.68,3.13-4,7.45-7.21,11.18-10.64a52.64,52.64,0,0,1,7.3-5.86c-1-.24-2.07-.51-3.21-.81-5.86-1.53-7.49,4-14.93,10s-11.11,7.37-14.43,11c-2.81,3.06-6.23,9.05-1.79,14.2,5.08,5.89,14.6,2.26,22.13-3.7.27-.22.53-.41.8-.61l-.12-.17C428.36,815.19,425.48,814.43,423.4,812.33Z"/><path class="cls-36" d="M410.2,806.28c3.32-3.61,7-5,14.43-11s9.07-11.49,14.93-10l1.5.38v0c-5.55-1.19-7.27,4.22-14.54,10-7.44,6-11.12,7.37-14.44,11-2.81,3.06-6.23,9.05-1.79,14.2a8.33,8.33,0,0,0,3.28,2.35,8.33,8.33,0,0,1-5.16-2.86C404,815.33,407.39,809.34,410.2,806.28Z"/><path class="cls-18" d="M568.39,753.3s21.66,20.52,34,60c3.12,10.91-3.77,16.57-18,16.25s-115.34-14.31-115.34-14.31-17.72-1.2-21.08-2.35S445.5,788.6,460.27,788c4.68-.22,9.9,1.49,14.11,1.86,46.68,4.12,50.41-.72,75.75,2.52C537,775.13,533.92,773.5,533.92,773.5l-6.67-5.17s-5.82-9.61-3.12-24.8C535.25,729.58,568.39,753.3,568.39,753.3Z"/><path class="cls-2" d="M544.93,791.77s-19.75,6.92-30,18.37c-15.18-12-21.32-19.08-21.32-19.08Z"/><path class="cls-60" d="M560,769.13a43.81,43.81,0,0,0-7.43,1.39A73.53,73.53,0,0,0,545,772.6c-2.17.71-4.33,1.46-6.46,2.3a9.3,9.3,0,0,0-.58.87l12.19,16.59s17.7,3.4,28.4,7.46C578.71,787.29,569,774.17,560,769.13Z"/><path class="cls-2" d="M549.18,791.06s30.42-11.33,41.9-5.38c-7.18-13.2-8.26-13.57-8.26-13.57l-37,13.73Z"/><ellipse class="cls-61" cx="499.06" cy="826.7" rx="14.62" ry="11.16" transform="translate(-424.48 544.64) rotate(-41.9)"/><path class="cls-9" d="M500.59,812s13.08,14.63,13.21,14.7S520,833.17,521,836s-29,17.68-29.36,17.88-7.06,7.1-8.08,4.51.27-8.26,6.6-15.26c7-7.75,6.93-11.19,6.93-11.19l-11.48-13.78Z"/><path class="cls-11" d="M505.09,836.65c-2.67,1.77-5.8,3.93-9,4.56a47,47,0,0,1-6,.38c-3.79,4.47-8,10.74-6.83,15.71C494.34,856.42,521,836,521,836a41.9,41.9,0,0,0-4.42-7C512.54,831.08,509.08,834,505.09,836.65Z"/><path class="cls-7" d="M483.26,857.3c-.55-2.44.17-5.2,1.51-7.91a11.52,11.52,0,0,1,.82-.92c4.84-5.05,14.23-4,18.46-7s4.66-6.23,9.18-8.49,6.2.29,6.69,1.27a5.56,5.56,0,0,1,.49,2.19C516.54,839.34,493.4,856.49,483.26,857.3Z"/><path class="cls-36" d="M521,836c.5,1,1.47,4.43-2.11,8.24s-5.23,2.75-7.77,5.37-5.21,7.67-12.43,10.75-12.39,3.24-13.94,1.48-2.92-6.57,1.92-11.61,14.24-4,18.46-7,4.66-6.24,9.19-8.49S520.48,835,521,836Z"/><path class="cls-17" d="M534.76,737.23s-22.07-7.3-70-10.31c-30.4-1.91-41.43,2.78-41.26,12.21s8.22,25.56,21.16,41.82c11.68,14.67,26.93,30.31,31.13,36s8.11,16.81,12.35,19.47c-4-4.6-2.49-12.64,3.49-18,5.42-4.87,12.64-5.87,17-2.64,0-.06,0-.12-.05-.18-12.83-12.93-27.12-44.2-41.42-54.87,26.56,11.25,60.28,7.7,60.28,7.7s-4.67-8-3.31-24.21C524.8,736.4,534.76,737.23,534.76,737.23Z"/><path class="cls-62" d="M466.67,760.28s-8.9-11.26-19.48-17.06c14.85-5.3,59.06,10.07,59.16,10.23s2.57,5.89,2.57,5.89Z"/><path class="cls-43" d="M503.92,730.89l.38.06,11.44,1.88s-10.07,10.18-5.21,28.23c-10.07,3.63-12.14-20.51-12.14-20.51"/><path class="cls-2" d="M488.15,786.85s-24-13.85-28.75-17.72,23-4.8,23-4.8l-2.16,6.39Z"/><path class="cls-8" d="M549.39,786l-1.22.13v.3l-41.5-32.14a.89.89,0,0,0-.89-.13l-33.43,14.16a.63.63,0,0,1,.06-.2l-1.29-.37-.21,1.61s0,.07,0,.11v0h0a.89.89,0,0,0,.35.75l41.68,32.16a.9.9,0,0,0,1,.09l34.79-14.06a.86.86,0,0,0,.48-.73h0Z"/><path class="cls-15" d="M513.15,800.68l-41.68-32.15a.9.9,0,0,1,.21-1.55L506,752.44a.89.89,0,0,1,.89.13l42.15,32.64a.91.91,0,0,1-.15,1.51l-34.79,14A.88.88,0,0,1,513.15,800.68Z"/><path class="cls-49" d="M521.68,779.05l-15.42-11.88a.23.23,0,0,1,.06-.39l9.31-4a.24.24,0,0,1,.23,0l15.53,12a.23.23,0,0,1,0,.38l-9.44,3.85A.23.23,0,0,1,521.68,779.05Z"/><path class="cls-16" d="M495.74,762.52l1.93,1.49a.06.06,0,0,1,0,.11l-1.86.82a.22.22,0,0,1-.19,0l-1.92-1.49c-.05,0-.05-.09,0-.11l1.85-.82A.21.21,0,0,1,495.74,762.52Z"/><path class="cls-16" d="M498.42,764.59l2.51,1.94c.05,0,.05.09,0,.12l-1.85.81a.19.19,0,0,1-.19,0l-2.51-2a.06.06,0,0,1,0-.11l1.85-.81A.19.19,0,0,1,498.42,764.59Z"/><path class="cls-16" d="M483.26,768.65l-1.58-1.23c-.05,0,0-.09,0-.11l.91-.4a.21.21,0,0,1,.2,0l1.57,1.23c.05,0,.05.09,0,.11l-.9.4A.23.23,0,0,1,483.26,768.65Z"/><path class="cls-16" d="M492.53,760l2.45,1.9s0,.09,0,.11l-1.85.82a.21.21,0,0,1-.19,0l-2.45-1.89c-.05,0-.05-.1,0-.12l1.85-.81A.19.19,0,0,1,492.53,760Z"/><path class="cls-16" d="M484.89,767.78a.24.24,0,0,1-.2,0l-1.37-1.06a.07.07,0,0,1,0-.12l1.53-.67a.22.22,0,0,1,.19,0l1.37,1.06c.05,0,.05.09,0,.12Z"/><path class="cls-16" d="M517.8,779.59l1.92,1.49s0,.09,0,.12l-1.85.81a.19.19,0,0,1-.19,0l-1.93-1.48a.07.07,0,0,1,0-.12l1.85-.81A.2.2,0,0,1,517.8,779.59Z"/><path class="cls-16" d="M507.62,775,509,776c.05,0,.05.1,0,.12l-1.52.67a.24.24,0,0,1-.2,0l-1.37-1.06c-.05,0,0-.09,0-.11l1.53-.67A.19.19,0,0,1,507.62,775Z"/><path class="cls-16" d="M485.52,770.39l-1.58-1.22c-.05,0-.05-.09,0-.12l.91-.4a.22.22,0,0,1,.19,0l1.58,1.22a.07.07,0,0,1,0,.12l-.91.4A.21.21,0,0,1,485.52,770.39Z"/><path class="cls-16" d="M513.26,779.46l-1.53.67a.19.19,0,0,1-.19,0L510.17,779a.06.06,0,0,1,0-.11l1.52-.67a.23.23,0,0,1,.2,0l1.37,1.06A.07.07,0,0,1,513.26,779.46Z"/><path class="cls-16" d="M496.68,766.63a.21.21,0,0,1,.2,0l1.36,1.06c.06,0,.05.1,0,.12l-1.52.67a.21.21,0,0,1-.19,0l-1.37-1.06s0-.09,0-.11Z"/><path class="cls-16" d="M487.65,770c-.06,0,0-.09,0-.12l1.52-.67a.21.21,0,0,1,.19,0l1.37,1.06c.05,0,.05.09,0,.11l-1.52.67a.19.19,0,0,1-.19,0Z"/><path class="cls-16" d="M507.77,787.62l-1.58-1.22c-.05,0,0-.09,0-.12l.9-.4a.24.24,0,0,1,.2,0l1.58,1.22a.07.07,0,0,1,0,.12l-.91.4A.24.24,0,0,1,507.77,787.62Z"/><path class="cls-16" d="M500.39,769.38c.05,0,.05.09,0,.11l-1.52.67a.2.2,0,0,1-.2,0l-1.37-1.06a.07.07,0,0,1,0-.12l1.53-.67a.22.22,0,0,1,.19,0Z"/><path class="cls-16" d="M496.66,779l-1.57-1.22s0-.09,0-.12l.9-.4a.24.24,0,0,1,.2,0l1.58,1.22a.07.07,0,0,1,0,.12l-.91.4A.24.24,0,0,1,496.66,779Z"/><path class="cls-16" d="M505.52,785.88l-1.58-1.22c-.05,0-.05-.1,0-.12l.91-.4a.19.19,0,0,1,.19,0l1.58,1.22c.05,0,.05.09,0,.11l-.91.4A.19.19,0,0,1,505.52,785.88Z"/><path class="cls-16" d="M494.43,777.29l-1.58-1.22a.07.07,0,0,1,0-.12l.91-.39a.2.2,0,0,1,.2,0l1.57,1.22c.06,0,0,.1,0,.12l-.9.4A.24.24,0,0,1,494.43,777.29Z"/><path class="cls-16" d="M498.92,780.77l-1.58-1.23s0-.09,0-.11l.91-.4a.21.21,0,0,1,.19,0l1.58,1.23c.05,0,.05.09,0,.11l-.91.4A.19.19,0,0,1,498.92,780.77Z"/><path class="cls-16" d="M503.35,784.2,501.77,783s0-.09,0-.11l.91-.4a.21.21,0,0,1,.19,0l1.58,1.23c.05,0,.05.09,0,.11l-.91.4A.21.21,0,0,1,503.35,784.2Z"/><path class="cls-16" d="M501.11,782.47l-1.57-1.23a.06.06,0,0,1,0-.11l.9-.4a.21.21,0,0,1,.2,0l1.58,1.22s0,.09,0,.11l-.91.4A.21.21,0,0,1,501.11,782.47Z"/><path class="cls-16" d="M511.14,777.7c.05,0,.05.09,0,.11l-1.53.67a.19.19,0,0,1-.19,0L508,777.4a.07.07,0,0,1,0-.12l1.53-.67a.22.22,0,0,1,.19,0Z"/><path class="cls-16" d="M526.69,789.81a.07.07,0,0,1,0,.12l-1.53.67a.19.19,0,0,1-.19,0l-1.37-1.06a.06.06,0,0,1,0-.11l1.52-.67a.21.21,0,0,1,.2,0Z"/><path class="cls-16" d="M521.34,790.39l1.53-.67a.19.19,0,0,1,.19,0l1.37,1.06c.05,0,.05.09,0,.11l-1.52.67a.2.2,0,0,1-.2,0l-1.37-1.06A.07.07,0,0,1,521.34,790.39Z"/><path class="cls-16" d="M516.44,794.33,515,793.24s0-.09,0-.12l.91-.39a.19.19,0,0,1,.19,0l1.41,1.09c.05,0,.05.09,0,.12l-.91.4A.22.22,0,0,1,516.44,794.33Z"/><path class="cls-16" d="M528.07,787.54l1.42,1.1a.07.07,0,0,1,0,.12l-1.85.81a.2.2,0,0,1-.2,0l-1.42-1.1a.07.07,0,0,1,0-.12l1.85-.81A.2.2,0,0,1,528.07,787.54Z"/><path class="cls-16" d="M517.69,791.2s0,.09,0,.12l-1.52.67a.24.24,0,0,1-.2,0l-1.37-1.06c-.05,0,0-.09,0-.12l1.52-.67a.22.22,0,0,1,.19,0Z"/><path class="cls-16" d="M519,791.43l1.53-.67a.22.22,0,0,1,.19,0l1.37,1.06c.05,0,.05.09,0,.11l-1.52.67a.2.2,0,0,1-.2,0L519,791.55A.07.07,0,0,1,519,791.43Z"/><path class="cls-16" d="M530.18,789.23l1.37,1.06c.05,0,0,.09,0,.11l-4.22,1.86a.22.22,0,0,1-.19,0l-1.37-1.06s0-.09,0-.11L530,789.2A.22.22,0,0,1,530.18,789.23Z"/><path class="cls-16" d="M524.21,793.51s0,.09,0,.12l-1.52.67a.24.24,0,0,1-.2,0l-1.37-1.06c-.05,0,0-.09,0-.11l1.52-.67a.19.19,0,0,1,.19,0Z"/><path class="cls-16" d="M519.81,792.84a.07.07,0,0,1,0,.12l-1.53.67a.22.22,0,0,1-.19,0l-1.37-1.06c-.05,0-.05-.09,0-.12l1.52-.67a.24.24,0,0,1,.2,0Z"/><path class="cls-16" d="M518.6,796l-1.41-1.08a.07.07,0,0,1,0-.12l.91-.4a.21.21,0,0,1,.2,0l1.4,1.09a.06.06,0,0,1,0,.11l-.91.4A.22.22,0,0,1,518.6,796Z"/><path class="cls-16" d="M522,794.5s0,.1,0,.12l-1.52.67a.24.24,0,0,1-.2,0l-1.37-1.06c-.05,0,0-.09,0-.11l1.53-.67a.19.19,0,0,1,.19,0Z"/><path class="cls-16" d="M516.86,789.79l1.52-.67a.24.24,0,0,1,.2,0l1.37,1.06a.07.07,0,0,1,0,.12l-1.53.67a.21.21,0,0,1-.19,0l-1.37-1.06C516.8,789.87,516.8,789.82,516.86,789.79Z"/><path class="cls-16" d="M525.21,791.41l1.37,1.06s0,.09,0,.12l-1.52.67a.24.24,0,0,1-.2,0l-1.36-1.06c-.06,0,0-.09,0-.11l1.52-.67A.19.19,0,0,1,525.21,791.41Z"/><path class="cls-16" d="M523.79,784.23l3.59,2.78s0,.09,0,.11l-1.85.82a.22.22,0,0,1-.19,0l-3.59-2.77a.07.07,0,0,1,0-.12l1.86-.82A.22.22,0,0,1,523.79,784.23Z"/><path class="cls-16" d="M512.39,789.2a.07.07,0,0,1,0-.12l1.53-.67a.22.22,0,0,1,.19,0l1.37,1.06s0,.09,0,.11l-1.52.67a.2.2,0,0,1-.2,0Z"/><path class="cls-16" d="M512.12,791l-1.46-1.13c-.05,0-.05-.09,0-.12l.91-.4a.22.22,0,0,1,.19,0l1.47,1.13a.07.07,0,0,1,0,.12l-.91.4A.24.24,0,0,1,512.12,791Z"/><path class="cls-16" d="M514.32,792.69l-1.46-1.13c-.05,0-.05-.09,0-.12l.91-.4a.22.22,0,0,1,.19,0l1.46,1.13c.05,0,.05.09,0,.12l-.91.4A.22.22,0,0,1,514.32,792.69Z"/><path class="cls-16" d="M523.2,787.12l1.37,1.06s0,.09,0,.11L523,789a.21.21,0,0,1-.19,0l-1.37-1.06a.07.07,0,0,1,0-.12l1.53-.67A.22.22,0,0,1,523.2,787.12Z"/><path class="cls-16" d="M517.73,788.62l-1.52.67a.21.21,0,0,1-.19,0l-1.37-1.06s0-.1,0-.12l1.52-.67a.21.21,0,0,1,.19,0l1.37,1.06S517.79,788.6,517.73,788.62Z"/><path class="cls-16" d="M519.23,788.75l1.52-.67a.24.24,0,0,1,.2,0l1.37,1.06s0,.09,0,.11l-1.52.67a.19.19,0,0,1-.19,0l-1.37-1.06C519.17,788.83,519.17,788.78,519.23,788.75Z"/><path class="cls-16" d="M520.1,787.58l-1.52.67a.21.21,0,0,1-.19,0L517,787.16s0-.09,0-.11l1.52-.67a.23.23,0,0,1,.2,0l1.37,1.06A.07.07,0,0,1,520.1,787.58Z"/><path class="cls-16" d="M521,785.41l1.37,1.06a.07.07,0,0,1,0,.12l-1.53.67a.22.22,0,0,1-.19,0l-1.37-1.06s0-.09,0-.11l1.53-.67A.19.19,0,0,1,521,785.41Z"/><path class="cls-16" d="M489.85,761.21l4.07,3.16c.05,0,.05.09,0,.11l-1.52.67a.2.2,0,0,1-.2,0L488.12,762c-.05,0-.05-.09,0-.11l1.52-.67A.2.2,0,0,1,489.85,761.21Z"/><path class="cls-16" d="M494.7,765l1.37,1.06a.07.07,0,0,1,0,.12l-1.53.67a.22.22,0,0,1-.19,0L493,765.73a.07.07,0,0,1,0-.12l1.52-.67A.24.24,0,0,1,494.7,765Z"/><path class="cls-16" d="M485.9,765.9,483.47,764c-.05,0-.05-.09,0-.12l1.52-.67a.24.24,0,0,1,.2,0l2.42,1.88c.06,0,.05.09,0,.11l-1.53.67A.19.19,0,0,1,485.9,765.9Z"/><path class="cls-16" d="M508.52,778.46l1.37,1.06a.07.07,0,0,1,0,.12l-1.53.67a.22.22,0,0,1-.19,0l-1.37-1.06c-.05,0-.05-.09,0-.12l1.52-.67A.24.24,0,0,1,508.52,778.46Z"/><path class="cls-16" d="M495.64,768.49l1.37,1.06c.05,0,.05.09,0,.12l-1.52.67a.24.24,0,0,1-.2,0l-1.37-1.06c-.05,0,0-.09,0-.11l1.53-.67A.19.19,0,0,1,495.64,768.49Z"/><path class="cls-16" d="M488,767.56l-1.36-1.06c-.06,0-.05-.09,0-.12l1.53-.67a.21.21,0,0,1,.19,0l1.37,1.06c.05,0,.05.09,0,.12l-1.52.67A.24.24,0,0,1,488,767.56Z"/><path class="cls-16" d="M501.89,781.06,500.52,780s0-.09,0-.11l1.52-.67a.2.2,0,0,1,.2,0l1.37,1.06a.07.07,0,0,1,0,.12l-1.53.67A.22.22,0,0,1,501.89,781.06Z"/><path class="cls-16" d="M504.07,782.75l-1.37-1.06c-.05,0-.05-.09,0-.12l1.52-.67a.21.21,0,0,1,.19,0l1.37,1.06s0,.09,0,.12l-1.52.67A.21.21,0,0,1,504.07,782.75Z"/><path class="cls-16" d="M506.23,784.42l-1.37-1.06c-.06,0-.05-.09,0-.12l1.52-.67a.21.21,0,0,1,.19,0l1.37,1.06c.05,0,.05.09,0,.12l-1.52.67A.21.21,0,0,1,506.23,784.42Z"/><path class="cls-16" d="M489.77,771.68a.06.06,0,0,1,0-.11l1.53-.67a.21.21,0,0,1,.19,0l1.37,1.06c.05,0,.05.1,0,.12l-1.52.67a.21.21,0,0,1-.2,0Z"/><path class="cls-16" d="M508.34,786.06,507,785a.07.07,0,0,1,0-.12l1.53-.67a.22.22,0,0,1,.19,0l1.37,1.06a.07.07,0,0,1,0,.12l-1.53.66A.19.19,0,0,1,508.34,786.06Z"/><path class="cls-16" d="M497.61,777.75l-1.37-1.06c-.05,0,0-.09,0-.11l1.53-.67a.19.19,0,0,1,.19,0l1.37,1.06c.05,0,.05.1,0,.12l-1.52.67A.24.24,0,0,1,497.61,777.75Z"/><path class="cls-16" d="M499.74,779.4l-1.37-1.06c-.05,0,0-.09,0-.11l1.53-.67a.19.19,0,0,1,.19,0l1.37,1.06s0,.09,0,.12l-1.52.67A.24.24,0,0,1,499.74,779.4Z"/><path class="cls-16" d="M514.05,780l1.37,1.06c.05,0,0,.09,0,.11l-1.53.67a.19.19,0,0,1-.19,0l-1.37-1.06c-.05,0-.05-.09,0-.12l1.52-.67A.24.24,0,0,1,514.05,780Z"/><path class="cls-16" d="M514.59,777.11,517,779a.07.07,0,0,1,0,.12l-1.85.81a.2.2,0,0,1-.2,0l-2.45-1.9a.07.07,0,0,1,0-.12l1.85-.81A.24.24,0,0,1,514.59,777.11Z"/><path class="cls-16" d="M501.62,767.07l12.22,9.46s0,.09,0,.12l-1.85.81a.21.21,0,0,1-.19,0L499.56,768c-.05,0,0-.09,0-.11l1.85-.82A.22.22,0,0,1,501.62,767.07Z"/><path class="cls-16" d="M481.17,765a.07.07,0,0,1,0-.12l1.53-.67a.22.22,0,0,1,.19,0l1.37,1.06c.05,0,.05.09,0,.11l-1.52.67a.21.21,0,0,1-.2,0Z"/><path class="cls-16" d="M481,766.92l-1.58-1.23a.06.06,0,0,1,0-.11l.91-.4a.19.19,0,0,1,.19,0l1.58,1.22c.05,0,.05.09,0,.11l-.91.4A.19.19,0,0,1,481,766.92Z"/><path class="cls-16" d="M517.06,796.71,477.9,766.47a.07.07,0,0,1,0-.12l.91-.4a.24.24,0,0,1,.2,0l39.15,30.24c.05,0,.05.1,0,.12l-.91.4A.22.22,0,0,1,517.06,796.71Z"/><path class="cls-16" d="M510,789.35l-1.58-1.22c-.05,0-.05-.09,0-.12l.91-.4a.22.22,0,0,1,.19,0l1.58,1.22a.07.07,0,0,1,0,.12l-.91.4A.21.21,0,0,1,510,789.35Z"/><path class="cls-16" d="M520.48,781.67l2.51,1.94s0,.09,0,.11l-1.85.82a.22.22,0,0,1-.19,0l-2.51-1.94a.07.07,0,0,1,0-.12l1.85-.81A.24.24,0,0,1,520.48,781.67Z"/><path class="cls-16" d="M490,773.82l-1.58-1.22c-.05,0-.05-.09,0-.12l.9-.4a.24.24,0,0,1,.2,0l1.58,1.22a.07.07,0,0,1,0,.12l-.91.4A.21.21,0,0,1,490,773.82Z"/><path class="cls-16" d="M491.92,773.35a.07.07,0,0,1,0-.12l1.52-.67a.24.24,0,0,1,.2,0l1.37,1.06c.05,0,0,.09,0,.11l-1.53.67a.19.19,0,0,1-.19,0Z"/><path class="cls-16" d="M492.18,775.55l-1.58-1.22c-.05,0-.05-.1,0-.12l.91-.4a.22.22,0,0,1,.19,0l1.58,1.22s0,.09,0,.11l-.91.4A.19.19,0,0,1,492.18,775.55Z"/><path class="cls-16" d="M485.5,768.37a.06.06,0,0,1,0-.11l1.52-.67a.23.23,0,0,1,.2,0l1.37,1.07a.06.06,0,0,1,0,.11l-1.53.67a.21.21,0,0,1-.19,0Z"/><path class="cls-16" d="M494.1,775c-.05,0-.05-.09,0-.11l1.52-.67a.19.19,0,0,1,.19,0l1.37,1.06c.05,0,.05.09,0,.12l-1.52.67a.21.21,0,0,1-.19,0Z"/><path class="cls-16" d="M487.75,772.12l-1.58-1.22c-.05,0-.05-.09,0-.12l.91-.4a.22.22,0,0,1,.19,0l1.58,1.22c.05,0,.05.09,0,.12l-.91.4A.22.22,0,0,1,487.75,772.12Z"/><path class="cls-16" d="M516.22,781.63l4.09,3.17c.05,0,.05.09,0,.12l-1.52.67a.21.21,0,0,1-.19,0l-4.1-3.17s0-.09,0-.11l1.53-.67A.19.19,0,0,1,516.22,781.63Z"/><path class="cls-16" d="M494.85,770.73l1.37,1.06s0,.1,0,.12l-1.52.67a.19.19,0,0,1-.19,0l-1.37-1.06c-.05,0-.05-.09,0-.11l1.52-.67A.21.21,0,0,1,494.85,770.73Z"/><path class="cls-16" d="M492.56,770.93a.19.19,0,0,1-.19,0L491,769.85c-.05,0-.05-.09,0-.12l1.52-.67a.24.24,0,0,1,.2,0l1.37,1.06s0,.09,0,.11Z"/><path class="cls-16" d="M509.57,784.22l-1.37-1.06c-.05,0-.05-.09,0-.11l1.52-.67a.2.2,0,0,1,.2,0l1.37,1.06a.07.07,0,0,1,0,.12l-1.53.67A.22.22,0,0,1,509.57,784.22Z"/><path class="cls-16" d="M505.47,773.31l1.37,1.06c.05,0,.05.09,0,.12l-1.52.67a.21.21,0,0,1-.19,0l-1.37-1.06c-.05,0-.05-.09,0-.12l1.52-.66A.19.19,0,0,1,505.47,773.31Z"/><path class="cls-16" d="M510.67,780.12l1.36,1.06c.06,0,.05.09,0,.12l-1.52.67a.21.21,0,0,1-.19,0l-1.37-1.06c-.05,0-.05-.09,0-.11l1.52-.67A.21.21,0,0,1,510.67,780.12Z"/><path class="cls-16" d="M512.84,781.81l1.37,1.06s0,.09,0,.11l-1.52.67a.2.2,0,0,1-.2,0l-1.37-1.06a.07.07,0,0,1,0-.12l1.53-.67A.22.22,0,0,1,512.84,781.81Z"/><path class="cls-16" d="M511.72,785.88l-1.37-1.06a.06.06,0,0,1,0-.11l1.52-.67a.21.21,0,0,1,.19,0l1.37,1.07a.06.06,0,0,1,0,.11l-1.52.67A.19.19,0,0,1,511.72,785.88Z"/><path class="cls-16" d="M490.22,769.24l-1.37-1.06c-.05,0-.05-.09,0-.11l1.53-.67a.21.21,0,0,1,.19,0l1.37,1.06a.07.07,0,0,1,0,.12l-1.53.67A.19.19,0,0,1,490.22,769.24Z"/><path class="cls-16" d="M493.49,766.83l1.37,1.06c.06,0,.05.09,0,.12l-1.52.67a.21.21,0,0,1-.19,0l-1.37-1.06s0-.09,0-.12l1.52-.67A.21.21,0,0,1,493.49,766.83Z"/><path class="cls-16" d="M501.15,770l1.37,1.06c.05,0,.05.1,0,.12l-1.52.67a.24.24,0,0,1-.2,0l-1.37-1.06c-.05,0,0-.09,0-.11l1.53-.67A.19.19,0,0,1,501.15,770Z"/><path class="cls-16" d="M487.54,762.22l3,2.32s0,.09,0,.12l-1.52.67a.24.24,0,0,1-.2,0l-3-2.32c-.05,0-.05-.09,0-.12l1.52-.67A.24.24,0,0,1,487.54,762.22Z"/><path class="cls-16" d="M503.3,771.63l1.37,1.06c.05,0,0,.09,0,.11l-1.53.67a.19.19,0,0,1-.19,0l-1.37-1.06c-.05,0-.05-.1,0-.12l1.52-.67A.24.24,0,0,1,503.3,771.63Z"/><path class="cls-16" d="M491.32,765.14l1.37,1.06a.07.07,0,0,1,0,.12l-1.53.67a.19.19,0,0,1-.19,0l-1.37-1.06a.06.06,0,0,1,0-.11l1.52-.67A.23.23,0,0,1,491.32,765.14Z"/><path class="cls-16" d="M507.75,780.72l1.37,1.06c.05,0,.05.09,0,.11l-1.53.67a.19.19,0,0,1-.19,0L506,781.48a.07.07,0,0,1,0-.12l1.53-.67A.22.22,0,0,1,507.75,780.72Z"/><path class="cls-16" d="M499.92,771.8l1.37,1.06a.07.07,0,0,1,0,.12l-1.53.67a.22.22,0,0,1-.19,0l-1.37-1.06c-.05,0-.05-.09,0-.11l1.52-.67A.2.2,0,0,1,499.92,771.8Z"/><path class="cls-16" d="M504.24,775.15l1.37,1.06c.05,0,.05.09,0,.12l-1.52.66a.2.2,0,0,1-.2,0l-1.37-1.06a.07.07,0,0,1,0-.12l1.53-.67A.22.22,0,0,1,504.24,775.15Z"/><path class="cls-16" d="M502.09,773.49l1.37,1.06c.05,0,.05.09,0,.11l-1.52.67a.19.19,0,0,1-.19,0l-1.37-1.06c-.05,0-.05-.09,0-.12l1.52-.67A.21.21,0,0,1,502.09,773.49Z"/><path class="cls-16" d="M506.39,776.81l1.37,1.06a.07.07,0,0,1,0,.12l-1.52.67a.24.24,0,0,1-.2,0l-1.37-1.06c-.05,0-.05-.09,0-.11l1.53-.67A.19.19,0,0,1,506.39,776.81Z"/><path class="cls-16" d="M518,785.79s0,.09,0,.11l-1.52.67a.19.19,0,0,1-.19,0l-3-2.32s0-.09,0-.12l1.52-.67a.24.24,0,0,1,.2,0Z"/><path class="cls-16" d="M515.57,786.78c.06,0,0,.09,0,.11l-1.52.67a.21.21,0,0,1-.19,0l-1.37-1.07a.06.06,0,0,1,0-.11l1.52-.67a.19.19,0,0,1,.19,0Z"/><path class="cls-16" d="M498.82,775.9l-1.37-1.06c-.05,0-.05-.09,0-.11l1.52-.68a.24.24,0,0,1,.2,0l1.37,1.06a.07.07,0,0,1,0,.12l-1.53.67A.22.22,0,0,1,498.82,775.9Z"/><path class="cls-16" d="M501,777.56l-1.37-1.06c-.05,0-.05-.09,0-.11l1.52-.67a.19.19,0,0,1,.19,0l1.37,1.06c.05,0,.05.1,0,.12l-1.52.67A.21.21,0,0,1,501,777.56Z"/><path class="cls-16" d="M497.77,770.14l1.37,1.06c.05,0,.05.09,0,.12l-1.52.67a.24.24,0,0,1-.2,0L496,770.9a.07.07,0,0,1,0-.12l1.53-.67A.22.22,0,0,1,497.77,770.14Z"/><path class="cls-16" d="M496.64,774.22l-1.37-1.06a.07.07,0,0,1,0-.12l1.53-.67a.22.22,0,0,1,.19,0l1.37,1.06c.05,0,.05.09,0,.11l-1.52.67A.2.2,0,0,1,496.64,774.22Z"/><path class="cls-16" d="M503.12,779.23l-1.37-1.06c-.05,0-.05-.09,0-.12l1.52-.67a.21.21,0,0,1,.19,0l1.37,1.06c.05,0,.05.09,0,.11l-1.52.67A.19.19,0,0,1,503.12,779.23Z"/><path class="cls-16" d="M511.62,788.6l-2.59-2a.07.07,0,0,1,0-.12l1.53-.67a.19.19,0,0,1,.19,0l2.59,2s0,.09,0,.11l-1.52.67A.2.2,0,0,1,511.62,788.6Z"/><path class="cls-16" d="M505.6,779.06l1.37,1.06a.06.06,0,0,1,0,.11l-1.52.67a.21.21,0,0,1-.2,0l-1.36-1.06a.06.06,0,0,1,0-.11l1.53-.67A.19.19,0,0,1,505.6,779.06Z"/><ellipse class="cls-63" cx="496.87" cy="750.13" rx="8.37" ry="7.91"/><path class="cls-64" d="M502.32,759.34s1.23,6.11,3.28,8.69c-.45,3.57-1.07,5.13-.53,6.4-.8.86-3.33-.29-2.75-4.66a9.68,9.68,0,0,1-2.87-8.67Z"/><path class="cls-65" d="M493.42,739.36s1.39,7,.82,10.71-5.66,11.48-6,13.08.25,8.62.25,8.62,4.75,7.42,6.56,7,.2-6.44.84-8.57a7.15,7.15,0,0,1,1.29-2.79l-.53,5.08,1.47,9.52s2.06.49,2-3.36,0-7.43,0-7.43,2.47-8,2.72-10.74c.14-1.62-.42-9-.42-9a64.66,64.66,0,0,0,1.47-10.77C504,732.53,493.42,739.36,493.42,739.36Z"/><path class="cls-11" d="M543,689.16a70.12,70.12,0,0,0-43.26,15.44c-4.6,3.93-5.6,13.95-5.6,13.95s-4.44,21.23-5.45,29.86a8.27,8.27,0,0,1,8.16-6.18,8.15,8.15,0,0,1,8.38,7.9c0,.22,0,.42,0,.63l0,.1c0-14.8,6.43-32.31,6.43-32.31l27.85-9.66s7-2.46,7.05-11.16S543,689.16,543,689.16Z"/><path class="cls-36" d="M531,694.6c-1.42,3.21-13,19.7-11.87,27.21a19,19,0,0,0,6.46,11.5l-1.48,10.22s-.49,12.42,12.92,17.72,28.8,3.38,32.49-6c1.72-3.94-1.11-9.48,3-20.31s12.18-25.1-1.91-34.08a93,93,0,0,0-27.13-11.81S533.91,688.09,531,694.6Z"/><path class="cls-9" d="M550.12,687.74l.48-1s1.94,6.14,4,9.15-.61,6.28-2.22,7.25-6.18,1.87-7.1,0-2.57-5.56-2.57-5.56l5.8-9.44Z"/><path class="cls-4" d="M527.9,688.21a26.49,26.49,0,0,0,.91,4.31c.47,1.14,1.42,1.86,1.94,3,.4.88.14,2.4,2.11,4.32s4.79,3.93,7.22,3.21c3.57-1.06,8.92-5.41,8.88-12s-12.11-8.75-12.11-8.75Z"/><path class="cls-7" d="M549.3,687.7a1.77,1.77,0,0,0-1.25,1.78c-.1,1.86.32,3-.55,3.6-2.37,1.71-4-5.32-8-2.27S528,692,525.8,686.88s1-8.28,2.88-10.17c2.85-2.88,6-13.53,18.69-8.46,8.46,3.39,4.88,13.38,5.83,18.12.4,2-1,4.12-2.07,3.92S549.3,687.7,549.3,687.7Z"/><path class="cls-66" d="M538.41,667.37c-.17-1.1,6.54-1.39,6.6-.09s-2.16,1.78-2.19,1.78l-3.49-.49Z"/><path class="cls-4" d="M550.94,690.17c0,2.26-.91,3.58-1.74,3.56-1.09,0-2-1.16-2.19-2.81s.57-3.17,1.66-3.38S551,688.12,550.94,690.17Z"/><path class="cls-6" d="M544.38,665.73a25,25,0,0,1-4.44-1.16,14.13,14.13,0,0,0,.08,5c.33,1.35,3.71,1.35,3.42-.38A4.87,4.87,0,0,1,544.38,665.73Z"/><path class="cls-66" d="M539.79,667.57c0,.29,1.09.66,2,.66s1.78-.37,1.83-.67c.11-.61.27.72.27.72s-1.19.76-1.24.76-2.43,0-2.49-.07-.69-.76-.68-.79S539.75,667,539.79,667.57Z"/><path class="cls-18" d="M545,667.28a3.62,3.62,0,0,1-3.12,1.39,4.45,4.45,0,0,1-3.48-1.3,16.23,16.23,0,0,0,.31,1.76c.62,2.52,6.92,2.51,6.38-.7A7.33,7.33,0,0,1,545,667.28Z"/><path class="cls-63" d="M545,780.07c.88,4.7-.3,9-2.65,9.69s-4.95-2.64-5.83-7.35.31-9,2.65-9.68S544.08,775.37,545,780.07Z"/><path class="cls-64" d="M528.57,777.49l-4.15.1s-3.37,1.12-3.77,1.83-.29,5-.29,5l6.15-1.77Z"/><path class="cls-65" d="M541.69,772.11l-14.05,5.49-10,9-2.28,10s2,.88,3.24-2a34.37,34.37,0,0,0,1.87-6.32l1.14-.8s-.36.85-.16,1.2c.77,1.36,7,2.62,11.92,1.29,4.67-3.12,5.71-7.55,7.24-7.94,3.6-.92,24.9-6.28,24.9-6.28Z"/><path class="cls-65" d="M536.8,788c-.41.64-2.84,2.1-2.18,1s-11,.86-11,.86,8.91,3.09,11.54,1.08S537.22,788.31,536.8,788Z"/><path class="cls-67" d="M542.34,789.75v0l.21-.11Z"/><path class="cls-11" d="M569.48,704a13.43,13.43,0,0,0-7,15.5c2.46,11.26,16.07,37.35,16.07,37.35l-39,15.81v0c2.24-.19,4.6,3,5.43,7.42.78,4.14-.05,8-1.86,9.3l15.61-8.62s41.43-6.29,44.85-14.83C607.56,756,584.55,696.58,569.48,704Z"/><path class="cls-8" d="M513.35,800.85a.47.47,0,0,0,.08-.5l-17.88-41.91a.49.49,0,0,0-.14-.18l-40.65-32.41a.44.44,0,0,0-.54,0h0l-.09.08-1.07.93,2.23,2.64,15.73,39a.75.75,0,0,0,.15.2l39.47,30.65-.86.49,2.45,2,1-.89.08-.08Z"/><path class="cls-15" d="M511.65,801.82l-41.54-32.28a.4.4,0,0,1-.15-.19L453,727.3a.47.47,0,0,1,.73-.54l40.64,32.41a.49.49,0,0,1,.14.18l17.88,41.91A.47.47,0,0,1,511.65,801.82Z"/><path class="cls-49" d="M483.68,766.25c.27,3.37-.73,5.23-2.24,4.17s-3-4.64-3.24-8,.73-5.22,2.24-4.16S483.4,762.89,483.68,766.25Z"/><path class="cls-7" d="M532.29,695.56c.21.54.11,1.08-.21,1.21s-.77-.21-1-.74-.12-1.08.21-1.21S532.07,695,532.29,695.56Z"/><path class="cls-7" d="M536.08,695.59c.22.54.12,1.08-.21,1.21s-.76-.21-1-.74-.12-1.08.21-1.21S535.87,695.05,536.08,695.59Z"/><path class="cls-7" d="M529.74,694.34a.23.23,0,0,1-.14,0,.22.22,0,0,1-.16-.27,2.62,2.62,0,0,1,1.81-1.78.22.22,0,0,1,.28.15.22.22,0,0,1-.15.27,2.21,2.21,0,0,0-1.51,1.46A.24.24,0,0,1,529.74,694.34Z"/><path class="cls-7" d="M536.57,694a.2.2,0,0,1-.22,0,5.33,5.33,0,0,0-2.12-.9.23.23,0,0,1-.19-.25.23.23,0,0,1,.26-.19,5.43,5.43,0,0,1,2.33,1,.21.21,0,0,1,0,.31A.22.22,0,0,1,536.57,694Z"/><path class="cls-7" d="M534.54,699.67h0a1.22,1.22,0,0,1-1.15-.1c-.35-.32-.26-.93-.16-1.52,0-.11,0-.22,0-.33a.21.21,0,0,1,.25-.19.23.23,0,0,1,.19.25c0,.11,0,.23-.05.34-.07.45-.15,1,0,1.12s.37.09.73,0a.22.22,0,0,1,.27.16A.23.23,0,0,1,534.54,699.67Z"/><path class="cls-7" d="M537.27,701.49l-.09,0a1.75,1.75,0,0,1-2-.54.24.24,0,0,1,.07-.31.22.22,0,0,1,.31.07,1.34,1.34,0,0,0,1.49.36,1.2,1.2,0,0,0,.79-1.41.22.22,0,1,1,.44-.05A1.67,1.67,0,0,1,537.27,701.49Z"/><ellipse class="cls-2" cx="55.28" cy="486.03" rx="34.68" ry="17.57"/><path class="cls-11" d="M7.46,258.65c-.06-.47-.76-.76-1.57-.66s-1.41.56-1.36,1h0L34.17,495.73h0c.06.46.76.76,1.57.66s1.42-.56,1.36-1h0L7.46,258.65Z"/><path class="cls-11" d="M41.46,240.14c-.05-.47-.76-.77-1.57-.67s-1.41.57-1.35,1h0L68.17,477.21h0c.06.47.76.76,1.57.66s1.42-.56,1.36-1h0L41.46,240.14Z"/><path class="cls-11" d="M34,482.79,67.64,462c-.18-1.06-.32-2.14-.4-3.22L33.93,479.38C33.94,480.51,34,481.65,34,482.79Z"/><path class="cls-11" d="M28.83,440.87l33.63-20.78a31.81,31.81,0,0,1-.4-3.22L28.74,437.45Q28.77,439.16,28.83,440.87Z"/><path class="cls-11" d="M23.65,398.94l33.62-20.77c-.18-1.07-.32-2.14-.4-3.23L23.56,395.53C23.57,396.67,23.61,397.81,23.65,398.94Z"/><path class="cls-11" d="M18.46,357l33.63-20.78a31.46,31.46,0,0,1-.4-3.22L18.37,353.61C18.39,354.75,18.42,355.88,18.46,357Z"/><path class="cls-11" d="M13.28,315.1,46.9,294.32c-.18-1.07-.32-2.14-.4-3.22L13.19,311.69C13.2,312.82,13.24,314,13.28,315.1Z"/><path class="cls-11" d="M8.09,273.18,41.72,252.4a31.81,31.81,0,0,1-.4-3.22L8,269.76Q8,271.47,8.09,273.18Z"/><path class="cls-11" d="M58,448.36c-1.42,0-7.24,1.29-8.38,3.29s-.69,5.14.2,5.9,16.75,8.58,20.88,9.63,10-1.55,10-3.44-.29-9.51-1.12-11.33a5,5,0,0,0-3.53-2.8C75.34,449.61,59.45,448.36,58,448.36Z"/><path class="cls-36" d="M71.07,465.07c-4.3-1.09-20.79-9.23-21.72-10a2.23,2.23,0,0,1-.26-.27,3.08,3.08,0,0,0,.75,2.77c.89.76,16.75,8.58,20.88,9.63s10-1.55,10-3.44c0-.23,0-1.27,0-1.67C78.86,463.42,74.41,465.92,71.07,465.07Z"/><path class="cls-9" d="M63.49,443.62l1.1,8.74s1,3.79,6.89,3.51,6.46-4,6.46-4l-.92-11Z"/><path class="cls-11" d="M29.9,419.41c-1.43,0-7.25,1.29-8.39,3.29s-.72,4.57.21,5.28,17.13,7.78,21.31,8.64,10-1.07,9.85-3-.6-8.38-1.43-10.2a5,5,0,0,0-3.53-2.8C47.21,420.66,31.32,419.41,29.9,419.41Z"/><path class="cls-36" d="M43.28,434.49c-4.35-.89-21.21-8.24-22.17-9a2.2,2.2,0,0,1-.27-.26,3.1,3.1,0,0,0,.88,2.73c.93.71,17.13,7.78,21.31,8.64s10-1.07,9.85-3c0-.23-.05-.56-.09-1C51.06,434.13,46.65,435.19,43.28,434.49Z"/><path class="cls-9" d="M47.24,415.56l2.61,7.21s.61,2.6-3.43,3.75-6.17.39-7.24-.9-3.79-7.81-3.79-7.81Z"/><path class="cls-17" d="M86.35,310.08s2.51,4.31,3.06,13.57c.74,12.65-12.58,39.55-12.66,53.86C82.21,388.76,79,411.1,79,411.1s3.15,3.23,3.15,6.29-3.31,5.88-3.23,8.94,3.39,2.73,3.39,5.21-2.56,4.72-2.56,6,2.19,1.65,2.23,3.81c.05,3.12-14.33,5.24-19.12,4s-1.28-4.49-1.65-6.38S50.77,385,50.77,385s-2.13-39.3,4.52-61.15S86.35,310.08,86.35,310.08Z"/><path class="cls-18" d="M73.19,317.36A41.67,41.67,0,0,1,74,333.57c-1.33,8.94-11.59,18.54-24.08,23.83s-18.7,5.22-18.7,5.22,2.48.24,4.05,5.46,2.46,15.12,3.45,18.35,4.26,3,5.75,5.26.49,7.94,1.39,10,2.94,1.53,3.93,3.69c1,2.32,0,4.88.31,6s1.56,1.69,1.8,3.26-3.72,4.8-7.19,5.79S37,422,35,420.37,22.55,398,16.18,385.87s-13.9-22.59-12.91-30,14.9-19.44,27.06-27.05,30-14.4,30-14.4Z"/><path class="cls-18" d="M103.88,198.5l5.94,12.17,0,0,5,9a.73.73,0,0,0,1,.26l8.06-5.07a.74.74,0,0,0,.32-.85l-7.41-23.5a.73.73,0,0,0-1.1-.4l-11.63,7.42A.75.75,0,0,0,103.88,198.5Z"/><path class="cls-4" d="M108.86,224.47l.69-5.26-4.61-14a2.32,2.32,0,0,1,2.48.37c1.06,1,2.13,4.45,2.13,4.45s.37.79,1.41-.59,4.1-7.08,4.13-7.18,2.13-6.73,3.7-6.73,4.26,6.3,4.67,12.87c-4.08,5.71-7.18,9.31-7.18,9.31l-1.06,9.71Z"/><path class="cls-9" d="M11.67,273.09c.17,0,3.72,2.61,4,4.55s-3.1,6.74-3.1,6.74Z"/><path class="cls-4" d="M15.23,295.06l-2.94-23.95s-10.09-1.54-11.54,0-.5,9.76.33,10.92,5.34,4.22,5.34,4.22l1.9,9.35Z"/><path class="cls-7" d="M106.53,225.05a11.15,11.15,0,0,1,4.75-1.33c2.26.06,5.4.28,5.57,2.54s-5,37.56-6.34,40.49-15.73,21.12-28.14,25.54c-9.5,3.37-16.49-15.3-11.3-19.92S94.51,258.8,95.94,257,106.53,225.05,106.53,225.05Z"/><path class="cls-6" d="M40.45,290.45a71.42,71.42,0,0,1,10.76-8.92c5.46-3.47,18.91-10.09,22.5-10.36s8.77,3.36,10.1,7.16c2.42,6.95,1.6,21.51,3.2,24.66s3.09,7.17-.22,8.82-7.12,4.42-10.37,6.13-6.57,6.28-12.14,7.5-13.34,2.88-17.21-1.16c-1.89-2-1.38-3.53-.61-7.83S36.59,301.13,40.45,290.45Z"/><path class="cls-7" d="M4.67,293.86c.11-1.53.59-2.79,5.55-4.33S17.5,290,18,291a3.09,3.09,0,0,1-.38,2.48s9.15,22.4,10.48,22.84,4.52-19,10.86-24.77,15-.11,16,3.81-.06,12.46-5.74,21.78-14.39,23.72-21.51,23.5-12.52-12.79-14.45-19.3-6.62-23.67-6.62-23.67A4.35,4.35,0,0,1,4.67,293.86Z"/><path class="cls-9" d="M66.08,273.49c-.11,1.1.38,6.55.37,7.19s-.38,2.86-4.26,3.95S56,284.13,56,283s-.67-8.28-.67-8.28l8.44-9.7,6.61,6.09S66.19,272.39,66.08,273.49Z"/><path class="cls-4" d="M71.9,263.09c-.05-1-1.75-3.85-1.91-4.29s-.1-2.24-.64-3.3a7.13,7.13,0,0,0-2-2.1l-2.37.82s-7.37,11.38-1.18,13.47c3.56,4.88,6.4,3.76,7.19,3.08S72,264.14,71.9,263.09Z"/><path class="cls-11" d="M54.84,274.73a1.89,1.89,0,0,0,1.4,1.21c1.7.36,4.86.82,6.38-.28,2.13-1.54,1.11-4.84,2.7-7.42C66.12,267,68,265,67,262.61c-.35-.89,1.17-2,.38-3.94-.44-1.11-.74-1.92-.28-2.63s2.8-2.3,3-5.11c.19-3.17-3.79-6.52-8.82-6.67s-7.57,3-7.28,5.45c-3.35-1.51-5.73.31-6.53,1.91a5.54,5.54,0,0,0,1.14,6.81c-4,3.13-3.29,5.44-2.59,6.68C48.08,268.83,53.33,270.61,54.84,274.73Z"/><path class="cls-4" d="M67.26,267.59c.18,1.45-.47,2.72-1.46,2.84s-1.92-.95-2.1-2.4.48-2.73,1.46-2.85S67.09,266.14,67.26,267.59Z"/><path class="cls-68" d="M689.27,691.53a2.45,2.45,0,0,1-2.65,0c-6.81-4.28-37.57-22.56-37.57-22.56a1,1,0,0,1,0-1.8l50.32-29.29a1.08,1.08,0,0,1,1.06,0c3.3,2,28,16.76,36.23,21.72a2,2,0,0,1,.16,3.28C734.8,664.43,693.53,688.73,689.27,691.53Z"/><path class="cls-8" d="M686.08,688.53l-33.45-20.16a.89.89,0,0,1,0-1.54l13.13-7.08,25.28,21.64L688.31,688l-1.69.81Z"/><polygon class="cls-69" points="653.28 657.64 677.88 659 690.58 682.89 687.81 688.04 653.28 667.41 653.28 657.64"/><path class="cls-8" d="M687.19,687.24v-5.88a4.17,4.17,0,0,0-.83-2.42c1.54-1,3.11-2,4.7-3,5.5-3.41,18.49-11.44,24.26-14.38a85.92,85.92,0,0,0,8.27-4.38,26.36,26.36,0,0,0,3.09-2.37,11.33,11.33,0,0,1,3.34-2.28,3.2,3.2,0,0,1,.72,1.8v7.86a2.08,2.08,0,0,1-1,1.8c-5.59,3.33-39.69,23.69-40.79,24.46a2.47,2.47,0,0,1-3,0C687.44,689.19,687.19,687.24,687.19,687.24Z"/><path class="cls-15" d="M726.38,653.91a29.57,29.57,0,0,1-3.9,3c-2.72,1.68-5.67,2.92-8.49,4.4s-13.21,7.72-16,9.43c-4.08,2.5-8.19,4.94-12.17,7.61a6.35,6.35,0,0,0-1.25-1l-31.73-18.86a.88.88,0,0,1,0-1.52l42.7-24.85a.89.89,0,0,1,.89,0c3.34,2,29.22,17.67,31.67,18.93a6.36,6.36,0,0,1,1.3.86A12.82,12.82,0,0,0,726.38,653.91Z"/><path class="cls-15" d="M729,651.54a4.11,4.11,0,0,1,1.63,2.15l-43.81,26a6.2,6.2,0,0,0-2.09-2.33Z"/><path class="cls-70" d="M683.52,675.37l-28-16.89a.42.42,0,0,1,0-.73l14.7-7.93,18.59,18-2.93,7-1.79.86Z"/><polygon class="cls-69" points="656.02 647.53 656.02 657.97 685.15 675.23 688.28 669.4 683.02 649.02 656.02 647.53"/><path class="cls-36" d="M684.7,674v-6.23a4.36,4.36,0,0,0-.89-2.56q2.46-1.65,5-3.21c5.82-3.6,11.64-7.34,17.75-10.46a92.8,92.8,0,0,0,8.77-4.63,28.34,28.34,0,0,0,3.26-2.52,12.34,12.34,0,0,1,3.54-2.41,3.31,3.31,0,0,1,.76,1.9v8.33a2.23,2.23,0,0,1-1.08,1.91c-5.92,3.53-34.1,20.32-35.26,21.14a2.63,2.63,0,0,1-3.21,0C685,676.07,684.7,674,684.7,674Z"/><path class="cls-37" d="M718.26,643.47a30.71,30.71,0,0,1-4.13,3.13c-2.88,1.77-6,3.09-9,4.66s-6,3.41-9,5.22c-4.33,2.64-8.69,5.23-12.89,8.06a7,7,0,0,0-1.33-1.08l-26.8-15.86L694.25,625s23,13.94,25.83,15.4a6.77,6.77,0,0,1,1.37.91A13.47,13.47,0,0,0,718.26,643.47Z"/><path class="cls-71" d="M721,641a4.43,4.43,0,0,1,1.72,2.28L684.3,666a6.34,6.34,0,0,0-2.21-2.46Z"/><path class="cls-46" d="M686.87,670.56,654,650.86a.76.76,0,0,1,0-1.31L693.33,627a.77.77,0,0,1,.75,0l34.12,20Z"/><polygon class="cls-72" points="687.78 669.51 654.99 650.58 654.99 633.2 689.04 653.11 688.64 665.44 687.78 669.51"/><path class="cls-47" d="M686.94,653.06l-33-19.19a.76.76,0,0,1,0-1.32L693.33,610a.77.77,0,0,1,.75,0l34.19,19.52Z"/><path class="cls-46" d="M728.27,629.52s1.52,1.26,1.52,8.57-1.52,8.86-1.52,8.86l-41.33,23.57s1.52-2.46,1.52-9.64-1.52-7.82-1.52-7.82Z"/><path class="cls-68" d="M678.23,659.28l-10.5-4.55c-9.59,5.73-2.2,20-12.9,26a.26.26,0,0,0,.13.48l8-.27.46,5.42a.25.25,0,0,0,.36.2C680.55,678.49,669.52,664.86,678.23,659.28Z"/><path class="cls-18" d="M678.23,659.28l-10.5-5.78c-9.75,5.83-1.94,20.53-13.48,26.31a.11.11,0,0,0,0,.2l8.67-.29.47,5.62a.11.11,0,0,0,.16.09C676.83,678.06,668,664.92,678.23,659.28Z"/><path class="cls-68" d="M240.57,593.82a2.48,2.48,0,0,1-2.66,0c-6.8-4.28-37.56-22.56-37.56-22.56a1,1,0,0,1,0-1.79l50.32-29.29a1,1,0,0,1,1.06,0c3.3,2,28,16.76,36.23,21.71a2,2,0,0,1,.16,3.28C286.1,566.72,244.83,591,240.57,593.82Z"/><path class="cls-8" d="M237.38,590.81l-33.45-20.16a.88.88,0,0,1,0-1.53L217.09,562l25.29,21.63-2.77,6.59-1.69.8Z"/><polygon class="cls-69" points="204.58 559.92 229.18 561.28 241.88 585.18 239.11 590.32 204.58 569.69 204.58 559.92"/><path class="cls-8" d="M238.49,589.52v-5.88a4.11,4.11,0,0,0-.83-2.41c1.54-1,3.11-2.05,4.69-3,5.5-3.41,18.5-11.44,24.27-14.38a88.13,88.13,0,0,0,8.27-4.37,26.33,26.33,0,0,0,3.08-2.38,11.65,11.65,0,0,1,3.34-2.28,3.2,3.2,0,0,1,.73,1.8v7.86a2.11,2.11,0,0,1-1,1.81c-5.59,3.33-39.69,23.68-40.79,24.46a2.5,2.5,0,0,1-3,0C238.74,591.47,238.49,589.52,238.49,589.52Z"/><path class="cls-15" d="M277.68,556.19a29.36,29.36,0,0,1-3.9,2.95c-2.72,1.68-5.67,2.92-8.49,4.41s-13.22,7.71-16,9.42c-4.08,2.5-8.2,4.95-12.17,7.61a6.25,6.25,0,0,0-1.26-1l-31.72-18.86a.89.89,0,0,1,0-1.53l42.69-24.84a.9.9,0,0,1,.9,0c3.34,2,29.21,17.67,31.67,18.93a6.15,6.15,0,0,1,1.29.87A12.24,12.24,0,0,0,277.68,556.19Z"/><path class="cls-15" d="M280.3,553.82a4.18,4.18,0,0,1,1.63,2.16l-43.82,26a6.07,6.07,0,0,0-2.08-2.32Z"/><path class="cls-70" d="M234.82,577.66l-28-16.9a.42.42,0,0,1,0-.73l14.7-7.93,18.6,18-2.93,7-1.79.85Z"/><polygon class="cls-69" points="207.31 549.81 207.31 560.25 236.45 577.51 239.58 571.69 234.31 551.31 207.31 549.81"/><path class="cls-36" d="M236,576.29v-6.23a4.36,4.36,0,0,0-.88-2.56q2.46-1.65,5-3.2c5.83-3.61,11.65-7.35,17.76-10.47a90.38,90.38,0,0,0,8.76-4.63,29.53,29.53,0,0,0,3.27-2.51,12,12,0,0,1,3.54-2.42,3.33,3.33,0,0,1,.76,1.91v8.32a2.24,2.24,0,0,1-1.08,1.92c-5.93,3.52-34.1,20.31-35.26,21.13a2.62,2.62,0,0,1-3.21,0C236.26,578.35,236,576.29,236,576.29Z"/><path class="cls-37" d="M269.56,545.76a32.27,32.27,0,0,1-4.14,3.12c-2.88,1.78-6,3.09-9,4.67s-6.05,3.4-9,5.21c-4.32,2.65-8.68,5.24-12.89,8.06a6.68,6.68,0,0,0-1.33-1.08l-26.79-15.86,39.14-22.62s23,14,25.83,15.4a6.65,6.65,0,0,1,1.37.92A12.72,12.72,0,0,0,269.56,545.76Z"/><path class="cls-71" d="M272.33,543.24a4.39,4.39,0,0,1,1.73,2.29l-38.46,22.8a6.63,6.63,0,0,0-2.21-2.47Z"/><path class="cls-46" d="M238.17,572.84l-32.91-19.7a.76.76,0,0,1,0-1.31l39.36-22.54a.72.72,0,0,1,.75,0l34.12,20Z"/><polygon class="cls-72" points="239.08 571.79 206.29 552.87 206.29 535.48 240.34 555.39 239.94 567.73 239.08 571.79"/><path class="cls-47" d="M238.23,555.34l-33-19.19a.76.76,0,0,1,0-1.31l39.36-22.54a.75.75,0,0,1,.75,0l34.18,19.53Z"/><path class="cls-46" d="M279.56,531.81s1.53,1.25,1.53,8.56-1.53,8.86-1.53,8.86L238.23,572.8s1.53-2.46,1.53-9.64-1.53-7.82-1.53-7.82Z"/><path class="cls-68" d="M229.53,561.57,219,557c-9.59,5.73-2.2,20-12.9,26a.26.26,0,0,0,.13.48l8-.26.45,5.41a.26.26,0,0,0,.37.21C231.85,580.77,220.82,567.14,229.53,561.57Z"/><path class="cls-18" d="M229.53,561.57,219,555.78c-9.76,5.83-1.94,20.54-13.48,26.32a.1.1,0,0,0,0,.19l8.67-.29.47,5.63a.11.11,0,0,0,.15.08C228.12,580.35,219.25,567.21,229.53,561.57Z"/></g></g></g></svg>