<svg xmlns="http://www.w3.org/2000/svg" viewBox="0 0 1245 566"><defs><style>.cls-1,.cls-16,.cls-17{fill:#f2f2f2;}.cls-2,.cls-6{fill:#ff8a0b;}.cls-3,.cls-8{fill:#eb3d89;}.cls-4,.cls-9{fill:#6649ff;}.cls-5,.cls-6,.cls-8,.cls-9{font-size:36px;}.cls-5{fill:#fff;font-family:NotoSansTC-Bold-83pv-RKSJ-H, Noto Sans TC;letter-spacing:0.15em;}.cls-6,.cls-8,.cls-9{font-family:NotoSansTC-Black-83pv-RKSJ-H, Noto Sans TC;letter-spacing:-0.11em;}.cls-7{letter-spacing:0.02em;}.cls-10,.cls-15{fill:none;stroke-miterlimit:10;}.cls-10{stroke:#00b900;stroke-width:4px;}.cls-11{font-size:27px;letter-spacing:0.07em;}.cls-11,.cls-14{font-family:NotoSansTC-Medium-83pv-RKSJ-H, Noto Sans TC;}.cls-12{letter-spacing:0.02em;}.cls-13{letter-spacing:0.08em;}.cls-14{font-size:20px;letter-spacing:0.07em;}.cls-15{stroke:#c1272d;stroke-width:3.72px;}.cls-16{opacity:0.86;}.cls-17{opacity:0.75;}</style></defs><g id="圖層_2" data-name="圖層 2"><g id="design"><rect class="cls-1" x="431" width="382" height="566" rx="16.66"/><rect class="cls-1" x="863" width="382" height="566" rx="16.66"/><rect class="cls-1" width="382" height="566" rx="16.66"/><path class="cls-2" d="M365.34,0H16.66A16.66,16.66,0,0,0,0,16.66V112H382V16.66A16.66,16.66,0,0,0,365.34,0Z"/><path class="cls-3" d="M796.34,0H447.66A16.66,16.66,0,0,0,431,16.66V112H813V16.66A16.66,16.66,0,0,0,796.34,0Z"/><path class="cls-4" d="M1228.34,0H879.66A16.66,16.66,0,0,0,863,16.66V112h382V16.66A16.66,16.66,0,0,0,1228.34,0Z"/><text class="cls-5" transform="translate(108.55 70.56)">加速方案</text><text class="cls-5" transform="translate(538.55 70.56)">超值方案</text><text class="cls-5" transform="translate(971.55 70.56)">豪華方案</text><text class="cls-6" transform="translate(103.1 518.56)">＄<tspan class="cls-7" x="32.18" y="0" xml:space="preserve"> 20,000</tspan></text><text class="cls-8" transform="translate(533.1 518.56)">＄<tspan class="cls-7" x="32.18" y="0" xml:space="preserve"> 30,000</tspan></text><text class="cls-9" transform="translate(966.1 518.56)">＄<tspan class="cls-7" x="32.18" y="0" xml:space="preserve"> 70,000</tspan></text><circle class="cls-10" cx="937.5" cy="428.5" r="11.89"/><circle class="cls-10" cx="937.5" cy="376.5" r="11.89"/><circle class="cls-10" cx="937.5" cy="322.5" r="11.89"/><circle class="cls-10" cx="937.5" cy="268.5" r="11.89"/><circle class="cls-10" cx="937.5" cy="214.5" r="11.89"/><circle class="cls-10" cx="937.5" cy="160.5" r="11.89"/><text class="cls-11" transform="translate(969.84 169.13)">購物平台直播<tspan x="0" y="54">購物專家</tspan><tspan x="0" y="108">前置製播會</tspan><tspan x="0" y="162">D</tspan><tspan class="cls-12" x="20.9" y="162">P</tspan><tspan class="cls-13" x="38.88" y="162">A 再行銷</tspan><tspan x="0" y="216">D</tspan><tspan class="cls-12" x="20.9" y="216">P</tspan><tspan class="cls-13" x="38.88" y="216">A 新客推廣</tspan><tspan x="0" y="270">影片授權期</tspan></text><text class="cls-14" transform="translate(1118.69 440.38)">(一個月)</text><circle class="cls-10" cx="502.5" cy="376.5" r="11.89"/><circle class="cls-10" cx="502.5" cy="322.5" r="11.89"/><circle class="cls-10" cx="502.5" cy="268.5" r="11.89"/><circle class="cls-10" cx="502.5" cy="214.5" r="11.89"/><circle class="cls-10" cx="502.5" cy="160.5" r="11.89"/><text class="cls-11" transform="translate(534.84 169.13)">購物平台直播<tspan x="0" y="54">購物專家</tspan><tspan x="0" y="108">前置製播會</tspan><tspan x="0" y="162">D</tspan><tspan class="cls-12" x="20.9" y="162">P</tspan><tspan class="cls-13" x="38.88" y="162">A 再行銷</tspan><tspan x="0" y="216">D</tspan><tspan class="cls-12" x="20.9" y="216">P</tspan><tspan class="cls-13" x="38.88" y="216">A 新客推廣</tspan><tspan x="0" y="270">影片授權期</tspan></text><text class="cls-14" transform="translate(683.69 440.38)">(一個月)</text><line class="cls-15" x1="493.37" y1="419.11" x2="514.14" y2="439.89"/><line class="cls-15" x1="514.14" y1="419.11" x2="493.37" y2="439.89"/><circle class="cls-10" cx="72.5" cy="322.5" r="11.89"/><circle class="cls-10" cx="72.5" cy="268.5" r="11.89"/><circle class="cls-10" cx="72.5" cy="214.5" r="11.89"/><circle class="cls-10" cx="72.5" cy="160.5" r="11.89"/><text class="cls-11" transform="translate(104.84 169.13)">購物平台直播<tspan x="0" y="54">購物專家</tspan><tspan x="0" y="108">前置製播會</tspan><tspan x="0" y="162">D</tspan><tspan class="cls-12" x="20.9" y="162">P</tspan><tspan class="cls-13" x="38.88" y="162">A 再行銷</tspan><tspan x="0" y="216">D</tspan><tspan class="cls-12" x="20.9" y="216">P</tspan><tspan class="cls-13" x="38.88" y="216">A 新客推廣</tspan><tspan x="0" y="270">影片授權期</tspan></text><text class="cls-14" transform="translate(253.69 440.38)">(一個月)</text><line class="cls-15" x1="62.37" y1="419.11" x2="83.14" y2="439.89"/><line class="cls-15" x1="83.14" y1="419.11" x2="62.37" y2="439.89"/><line class="cls-15" x1="62.37" y1="366.11" x2="83.14" y2="386.89"/><line class="cls-15" x1="83.14" y1="366.11" x2="62.37" y2="386.89"/><rect class="cls-16" x="62" y="353" width="297" height="99"/><rect class="cls-17" x="484" y="403" width="297" height="49"/></g></g></svg>