<svg xmlns="http://www.w3.org/2000/svg" viewBox="0 0 526.58 478.56"><defs><style>.cls-1{fill:#4a8dbd;}.cls-2{fill:#002e61;opacity:0.06;}.cls-3{fill:#909db2;}.cls-4{fill:#ffb9b3;}.cls-5{fill:#becbe4;}.cls-6{fill:#030058;}.cls-7{fill:#1a3474;}.cls-8{fill:#afbbd2;}.cls-9{fill:#ffa8a4;}.cls-10{fill:#23014d;}.cls-11{fill:#070784;}.cls-12{fill:#697982;}.cls-13{fill:#ff9912;}.cls-14{fill:#d8e4ef;}.cls-15{fill:#757f96;}.cls-16{fill:#ffb510;}.cls-17{fill:#ffd600;}.cls-18{fill:#e5b900;}.cls-19{fill:#ffe317;}</style></defs><g id="圖層_2" data-name="圖層 2"><g id="design"><path class="cls-1" d="M204.75,233.77c21.07,35.71,68.7,78.81,145.49,79.6,147.45,1.52,162.36-125.5,124.32-170.43-58.9-69.57-115.16-12.46-147.44-14.23-52.21-2.86-69.79-81-117-72.76C129.52,70.08,182.15,195.47,204.75,233.77Z"/><ellipse class="cls-2" cx="388.76" cy="431.36" rx="93.17" ry="47.2"/><path class="cls-3" d="M303.75,89.53c-5.25,3.21-8.59,7.3-7.48,9.12s6.28.7,11.53-2.51,8.6-7.3,7.48-9.12S309,86.32,303.75,89.53Z"/><polygon class="cls-4" points="316.6 98.67 306.91 76.23 295.5 79.33 303.71 109.13 316.6 98.67"/><path class="cls-5" d="M296.46,96.57l0,0a2.13,2.13,0,0,0-.16,2c1.05,1.71,6.1.52,11.29-2.65s8.55-7.14,7.5-8.85l-.07-.08a1,1,0,0,1,.31.19,2.29,2.29,0,0,1,.74,1.67c0,4,8.42,27.56,8.42,27.56s8.57-22.53,16-34.19c22.66-35.72,46.69-17,41.26,1.77-6.07,21-44.37,63.48-56.87,65.19-14.07,1.94-19.86-31.65-23.82-43.9a8.65,8.65,0,0,0-3.2-4.53C297,100.05,295.22,98.74,296.46,96.57Z"/><path class="cls-4" d="M376.58,380.2v8.89l.38,12-34.79.5s11.75-11.17,11.75-14.6c0-6.09-.45-18.09-.45-18.09Z"/><polygon class="cls-4" points="429.96 407.72 427.47 391.58 451.59 396.42 452.7 404.85 453.83 417.16 431.59 430.97 427.34 419.2 429.96 407.72"/><path class="cls-6" d="M356.44,145.63a1095.27,1095.27,0,0,0-9.87,109.56c0,11.79,3.67,122,3.67,122s.4,6.84,14.34,7.24,20.88-5.9,18.48-11.66,2.57-8.71,2.43-11.8-2.84-6-2.43-10.85,5.25-6.31,3.24-14-3.52-13.94-3.24-19.3,24.78-118.37,21.65-148.39S356.44,145.63,356.44,145.63Z"/><path class="cls-7" d="M421.44,149.22s13.82,10.81,16.83,33.64.59,71.21,2,92.73c3.14,24.2,4.66,37.41,4.66,37.41s8.61,15.43,9.17,21.52-3.32,10.54-3.14,14.1,5,9.95,4.61,13.51-3.29,10.83-2.91,15,4.7,12.76,2.8,17.07-8.82,8.9-20.93,7-9.33-8.31-10.19-12.61-30.86-104.89-30.86-104.89S376,181.1,378.76,152.45,421.44,149.22,421.44,149.22Z"/><path class="cls-8" d="M439.21,93.47s-35.61-28.33-73-31.33c-9.13-.48-13.07,16.08-11.52,47.35.86,17.5.86,36.38.86,36.38s-.23,6,18.31,11.31,37.47,4.89,51-4.78C422.8,136.1,448.41,107.59,439.21,93.47Z"/><path class="cls-9" d="M403.57,60.35s-1.2,8.89-1.2,13.42c0,2.3-1.82,4.61-4.7,5.86s-10.61,1.19-10.61-2.43l.17-7.39Z"/><path class="cls-4" d="M401.14,62.33s-4.31,12.24-16.94,11.72c-6.36-.27-6.69-12-6.61-14.55s1-3.54,1-4.68-.79-2-.7-4,1.54-9.06,1.54-9.06l19,1.56,4,12.78Z"/><path class="cls-7" d="M377.84,42.81a19.68,19.68,0,0,0,.07,5.25c0,.2.33.28.37.06a31.12,31.12,0,0,1,.78-3.41,6.84,6.84,0,0,0,.79.82,6.94,6.94,0,0,0,4,1.68c2.48.55,7.18-.13,10,.49,3.09.69,2.09,5.23,2.05,7.08s1.93,2.55,2.25,3a10.65,10.65,0,0,1,.28,3l6.07-.13s7.63-11.43,5.1-19.28-7.29-11.06-17-11.42c-5.84-.22-9.06,3.07-11.32,5.77a7.22,7.22,0,0,1-.89.38,6,6,0,0,0-2.11.74,3.4,3.4,0,0,0-1.23,2.59,3.14,3.14,0,0,0,0,.52A7.53,7.53,0,0,0,377.84,42.81Z"/><path class="cls-10" d="M384.39,68.3a1.46,1.46,0,0,0,.29,0A2.53,2.53,0,0,0,386.41,67a.31.31,0,0,0-.52-.32,2,2,0,0,1-1.3,1.05,1.82,1.82,0,0,1-1.32-.41.31.31,0,1,0-.41.46A2.63,2.63,0,0,0,384.39,68.3Z"/><path class="cls-10" d="M377.58,52.7a.3.3,0,0,0,.26-.13s.75-1,3.25-.63a.32.32,0,0,0,.34-.27.3.3,0,0,0-.26-.34c-2.94-.41-3.81.84-3.84.9a.3.3,0,0,0,.08.42A.3.3,0,0,0,377.58,52.7Z"/><path class="cls-10" d="M389.11,57.62a.23.23,0,0,0,.12,0,.3.3,0,0,0,.16-.4c-1.3-3-3.7-3.22-3.81-3.22a.3.3,0,0,0-.32.28.31.31,0,0,0,.28.33h0c.09,0,2.15.18,3.29,2.85A.32.32,0,0,0,389.11,57.62Z"/><ellipse class="cls-10" cx="379.7" cy="55.7" rx="0.97" ry="1.27"/><ellipse class="cls-10" cx="385.66" cy="58.5" rx="0.97" ry="1.27"/><path class="cls-10" d="M381.89,63h.31a.3.3,0,0,0,.28-.33.29.29,0,0,0-.33-.28c-.52,0-.89,0-1-.21-.24-.34.2-1.24.51-1.89.14-.29.28-.57.37-.82a.3.3,0,0,0-.18-.39.31.31,0,0,0-.4.18,7.87,7.87,0,0,1-.34.76c-.42.88-.9,1.87-.47,2.5A1.39,1.39,0,0,0,381.89,63Z"/><path class="cls-4" d="M400.09,62.58s.13-4.84,2.9-4.95,2,6.67-1.64,6.7C400.25,64.33,400.09,62.58,400.09,62.58Z"/><path class="cls-1" d="M452.72,405.06s-.83,11.77-17,10.82a6.91,6.91,0,0,1-2.52-.58c-4.69-2.16-3.17-7.47-3.17-7.47s0-.12-.05-.36c-2.18,4.38-4.66,14.14-8.46,19.48s-10.15,15.39-10.62,18.37c-1.37,8.8,4.53,12,9.82,13.08s18.38,0,25-12a200.8,200.8,0,0,1,10.86-17.92l-2.34-22.1a1.52,1.52,0,0,0-1.5-1.32Z"/><path class="cls-11" d="M420.21,453.35c5.29,1,18.38,0,25-12,4.65-8.43,8.74-14.87,10.78-18l.54,5.11A200.8,200.8,0,0,0,445.7,446.4c-6.64,12-19.74,13-25,12-5.09-1-10.74-4-9.94-12.11C412.2,450.67,416.37,452.6,420.21,453.35Z"/><path class="cls-12" d="M405.32,416c0-.05-.05-.11-.07-.17l.06-.11C405.31,415.82,405.32,415.91,405.32,416Z"/><path class="cls-1" d="M376.58,389.29l1.28.39s1.71,20.85,1.66,24.22-5.66,4.84-16.6,6.3-25,12-38.44,10.65-7.32-12.11-2.24-15.92c1.86-1.4,11.42-6.95,17.53-11.87a75.72,75.72,0,0,0,11.84-11.7s1.09,6.09,12.63,5.55S376.58,389.29,376.58,389.29Z"/><path class="cls-11" d="M324.48,427.23c13.48,1.32,27.5-9.18,38.44-10.65,8.3-1.11,14.18-2.31,16.56-4.3,0,.71,0,1.27,0,1.62,0,3.37-5.66,4.84-16.6,6.3s-25,12-38.44,10.65c-7.36-.72-8.86-4.27-7.88-8C317.33,425.05,319.63,426.75,324.48,427.23Z"/><ellipse class="cls-3" cx="424.12" cy="214.91" rx="5.12" ry="9.23" transform="translate(-10.24 408.29) rotate(-50.87)"/><path class="cls-4" d="M417.68,214.25l-8.36,2.86-4.37,4.3L403,230.05s2.71,0,4.6-5.52c1.62-1.84,1,.42,4.64-1.43S417.68,214.25,417.68,214.25Z"/><path class="cls-4" d="M427.87,201.34l-12.61,13.82a105.47,105.47,0,0,0-5.86,10.37c-3.13,6.57-8.13,16.38-7.23,17.95,1.57,2.78,18.3-3.85,19.52-8.64s4.7-16.22,4.7-16.22l24.1-24.68Z"/><path class="cls-5" d="M432.17,89.51c-11.64-5-34.26,16.48-17.22,41.55,10.67,15.69,22.25,32.88,22.25,32.88l-14.95,40.91a5.46,5.46,0,0,1-2,1.71,7.55,7.55,0,0,0-3.16,2.42c3.06-2.38,18,7.49,13.5,12.4a8.38,8.38,0,0,0,3.61-4.72,4.82,4.82,0,0,1,2-2.87c7.45-5.08,25.44-30.58,31.31-44.8C474.23,152.63,454.64,99.14,432.17,89.51Z"/><path class="cls-7" d="M312.52,66.18s-14.66,22.48-20.17,20.41,7.56-16.87,9.82-21.23S312.52,66.18,312.52,66.18Z"/><path class="cls-13" d="M300.94,33c17.68,6.35,31.28,12,28.35,23.86s-20.9,12.76-34.52,8.33S294.32,63.63,300.94,33Z"/><path class="cls-4" d="M310.6,70.63l.31,2.91a3.1,3.1,0,0,1-.46,2c-.58.92-1.49,2.36-2.22,3.47a2.8,2.8,0,0,1-2.11,1.24,14,14,0,0,0-2.8.51s-1.23-.74-.1-2.88,2.77-2,4.68-6.21c.21-.44.42-.91.63-1.38A1.09,1.09,0,0,1,310.6,70.63Z"/><path class="cls-4" d="M296.23,64.69a3,3,0,0,0-3.54,1.08c-2,3.76-6.26,12-5.71,13.69.42,1.24,2.06,2.67,3.39,3.66a2.3,2.3,0,0,0,3-.1l11.4-12.81c1-1.11.23-2.8-1.48-3.34Z"/><path class="cls-14" d="M253.64,83.05,269,3.4s28,24.64,31.39,27.74,7,13.32,3.66,23.13c-2.2,6.39-6,11-9.85,12.56h0l0,0-.1,0Z"/><ellipse class="cls-8" cx="252.61" cy="42.5" rx="43.34" ry="24.98" transform="translate(150.38 277.38) rotate(-76.03)"/><ellipse class="cls-15" cx="251.71" cy="42.96" rx="39.3" ry="21.88" transform="translate(144.96 274.93) rotate(-74.97)"/><path class="cls-16" d="M254.05,49.07l4.18-13.91,16.77.93a69,69,0,0,1-3.73,17.63c-.19.53-.38,1.05-.58,1.57Z"/><path class="cls-17" d="M252.51,40.14c-1.32,3.75-.77,7.69,1.22,8.79s4.68-1.06,6-4.82.78-7.69-1.21-8.79S253.83,36.38,252.51,40.14Z"/><circle class="cls-13" cx="504.08" cy="311.59" r="22.5"/><path class="cls-18" d="M80,354.59H58.08v21.56H80Zm43.26-42.89V423.9H107.07v-6.6H32.14v6.6H16.68V311.7Zm-16.21,91.76V326.91H32.14v76.55ZM95,341.62V389H44.11V341.62Z"/><path class="cls-18" d="M238.11,322.92v5.61h9.6v-5.61Zm-71.94,10.72a104.12,104.12,0,0,1-12.59,10.1,106.17,106.17,0,0,0-5.74-13.34c9.48-5.61,19.45-14.71,24.81-24.43l11.6,4.23c-.62,1.25-1.37,2.25-2,3.5,5.86,2.74,12.85,6.1,16.59,8.35l-6,11.47a192,192,0,0,0-17.7-9.73c-2,2.37-4.12,4.87-6.36,7.23h19.32v9.73H166.17Zm80.91,69.07c7.11,4.74,14.71,10,19.2,13.84l-11.09,7.35a186.08,186.08,0,0,0-20.7-16.08l6-5.11H216.29l12.47,4c-5.12,6.86-13.59,13.59-21.32,17.45a112.91,112.91,0,0,0-9.48-9.47l.25.5-10.72,5.36c-.87-2.5-2.12-5.49-3.49-8.85-22.19,8.22-26.06,10-28.67,12.09-.63-3.37-2.75-9.35-4.74-12.22a7.42,7.42,0,0,0,5-7.48V345.24H194v44.63h-25.8V405.2l11.09-3.74c-1-2.24-2.12-4.24-3.11-6.23l10.09-4.36c3.87,7.48,9,17.2,11.6,23.31,6.61-2.87,13.46-6.86,17.45-11.47H202.7V355.46h56.6v47.25ZM168.17,356v6.36H181V356ZM181,379.27v-6.73H168.17v6.73ZM224.64,337H202.2V314.57h22.44v-7h13.47v7h22.31V337H238.11v4.11h27.17v10.47H197.34V341.12h27.3Zm0-8.48v-5.61H214.29v5.61Zm-8.73,40h29.55v-4.74H215.91Zm0,12.84h29.55v-4.86H215.91Zm0,13h29.55v-5.12H215.91Z"/><path class="cls-18" d="M80.74,258.35v16.18h-60V258.35H41V205.23c0-1.35,0-2.71.07-4.08s.12-2.76.22-4.16l-12,10a7.09,7.09,0,0,1-3.14,1.49,8.47,8.47,0,0,1-2.93,0,6.89,6.89,0,0,1-2.46-.94,5.64,5.64,0,0,1-1.59-1.41l-7.08-9.4L44.9,169.17H63.4v89.18Z"/><path class="cls-18" d="M150,221.85A95.05,95.05,0,0,0,148.67,204,36.45,36.45,0,0,0,145,193a13.26,13.26,0,0,0-5.17-5.46,12.24,12.24,0,0,0-11.67,0,12.88,12.88,0,0,0-5.05,5.46A37.85,37.85,0,0,0,119.58,204a98.13,98.13,0,0,0-1.33,17.88,97.92,97.92,0,0,0,1.33,17.92,38.27,38.27,0,0,0,3.55,10.95,12.74,12.74,0,0,0,5.05,5.49,12.17,12.17,0,0,0,11.67,0,13.11,13.11,0,0,0,5.17-5.49,36.85,36.85,0,0,0,3.65-10.95A94.86,94.86,0,0,0,150,221.85Zm23.13,0a85.81,85.81,0,0,1-3,23.92A49,49,0,0,1,162,262.54a33.1,33.1,0,0,1-12.42,9.9A37.36,37.36,0,0,1,134,275.69a36.83,36.83,0,0,1-15.5-3.25,33,33,0,0,1-12.32-9.9,48.94,48.94,0,0,1-8.13-16.77,86.64,86.64,0,0,1-2.93-23.92,86.69,86.69,0,0,1,2.93-23.92,49,49,0,0,1,8.13-16.76,32.57,32.57,0,0,1,12.32-9.87,37.27,37.27,0,0,1,15.5-3.21,37.81,37.81,0,0,1,15.58,3.21A32.72,32.72,0,0,1,162,181.17a49.05,49.05,0,0,1,8.21,16.76A85.86,85.86,0,0,1,173.17,221.85Z"/><path class="cls-18" d="M263.88,253.45a21.91,21.91,0,0,0-.52-5.15,9.4,9.4,0,0,0-1.45-3.29,5,5,0,0,0-2.19-1.73,7.47,7.47,0,0,0-2.75-.49,7.22,7.22,0,0,0-2.71.49,4.6,4.6,0,0,0-2.09,1.73,9.59,9.59,0,0,0-1.36,3.29,22.64,22.64,0,0,0-.49,5.15,20.67,20.67,0,0,0,.49,4.93,8.86,8.86,0,0,0,1.36,3.15,4.77,4.77,0,0,0,2.09,1.66,7.22,7.22,0,0,0,2.71.49,7.47,7.47,0,0,0,2.75-.49,5.21,5.21,0,0,0,2.19-1.66,8.71,8.71,0,0,0,1.45-3.15A20,20,0,0,0,263.88,253.45Zm-37-47a22,22,0,0,1-1.79,9,22.37,22.37,0,0,1-4.74,7,20.7,20.7,0,0,1-6.88,4.53,21.31,21.31,0,0,1-8.16,1.61,22.44,22.44,0,0,1-8.6-1.61,19.7,19.7,0,0,1-6.78-4.53,20.44,20.44,0,0,1-4.47-7,24.35,24.35,0,0,1-1.61-9,25.6,25.6,0,0,1,1.61-9.28,20.63,20.63,0,0,1,4.47-7.12,20.14,20.14,0,0,1,6.78-4.59,22.08,22.08,0,0,1,8.6-1.64,22.56,22.56,0,0,1,8.66,1.64,20,20,0,0,1,6.84,4.59,20.93,20.93,0,0,1,4.47,7.12A25.6,25.6,0,0,1,226.89,206.48Zm28.24-18.93a11.07,11.07,0,0,1,2.28-1.94,6.73,6.73,0,0,1,3.76-.89H275.1l-67.69,87.1a7.54,7.54,0,0,1-2.31,1.94,6.73,6.73,0,0,1-3.36.77h-14.3Zm-42.91,18.93a22.16,22.16,0,0,0-.52-5.21,9.37,9.37,0,0,0-1.45-3.3,5.08,5.08,0,0,0-2.19-1.73,7.66,7.66,0,0,0-2.74-.49,7.48,7.48,0,0,0-2.72.49,4.67,4.67,0,0,0-2.09,1.73,9.56,9.56,0,0,0-1.36,3.3,22.91,22.91,0,0,0-.49,5.21,20.73,20.73,0,0,0,.49,4.93,8.89,8.89,0,0,0,1.36,3.14,4.79,4.79,0,0,0,2.09,1.67,7.27,7.27,0,0,0,2.72.49,7.45,7.45,0,0,0,2.74-.49,5.24,5.24,0,0,0,2.19-1.67,8.73,8.73,0,0,0,1.45-3.14A20.07,20.07,0,0,0,212.22,206.48Zm66.33,47A22.39,22.39,0,0,1,272,269.51a21.43,21.43,0,0,1-15,6.13,22.38,22.38,0,0,1-8.59-1.6,20,20,0,0,1-6.79-4.53,20.46,20.46,0,0,1-4.46-7,24.55,24.55,0,0,1-1.61-9,25.64,25.64,0,0,1,1.61-9.28,20.85,20.85,0,0,1,4.46-7.12,20.18,20.18,0,0,1,6.79-4.59,22,22,0,0,1,8.59-1.63,22.57,22.57,0,0,1,8.67,1.63,20,20,0,0,1,6.84,4.59,21,21,0,0,1,4.47,7.12A25.64,25.64,0,0,1,278.55,253.45Z"/><path class="cls-18" d="M79.16,355.13H57.22V376.7H79.16Zm43.26-42.89V424.45H106.21v-6.61H31.29v6.61H15.83V312.24ZM106.21,404V327.45H31.29V404ZM94.12,342.17v47.37H43.26V342.17Z"/><path class="cls-18" d="M237.25,323.46v5.62h9.6v-5.62Zm-71.93,10.73a103.83,103.83,0,0,1-12.59,10.09A108.21,108.21,0,0,0,147,331c9.48-5.61,19.45-14.72,24.81-24.44l11.59,4.24c-.62,1.25-1.37,2.24-2,3.49,5.86,2.74,12.84,6.11,16.58,8.35l-6,11.47a190.13,190.13,0,0,0-17.71-9.72c-2,2.37-4.11,4.86-6.36,7.23h19.33v9.72H165.32Zm80.91,69.06c7.1,4.74,14.71,10,19.2,13.84l-11.1,7.36a184.69,184.69,0,0,0-20.69-16.09l6-5.11H215.43l12.47,4c-5.11,6.86-13.59,13.59-21.32,17.46a114.32,114.32,0,0,0-9.47-9.48l.25.5-10.72,5.36c-.88-2.49-2.12-5.48-3.5-8.85-22.19,8.23-26,10-28.67,12.09-.62-3.36-2.74-9.35-4.74-12.21a7.42,7.42,0,0,0,5-7.49V345.78h38.4v44.63H167.31v15.34l11.1-3.74c-1-2.25-2.12-4.24-3.12-6.24l10.1-4.36c3.86,7.48,9,17.2,11.59,23.31,6.61-2.86,13.47-6.85,17.46-11.47h-12.6V356h56.61v47.25ZM167.31,356.5v6.36h12.84V356.5Zm12.84,23.32v-6.74H167.31v6.74Zm43.64-42.27H201.35V315.11h22.44v-7h13.46v7h22.32v22.44H237.25v4.12h27.18v10.47h-68V341.67h27.31Zm0-8.47v-5.62H213.44v5.62Zm-8.73,40h29.55v-4.73H215.06Zm0,12.85h29.55v-4.87H215.06Zm0,13h29.55v-5.11H215.06Z"/><path class="cls-18" d="M79.89,258.89v16.19h-60V258.89H40.14V205.78c0-1.35,0-2.71.07-4.09s.12-2.76.22-4.15l-12,10A7.09,7.09,0,0,1,25.29,209a8.47,8.47,0,0,1-2.93,0,6.84,6.84,0,0,1-2.45-.94,5.5,5.5,0,0,1-1.59-1.41l-7.08-9.39L44,169.71h18.5v89.18Z"/><path class="cls-18" d="M149.19,222.4a96,96,0,0,0-1.37-17.89,37,37,0,0,0-3.65-10.95,13.17,13.17,0,0,0-5.17-5.45,12.71,12.71,0,0,0-5.85-1.49,12.47,12.47,0,0,0-5.82,1.49,12.87,12.87,0,0,0-5.06,5.45,37.57,37.57,0,0,0-3.54,10.95,98.05,98.05,0,0,0-1.34,17.89,98,98,0,0,0,1.34,17.92,38.2,38.2,0,0,0,3.54,11,12.94,12.94,0,0,0,5.06,5.49,12.45,12.45,0,0,0,5.82,1.48,12.69,12.69,0,0,0,5.85-1.48,13.23,13.23,0,0,0,5.17-5.49,37.64,37.64,0,0,0,3.65-11A95.85,95.85,0,0,0,149.19,222.4Zm23.12,0a85.49,85.49,0,0,1-3,23.92,49,49,0,0,1-8.2,16.76,33.13,33.13,0,0,1-12.43,9.9,37.32,37.32,0,0,1-15.57,3.25,36.8,36.8,0,0,1-15.5-3.25,33,33,0,0,1-12.33-9.9,49,49,0,0,1-8.13-16.76,86.72,86.72,0,0,1-2.92-23.92,86.62,86.62,0,0,1,2.92-23.92,48.94,48.94,0,0,1,8.13-16.77,32.58,32.58,0,0,1,12.33-9.86,37.09,37.09,0,0,1,15.5-3.22,37.61,37.61,0,0,1,15.57,3.22,32.72,32.72,0,0,1,12.43,9.86,49,49,0,0,1,8.2,16.77A85.39,85.39,0,0,1,172.31,222.4Z"/><path class="cls-18" d="M263,254a21.28,21.28,0,0,0-.52-5.15,9.19,9.19,0,0,0-1.45-3.3,5.08,5.08,0,0,0-2.19-1.73,7.62,7.62,0,0,0-2.74-.49,7.38,7.38,0,0,0-2.71.49,4.69,4.69,0,0,0-2.1,1.73,9.56,9.56,0,0,0-1.35,3.3,22.46,22.46,0,0,0-.5,5.15,20.68,20.68,0,0,0,.5,4.93,8.89,8.89,0,0,0,1.35,3.14,4.72,4.72,0,0,0,2.1,1.66,7.18,7.18,0,0,0,2.71.5,7.42,7.42,0,0,0,2.74-.5,5.13,5.13,0,0,0,2.19-1.66,8.57,8.57,0,0,0,1.45-3.14A19.59,19.59,0,0,0,263,254Zm-37-47a22.15,22.15,0,0,1-1.79,9,22.44,22.44,0,0,1-4.75,7,21,21,0,0,1-6.87,4.53,21.32,21.32,0,0,1-8.17,1.6,22.47,22.47,0,0,1-8.6-1.6,20,20,0,0,1-6.78-4.53,20.79,20.79,0,0,1-4.47-7,24.31,24.31,0,0,1-1.6-9,25.64,25.64,0,0,1,1.6-9.28,21,21,0,0,1,4.47-7.12,20.14,20.14,0,0,1,6.78-4.59,22.11,22.11,0,0,1,8.6-1.63,22.56,22.56,0,0,1,8.66,1.63,20,20,0,0,1,6.84,4.59,20.87,20.87,0,0,1,4.47,7.12A25.64,25.64,0,0,1,226,207Zm28.23-18.92a11.66,11.66,0,0,1,2.28-1.95,6.83,6.83,0,0,1,3.76-.89h13.93l-67.68,87.11a7.73,7.73,0,0,1-2.32,1.94,6.83,6.83,0,0,1-3.35.77H186.58ZM211.37,207a21.64,21.64,0,0,0-.53-5.21,9.35,9.35,0,0,0-1.45-3.3,4.94,4.94,0,0,0-2.19-1.72,7.42,7.42,0,0,0-2.74-.5,7.18,7.18,0,0,0-2.71.5,4.72,4.72,0,0,0-2.1,1.72,9.73,9.73,0,0,0-1.35,3.3,22.9,22.9,0,0,0-.5,5.21,20.62,20.62,0,0,0,.5,4.93,8.86,8.86,0,0,0,1.35,3.15,4.85,4.85,0,0,0,2.1,1.66,7.18,7.18,0,0,0,2.71.49,7.41,7.41,0,0,0,2.74-.49,5.09,5.09,0,0,0,2.19-1.66,8.54,8.54,0,0,0,1.45-3.15A19.49,19.49,0,0,0,211.37,207Zm66.33,47a22.3,22.3,0,0,1-6.54,16.05,20.66,20.66,0,0,1-6.87,4.53,21.36,21.36,0,0,1-8.17,1.61,22.47,22.47,0,0,1-8.6-1.61,19.7,19.7,0,0,1-6.78-4.53,20.68,20.68,0,0,1-4.47-7,24.62,24.62,0,0,1-1.6-9,25.56,25.56,0,0,1,1.6-9.28,20.83,20.83,0,0,1,4.47-7.12,20,20,0,0,1,6.78-4.6,22.29,22.29,0,0,1,8.6-1.63,22.75,22.75,0,0,1,8.66,1.63,19.88,19.88,0,0,1,6.84,4.6,20.83,20.83,0,0,1,4.47,7.12A25.56,25.56,0,0,1,277.7,254Z"/><path class="cls-18" d="M78.31,355.68h-22v21.56h22Zm43.26-42.89V425H105.36v-6.61H30.43V425H15V312.79Zm-16.21,91.76V328H30.43v76.55ZM93.27,342.71v47.37H42.4V342.71Z"/><path class="cls-18" d="M236.4,324v5.61H246V324Zm-71.94,10.72a104.12,104.12,0,0,1-12.59,10.1,106.17,106.17,0,0,0-5.74-13.34c9.48-5.61,19.45-14.71,24.81-24.44l11.6,4.24c-.63,1.25-1.37,2.25-2,3.49,5.86,2.75,12.84,6.11,16.58,8.36l-6,11.47a192,192,0,0,0-17.7-9.73c-2,2.37-4.12,4.86-6.36,7.23H186.4v9.73H164.46Zm80.91,69.07c7.11,4.74,14.71,10,19.2,13.84L253.48,425a186.08,186.08,0,0,0-20.7-16.08l6-5.11H214.58l12.47,4c-5.12,6.85-13.59,13.59-21.32,17.45a112.91,112.91,0,0,0-9.48-9.47l.25.49-10.72,5.37c-.87-2.5-2.12-5.49-3.49-8.86-22.19,8.23-26.06,10-28.67,12.1-.63-3.37-2.75-9.35-4.74-12.22a7.41,7.41,0,0,0,5-7.48V346.33h38.4V391h-25.8v15.33l11.09-3.74c-1-2.24-2.12-4.24-3.12-6.23l10.1-4.37c3.87,7.48,9,17.21,11.6,23.32,6.6-2.87,13.46-6.86,17.45-11.47H201V356.55h56.6V403.8Zm-78.91-46.75v6.35H179.3v-6.35Zm12.84,23.31v-6.73H166.46v6.73Zm43.63-42.26H200.49V315.66h22.44v-7H236.4v7h22.31V338.1H236.4v4.11h27.17v10.47H195.63V342.21h27.3Zm0-8.48V324H212.58v5.61Zm-8.73,40h29.55V364.9H214.2Zm0,12.84h29.55v-4.86H214.2Zm0,13h29.55v-5.12H214.2Z"/><path class="cls-18" d="M79,259.43v16.19h-60V259.43H39.29V206.32c0-1.35,0-2.71.07-4.08s.12-2.76.22-4.16l-12,10a7.09,7.09,0,0,1-3.14,1.49,9,9,0,0,1-2.93,0,7,7,0,0,1-2.46-.94,5.64,5.64,0,0,1-1.59-1.41l-7.08-9.4,32.81-27.53h18.5v89.17Z"/><path class="cls-18" d="M148.33,222.94A95.17,95.17,0,0,0,147,205.05a36.47,36.47,0,0,0-3.65-10.94,13.26,13.26,0,0,0-5.17-5.46,12.63,12.63,0,0,0-5.85-1.48,12.48,12.48,0,0,0-5.82,1.48,13,13,0,0,0-5.06,5.46,37.6,37.6,0,0,0-3.54,10.94,98.25,98.25,0,0,0-1.33,17.89,98,98,0,0,0,1.33,17.92,38,38,0,0,0,3.54,10.95,12.88,12.88,0,0,0,5.06,5.49,12.48,12.48,0,0,0,5.82,1.48,12.63,12.63,0,0,0,5.85-1.48,13.17,13.17,0,0,0,5.17-5.49A36.85,36.85,0,0,0,147,240.86,94.93,94.93,0,0,0,148.33,222.94Zm23.13,0a85.81,85.81,0,0,1-3,23.92,49.1,49.1,0,0,1-8.21,16.77,33,33,0,0,1-12.43,9.9,37.44,37.44,0,0,1-15.57,3.25,37,37,0,0,1-15.5-3.25,33,33,0,0,1-12.32-9.9,49,49,0,0,1-8.13-16.77,86.64,86.64,0,0,1-2.93-23.92A86.69,86.69,0,0,1,96.34,199a49.12,49.12,0,0,1,8.13-16.77,32.55,32.55,0,0,1,12.32-9.86,37.24,37.24,0,0,1,15.5-3.22,37.74,37.74,0,0,1,15.57,3.22,32.65,32.65,0,0,1,12.43,9.86A49.2,49.2,0,0,1,168.5,199,85.86,85.86,0,0,1,171.46,222.94Z"/><path class="cls-18" d="M262.17,254.54a21.34,21.34,0,0,0-.53-5.15,9.54,9.54,0,0,0-1.44-3.3,5.05,5.05,0,0,0-2.19-1.72,7.51,7.51,0,0,0-2.75-.5,7.22,7.22,0,0,0-2.71.5,4.64,4.64,0,0,0-2.09,1.72,9.73,9.73,0,0,0-1.36,3.3,22.64,22.64,0,0,0-.49,5.15,20.67,20.67,0,0,0,.49,4.93,8.81,8.81,0,0,0,1.36,3.14,4.72,4.72,0,0,0,2.09,1.67,7.22,7.22,0,0,0,2.71.49,7.51,7.51,0,0,0,2.75-.49,5.15,5.15,0,0,0,2.19-1.67,8.65,8.65,0,0,0,1.44-3.14A19.49,19.49,0,0,0,262.17,254.54Zm-37-47a22,22,0,0,1-1.79,9,22.37,22.37,0,0,1-4.74,7,20.8,20.8,0,0,1-6.88,4.53,21.33,21.33,0,0,1-8.17,1.61,22.39,22.39,0,0,1-8.59-1.61,19.84,19.84,0,0,1-6.79-4.53,20.57,20.57,0,0,1-4.46-7,24.38,24.38,0,0,1-1.61-9,25.56,25.56,0,0,1,1.61-9.28,20.66,20.66,0,0,1,4.46-7.12,20.13,20.13,0,0,1,6.79-4.59,22,22,0,0,1,8.59-1.64,22.57,22.57,0,0,1,8.67,1.64,19.86,19.86,0,0,1,6.84,4.59,20.83,20.83,0,0,1,4.47,7.12A25.56,25.56,0,0,1,225.18,207.57Zm28.23-18.93a11.1,11.1,0,0,1,2.29-1.94,6.72,6.72,0,0,1,3.76-.9h13.93L205.7,272.91a7.66,7.66,0,0,1-2.31,1.94,6.78,6.78,0,0,1-3.36.77h-14.3Zm-42.9,18.93a22.1,22.1,0,0,0-.52-5.21,9.37,9.37,0,0,0-1.45-3.3,5.08,5.08,0,0,0-2.19-1.73,7.47,7.47,0,0,0-2.75-.49,7.22,7.22,0,0,0-2.71.49,4.67,4.67,0,0,0-2.09,1.73,9.56,9.56,0,0,0-1.36,3.3,22.85,22.85,0,0,0-.49,5.21,20.73,20.73,0,0,0,.49,4.93,8.89,8.89,0,0,0,1.36,3.14,4.79,4.79,0,0,0,2.09,1.67,7.42,7.42,0,0,0,2.71.49,7.68,7.68,0,0,0,2.75-.49,5.24,5.24,0,0,0,2.19-1.67A8.73,8.73,0,0,0,210,212.5,20.07,20.07,0,0,0,210.51,207.57Zm66.33,47a22.39,22.39,0,0,1-6.53,16.06,21.43,21.43,0,0,1-15.05,6.13,22.47,22.47,0,0,1-8.6-1.6,20,20,0,0,1-6.78-4.53,20.72,20.72,0,0,1-4.47-7,24.75,24.75,0,0,1-1.6-9,25.85,25.85,0,0,1,1.6-9.28,20.93,20.93,0,0,1,4.47-7.12,20.14,20.14,0,0,1,6.78-4.59,22.11,22.11,0,0,1,8.6-1.63,22.61,22.61,0,0,1,8.67,1.63,20,20,0,0,1,6.84,4.59,20.93,20.93,0,0,1,4.47,7.12A25.64,25.64,0,0,1,276.84,254.54Z"/><path class="cls-18" d="M77.45,356.22H55.51v21.57H77.45Zm43.26-42.89V425.54H104.5v-6.61H29.58v6.61H14.12V313.33ZM104.5,405.09V328.54H29.58v76.55ZM92.41,343.25v47.38H41.55V343.25Z"/><path class="cls-18" d="M235.54,324.55v5.61h9.6v-5.61Zm-71.93,10.73A103.14,103.14,0,0,1,151,345.37,108.84,108.84,0,0,0,145.28,332c9.47-5.61,19.45-14.71,24.81-24.43l11.59,4.24c-.62,1.24-1.37,2.24-2,3.49,5.86,2.74,12.84,6.11,16.58,8.35l-6,11.47a188.53,188.53,0,0,0-17.7-9.72c-2,2.36-4.11,4.86-6.36,7.23h19.33v9.72H163.61Zm80.91,69.06c7.1,4.74,14.71,10,19.2,13.84l-11.1,7.36a184.88,184.88,0,0,0-20.7-16.09l6-5.11H213.72l12.47,4c-5.11,6.86-13.59,13.59-21.32,17.46a112.8,112.8,0,0,0-9.47-9.48l.25.5-10.73,5.36c-.87-2.49-2.11-5.49-3.49-8.85-22.19,8.23-26.05,10-28.67,12.09-.62-3.36-2.74-9.35-4.74-12.22a7.4,7.4,0,0,0,5-7.48V346.87h38.4V391.5H165.6v15.34l11.1-3.74c-1-2.25-2.12-4.24-3.12-6.24l10.1-4.36c3.86,7.48,9,17.2,11.59,23.31,6.61-2.87,13.47-6.85,17.46-11.47h-12.6V357.09h56.6v47.25ZM165.6,357.59V364h12.84v-6.36Zm12.84,23.31v-6.73H165.6v6.73Zm43.64-42.26H199.63V316.2h22.45v-7h13.46v7h22.32v22.44H235.54v4.12h27.18v10.47h-68V342.76h27.31Zm0-8.48v-5.61H211.73v5.61Zm-8.73,40H242.9v-4.73H213.35Zm0,12.84H242.9v-4.86H213.35Zm0,13H242.9v-5.11H213.35Z"/><path class="cls-18" d="M78.18,260v16.19h-60V260H38.43V206.86c0-1.34,0-2.71.07-4.08s.12-2.76.22-4.15l-12,10a7,7,0,0,1-3.14,1.48,8.47,8.47,0,0,1-2.93,0,6.84,6.84,0,0,1-2.45-.94,5.37,5.37,0,0,1-1.59-1.41l-7.09-9.39L42.33,170.8h18.5V260Z"/><path class="cls-18" d="M147.48,223.49a96,96,0,0,0-1.37-17.89,37,37,0,0,0-3.65-10.95,13.26,13.26,0,0,0-5.17-5.46,12.82,12.82,0,0,0-5.85-1.48,12.58,12.58,0,0,0-5.82,1.48,12.9,12.9,0,0,0-5.06,5.46A37.57,37.57,0,0,0,117,205.6a98.05,98.05,0,0,0-1.34,17.89A98,98,0,0,0,117,241.41a38.2,38.2,0,0,0,3.54,11,12.87,12.87,0,0,0,5.06,5.49,12.45,12.45,0,0,0,5.82,1.48,12.69,12.69,0,0,0,5.85-1.48,13.23,13.23,0,0,0,5.17-5.49,37.64,37.64,0,0,0,3.65-11A95.85,95.85,0,0,0,147.48,223.49Zm23.12,0a85.37,85.37,0,0,1-3,23.91,49.18,49.18,0,0,1-8.2,16.77,33.2,33.2,0,0,1-12.43,9.9,37.35,37.35,0,0,1-15.57,3.25,36.87,36.87,0,0,1-15.51-3.25,33,33,0,0,1-12.32-9.9,48.94,48.94,0,0,1-8.13-16.77,86.59,86.59,0,0,1-2.92-23.91,86.62,86.62,0,0,1,2.92-23.92,48.94,48.94,0,0,1,8.13-16.77,32.62,32.62,0,0,1,12.32-9.86,37.17,37.17,0,0,1,15.51-3.22A37.64,37.64,0,0,1,147,172.94a32.8,32.8,0,0,1,12.43,9.86,49.18,49.18,0,0,1,8.2,16.77A85.39,85.39,0,0,1,170.6,223.49Z"/><path class="cls-18" d="M261.31,255.08a21.25,21.25,0,0,0-.52-5.14,9.19,9.19,0,0,0-1.45-3.3,5.08,5.08,0,0,0-2.19-1.73,7.45,7.45,0,0,0-2.74-.49,7.18,7.18,0,0,0-2.71.49,4.69,4.69,0,0,0-2.1,1.73,9.56,9.56,0,0,0-1.36,3.3,22.49,22.49,0,0,0-.49,5.14,20.76,20.76,0,0,0,.49,4.94,8.89,8.89,0,0,0,1.36,3.14,4.72,4.72,0,0,0,2.1,1.66,7.18,7.18,0,0,0,2.71.5,7.46,7.46,0,0,0,2.74-.5,5.13,5.13,0,0,0,2.19-1.66,8.57,8.57,0,0,0,1.45-3.14A19.62,19.62,0,0,0,261.31,255.08Zm-37-47a22.15,22.15,0,0,1-1.79,9,22.44,22.44,0,0,1-4.75,7,21,21,0,0,1-6.87,4.53,21.32,21.32,0,0,1-8.17,1.6,22.47,22.47,0,0,1-8.6-1.6,20,20,0,0,1-6.78-4.53,20.79,20.79,0,0,1-4.47-7,24.31,24.31,0,0,1-1.6-9,25.64,25.64,0,0,1,1.6-9.28,20.93,20.93,0,0,1,4.47-7.12,20.14,20.14,0,0,1,6.78-4.59,22.11,22.11,0,0,1,8.6-1.63,22.56,22.56,0,0,1,8.66,1.63,20,20,0,0,1,6.84,4.59,20.93,20.93,0,0,1,4.47,7.12A25.64,25.64,0,0,1,224.33,208.11Zm28.23-18.93a12,12,0,0,1,2.28-1.94,6.83,6.83,0,0,1,3.76-.89h13.93l-67.68,87.1a7.61,7.61,0,0,1-2.32,1.95,6.84,6.84,0,0,1-3.36.77h-14.3Zm-42.91,18.93a21.64,21.64,0,0,0-.52-5.21,9.27,9.27,0,0,0-1.45-3.3,5,5,0,0,0-2.19-1.72,7.42,7.42,0,0,0-2.74-.5,7.18,7.18,0,0,0-2.71.5,4.67,4.67,0,0,0-2.1,1.72,9.85,9.85,0,0,0-1.36,3.3,23.49,23.49,0,0,0-.49,5.21,21.2,21.2,0,0,0,.49,4.93,9,9,0,0,0,1.36,3.15,4.79,4.79,0,0,0,2.1,1.66,7.18,7.18,0,0,0,2.71.49,7.41,7.41,0,0,0,2.74-.49,5.15,5.15,0,0,0,2.19-1.66,8.54,8.54,0,0,0,1.45-3.15A19.54,19.54,0,0,0,209.65,208.11Zm66.33,47a22.28,22.28,0,0,1-6.53,16.06,20.81,20.81,0,0,1-6.87,4.53,21.36,21.36,0,0,1-8.17,1.61,22.47,22.47,0,0,1-8.6-1.61,19.84,19.84,0,0,1-6.78-4.53,20.63,20.63,0,0,1-4.47-7,24.54,24.54,0,0,1-1.6-9,25.54,25.54,0,0,1,1.6-9.27,20.83,20.83,0,0,1,4.47-7.12,20,20,0,0,1,6.78-4.6,22.29,22.29,0,0,1,8.6-1.63,22.75,22.75,0,0,1,8.66,1.63,19.88,19.88,0,0,1,6.84,4.6,20.83,20.83,0,0,1,4.47,7.12A25.54,25.54,0,0,1,276,255.08Z"/><path class="cls-18" d="M76.6,356.76H54.65v21.57H76.6Zm43.26-42.88v112.2H103.65v-6.61H28.72v6.61H13.26V313.88Zm-16.21,91.75V329.09H28.72v76.54ZM91.56,343.8v47.37H40.69V343.8Z"/><path class="cls-18" d="M234.68,325.1v5.61h9.6V325.1Zm-71.93,10.72a104.12,104.12,0,0,1-12.59,10.1,106.17,106.17,0,0,0-5.74-13.34c9.48-5.61,19.45-14.71,24.81-24.44l11.6,4.24c-.63,1.25-1.37,2.25-2,3.49,5.86,2.75,12.84,6.11,16.58,8.36l-6,11.46a196,196,0,0,0-17.7-9.72c-2,2.37-4.12,4.86-6.36,7.23h19.32v9.73H162.75Zm80.91,69.07c7.11,4.73,14.71,10,19.2,13.84l-11.1,7.35A185,185,0,0,0,231.07,410l6-5.11H212.87l12.46,4c-5.11,6.85-13.58,13.59-21.31,17.45a114.5,114.5,0,0,0-9.48-9.48l.25.5-10.72,5.36c-.87-2.49-2.12-5.48-3.49-8.85-22.19,8.23-26.06,10-28.68,12.1-.62-3.37-2.74-9.35-4.73-12.22a7.41,7.41,0,0,0,5-7.48V347.41h38.4v44.64H164.74v15.33l11.1-3.74c-1-2.24-2.12-4.24-3.12-6.23l10.1-4.37c3.87,7.48,9,17.21,11.6,23.32,6.6-2.87,13.46-6.86,17.45-11.47H199.28V357.64h56.6v47.25Zm-78.92-46.75v6.35h12.85v-6.35Zm12.85,23.31v-6.73H164.74v6.73Zm43.63-42.26H198.78V316.75h22.44v-7h13.46v7H257v22.44H234.68v4.11h27.18v10.47H193.92V343.3h27.3Zm0-8.48V325.1H210.87v5.61Zm-8.73,40H242V366H212.49Zm0,12.84H242v-4.86H212.49Zm0,13H242v-5.11H212.49Z"/><path class="cls-18" d="M77.32,260.52v16.19h-60V260.52H37.58V207.41c0-1.35,0-2.71.07-4.08s.12-2.76.21-4.16l-12,10a7,7,0,0,1-3.14,1.48,8.47,8.47,0,0,1-2.93,0,6.64,6.64,0,0,1-2.46-.94,5.47,5.47,0,0,1-1.59-1.4l-7.08-9.4,32.81-27.53H60v89.17Z"/><path class="cls-18" d="M146.62,224a96,96,0,0,0-1.37-17.89,36.66,36.66,0,0,0-3.65-10.94,13.26,13.26,0,0,0-5.17-5.46,12.66,12.66,0,0,0-5.85-1.48,12.48,12.48,0,0,0-5.82,1.48,13,13,0,0,0-5.06,5.46,37.49,37.49,0,0,0-3.54,10.94A98.25,98.25,0,0,0,114.83,224,98,98,0,0,0,116.16,242a38,38,0,0,0,3.54,11,12.94,12.94,0,0,0,5.06,5.49,12.48,12.48,0,0,0,5.82,1.48,12.66,12.66,0,0,0,5.85-1.48,13.23,13.23,0,0,0,5.17-5.49,37.14,37.14,0,0,0,3.65-11A95.78,95.78,0,0,0,146.62,224Zm23.13,0a85.47,85.47,0,0,1-3,23.92,49,49,0,0,1-8.2,16.77,33,33,0,0,1-12.43,9.9,37.44,37.44,0,0,1-15.57,3.25,37,37,0,0,1-15.5-3.25,33,33,0,0,1-12.32-9.9A49.12,49.12,0,0,1,94.63,248,86.69,86.69,0,0,1,91.7,224a86.64,86.64,0,0,1,2.93-23.92,49.12,49.12,0,0,1,8.13-16.77,32.55,32.55,0,0,1,12.32-9.86,37.24,37.24,0,0,1,15.5-3.22,37.74,37.74,0,0,1,15.57,3.22,32.65,32.65,0,0,1,12.43,9.86,49,49,0,0,1,8.2,16.77A85.42,85.42,0,0,1,169.75,224Z"/><path class="cls-18" d="M260.46,255.63a21.28,21.28,0,0,0-.53-5.15,9.45,9.45,0,0,0-1.44-3.3,5.05,5.05,0,0,0-2.19-1.72,7.51,7.51,0,0,0-2.75-.5,7.22,7.22,0,0,0-2.71.5,4.72,4.72,0,0,0-2.1,1.72,9.85,9.85,0,0,0-1.35,3.3,22.58,22.58,0,0,0-.49,5.15,20.67,20.67,0,0,0,.49,4.93,9,9,0,0,0,1.35,3.14,4.8,4.8,0,0,0,2.1,1.67,7.22,7.22,0,0,0,2.71.49,7.51,7.51,0,0,0,2.75-.49,5.15,5.15,0,0,0,2.19-1.67,8.65,8.65,0,0,0,1.44-3.14A19.49,19.49,0,0,0,260.46,255.63Zm-37-47a22.25,22.25,0,0,1-6.53,16,21.43,21.43,0,0,1-15.05,6.13,22.38,22.38,0,0,1-8.59-1.6,19.93,19.93,0,0,1-6.79-4.53,20.69,20.69,0,0,1-4.47-7,24.51,24.51,0,0,1-1.6-9,25.76,25.76,0,0,1,1.6-9.27,20.83,20.83,0,0,1,4.47-7.12,20,20,0,0,1,6.79-4.6,22.21,22.21,0,0,1,8.59-1.63,22.76,22.76,0,0,1,8.67,1.63,19.88,19.88,0,0,1,6.84,4.6,20.83,20.83,0,0,1,4.47,7.12A25.54,25.54,0,0,1,223.47,208.65Zm28.23-18.92a11.3,11.3,0,0,1,2.28-1.94,6.77,6.77,0,0,1,3.76-.9h13.94L204,274a7.66,7.66,0,0,1-2.31,1.94,6.89,6.89,0,0,1-3.36.77H184Zm-42.9,18.92a21.5,21.5,0,0,0-.53-5.2,9.37,9.37,0,0,0-1.44-3.3,5.08,5.08,0,0,0-2.19-1.73,7.51,7.51,0,0,0-2.75-.49,7.22,7.22,0,0,0-2.71.49,4.67,4.67,0,0,0-2.09,1.73,9.56,9.56,0,0,0-1.36,3.3,22.81,22.81,0,0,0-.49,5.2,20.76,20.76,0,0,0,.49,4.94,8.89,8.89,0,0,0,1.36,3.14,4.7,4.7,0,0,0,2.09,1.66,7.22,7.22,0,0,0,2.71.5,7.51,7.51,0,0,0,2.75-.5,5.13,5.13,0,0,0,2.19-1.66,8.73,8.73,0,0,0,1.44-3.14A19.57,19.57,0,0,0,208.8,208.65Zm66.33,47a22.34,22.34,0,0,1-6.54,16.06,21,21,0,0,1-6.87,4.53,21.32,21.32,0,0,1-8.17,1.6,22.47,22.47,0,0,1-8.6-1.6,20,20,0,0,1-6.78-4.53,20.72,20.72,0,0,1-4.47-7,24.54,24.54,0,0,1-1.6-9,25.6,25.6,0,0,1,1.6-9.28,20.93,20.93,0,0,1,4.47-7.12,20.14,20.14,0,0,1,6.78-4.59,22.11,22.11,0,0,1,8.6-1.64,22.52,22.52,0,0,1,8.66,1.64,19.94,19.94,0,0,1,6.85,4.59,20.93,20.93,0,0,1,4.47,7.12A25.81,25.81,0,0,1,275.13,255.63Z"/><path class="cls-18" d="M75.74,357.31H53.8v21.57H75.74ZM119,314.42v112.2H102.79V420H27.87v6.6H12.41V314.42Zm-16.21,91.76V329.63H27.87v76.55ZM90.7,344.34v47.38H39.83V344.34Z"/><path class="cls-18" d="M233.83,325.64v5.61h9.6v-5.61Zm-71.94,10.72a103.35,103.35,0,0,1-12.59,10.1,107.53,107.53,0,0,0-5.73-13.34c9.47-5.61,19.45-14.71,24.81-24.43L180,312.93c-.62,1.24-1.37,2.24-2,3.49,5.86,2.74,12.84,6.11,16.58,8.35l-6,11.47a189.82,189.82,0,0,0-17.7-9.72c-2,2.36-4.11,4.86-6.36,7.23h19.33v9.72h-22Zm80.92,69.07c7.1,4.74,14.71,10,19.19,13.84l-11.09,7.35a186.08,186.08,0,0,0-20.7-16.08l6-5.11H212l12.47,4c-5.11,6.86-13.59,13.59-21.32,17.45a114.26,114.26,0,0,0-9.47-9.47l.24.5-10.72,5.36c-.87-2.49-2.12-5.49-3.49-8.85-22.19,8.23-26.05,10-28.67,12.09-.63-3.37-2.74-9.35-4.74-12.22a7.41,7.41,0,0,0,5-7.48V348h38.4v44.63H163.89v15.33l11.1-3.74c-1-2.24-2.12-4.23-3.12-6.23l10.1-4.36c3.86,7.48,9,17.2,11.59,23.31C200.17,414,207,410,211,405.43H198.42V358.18H255v47.25Zm-78.92-46.75V365h12.84v-6.36ZM176.73,382v-6.73H163.89V382Zm43.63-42.26H197.92V317.29h22.44v-7h13.47v7h22.32v22.44H233.83v4.11H261v10.48H193.06V343.84h27.3Zm0-8.48v-5.61H210v5.61Zm-8.72,40h29.55v-4.74H211.64Zm0,12.84h29.55v-4.86H211.64Zm0,13h29.55V392H211.64Z"/><path class="cls-18" d="M76.47,261.07v16.19h-60V261.07H36.72V208c0-1.35,0-2.71.07-4.08s.12-2.76.22-4.16l-12,10a7,7,0,0,1-3.14,1.48,8.47,8.47,0,0,1-2.93,0,6.84,6.84,0,0,1-2.45-.94,5.37,5.37,0,0,1-1.59-1.41l-7.09-9.39,32.81-27.54h18.5v89.18Z"/><path class="cls-18" d="M145.77,224.57a94.94,94.94,0,0,0-1.38-17.88,36.45,36.45,0,0,0-3.65-10.95,13.24,13.24,0,0,0-5.16-5.46,12.83,12.83,0,0,0-5.86-1.48,12.57,12.57,0,0,0-5.81,1.48,12.9,12.9,0,0,0-5.06,5.46,37.57,37.57,0,0,0-3.54,10.95A97.12,97.12,0,0,0,114,224.57a97.11,97.11,0,0,0,1.34,17.93,38,38,0,0,0,3.54,10.94,12.85,12.85,0,0,0,5.06,5.5,12.57,12.57,0,0,0,5.81,1.48,12.83,12.83,0,0,0,5.86-1.48,13.19,13.19,0,0,0,5.16-5.5,36.88,36.88,0,0,0,3.65-10.94A94.93,94.93,0,0,0,145.77,224.57Zm23.12,0a85.76,85.76,0,0,1-3,23.92,49.18,49.18,0,0,1-8.2,16.77,33.2,33.2,0,0,1-12.43,9.9,37.36,37.36,0,0,1-15.58,3.25,36.86,36.86,0,0,1-15.5-3.25,33,33,0,0,1-12.32-9.9,48.94,48.94,0,0,1-8.13-16.77,86.62,86.62,0,0,1-2.92-23.92,86.72,86.72,0,0,1,2.92-23.92,49,49,0,0,1,8.13-16.76A32.75,32.75,0,0,1,114.22,174a37.3,37.3,0,0,1,15.5-3.21A37.81,37.81,0,0,1,145.3,174a32.92,32.92,0,0,1,12.43,9.87,49.22,49.22,0,0,1,8.2,16.76A85.86,85.86,0,0,1,168.89,224.57Z"/><path class="cls-18" d="M259.6,256.17a21.25,21.25,0,0,0-.52-5.14,9.19,9.19,0,0,0-1.45-3.3,5.08,5.08,0,0,0-2.19-1.73,7.45,7.45,0,0,0-2.74-.49A7.18,7.18,0,0,0,250,246a4.64,4.64,0,0,0-2.1,1.73,9.56,9.56,0,0,0-1.36,3.3,22.49,22.49,0,0,0-.49,5.14,20.62,20.62,0,0,0,.49,4.93,8.86,8.86,0,0,0,1.36,3.15,4.74,4.74,0,0,0,2.1,1.66,7.18,7.18,0,0,0,2.71.5,7.46,7.46,0,0,0,2.74-.5,5.21,5.21,0,0,0,2.19-1.66,8.54,8.54,0,0,0,1.45-3.15A19.48,19.48,0,0,0,259.6,256.17Zm-37-47a22.14,22.14,0,0,1-1.78,9,22.73,22.73,0,0,1-4.75,7,21,21,0,0,1-6.87,4.53,21.35,21.35,0,0,1-8.17,1.6,22.47,22.47,0,0,1-8.6-1.6,20,20,0,0,1-6.78-4.53,20.89,20.89,0,0,1-4.47-7,24.31,24.31,0,0,1-1.6-9,25.64,25.64,0,0,1,1.6-9.28,20.93,20.93,0,0,1,4.47-7.12,20.14,20.14,0,0,1,6.78-4.59,22.11,22.11,0,0,1,8.6-1.64,22.56,22.56,0,0,1,8.66,1.64,20,20,0,0,1,6.84,4.59,20.93,20.93,0,0,1,4.47,7.12A25.64,25.64,0,0,1,222.61,209.2Zm28.24-18.93a11.68,11.68,0,0,1,2.28-1.94,6.83,6.83,0,0,1,3.76-.89h13.93l-67.68,87.1a7.76,7.76,0,0,1-2.32,1.95,6.84,6.84,0,0,1-3.36.77h-14.3ZM207.94,209.2a21.64,21.64,0,0,0-.52-5.21,9.19,9.19,0,0,0-1.45-3.3,5.05,5.05,0,0,0-2.19-1.72,7.42,7.42,0,0,0-2.74-.5,7.18,7.18,0,0,0-2.71.5,4.67,4.67,0,0,0-2.1,1.72,9.56,9.56,0,0,0-1.36,3.3,22.91,22.91,0,0,0-.49,5.21,20.67,20.67,0,0,0,.49,4.93,8.81,8.81,0,0,0,1.36,3.14,4.75,4.75,0,0,0,2.1,1.67,7.18,7.18,0,0,0,2.71.49,7.41,7.41,0,0,0,2.74-.49,5.15,5.15,0,0,0,2.19-1.67,8.49,8.49,0,0,0,1.45-3.14A19.54,19.54,0,0,0,207.94,209.2Zm66.33,47a22.28,22.28,0,0,1-6.53,16.06,21,21,0,0,1-6.87,4.53,21.35,21.35,0,0,1-8.17,1.6,22.44,22.44,0,0,1-8.6-1.6,20,20,0,0,1-6.78-4.53,20.63,20.63,0,0,1-4.47-7,24.54,24.54,0,0,1-1.6-9,25.54,25.54,0,0,1,1.6-9.27,21,21,0,0,1,4.47-7.13,20.14,20.14,0,0,1,6.78-4.59,22.07,22.07,0,0,1,8.6-1.63,22.56,22.56,0,0,1,8.66,1.63,20,20,0,0,1,6.84,4.59,21,21,0,0,1,4.47,7.13A25.54,25.54,0,0,1,274.27,256.17Z"/><path class="cls-18" d="M74.88,357.85H52.94v21.57H74.88ZM118.14,315v112.2h-16.2v-6.61H27v6.61H11.55V315Zm-16.2,91.75V330.18H27v76.54Zm-12.1-61.83v47.37H39V344.89Z"/><path class="cls-18" d="M233,326.19v5.61h9.6v-5.61ZM161,336.91A104.9,104.9,0,0,1,148.45,347a107.66,107.66,0,0,0-5.74-13.34c9.48-5.61,19.45-14.71,24.81-24.44l11.6,4.24c-.63,1.25-1.37,2.24-2,3.49,5.86,2.74,12.84,6.11,16.58,8.35l-6,11.47a196,196,0,0,0-17.7-9.72c-2,2.37-4.12,4.86-6.36,7.23H183V344H161ZM242,406c7.11,4.73,14.71,10,19.2,13.83l-11.1,7.36a183.79,183.79,0,0,0-20.69-16.08l6-5.11H211.16l12.46,4c-5.11,6.86-13.59,13.59-21.31,17.46a114.5,114.5,0,0,0-9.48-9.48l.25.5-10.72,5.36c-.87-2.49-2.12-5.48-3.49-8.85-22.19,8.23-26.06,10-28.68,12.09-.62-3.36-2.74-9.35-4.73-12.21a7.42,7.42,0,0,0,5-7.48V348.5h38.4v44.63H163v15.34l11.1-3.74c-1-2.25-2.12-4.24-3.12-6.23l10.1-4.37c3.87,7.48,9,17.21,11.59,23.32,6.61-2.87,13.47-6.86,17.46-11.47H197.57V358.73h56.6V406ZM163,359.22v6.36h12.85v-6.36Zm12.85,23.32v-6.73H163v6.73Zm43.63-42.27H197.07V317.83h22.44v-7H233v7h22.32v22.44H233v4.12h27.18v10.47H192.21V344.39h27.3Zm0-8.47v-5.61H209.16v5.61Zm-8.73,40h29.55v-4.74H210.78Zm0,12.84h29.55v-4.87H210.78Zm0,13h29.55v-5.11H210.78Z"/><path class="cls-18" d="M75.61,261.61V277.8h-60V261.61H35.86V208.5c0-1.35,0-2.71.08-4.09s.12-2.75.21-4.15l-12,10A7,7,0,0,1,21,211.71a8.42,8.42,0,0,1-2.92,0,6.81,6.81,0,0,1-2.46-.94A5.35,5.35,0,0,1,14,209.36L7,200l32.81-27.53h18.5v89.17Z"/><path class="cls-18" d="M144.91,225.12a96,96,0,0,0-1.37-17.89,36.73,36.73,0,0,0-3.65-10.95,13.29,13.29,0,0,0-5.17-5.45,12.66,12.66,0,0,0-5.85-1.48,12.45,12.45,0,0,0-5.82,1.48,13,13,0,0,0-5.06,5.45,37.57,37.57,0,0,0-3.54,10.95,98.17,98.17,0,0,0-1.33,17.89A98.08,98.08,0,0,0,114.45,243,38.09,38.09,0,0,0,118,254a12.94,12.94,0,0,0,5.06,5.49,12.45,12.45,0,0,0,5.82,1.48,12.66,12.66,0,0,0,5.85-1.48,13.23,13.23,0,0,0,5.17-5.49,37.24,37.24,0,0,0,3.65-11A95.85,95.85,0,0,0,144.91,225.12Zm23.13,0a85.47,85.47,0,0,1-3,23.92,49,49,0,0,1-8.2,16.76,32.86,32.86,0,0,1-12.43,9.9A37.29,37.29,0,0,1,128.87,279a36.8,36.8,0,0,1-15.5-3.26,32.76,32.76,0,0,1-12.32-9.9A49,49,0,0,1,92.92,249,86.69,86.69,0,0,1,90,225.12a86.64,86.64,0,0,1,2.93-23.92,49,49,0,0,1,8.13-16.77,32.55,32.55,0,0,1,12.32-9.86,37.24,37.24,0,0,1,15.5-3.22,37.74,37.74,0,0,1,15.57,3.22,32.65,32.65,0,0,1,12.43,9.86,49.09,49.09,0,0,1,8.2,16.77A85.42,85.42,0,0,1,168,225.12Z"/><path class="cls-18" d="M258.75,256.72a21.28,21.28,0,0,0-.53-5.15,9.19,9.19,0,0,0-1.45-3.3,4.9,4.9,0,0,0-2.18-1.72,7.51,7.51,0,0,0-2.75-.5,7.22,7.22,0,0,0-2.71.5,4.65,4.65,0,0,0-2.1,1.72,9.76,9.76,0,0,0-1.35,3.3,22.52,22.52,0,0,0-.5,5.15,20.68,20.68,0,0,0,.5,4.93,9.07,9.07,0,0,0,1.35,3.14,4.88,4.88,0,0,0,2.1,1.67,7.22,7.22,0,0,0,2.71.49,7.51,7.51,0,0,0,2.75-.49,5.15,5.15,0,0,0,2.18-1.67,8.57,8.57,0,0,0,1.45-3.14A19.54,19.54,0,0,0,258.75,256.72Zm-37-47a22.2,22.2,0,0,1-6.54,16,21,21,0,0,1-6.87,4.53,21.32,21.32,0,0,1-8.17,1.6,22.47,22.47,0,0,1-8.6-1.6,20,20,0,0,1-6.78-4.53,20.69,20.69,0,0,1-4.47-7,24.31,24.31,0,0,1-1.6-9,25.54,25.54,0,0,1,1.6-9.27,20.83,20.83,0,0,1,4.47-7.12,20,20,0,0,1,6.78-4.6,22.11,22.11,0,0,1,8.6-1.63,22.52,22.52,0,0,1,8.66,1.63,19.83,19.83,0,0,1,6.85,4.6,20.83,20.83,0,0,1,4.47,7.12A25.76,25.76,0,0,1,221.76,209.74ZM250,190.82a11.3,11.3,0,0,1,2.28-1.94A6.77,6.77,0,0,1,256,188H270l-67.69,87.11A7.66,7.66,0,0,1,200,277a6.89,6.89,0,0,1-3.36.77h-14.3Zm-42.9,18.92a21.64,21.64,0,0,0-.53-5.21,9.39,9.39,0,0,0-1.44-3.29,5,5,0,0,0-2.19-1.73,7.51,7.51,0,0,0-2.75-.49,7.22,7.22,0,0,0-2.71.49,4.68,4.68,0,0,0-2.1,1.73,9.79,9.79,0,0,0-1.35,3.29,23,23,0,0,0-.49,5.21,20.62,20.62,0,0,0,.49,4.93,9,9,0,0,0,1.35,3.15,4.85,4.85,0,0,0,2.1,1.66,7.22,7.22,0,0,0,2.71.5,7.51,7.51,0,0,0,2.75-.5,5.21,5.21,0,0,0,2.19-1.66,8.7,8.7,0,0,0,1.44-3.15A19.43,19.43,0,0,0,207.09,209.74Zm66.33,47a22.34,22.34,0,0,1-6.54,16.06,21,21,0,0,1-6.87,4.53,21.51,21.51,0,0,1-8.17,1.6,22.66,22.66,0,0,1-8.6-1.6,20,20,0,0,1-6.78-4.53,20.82,20.82,0,0,1-4.47-7,24.54,24.54,0,0,1-1.6-9,25.6,25.6,0,0,1,1.6-9.28,20.93,20.93,0,0,1,4.47-7.12,20.14,20.14,0,0,1,6.78-4.59,22.11,22.11,0,0,1,8.6-1.64,22.56,22.56,0,0,1,8.66,1.64,20,20,0,0,1,6.85,4.59,20.93,20.93,0,0,1,4.47,7.12A25.81,25.81,0,0,1,273.42,256.72Z"/><path class="cls-18" d="M74,358.4H52.09V380H74Zm43.26-42.89v112.2H101.08v-6.6H26.16v6.6H10.7V315.51Zm-16.21,91.76V330.72H26.16v76.55ZM89,345.43v47.38H38.12V345.43Z"/><path class="cls-18" d="M232.12,326.73v5.61h9.6v-5.61Zm-71.94,10.72a103.35,103.35,0,0,1-12.59,10.1,107.53,107.53,0,0,0-5.73-13.34c9.47-5.61,19.45-14.71,24.81-24.43L178.26,314c-.62,1.25-1.37,2.25-2,3.5,5.86,2.74,12.84,6.1,16.58,8.35l-6,11.47a192,192,0,0,0-17.7-9.73c-2,2.37-4.11,4.87-6.36,7.23h19.33v9.73H160.18Zm80.91,69.07c7.11,4.74,14.72,10,19.2,13.84l-11.09,7.35a186.08,186.08,0,0,0-20.7-16.08l6-5.11H210.3l12.47,4c-5.11,6.86-13.59,13.59-21.32,17.45a112.91,112.91,0,0,0-9.48-9.47l.25.5-10.72,5.36c-.87-2.5-2.12-5.49-3.49-8.85-22.19,8.22-26,10-28.67,12.09-.63-3.37-2.75-9.35-4.74-12.22a7.42,7.42,0,0,0,5-7.48V349.05H188v44.63h-25.8V409l11.09-3.74c-1-2.24-2.12-4.24-3.11-6.23l10.1-4.36c3.86,7.48,9,17.2,11.59,23.31,6.61-2.87,13.46-6.86,17.45-11.47H196.71V359.27h56.6v47.25Zm-78.91-46.75v6.36H175v-6.36ZM175,383.08v-6.73H162.18v6.73Zm43.63-42.26H196.21V318.38h22.44v-7h13.47v7h22.31v22.44H232.12v4.11H259.3v10.48h-68V344.93h27.3Zm0-8.48v-5.61H208.31v5.61Zm-8.72,40h29.54v-4.74H209.93Zm0,12.84h29.54v-4.86H209.93Zm0,13h29.54v-5.11H209.93Z"/><path class="cls-18" d="M74.76,262.16v16.18h-60V262.16H35V209c0-1.35,0-2.71.07-4.08s.12-2.76.22-4.16l-12,10a7.06,7.06,0,0,1-3.14,1.48,8.47,8.47,0,0,1-2.93,0,7,7,0,0,1-2.46-.94,5.44,5.44,0,0,1-1.58-1.41l-7.09-9.4L38.91,173h18.5v89.18Z"/><path class="cls-18" d="M144.06,225.66a94.94,94.94,0,0,0-1.38-17.88A36.45,36.45,0,0,0,139,196.83a13.24,13.24,0,0,0-5.16-5.46,12.83,12.83,0,0,0-5.86-1.48,12.57,12.57,0,0,0-5.81,1.48,12.9,12.9,0,0,0-5.06,5.46,37.57,37.57,0,0,0-3.54,10.95,97.12,97.12,0,0,0-1.34,17.88,96.92,96.92,0,0,0,1.34,17.92,38,38,0,0,0,3.54,10.95A12.76,12.76,0,0,0,122.2,260a12.46,12.46,0,0,0,5.81,1.49,12.72,12.72,0,0,0,5.86-1.49,13.1,13.1,0,0,0,5.16-5.49,36.85,36.85,0,0,0,3.65-10.95A94.74,94.74,0,0,0,144.06,225.66Zm23.12,0a85.81,85.81,0,0,1-3,23.92,49.18,49.18,0,0,1-8.2,16.77,33.2,33.2,0,0,1-12.43,9.9A37.36,37.36,0,0,1,128,279.5a36.83,36.83,0,0,1-15.5-3.25,33,33,0,0,1-12.32-9.9,48.94,48.94,0,0,1-8.13-16.77,86.64,86.64,0,0,1-2.93-23.92,86.69,86.69,0,0,1,2.93-23.92A49,49,0,0,1,100.19,185a32.65,32.65,0,0,1,12.32-9.87A37.27,37.27,0,0,1,128,171.9a37.81,37.81,0,0,1,15.58,3.21A32.83,32.83,0,0,1,156,185a49.22,49.22,0,0,1,8.2,16.76A85.86,85.86,0,0,1,167.18,225.66Z"/><path class="cls-18" d="M257.89,257.26a21.39,21.39,0,0,0-.52-5.15,9.4,9.4,0,0,0-1.45-3.29,5,5,0,0,0-2.19-1.73,7.45,7.45,0,0,0-2.74-.49,7.27,7.27,0,0,0-2.72.49,4.6,4.6,0,0,0-2.09,1.73,9.59,9.59,0,0,0-1.36,3.29,22.64,22.64,0,0,0-.49,5.15,20.67,20.67,0,0,0,.49,4.93,8.86,8.86,0,0,0,1.36,3.15,4.77,4.77,0,0,0,2.09,1.66,7.27,7.27,0,0,0,2.72.49,7.45,7.45,0,0,0,2.74-.49,5.21,5.21,0,0,0,2.19-1.66,8.71,8.71,0,0,0,1.45-3.15A19.54,19.54,0,0,0,257.89,257.26Zm-37-47a22.14,22.14,0,0,1-1.78,9,22.57,22.57,0,0,1-4.75,7,20.84,20.84,0,0,1-6.87,4.54,21.54,21.54,0,0,1-8.17,1.6,22.63,22.63,0,0,1-8.6-1.6,19.87,19.87,0,0,1-6.78-4.54,20.74,20.74,0,0,1-4.47-7,24.31,24.31,0,0,1-1.6-9,25.6,25.6,0,0,1,1.6-9.28,20.93,20.93,0,0,1,4.47-7.12,20.14,20.14,0,0,1,6.78-4.59,22.08,22.08,0,0,1,8.6-1.64A22.56,22.56,0,0,1,208,189.3a20,20,0,0,1,6.84,4.59A20.93,20.93,0,0,1,219.3,201,25.6,25.6,0,0,1,220.9,210.29Zm28.24-18.93a11.07,11.07,0,0,1,2.28-1.94,6.83,6.83,0,0,1,3.76-.89h13.93l-67.69,87.1a7.43,7.43,0,0,1-2.31,1.94,6.73,6.73,0,0,1-3.36.77h-14.3Zm-42.91,18.93a21.64,21.64,0,0,0-.52-5.21,9.19,9.19,0,0,0-1.45-3.3,5.08,5.08,0,0,0-2.19-1.73,7.66,7.66,0,0,0-2.74-.49,7.38,7.38,0,0,0-2.71.49,4.64,4.64,0,0,0-2.1,1.73,9.56,9.56,0,0,0-1.36,3.3,22.91,22.91,0,0,0-.49,5.21,20.73,20.73,0,0,0,.49,4.93,8.81,8.81,0,0,0,1.36,3.14,4.76,4.76,0,0,0,2.1,1.67,7.18,7.18,0,0,0,2.71.49,7.45,7.45,0,0,0,2.74-.49,5.24,5.24,0,0,0,2.19-1.67,8.49,8.49,0,0,0,1.45-3.14A19.59,19.59,0,0,0,206.23,210.29Zm66.33,47A22.28,22.28,0,0,1,266,273.32a21,21,0,0,1-6.88,4.53,21.31,21.31,0,0,1-8.16,1.6,22.44,22.44,0,0,1-8.6-1.6,20,20,0,0,1-6.78-4.53,20.63,20.63,0,0,1-4.47-7,24.55,24.55,0,0,1-1.61-9,25.64,25.64,0,0,1,1.61-9.28,21,21,0,0,1,4.47-7.12,20.14,20.14,0,0,1,6.78-4.59,22.07,22.07,0,0,1,8.6-1.63,22.56,22.56,0,0,1,8.66,1.63,20,20,0,0,1,6.84,4.59A21,21,0,0,1,271,248,25.64,25.64,0,0,1,272.56,257.26Z"/><path class="cls-18" d="M73.17,358.94H51.23v21.57H73.17Zm43.26-42.88v112.2h-16.2v-6.61H25.3v6.61H9.84V316.06Zm-16.2,91.75V331.26H25.3v76.55ZM88.13,346v47.37H37.27V346Z"/><path class="cls-18" d="M231.26,327.28v5.61h9.6v-5.61ZM159.33,338a104.9,104.9,0,0,1-12.59,10.1A107.66,107.66,0,0,0,141,334.76c9.48-5.61,19.45-14.72,24.81-24.44l11.6,4.24c-.63,1.25-1.38,2.24-2,3.49,5.86,2.74,12.84,6.11,16.58,8.35l-6,11.47a190.13,190.13,0,0,0-17.71-9.72c-2,2.37-4.11,4.86-6.35,7.23h19.32v9.72H159.33Zm80.91,69.06c7.11,4.74,14.71,10,19.2,13.84l-11.1,7.36a182.64,182.64,0,0,0-20.69-16.08l6-5.12H209.45l12.46,4c-5.11,6.86-13.59,13.59-21.32,17.46a111.31,111.31,0,0,0-9.47-9.48l.25.5-10.72,5.36c-.88-2.49-2.12-5.48-3.49-8.85-22.2,8.23-26.06,10-28.68,12.09-.62-3.36-2.74-9.35-4.74-12.21a7.42,7.42,0,0,0,5-7.48V349.59h38.4v44.63H161.32v15.34l11.1-3.74c-1-2.25-2.12-4.24-3.12-6.24l10.1-4.36c3.86,7.48,9,17.2,11.59,23.31,6.61-2.86,13.47-6.85,17.46-11.47H195.86V359.81h56.6v47.25Zm-78.92-46.75v6.36h12.84v-6.36Zm12.84,23.32v-6.74H161.32v6.74Zm43.64-42.27H195.36V318.92H217.8v-7h13.46v7h22.32v22.44H231.26v4.12h27.18V356H190.5V345.48h27.3Zm0-8.47v-5.61H207.45v5.61Zm-8.73,40h29.55v-4.73H209.07Zm0,12.85h29.55v-4.87H209.07Zm0,13h29.55V393.6H209.07Z"/><path class="cls-18" d="M73.9,262.7v16.19h-60V262.7H34.15V209.59c0-1.35,0-2.71.08-4.09s.12-2.75.21-4.15l-12,10a7,7,0,0,1-3.15,1.48,8.42,8.42,0,0,1-2.92,0,6.81,6.81,0,0,1-2.46-.94,5.49,5.49,0,0,1-1.59-1.41l-7.08-9.39,32.81-27.53h18.5V262.7Z"/><path class="cls-18" d="M143.2,226.21a96,96,0,0,0-1.37-17.89,36.73,36.73,0,0,0-3.65-10.95,13.17,13.17,0,0,0-5.17-5.45,12.69,12.69,0,0,0-5.85-1.48,12.45,12.45,0,0,0-5.82,1.48,12.87,12.87,0,0,0-5.06,5.45,37.57,37.57,0,0,0-3.54,10.95,98.05,98.05,0,0,0-1.34,17.89,98,98,0,0,0,1.34,17.92,38.2,38.2,0,0,0,3.54,11,12.94,12.94,0,0,0,5.06,5.49,12.45,12.45,0,0,0,5.82,1.48,12.69,12.69,0,0,0,5.85-1.48,13.23,13.23,0,0,0,5.17-5.49,37.34,37.34,0,0,0,3.65-11A95.85,95.85,0,0,0,143.2,226.21Zm23.13,0a85.47,85.47,0,0,1-3,23.92,49,49,0,0,1-8.2,16.76,33,33,0,0,1-12.43,9.9A37.28,37.28,0,0,1,127.16,280a36.8,36.8,0,0,1-15.5-3.25,32.77,32.77,0,0,1-12.32-9.9,49,49,0,0,1-8.13-16.76,86.32,86.32,0,0,1-2.93-23.92,86.27,86.27,0,0,1,2.93-23.92,48.94,48.94,0,0,1,8.13-16.77,32.47,32.47,0,0,1,12.32-9.86,37.09,37.09,0,0,1,15.5-3.22,37.58,37.58,0,0,1,15.57,3.22,32.72,32.72,0,0,1,12.43,9.86,49,49,0,0,1,8.2,16.77A85.42,85.42,0,0,1,166.33,226.21Z"/><path class="cls-18" d="M257,257.81a21.28,21.28,0,0,0-.53-5.15,9.19,9.19,0,0,0-1.45-3.3,5,5,0,0,0-2.19-1.73,7.62,7.62,0,0,0-2.74-.49,7.42,7.42,0,0,0-2.71.49,4.74,4.74,0,0,0-2.1,1.73,9.76,9.76,0,0,0-1.35,3.3,22.52,22.52,0,0,0-.5,5.15,20.68,20.68,0,0,0,.5,4.93,9.07,9.07,0,0,0,1.35,3.14,4.88,4.88,0,0,0,2.1,1.67,7.22,7.22,0,0,0,2.71.49,7.41,7.41,0,0,0,2.74-.49,5.11,5.11,0,0,0,2.19-1.67,8.57,8.57,0,0,0,1.45-3.14A19.54,19.54,0,0,0,257,257.81Zm-37-47a22.2,22.2,0,0,1-6.54,16,21,21,0,0,1-6.87,4.53,21.32,21.32,0,0,1-8.17,1.6,22.47,22.47,0,0,1-8.6-1.6,20,20,0,0,1-6.78-4.53,20.79,20.79,0,0,1-4.47-7,24.31,24.31,0,0,1-1.6-9,25.64,25.64,0,0,1,1.6-9.28,21,21,0,0,1,4.47-7.12,20.14,20.14,0,0,1,6.78-4.59,22.11,22.11,0,0,1,8.6-1.63,22.52,22.52,0,0,1,8.66,1.63,20,20,0,0,1,6.85,4.59,21,21,0,0,1,4.47,7.12A25.85,25.85,0,0,1,220.05,210.83Zm28.23-18.92a11.3,11.3,0,0,1,2.28-1.94,6.77,6.77,0,0,1,3.76-.9h13.94l-67.69,87.11a7.81,7.81,0,0,1-2.31,1.94,6.89,6.89,0,0,1-3.36.77H180.6Zm-42.9,18.92a21.64,21.64,0,0,0-.53-5.21,9.35,9.35,0,0,0-1.45-3.3,5,5,0,0,0-2.18-1.72,7.51,7.51,0,0,0-2.75-.49,7.22,7.22,0,0,0-2.71.49,4.72,4.72,0,0,0-2.1,1.72,9.94,9.94,0,0,0-1.35,3.3,22.9,22.9,0,0,0-.5,5.21,20.62,20.62,0,0,0,.5,4.93,9,9,0,0,0,1.35,3.15,4.85,4.85,0,0,0,2.1,1.66,7.22,7.22,0,0,0,2.71.5,7.51,7.51,0,0,0,2.75-.5,5.12,5.12,0,0,0,2.18-1.66,8.54,8.54,0,0,0,1.45-3.15A19.49,19.49,0,0,0,205.38,210.83Zm66.33,47a22.43,22.43,0,0,1-1.79,9,22.14,22.14,0,0,1-4.75,7,20.84,20.84,0,0,1-6.87,4.54,21.51,21.51,0,0,1-8.17,1.6,22.66,22.66,0,0,1-8.6-1.6,19.87,19.87,0,0,1-6.78-4.54,20.68,20.68,0,0,1-4.47-7,24.62,24.62,0,0,1-1.6-9,25.56,25.56,0,0,1,1.6-9.28,20.83,20.83,0,0,1,4.47-7.12,20,20,0,0,1,6.78-4.59,22.11,22.11,0,0,1,8.6-1.64,22.56,22.56,0,0,1,8.66,1.64,20,20,0,0,1,6.85,4.59,20.66,20.66,0,0,1,4.46,7.12A25.56,25.56,0,0,1,271.71,257.81Z"/><path class="cls-18" d="M72.32,359.49H50.38v21.56H72.32Zm43.26-42.89V428.8H99.37v-6.61H24.44v6.61H9V316.6ZM99.37,408.36V331.81H24.44v76.55ZM87.28,346.52v47.37H36.41V346.52Z"/><path class="cls-18" d="M230.41,327.82v5.61H240v-5.61Zm-71.94,10.72a104.12,104.12,0,0,1-12.59,10.1,107.53,107.53,0,0,0-5.73-13.34c9.47-5.61,19.45-14.71,24.81-24.43l11.59,4.23c-.62,1.25-1.37,2.25-2,3.49,5.86,2.75,12.85,6.11,16.59,8.36l-6,11.47a192,192,0,0,0-17.7-9.73c-2,2.37-4.11,4.86-6.36,7.23h19.32v9.73H158.47Zm80.91,69.07c7.11,4.74,14.71,10,19.2,13.84l-11.09,7.35a186.08,186.08,0,0,0-20.7-16.08l6-5.11H208.59l12.47,4c-5.11,6.86-13.59,13.59-21.32,17.45a112.91,112.91,0,0,0-9.48-9.47l.25.5-10.72,5.36c-.87-2.5-2.12-5.49-3.49-8.85-22.19,8.22-26.06,10-28.67,12.09-.63-3.37-2.75-9.35-4.74-12.22a7.42,7.42,0,0,0,5-7.48V350.14h38.39v44.63h-25.8V410.1l11.09-3.74c-1-2.24-2.12-4.24-3.11-6.23l10.09-4.37c3.87,7.49,9,17.21,11.6,23.32,6.61-2.87,13.46-6.86,17.45-11.47H195V360.36h56.6v47.25Zm-78.91-46.75v6.36h12.84v-6.36Zm12.84,23.31v-6.73H160.47v6.73Zm43.63-42.26H194.5V319.47h22.44v-7h13.47v7h22.31v22.44H230.41V346h27.18v10.47H189.64V346h27.3Zm0-8.48v-5.61H206.6v5.61Zm-8.72,40h29.54v-4.74H208.22Zm0,12.84h29.54v-4.86H208.22Zm0,13h29.54v-5.12H208.22Z"/><path class="cls-18" d="M73,263.25v16.18h-60V263.25H33.3V210.13c0-1.35,0-2.71.07-4.08s.12-2.76.22-4.16l-12,10a7.09,7.09,0,0,1-3.14,1.49,8.47,8.47,0,0,1-2.93,0,7,7,0,0,1-2.46-.94A5.64,5.64,0,0,1,11.47,211l-7.08-9.4L37.2,174.07H55.7v89.18Z"/><path class="cls-18" d="M142.35,226.75A94.94,94.94,0,0,0,141,208.87a36.45,36.45,0,0,0-3.65-11,13.24,13.24,0,0,0-5.16-5.46A12.7,12.7,0,0,0,126.3,191a12.45,12.45,0,0,0-5.81,1.48,12.9,12.9,0,0,0-5.06,5.46,37.57,37.57,0,0,0-3.54,11,97.12,97.12,0,0,0-1.34,17.88,97,97,0,0,0,1.34,17.92,38,38,0,0,0,3.54,11,12.76,12.76,0,0,0,5.06,5.49,12.46,12.46,0,0,0,5.81,1.49,12.72,12.72,0,0,0,5.86-1.49,13.1,13.1,0,0,0,5.16-5.49,36.85,36.85,0,0,0,3.65-11A94.82,94.82,0,0,0,142.35,226.75Zm23.12,0a85.81,85.81,0,0,1-3,23.92,49.18,49.18,0,0,1-8.2,16.77,33.2,33.2,0,0,1-12.43,9.9,37.36,37.36,0,0,1-15.58,3.25,36.83,36.83,0,0,1-15.5-3.25,33,33,0,0,1-12.32-9.9,48.94,48.94,0,0,1-8.13-16.77,86.64,86.64,0,0,1-2.93-23.92,86.69,86.69,0,0,1,2.93-23.92,49,49,0,0,1,8.13-16.76,32.65,32.65,0,0,1,12.32-9.87A37.27,37.27,0,0,1,126.3,173a37.81,37.81,0,0,1,15.58,3.21,32.83,32.83,0,0,1,12.43,9.87,49.22,49.22,0,0,1,8.2,16.76A85.86,85.86,0,0,1,165.47,226.75Z"/><path class="cls-18" d="M256.18,258.35a21.91,21.91,0,0,0-.52-5.15,9.54,9.54,0,0,0-1.45-3.3,5.05,5.05,0,0,0-2.19-1.72,7.45,7.45,0,0,0-2.74-.49,7.27,7.27,0,0,0-2.72.49,4.64,4.64,0,0,0-2.09,1.72,9.73,9.73,0,0,0-1.36,3.3,22.64,22.64,0,0,0-.49,5.15,20.67,20.67,0,0,0,.49,4.93,8.86,8.86,0,0,0,1.36,3.15,4.77,4.77,0,0,0,2.09,1.66,7.27,7.27,0,0,0,2.72.49,7.45,7.45,0,0,0,2.74-.49,5.21,5.21,0,0,0,2.19-1.66,8.71,8.71,0,0,0,1.45-3.15A20,20,0,0,0,256.18,258.35Zm-37-47a22.21,22.21,0,0,1-1.78,9,22.57,22.57,0,0,1-4.75,7,20.7,20.7,0,0,1-6.88,4.53,21.31,21.31,0,0,1-8.16,1.61,22.44,22.44,0,0,1-8.6-1.61,19.7,19.7,0,0,1-6.78-4.53,20.74,20.74,0,0,1-4.47-7,24.38,24.38,0,0,1-1.61-9,25.6,25.6,0,0,1,1.61-9.28,20.83,20.83,0,0,1,4.47-7.12,20.14,20.14,0,0,1,6.78-4.59,22.08,22.08,0,0,1,8.6-1.64,22.56,22.56,0,0,1,8.66,1.64,20,20,0,0,1,6.84,4.59,20.83,20.83,0,0,1,4.47,7.12A25.6,25.6,0,0,1,219.19,211.38Zm28.24-18.93a11.07,11.07,0,0,1,2.28-1.94,6.73,6.73,0,0,1,3.76-.89H267.4l-67.69,87.1a7.43,7.43,0,0,1-2.31,1.94,6.73,6.73,0,0,1-3.36.77h-14.3Zm-42.91,18.93a21.59,21.59,0,0,0-.52-5.21,9.19,9.19,0,0,0-1.45-3.3,5.08,5.08,0,0,0-2.19-1.73,7.45,7.45,0,0,0-2.74-.49,7.27,7.27,0,0,0-2.72.49,4.67,4.67,0,0,0-2.09,1.73,9.56,9.56,0,0,0-1.36,3.3,22.85,22.85,0,0,0-.49,5.21,20.73,20.73,0,0,0,.49,4.93,8.89,8.89,0,0,0,1.36,3.14,4.79,4.79,0,0,0,2.09,1.67,7.27,7.27,0,0,0,2.72.49,7.45,7.45,0,0,0,2.74-.49,5.24,5.24,0,0,0,2.19-1.67,8.57,8.57,0,0,0,1.45-3.14A19.59,19.59,0,0,0,204.52,211.38Zm66.33,47a22.39,22.39,0,0,1-6.53,16.06,21,21,0,0,1-6.88,4.53,21.31,21.31,0,0,1-8.16,1.6,22.44,22.44,0,0,1-8.6-1.6,20,20,0,0,1-6.78-4.53,20.43,20.43,0,0,1-4.47-7,24.55,24.55,0,0,1-1.61-9,25.64,25.64,0,0,1,1.61-9.28A20.72,20.72,0,0,1,233.9,242a20.14,20.14,0,0,1,6.78-4.59,22.07,22.07,0,0,1,8.6-1.63,22.56,22.56,0,0,1,8.66,1.63,20,20,0,0,1,6.84,4.59,21,21,0,0,1,4.47,7.12A25.64,25.64,0,0,1,270.85,258.35Z"/><path class="cls-18" d="M71.46,360H49.52V381.6H71.46Zm43.26-42.89V429.35H98.52v-6.61H23.59v6.61H8.13V317.14ZM98.52,408.9V332.35H23.59V408.9Zm-12.1-61.84v47.38H35.56V347.06Z"/><path class="cls-18" d="M229.55,328.36V334h9.6v-5.61Zm-71.93,10.73A103.83,103.83,0,0,1,145,349.18a109,109,0,0,0-5.74-13.34c9.48-5.61,19.45-14.71,24.81-24.43l11.59,4.24c-.62,1.24-1.37,2.24-2,3.49,5.86,2.74,12.84,6.11,16.58,8.35l-6,11.47a190.13,190.13,0,0,0-17.71-9.72c-2,2.37-4.11,4.86-6.35,7.23h19.32v9.72H157.62Zm80.91,69.06c7.1,4.74,14.71,10,19.2,13.84l-11.1,7.36a184.69,184.69,0,0,0-20.69-16.09l6-5.11H207.73l12.47,4c-5.11,6.86-13.59,13.59-21.32,17.46a111.32,111.32,0,0,0-9.47-9.48l.25.5L178.94,426c-.88-2.49-2.12-5.48-3.5-8.85-22.19,8.23-26.05,10-28.67,12.09-.62-3.36-2.74-9.35-4.74-12.22a7.4,7.4,0,0,0,5-7.48V350.68h38.4v44.63H159.61v15.34l11.1-3.74c-1-2.25-2.12-4.24-3.12-6.24l10.1-4.36c3.86,7.48,9,17.2,11.59,23.31,6.61-2.86,13.47-6.85,17.46-11.47H194.15V360.9h56.6v47.25ZM159.61,361.4v6.36h12.84V361.4Zm12.84,23.31V378H159.61v6.73Zm43.64-42.26H193.65V320h22.44v-7h13.46v7h22.32v22.44H229.55v4.12h27.18V357H188.79V346.57h27.3Zm0-8.48v-5.61H205.74V334Zm-8.73,40h29.55v-4.73H207.36Zm0,12.84h29.55V382H207.36Zm0,13h29.55v-5.11H207.36Z"/><path class="cls-18" d="M72.19,263.79V280h-60V263.79H32.44V210.67c0-1.34,0-2.71.08-4.08s.11-2.76.21-4.15l-12,10a7,7,0,0,1-3.15,1.48,8.42,8.42,0,0,1-2.92,0,6.81,6.81,0,0,1-2.46-.94,5.64,5.64,0,0,1-1.59-1.41l-7.08-9.39,32.81-27.54h18.5v89.18Z"/><path class="cls-18" d="M141.49,227.3a96,96,0,0,0-1.37-17.89,36.73,36.73,0,0,0-3.65-10.95A13.17,13.17,0,0,0,131.3,193a12.71,12.71,0,0,0-5.85-1.49,12.47,12.47,0,0,0-5.82,1.49,12.87,12.87,0,0,0-5.06,5.45A37.57,37.57,0,0,0,111,209.41a98.05,98.05,0,0,0-1.34,17.89A98,98,0,0,0,111,245.22a38.2,38.2,0,0,0,3.54,11,12.94,12.94,0,0,0,5.06,5.49,12.45,12.45,0,0,0,5.82,1.48,12.69,12.69,0,0,0,5.85-1.48,13.23,13.23,0,0,0,5.17-5.49,37.34,37.34,0,0,0,3.65-11A95.85,95.85,0,0,0,141.49,227.3Zm23.12,0a85.49,85.49,0,0,1-3,23.92,49,49,0,0,1-8.2,16.76,33.13,33.13,0,0,1-12.43,9.9,37.28,37.28,0,0,1-15.57,3.25,36.8,36.8,0,0,1-15.5-3.25A32.87,32.87,0,0,1,97.63,268a49.17,49.17,0,0,1-8.14-16.76,86.72,86.72,0,0,1-2.92-23.92,86.62,86.62,0,0,1,2.92-23.92,49.13,49.13,0,0,1,8.14-16.77A32.47,32.47,0,0,1,110,176.75a37.09,37.09,0,0,1,15.5-3.22A37.58,37.58,0,0,1,141,176.75a32.72,32.72,0,0,1,12.43,9.86,49,49,0,0,1,8.2,16.77A85.39,85.39,0,0,1,164.61,227.3Z"/><path class="cls-18" d="M255.32,258.89a21.25,21.25,0,0,0-.52-5.14,9.19,9.19,0,0,0-1.45-3.3,5,5,0,0,0-2.19-1.73,7.41,7.41,0,0,0-2.74-.49,7.18,7.18,0,0,0-2.71.49,4.74,4.74,0,0,0-2.1,1.73,9.56,9.56,0,0,0-1.35,3.3,22.42,22.42,0,0,0-.5,5.14,20.71,20.71,0,0,0,.5,4.94,8.89,8.89,0,0,0,1.35,3.14,4.78,4.78,0,0,0,2.1,1.66,7.18,7.18,0,0,0,2.71.5,7.42,7.42,0,0,0,2.74-.5,5,5,0,0,0,2.19-1.66,8.57,8.57,0,0,0,1.45-3.14A19.62,19.62,0,0,0,255.32,258.89Zm-37-47a22.2,22.2,0,0,1-6.54,16,21,21,0,0,1-6.87,4.53,21.32,21.32,0,0,1-8.17,1.6,22.47,22.47,0,0,1-8.6-1.6,20,20,0,0,1-6.78-4.53,20.79,20.79,0,0,1-4.47-7,24.31,24.31,0,0,1-1.6-9,25.64,25.64,0,0,1,1.6-9.28,21,21,0,0,1,4.47-7.12,20.14,20.14,0,0,1,6.78-4.59,22.11,22.11,0,0,1,8.6-1.63,22.56,22.56,0,0,1,8.66,1.63,20.14,20.14,0,0,1,6.85,4.59,20.85,20.85,0,0,1,4.46,7.12A25.64,25.64,0,0,1,218.34,211.92ZM246.57,193a11.66,11.66,0,0,1,2.28-1.95,6.86,6.86,0,0,1,3.76-.89h13.93l-67.68,87.11a7.81,7.81,0,0,1-2.31,1.94,6.89,6.89,0,0,1-3.36.77H178.88Zm-42.9,18.92a21.58,21.58,0,0,0-.53-5.21,9.27,9.27,0,0,0-1.45-3.3,4.94,4.94,0,0,0-2.19-1.72,7.42,7.42,0,0,0-2.74-.5,7.22,7.22,0,0,0-2.71.5,4.72,4.72,0,0,0-2.1,1.72,9.85,9.85,0,0,0-1.35,3.3,22.84,22.84,0,0,0-.5,5.21,20.62,20.62,0,0,0,.5,4.93A9,9,0,0,0,192,220a4.85,4.85,0,0,0,2.1,1.66,7.22,7.22,0,0,0,2.71.49,7.41,7.41,0,0,0,2.74-.49,5.09,5.09,0,0,0,2.19-1.66,8.54,8.54,0,0,0,1.45-3.15A19.49,19.49,0,0,0,203.67,211.92Zm66.33,47A22.3,22.3,0,0,1,263.46,275a20.66,20.66,0,0,1-6.87,4.53,21.33,21.33,0,0,1-8.17,1.61,22.47,22.47,0,0,1-8.6-1.61A19.7,19.7,0,0,1,233,275a20.68,20.68,0,0,1-4.47-7,24.64,24.64,0,0,1-1.6-9,25.54,25.54,0,0,1,1.6-9.27A20.83,20.83,0,0,1,233,242.5a20,20,0,0,1,6.78-4.6,22.29,22.29,0,0,1,8.6-1.63,22.75,22.75,0,0,1,8.66,1.63,19.88,19.88,0,0,1,6.84,4.6,20.68,20.68,0,0,1,4.47,7.12A25.54,25.54,0,0,1,270,258.89Z"/><path class="cls-18" d="M70.61,360.57H48.67v21.57H70.61Zm43.26-42.88v112.2H97.66v-6.61H22.73v6.61H7.27V317.69ZM97.66,409.45V332.9H22.73v76.55ZM85.57,347.61V395H34.7V347.61Z"/><path class="cls-18" d="M228.7,328.91v5.61h9.6v-5.61Zm-71.94,10.72a104.12,104.12,0,0,1-12.59,10.1,106.17,106.17,0,0,0-5.74-13.34c9.48-5.61,19.45-14.71,24.81-24.44l11.6,4.24c-.62,1.25-1.37,2.25-2,3.49,5.86,2.75,12.85,6.11,16.59,8.36l-6,11.47a192,192,0,0,0-17.7-9.73c-2,2.37-4.12,4.86-6.36,7.23H178.7v9.73H156.76Zm80.91,69.07c7.11,4.73,14.71,10,19.2,13.84l-11.09,7.35a186.08,186.08,0,0,0-20.7-16.08l6-5.11H206.88l12.47,4c-5.12,6.85-13.59,13.59-21.32,17.45a112.91,112.91,0,0,0-9.48-9.47l.25.49-10.72,5.37c-.87-2.5-2.12-5.49-3.49-8.86-22.19,8.23-26.06,10-28.67,12.1-.63-3.37-2.75-9.35-4.74-12.22a7.42,7.42,0,0,0,5-7.48V351.22h38.39v44.64h-25.8v15.33l11.09-3.74c-1-2.24-2.12-4.24-3.11-6.23l10.09-4.37c3.87,7.48,9,17.21,11.6,23.32,6.61-2.87,13.46-6.86,17.45-11.47H193.29V361.45h56.6V408.7ZM158.76,362v6.35H171.6V362Zm12.84,23.31v-6.73H158.76v6.73ZM215.23,343H192.79V320.56h22.44v-7H228.7v7H251V343H228.7v4.11h27.17v10.47H187.93V347.11h27.3Zm0-8.48v-5.61H204.88v5.61Zm-8.73,40h29.55V369.8H206.5Zm0,12.84h29.55v-4.86H206.5Zm0,13h29.55v-5.11H206.5Z"/><path class="cls-18" d="M71.33,264.33v16.19h-60V264.33H31.59V211.22c0-1.35,0-2.71.07-4.08s.12-2.76.22-4.16l-12,10a7,7,0,0,1-3.14,1.48,8.47,8.47,0,0,1-2.93,0,6.87,6.87,0,0,1-2.46-.93,5.64,5.64,0,0,1-1.59-1.41l-7.08-9.4,32.81-27.53H54v89.17Z"/><path class="cls-18" d="M140.63,227.84A95.17,95.17,0,0,0,139.26,210,36.47,36.47,0,0,0,135.61,199a13.26,13.26,0,0,0-5.17-5.46,12.24,12.24,0,0,0-11.67,0,12.88,12.88,0,0,0-5,5.46A37.88,37.88,0,0,0,110.17,210a98.25,98.25,0,0,0-1.33,17.89,98,98,0,0,0,1.33,17.92,38.27,38.27,0,0,0,3.55,10.95,12.8,12.8,0,0,0,5,5.49,12.24,12.24,0,0,0,11.67,0,13.17,13.17,0,0,0,5.17-5.49,36.85,36.85,0,0,0,3.65-10.95A94.93,94.93,0,0,0,140.63,227.84Zm23.13,0a85.81,85.81,0,0,1-3,23.92,49.1,49.1,0,0,1-8.21,16.77,33.1,33.1,0,0,1-12.42,9.9,37.52,37.52,0,0,1-15.58,3.25,37,37,0,0,1-15.5-3.25,33,33,0,0,1-12.32-9.9,49,49,0,0,1-8.13-16.77,86.64,86.64,0,0,1-2.93-23.92,86.69,86.69,0,0,1,2.93-23.92,49.12,49.12,0,0,1,8.13-16.77,32.55,32.55,0,0,1,12.32-9.86,37.28,37.28,0,0,1,15.5-3.22,37.82,37.82,0,0,1,15.58,3.22,32.69,32.69,0,0,1,12.42,9.86,49.2,49.2,0,0,1,8.21,16.77A85.86,85.86,0,0,1,163.76,227.84Z"/><path class="cls-18" d="M254.47,259.44a21.85,21.85,0,0,0-.52-5.15,9.45,9.45,0,0,0-1.45-3.3,5.05,5.05,0,0,0-2.19-1.72,7.47,7.47,0,0,0-2.75-.5,7.22,7.22,0,0,0-2.71.5,4.64,4.64,0,0,0-2.09,1.72,9.65,9.65,0,0,0-1.36,3.3,22.58,22.58,0,0,0-.49,5.15,20.67,20.67,0,0,0,.49,4.93,8.81,8.81,0,0,0,1.36,3.14,4.72,4.72,0,0,0,2.09,1.67,7.22,7.22,0,0,0,2.71.49,7.47,7.47,0,0,0,2.75-.49,5.15,5.15,0,0,0,2.19-1.67,8.65,8.65,0,0,0,1.45-3.14A20,20,0,0,0,254.47,259.44Zm-37-47a22,22,0,0,1-1.79,9,22.37,22.37,0,0,1-4.74,7,21,21,0,0,1-6.88,4.53,21.31,21.31,0,0,1-8.16,1.61,22.44,22.44,0,0,1-8.6-1.61,20,20,0,0,1-6.78-4.53,20.59,20.59,0,0,1-4.47-7,24.38,24.38,0,0,1-1.61-9,25.56,25.56,0,0,1,1.61-9.28,20.68,20.68,0,0,1,4.47-7.12,20,20,0,0,1,6.78-4.6,22.26,22.26,0,0,1,8.6-1.63,22.75,22.75,0,0,1,8.66,1.63,19.88,19.88,0,0,1,6.84,4.6,20.83,20.83,0,0,1,4.47,7.12A25.56,25.56,0,0,1,217.48,212.47Zm28.24-18.93A10.77,10.77,0,0,1,248,191.6a6.72,6.72,0,0,1,3.76-.9h13.93L198,277.81a7.43,7.43,0,0,1-2.31,1.94,6.73,6.73,0,0,1-3.36.77H178Zm-42.91,18.93a21.59,21.59,0,0,0-.52-5.21,9.37,9.37,0,0,0-1.45-3.3,5.08,5.08,0,0,0-2.19-1.73,7.45,7.45,0,0,0-2.74-.49,7.27,7.27,0,0,0-2.72.49A4.67,4.67,0,0,0,191.1,204a9.56,9.56,0,0,0-1.36,3.3,22.85,22.85,0,0,0-.49,5.21,20.73,20.73,0,0,0,.49,4.93,8.89,8.89,0,0,0,1.36,3.14,4.7,4.7,0,0,0,2.09,1.66,7.27,7.27,0,0,0,2.72.5,7.46,7.46,0,0,0,2.74-.5,5.13,5.13,0,0,0,2.19-1.66,8.73,8.73,0,0,0,1.45-3.14A19.59,19.59,0,0,0,202.81,212.47Zm66.33,47a22.39,22.39,0,0,1-6.53,16.06,21.43,21.43,0,0,1-15.05,6.13A22.38,22.38,0,0,1,239,280a20.13,20.13,0,0,1-6.79-4.53,20.55,20.55,0,0,1-4.46-7,24.55,24.55,0,0,1-1.61-9,25.64,25.64,0,0,1,1.61-9.28,20.76,20.76,0,0,1,4.46-7.12,20.28,20.28,0,0,1,6.79-4.59,22,22,0,0,1,8.59-1.64,22.57,22.57,0,0,1,8.67,1.64,20,20,0,0,1,6.84,4.59,20.93,20.93,0,0,1,4.47,7.12A25.64,25.64,0,0,1,269.14,259.44Z"/><path class="cls-18" d="M69.75,361.12H47.81v21.57H69.75ZM113,318.23V430.44H96.8v-6.61H21.88v6.61H6.42V318.23ZM96.8,410V333.44H21.88V410ZM84.71,348.15v47.38H33.85V348.15Z"/><path class="cls-18" d="M227.84,329.45v5.61h9.6v-5.61Zm-71.93,10.72a103.93,103.93,0,0,1-12.59,10.1,108.31,108.31,0,0,0-5.74-13.34c9.48-5.61,19.45-14.71,24.81-24.43L174,316.74c-.62,1.24-1.37,2.24-2,3.49,5.86,2.74,12.84,6.11,16.58,8.35l-6,11.47a190.13,190.13,0,0,0-17.71-9.72c-2,2.36-4.11,4.86-6.36,7.23h19.33v9.72H155.91Zm80.91,69.07c7.1,4.74,14.71,10,19.2,13.84l-11.1,7.36a184.69,184.69,0,0,0-20.69-16.09l6-5.11H206l12.47,4c-5.11,6.86-13.59,13.59-21.32,17.45a114.26,114.26,0,0,0-9.47-9.47l.25.5-10.72,5.36c-.88-2.49-2.12-5.49-3.5-8.85-22.19,8.23-26,10-28.67,12.09-.62-3.37-2.74-9.35-4.74-12.22a7.4,7.4,0,0,0,5-7.48V351.77h38.4V396.4H157.9v15.34L169,408c-1-2.25-2.12-4.24-3.12-6.24L176,397.4c3.86,7.48,9,17.2,11.59,23.31,6.61-2.87,13.47-6.86,17.46-11.47h-12.6V362H249v47.25ZM157.9,362.49v6.36h12.84v-6.36Zm12.84,23.31v-6.73H157.9v6.73Zm43.64-42.26H191.94V321.1h22.44v-7h13.46v7h22.32v22.44H227.84v4.11H255v10.48h-68V347.65h27.31Zm0-8.48v-5.61H204v5.61Zm-8.73,40H235.2v-4.74H205.65Zm0,12.84H235.2v-4.86H205.65Zm0,13H235.2v-5.11H205.65Z"/><path class="cls-18" d="M70.48,264.88v16.19h-60V264.88H30.73V211.76c0-1.34,0-2.71.07-4.08s.12-2.76.22-4.16l-12,10A7,7,0,0,1,15.88,215,8.47,8.47,0,0,1,13,215,6.84,6.84,0,0,1,10.5,214a5.5,5.5,0,0,1-1.59-1.41l-7.08-9.39,32.8-27.54h18.5v89.18Z"/><path class="cls-18" d="M139.78,228.38a95.9,95.9,0,0,0-1.37-17.88,37,37,0,0,0-3.65-10.95,13.26,13.26,0,0,0-5.17-5.46,12.82,12.82,0,0,0-5.85-1.48,12.58,12.58,0,0,0-5.82,1.48,13,13,0,0,0-5.06,5.46,37.57,37.57,0,0,0-3.54,10.95A98,98,0,0,0,108,228.38a98,98,0,0,0,1.34,17.93,38,38,0,0,0,3.54,10.94,12.91,12.91,0,0,0,5.06,5.5,12.58,12.58,0,0,0,5.82,1.48,12.82,12.82,0,0,0,5.85-1.48,13.2,13.2,0,0,0,5.17-5.5,37.46,37.46,0,0,0,3.65-10.94A95.89,95.89,0,0,0,139.78,228.38Zm23.12,0a85.39,85.39,0,0,1-3,23.92,49,49,0,0,1-8.2,16.77,33.13,33.13,0,0,1-12.43,9.9,37.32,37.32,0,0,1-15.57,3.25,36.8,36.8,0,0,1-15.5-3.25,33,33,0,0,1-12.33-9.9,49.12,49.12,0,0,1-8.13-16.77,86.62,86.62,0,0,1-2.92-23.92,86.72,86.72,0,0,1,2.92-23.92,49.16,49.16,0,0,1,8.13-16.76,32.7,32.7,0,0,1,12.33-9.87,37.24,37.24,0,0,1,15.5-3.21,37.76,37.76,0,0,1,15.57,3.21,32.85,32.85,0,0,1,12.43,9.87,49,49,0,0,1,8.2,16.76A85.49,85.49,0,0,1,162.9,228.38Z"/><path class="cls-18" d="M253.61,260a21.25,21.25,0,0,0-.52-5.14,9.19,9.19,0,0,0-1.45-3.3,5,5,0,0,0-2.19-1.73,7.41,7.41,0,0,0-2.74-.49,7.18,7.18,0,0,0-2.71.49,4.69,4.69,0,0,0-2.1,1.73,9.56,9.56,0,0,0-1.35,3.3,22.42,22.42,0,0,0-.5,5.14,20.56,20.56,0,0,0,.5,4.93,8.86,8.86,0,0,0,1.35,3.15,4.79,4.79,0,0,0,2.1,1.66,7.18,7.18,0,0,0,2.71.5,7.42,7.42,0,0,0,2.74-.5,5.15,5.15,0,0,0,2.19-1.66,8.54,8.54,0,0,0,1.45-3.15A19.48,19.48,0,0,0,253.61,260Zm-37-47a22.15,22.15,0,0,1-1.79,9,22.56,22.56,0,0,1-4.75,7,21,21,0,0,1-6.87,4.53,21.32,21.32,0,0,1-8.17,1.6,22.47,22.47,0,0,1-8.6-1.6,20,20,0,0,1-6.78-4.53,20.89,20.89,0,0,1-4.47-7,24.31,24.31,0,0,1-1.6-9,25.64,25.64,0,0,1,1.6-9.28,20.93,20.93,0,0,1,4.47-7.12,20.14,20.14,0,0,1,6.78-4.59,22.11,22.11,0,0,1,8.6-1.63,22.56,22.56,0,0,1,8.66,1.63,20,20,0,0,1,6.84,4.59,20.78,20.78,0,0,1,4.47,7.12A25.64,25.64,0,0,1,216.63,213Zm28.23-18.93a12,12,0,0,1,2.28-1.94,6.83,6.83,0,0,1,3.76-.89h13.93l-67.68,87.1a7.76,7.76,0,0,1-2.32,1.95,6.83,6.83,0,0,1-3.35.77H177.17ZM202,213a21.58,21.58,0,0,0-.53-5.21,9.19,9.19,0,0,0-1.45-3.3,4.94,4.94,0,0,0-2.19-1.72,7.42,7.42,0,0,0-2.74-.5,7.18,7.18,0,0,0-2.71.5,4.72,4.72,0,0,0-2.1,1.72,9.56,9.56,0,0,0-1.35,3.3,22.84,22.84,0,0,0-.5,5.21,20.62,20.62,0,0,0,.5,4.93,8.81,8.81,0,0,0,1.35,3.14,4.8,4.8,0,0,0,2.1,1.67,7.18,7.18,0,0,0,2.71.49,7.41,7.41,0,0,0,2.74-.49,5,5,0,0,0,2.19-1.67,8.49,8.49,0,0,0,1.45-3.14A19.49,19.49,0,0,0,202,213Zm66.33,47A22.34,22.34,0,0,1,261.75,276a21,21,0,0,1-6.87,4.53,21.33,21.33,0,0,1-8.17,1.61,22.47,22.47,0,0,1-8.6-1.61,20,20,0,0,1-6.78-4.53,20.63,20.63,0,0,1-4.47-7,24.54,24.54,0,0,1-1.6-9,25.54,25.54,0,0,1,1.6-9.27,20.83,20.83,0,0,1,4.47-7.12,20,20,0,0,1,6.78-4.6,22.11,22.11,0,0,1,8.6-1.63,22.56,22.56,0,0,1,8.66,1.63,19.88,19.88,0,0,1,6.84,4.6,20.83,20.83,0,0,1,4.47,7.12A25.54,25.54,0,0,1,268.29,260Z"/><path class="cls-18" d="M68.9,361.66H47v21.57h22Zm43.26-42.88V431H96v-6.61H21V431H5.56V318.78ZM96,410.53V334H21v76.54ZM83.86,348.7v47.37H33V348.7Z"/><path class="cls-18" d="M227,330v5.61h9.59V330Zm-71.94,10.72a104.12,104.12,0,0,1-12.59,10.1,106.17,106.17,0,0,0-5.74-13.34c9.48-5.61,19.45-14.71,24.81-24.44l11.6,4.24c-.63,1.25-1.37,2.25-2,3.49,5.86,2.74,12.84,6.11,16.58,8.35l-6,11.47a194.59,194.59,0,0,0-17.7-9.72c-2,2.37-4.12,4.86-6.36,7.23H177v9.73H155.05ZM236,409.79c7.11,4.73,14.71,10,19.2,13.83L244.07,431a186.08,186.08,0,0,0-20.7-16.08l6-5.11H205.17l12.47,4c-5.12,6.85-13.59,13.58-21.32,17.45a114.5,114.5,0,0,0-9.48-9.48l.25.5-10.72,5.36c-.87-2.49-2.12-5.48-3.49-8.85-22.19,8.23-26.06,10-28.67,12.1-.63-3.37-2.75-9.35-4.74-12.22a7.41,7.41,0,0,0,5-7.48V352.31h38.4v44.63h-25.8v15.34l11.09-3.74c-1-2.24-2.12-4.24-3.12-6.23l10.1-4.37c3.87,7.48,9,17.21,11.6,23.32,6.6-2.87,13.46-6.86,17.45-11.47H191.58V362.54h56.6v47.25ZM157.05,363v6.36h12.84V363Zm12.84,23.32v-6.73H157.05v6.73Zm43.63-42.27H191.08V321.64h22.44v-7H227v7H249.3v22.44H227v4.12h27.17v10.47H186.22V348.2h27.3Zm0-8.47V330H203.17v5.61Zm-8.73,40h29.55v-4.74H204.79Zm0,12.84h29.55v-4.86H204.79Zm0,13h29.55v-5.11H204.79Z"/><path class="cls-18" d="M69.62,265.42v16.19h-60V265.42H29.88V212.31c0-1.35,0-2.71.07-4.09s.12-2.75.22-4.15l-12,10A7.06,7.06,0,0,1,15,215.52a8.47,8.47,0,0,1-2.93,0,6.81,6.81,0,0,1-2.46-.94,5.35,5.35,0,0,1-1.59-1.41L1,203.78l32.81-27.53h18.5v89.17Z"/><path class="cls-18" d="M138.92,228.93A95.09,95.09,0,0,0,137.55,211a36.45,36.45,0,0,0-3.65-10.95,13.29,13.29,0,0,0-5.17-5.45,12.63,12.63,0,0,0-5.85-1.48,12.48,12.48,0,0,0-5.82,1.48,12.91,12.91,0,0,0-5,5.45A37.25,37.25,0,0,0,108.46,211a98.17,98.17,0,0,0-1.33,17.89,98,98,0,0,0,1.33,17.92,37.66,37.66,0,0,0,3.55,11,12.86,12.86,0,0,0,5,5.49,12.48,12.48,0,0,0,5.82,1.48,12.63,12.63,0,0,0,5.85-1.48,13.23,13.23,0,0,0,5.17-5.49,36.85,36.85,0,0,0,3.65-11A94.93,94.93,0,0,0,138.92,228.93Zm23.13,0a85.86,85.86,0,0,1-3,23.92,49.05,49.05,0,0,1-8.21,16.76,32.86,32.86,0,0,1-12.43,9.9,37.29,37.29,0,0,1-15.57,3.26,36.8,36.8,0,0,1-15.5-3.26,32.76,32.76,0,0,1-12.32-9.9,49,49,0,0,1-8.13-16.76A86.69,86.69,0,0,1,84,228.93,86.64,86.64,0,0,1,86.93,205a49,49,0,0,1,8.13-16.77,32.55,32.55,0,0,1,12.32-9.86,37.24,37.24,0,0,1,15.5-3.22,37.74,37.74,0,0,1,15.57,3.22,32.65,32.65,0,0,1,12.43,9.86A49.1,49.1,0,0,1,159.09,205,85.81,85.81,0,0,1,162.05,228.93Z"/><path class="cls-18" d="M252.76,260.53a21.28,21.28,0,0,0-.53-5.15,9.37,9.37,0,0,0-1.44-3.3,5.05,5.05,0,0,0-2.19-1.72,7.51,7.51,0,0,0-2.75-.5,7.22,7.22,0,0,0-2.71.5,4.64,4.64,0,0,0-2.09,1.72,9.56,9.56,0,0,0-1.36,3.3,22.58,22.58,0,0,0-.49,5.15,20.73,20.73,0,0,0,.49,4.93,8.81,8.81,0,0,0,1.36,3.14,4.79,4.79,0,0,0,2.09,1.67,7.22,7.22,0,0,0,2.71.49,7.51,7.51,0,0,0,2.75-.49,5.24,5.24,0,0,0,2.19-1.67,8.65,8.65,0,0,0,1.44-3.14A19.54,19.54,0,0,0,252.76,260.53Zm-37-47a22,22,0,0,1-1.79,9,22.3,22.3,0,0,1-4.74,7,21.43,21.43,0,0,1-15.05,6.13,22.38,22.38,0,0,1-8.59-1.6,20.13,20.13,0,0,1-6.79-4.53,20.52,20.52,0,0,1-4.46-7,24.31,24.31,0,0,1-1.61-9,25.54,25.54,0,0,1,1.61-9.27,20.66,20.66,0,0,1,4.46-7.12,20.16,20.16,0,0,1,6.79-4.6,22.21,22.21,0,0,1,8.59-1.63,22.76,22.76,0,0,1,8.67,1.63,19.88,19.88,0,0,1,6.84,4.6,20.83,20.83,0,0,1,4.47,7.12A25.54,25.54,0,0,1,215.77,213.55ZM244,194.63a11.1,11.1,0,0,1,2.29-1.94,6.72,6.72,0,0,1,3.76-.9H264L196.29,278.9a7.66,7.66,0,0,1-2.31,1.94,6.89,6.89,0,0,1-3.36.77h-14.3Zm-42.9,18.92a22.22,22.22,0,0,0-.52-5.21,9.4,9.4,0,0,0-1.45-3.29,5,5,0,0,0-2.19-1.73,7.47,7.47,0,0,0-2.75-.49,7.22,7.22,0,0,0-2.71.49,4.6,4.6,0,0,0-2.09,1.73,9.59,9.59,0,0,0-1.36,3.29,23,23,0,0,0-.49,5.21,20.76,20.76,0,0,0,.49,4.94,8.89,8.89,0,0,0,1.36,3.14,4.7,4.7,0,0,0,2.09,1.66,7.22,7.22,0,0,0,2.71.5,7.47,7.47,0,0,0,2.75-.5,5.13,5.13,0,0,0,2.19-1.66,8.73,8.73,0,0,0,1.45-3.14A20.1,20.1,0,0,0,201.1,213.55Zm66.33,47a22.39,22.39,0,0,1-6.53,16.06,21.43,21.43,0,0,1-15,6.13,22.47,22.47,0,0,1-8.6-1.6,20,20,0,0,1-6.78-4.53,20.82,20.82,0,0,1-4.47-7,24.75,24.75,0,0,1-1.6-9,25.81,25.81,0,0,1,1.6-9.28,20.93,20.93,0,0,1,4.47-7.12,20.14,20.14,0,0,1,6.78-4.59,22.11,22.11,0,0,1,8.6-1.64,22.57,22.57,0,0,1,8.67,1.64,20,20,0,0,1,6.84,4.59,20.93,20.93,0,0,1,4.47,7.12A25.6,25.6,0,0,1,267.43,260.53Z"/><path class="cls-18" d="M68,362.21H46.1v21.57H68Zm43.26-42.89v112.2H95.09v-6.6H20.17v6.6H4.71V319.32ZM95.09,411.08V334.53H20.17v76.55ZM83,349.24v47.38H32.14V349.24Z"/><path class="cls-18" d="M226.13,330.54v5.61h9.6v-5.61ZM154.2,341.26a104.21,104.21,0,0,1-12.6,10.1A106,106,0,0,0,135.87,338c9.47-5.61,19.45-14.71,24.81-24.43l11.59,4.24c-.62,1.24-1.37,2.24-2,3.49,5.86,2.74,12.84,6.11,16.58,8.35l-6,11.47a192.31,192.31,0,0,0-17.71-9.73c-2,2.37-4.11,4.87-6.36,7.24h19.33v9.72H154.2Zm80.91,69.07c7.1,4.74,14.71,10,19.2,13.84l-11.1,7.35a185.15,185.15,0,0,0-20.7-16.08l6-5.11H204.31l12.47,4c-5.11,6.86-13.59,13.59-21.32,17.45A114.26,114.26,0,0,0,186,422.3l.25.5-10.73,5.36c-.87-2.5-2.11-5.49-3.49-8.85-22.19,8.22-26.05,10-28.67,12.09-.62-3.37-2.74-9.35-4.74-12.22a7.42,7.42,0,0,0,5-7.48V352.86H182v44.63H156.19v15.33l11.1-3.74c-1-2.24-2.12-4.24-3.12-6.23l10.1-4.36c3.86,7.48,9,17.2,11.59,23.31,6.61-2.87,13.47-6.86,17.46-11.47h-12.6V363.08h56.6v47.25Zm-78.92-46.75v6.36H169v-6.36ZM169,386.89v-6.73H156.19v6.73Zm43.64-42.26H190.22V322.19h22.45v-7h13.46v7h22.32v22.44H226.13v4.11h27.18v10.48H185.36V348.74h27.31Zm0-8.48v-5.61H202.32v5.61Zm-8.73,40h29.55v-4.74H203.94Zm0,12.84h29.55v-4.86H203.94Zm0,13h29.55v-5.11H203.94Z"/><path class="cls-18" d="M68.77,266v16.18h-60V266H29V212.85c0-1.35,0-2.71.07-4.08s.12-2.76.22-4.16l-12,10a7,7,0,0,1-3.14,1.48,8.47,8.47,0,0,1-2.93,0,6.84,6.84,0,0,1-2.45-.94,5.37,5.37,0,0,1-1.59-1.41l-7.09-9.4,32.81-27.53h18.5V266Z"/><path class="cls-18" d="M138.07,229.47a95.9,95.9,0,0,0-1.37-17.88,37,37,0,0,0-3.65-11,13.26,13.26,0,0,0-5.17-5.46A12.82,12.82,0,0,0,122,193.7a12.58,12.58,0,0,0-5.82,1.48,12.9,12.9,0,0,0-5.06,5.46,37.57,37.57,0,0,0-3.54,11,98,98,0,0,0-1.34,17.88,98,98,0,0,0,1.34,17.93,38,38,0,0,0,3.54,10.94,12.85,12.85,0,0,0,5.06,5.5,12.58,12.58,0,0,0,5.82,1.48,12.82,12.82,0,0,0,5.85-1.48,13.2,13.2,0,0,0,5.17-5.5,37.46,37.46,0,0,0,3.65-10.94A95.89,95.89,0,0,0,138.07,229.47Zm23.12,0a85.39,85.39,0,0,1-3,23.92,49.18,49.18,0,0,1-8.2,16.77,33.2,33.2,0,0,1-12.43,9.9A37.35,37.35,0,0,1,122,283.31a36.87,36.87,0,0,1-15.51-3.25,33,33,0,0,1-12.32-9.9,48.94,48.94,0,0,1-8.13-16.77,86.62,86.62,0,0,1-2.92-23.92,86.72,86.72,0,0,1,2.92-23.92,49,49,0,0,1,8.13-16.76,32.75,32.75,0,0,1,12.32-9.87A37.32,37.32,0,0,1,122,175.71a37.8,37.8,0,0,1,15.57,3.21A32.92,32.92,0,0,1,150,188.79a49.22,49.22,0,0,1,8.2,16.76A85.49,85.49,0,0,1,161.19,229.47Z"/><path class="cls-18" d="M251.9,261.07a21.39,21.39,0,0,0-.52-5.15,9.22,9.22,0,0,0-1.45-3.29,5,5,0,0,0-2.19-1.73,7.45,7.45,0,0,0-2.74-.49,7.18,7.18,0,0,0-2.71.49,4.63,4.63,0,0,0-2.1,1.73,9.59,9.59,0,0,0-1.36,3.29,22.64,22.64,0,0,0-.49,5.15,20.67,20.67,0,0,0,.49,4.93,8.86,8.86,0,0,0,1.36,3.15,4.79,4.79,0,0,0,2.1,1.66,7.18,7.18,0,0,0,2.71.5,7.46,7.46,0,0,0,2.74-.5,5.21,5.21,0,0,0,2.19-1.66,8.54,8.54,0,0,0,1.45-3.15A19.54,19.54,0,0,0,251.9,261.07Zm-37-47a22.15,22.15,0,0,1-1.79,9,22.56,22.56,0,0,1-4.75,7,21,21,0,0,1-6.87,4.53,21.32,21.32,0,0,1-8.17,1.6,22.47,22.47,0,0,1-8.6-1.6A20,20,0,0,1,178,230.1a20.89,20.89,0,0,1-4.47-7,24.31,24.31,0,0,1-1.6-9,25.6,25.6,0,0,1,1.6-9.28A20.93,20.93,0,0,1,178,197.7a20.14,20.14,0,0,1,6.78-4.59,22.11,22.11,0,0,1,8.6-1.64,22.56,22.56,0,0,1,8.66,1.64,20,20,0,0,1,6.84,4.59,20.93,20.93,0,0,1,4.47,7.12A25.6,25.6,0,0,1,214.92,214.1Zm28.23-18.93a11.63,11.63,0,0,1,2.28-1.94,6.83,6.83,0,0,1,3.76-.89h13.93l-67.68,87.1a7.58,7.58,0,0,1-2.32,1.94,6.73,6.73,0,0,1-3.36.77h-14.3ZM200.24,214.1a21.64,21.64,0,0,0-.52-5.21,9.19,9.19,0,0,0-1.45-3.3,4.92,4.92,0,0,0-2.19-1.72,7.42,7.42,0,0,0-2.74-.5,7.18,7.18,0,0,0-2.71.5,4.65,4.65,0,0,0-2.1,1.72,9.76,9.76,0,0,0-1.36,3.3,23.49,23.49,0,0,0-.49,5.21,21.2,21.2,0,0,0,.49,4.93,9,9,0,0,0,1.36,3.14,4.8,4.8,0,0,0,2.1,1.67,7.18,7.18,0,0,0,2.71.49,7.41,7.41,0,0,0,2.74-.49,5.1,5.1,0,0,0,2.19-1.67,8.49,8.49,0,0,0,1.45-3.14A19.54,19.54,0,0,0,200.24,214.1Zm66.33,47A22.28,22.28,0,0,1,260,277.13a21,21,0,0,1-6.87,4.53,21.35,21.35,0,0,1-8.17,1.6,22.47,22.47,0,0,1-8.6-1.6,20,20,0,0,1-6.78-4.53,20.63,20.63,0,0,1-4.47-7,24.54,24.54,0,0,1-1.6-9,25.64,25.64,0,0,1,1.6-9.28,21,21,0,0,1,4.47-7.12,20.14,20.14,0,0,1,6.78-4.59,22.11,22.11,0,0,1,8.6-1.63,22.56,22.56,0,0,1,8.66,1.63,20,20,0,0,1,6.84,4.59,21,21,0,0,1,4.47,7.12A25.64,25.64,0,0,1,266.57,261.07Z"/><path class="cls-19" d="M111.19,319.13V431.34H95v-6.61H20.05v6.61H4.59V319.13ZM95,410.89V334.34H20.05v76.55ZM82.89,349.05v47.38H32V349.05Zm-15,13H46v21.57h22Z"/><path class="cls-19" d="M154.08,341.08a103.06,103.06,0,0,1-12.59,10.09,107.44,107.44,0,0,0-5.74-13.34c9.48-5.61,19.45-14.71,24.81-24.43l11.6,4.24c-.63,1.24-1.37,2.24-2,3.49,5.86,2.74,12.84,6.11,16.58,8.35l-6,11.47a189.82,189.82,0,0,0-17.7-9.72c-2,2.37-4.12,4.86-6.36,7.23H176v9.72H154.08ZM235,410.14c7.11,4.74,14.71,10,19.2,13.84l-11.09,7.36a184.88,184.88,0,0,0-20.7-16.09l6-5.11H204.2l12.47,4c-5.12,6.86-13.59,13.59-21.32,17.46a111.49,111.49,0,0,0-9.48-9.48l.25.5L175.4,428c-.87-2.49-2.12-5.49-3.49-8.85-22.19,8.23-26.06,10-28.68,12.09-.62-3.36-2.74-9.35-4.73-12.22a7.39,7.39,0,0,0,5-7.48V352.67h38.4V397.3H156.07v15.34l11.1-3.74c-1-2.25-2.12-4.24-3.12-6.24l10.1-4.36c3.87,7.48,9,17.2,11.6,23.31,6.6-2.87,13.46-6.85,17.45-11.47H190.61V362.89h56.6v47.25Zm-78.92-46.75v6.36h12.85v-6.36Zm12.85,23.31V380H156.07v6.73Zm43.63-42.26H190.11V322h22.44v-7H226v7h22.32v22.44H226v4.12h27.18V359H185.25V348.56h27.3Zm0-8.48v-5.61H202.2V336Zm-8.73,40h29.55v-4.73H203.82Zm0,12.84h29.55V384H203.82Zm0,13h29.55v-5.11H203.82ZM226,330.35V336h9.6v-5.61Z"/><path class="cls-19" d="M68.65,265.78V282h-60V265.78H28.91V212.66c0-1.34,0-2.71.07-4.08s.12-2.76.22-4.15l-12,10a7.06,7.06,0,0,1-3.14,1.48,8.47,8.47,0,0,1-2.93,0,6.81,6.81,0,0,1-2.46-.94,5.64,5.64,0,0,1-1.59-1.41L0,204.14,32.81,176.6h18.5v89.18Z"/><path class="cls-19" d="M161.08,229.29a85.86,85.86,0,0,1-3,23.92A49.05,49.05,0,0,1,149.91,270a33,33,0,0,1-12.43,9.9,37.28,37.28,0,0,1-15.57,3.25,36.8,36.8,0,0,1-15.5-3.25A33,33,0,0,1,94.09,270,49,49,0,0,1,86,253.21,86.69,86.69,0,0,1,83,229.29,86.59,86.59,0,0,1,86,205.37a48.94,48.94,0,0,1,8.13-16.77,32.55,32.55,0,0,1,12.32-9.86,37.09,37.09,0,0,1,15.5-3.22,37.58,37.58,0,0,1,15.57,3.22,32.65,32.65,0,0,1,12.43,9.86,49,49,0,0,1,8.21,16.77A85.76,85.76,0,0,1,161.08,229.29Zm-23.13,0a96,96,0,0,0-1.37-17.89,36.73,36.73,0,0,0-3.65-11,13.26,13.26,0,0,0-5.17-5.46,12.79,12.79,0,0,0-5.85-1.48,12.61,12.61,0,0,0-5.82,1.48,13,13,0,0,0-5.06,5.46,37.57,37.57,0,0,0-3.54,11,98.17,98.17,0,0,0-1.33,17.89,98.08,98.08,0,0,0,1.33,17.92,38.2,38.2,0,0,0,3.54,11,12.94,12.94,0,0,0,5.06,5.49,12.48,12.48,0,0,0,5.82,1.48,12.66,12.66,0,0,0,5.85-1.48,13.23,13.23,0,0,0,5.17-5.49,37.34,37.34,0,0,0,3.65-11A95.85,95.85,0,0,0,138,229.29Z"/><path class="cls-19" d="M214.8,213.91a22.15,22.15,0,0,1-1.79,9,22.42,22.42,0,0,1-4.74,7A21.43,21.43,0,0,1,193.22,236a22.38,22.38,0,0,1-8.59-1.6,20,20,0,0,1-6.79-4.53,20.61,20.61,0,0,1-4.46-7,24.31,24.31,0,0,1-1.61-9,25.64,25.64,0,0,1,1.61-9.28,20.85,20.85,0,0,1,4.46-7.12,20.18,20.18,0,0,1,6.79-4.59,22,22,0,0,1,8.59-1.63,22.57,22.57,0,0,1,8.67,1.63,20,20,0,0,1,6.84,4.59,21,21,0,0,1,4.47,7.12A25.64,25.64,0,0,1,214.8,213.91ZM243,195a11.45,11.45,0,0,1,2.29-2,6.81,6.81,0,0,1,3.76-.89H263l-67.69,87.1A7.69,7.69,0,0,1,193,281.2a6.89,6.89,0,0,1-3.36.77h-14.3Zm-42.9,18.92a22.16,22.16,0,0,0-.52-5.21,9.45,9.45,0,0,0-1.45-3.3,5.05,5.05,0,0,0-2.19-1.72,7.47,7.47,0,0,0-2.75-.5,7.22,7.22,0,0,0-2.71.5,4.64,4.64,0,0,0-2.09,1.72,9.65,9.65,0,0,0-1.36,3.3,22.91,22.91,0,0,0-.49,5.21,20.67,20.67,0,0,0,.49,4.93,8.86,8.86,0,0,0,1.36,3.15,4.77,4.77,0,0,0,2.09,1.66,7.22,7.22,0,0,0,2.71.49,7.47,7.47,0,0,0,2.75-.49,5.21,5.21,0,0,0,2.19-1.66,8.71,8.71,0,0,0,1.45-3.15A20,20,0,0,0,200.13,213.91Zm66.33,47a22.34,22.34,0,0,1-6.53,16.06,20.8,20.8,0,0,1-6.88,4.53,21.33,21.33,0,0,1-8.17,1.61,22.47,22.47,0,0,1-8.6-1.61,19.7,19.7,0,0,1-6.78-4.53,20.68,20.68,0,0,1-4.47-7,24.84,24.84,0,0,1-1.6-9,25.76,25.76,0,0,1,1.6-9.27,20.83,20.83,0,0,1,4.47-7.12,20,20,0,0,1,6.78-4.6,22.29,22.29,0,0,1,8.6-1.63,22.8,22.8,0,0,1,8.67,1.63,19.88,19.88,0,0,1,6.84,4.6,20.83,20.83,0,0,1,4.47,7.12A25.76,25.76,0,0,1,266.46,260.88Zm-14.67,0a21.19,21.19,0,0,0-.53-5.14,9.37,9.37,0,0,0-1.44-3.3,5.08,5.08,0,0,0-2.19-1.73,7.51,7.51,0,0,0-2.75-.49,7.22,7.22,0,0,0-2.71.49,4.67,4.67,0,0,0-2.09,1.73,9.56,9.56,0,0,0-1.36,3.3,22.49,22.49,0,0,0-.49,5.14,20.76,20.76,0,0,0,.49,4.94,8.89,8.89,0,0,0,1.36,3.14,4.7,4.7,0,0,0,2.09,1.66,7.22,7.22,0,0,0,2.71.5,7.51,7.51,0,0,0,2.75-.5,5.13,5.13,0,0,0,2.19-1.66,8.73,8.73,0,0,0,1.44-3.14A19.57,19.57,0,0,0,251.79,260.88Z"/></g></g></svg>