<svg xmlns="http://www.w3.org/2000/svg" xmlns:xlink="http://www.w3.org/1999/xlink" viewBox="0 0 351.48 385.14"><defs><style>.cls-1{isolation:isolate;}.cls-13,.cls-2{fill:#002e61;}.cls-2{opacity:0.06;}.cls-3{fill:#030058;}.cls-4{fill:#ffa8a4;}.cls-5{fill:#4a8dbd;}.cls-6{fill:#265b9c;}.cls-7{fill:#ffd600;}.cls-12,.cls-13,.cls-8{mix-blend-mode:multiply;}.cls-8{fill:url(#鍊踑臇蜸馯鳺艜_2);}.cls-9{fill:#ff7415;}.cls-10{fill:#1a3474;}.cls-11{fill:#ffb510;}.cls-12{fill:url(#鍊踑臇蜸馯鳺艜_2-2);}.cls-13{opacity:0.1;}.cls-14{fill:#afbbd2;}.cls-15{fill:#d8e4ef;}.cls-16{fill:#c3d1de;}.cls-17{fill:#757f96;}.cls-18{fill:#00147a;}.cls-19{fill:#ffae84;}.cls-20{fill:#ffbb98;}.cls-21{fill:#ffb9b3;}.cls-22{fill:#ff8700;}.cls-23{fill:#4f7b78;}</style><linearGradient id="鍊踑臇蜸馯鳺艜_2" x1="8427.66" y1="236.62" x2="8371.98" y2="250.65" gradientTransform="translate(-8138.64)" gradientUnits="userSpaceOnUse"><stop offset="0" stop-color="#fff"/><stop offset="1" stop-color="#ffa424"/></linearGradient><linearGradient id="鍊踑臇蜸馯鳺艜_2-2" x1="8265.94" y1="172.67" x2="8268.31" y2="193.37" xlink:href="#鍊踑臇蜸馯鳺艜_2"/></defs><g class="cls-1"><g id="圖層_2" data-name="圖層 2"><g id="design"><path class="cls-2" d="M71.76,293.51s-8.82-4.59-16.9,1.09S20.63,323,3.13,306.83,47.21,266,47.21,266l25.92-17.51s-27-23.07-45.13-53C11.84,168.9,28,161,56.6,165.31s246.78,72.85,257,95S363,332.6,323.91,330.85s-133.57-18.12-133.57-18.12,29.25,19.87,21.14,30.13-61.15,63-81.15,33.35c-9.08-14.78,13.54-38.43,13.54-38.43l-25.9-39Z"/><path class="cls-3" d="M237.89,33c-2-8.32.9-38.34,42.16-32.16,22.45,3.37,26.88,19.73,24.57,35s-19,36.9-15.61,50.61c-31.08-15.17-34.15-16.33-39.38-19.37.57-14.16,27.31-31.39,16.31-43.77-8.49-9.56-23.33.9-22,9C244.47,35.37,238.47,35.39,237.89,33Z"/><path class="cls-4" d="M101.09,248.74l-31.71-6.51s-11-5.5-16.36-3.26-15.49,14.55-21.64,19.25-29,14.92-28.23,31.49,12.74,18.68,22.37,13.9,24.61-19,36.12-23.53,35.1-.43,35.1-.43Z"/><path class="cls-5" d="M30.91,286.34c-5.19-5.23-2.33-12.17,1.59-17.19,5.55-7.11,13.21-12.79,19.84-18.88a93.2,93.2,0,0,1,13-10.4c-1.76-.43-3.67-.91-5.7-1.44-10.4-2.71-13.29,7.09-26.49,17.69S13.37,269.19,7.48,275.6c-5,5.42-11.06,16.06-3.18,25.2,9,10.46,25.91,4,39.29-6.57L45,293.14l-.21-.3C39.71,291.41,34.6,290.06,30.91,286.34Z"/><path class="cls-6" d="M7.48,275.6c5.89-6.41,12.41-8.89,25.62-19.48s16.09-20.4,26.49-17.69l2.66.68v.07c-9.85-2.1-12.9,7.49-25.8,17.84-13.21,10.6-19.73,13.08-25.63,19.49-5,5.42-11,16.06-3.17,25.19a14.7,14.7,0,0,0,5.82,4.18A14.92,14.92,0,0,1,4.3,300.8C-3.58,291.66,2.49,281,7.48,275.6Z"/><path class="cls-7" d="M288.24,181.57S326.67,218,348.66,288c5.53,19.36-6.7,29.41-31.89,28.83s-204.7-25.4-204.7-25.4-31.44-2.12-37.41-4.16-4.52-43.06,21.69-44.17c8.3-.38,17.57,2.65,25,3.31,82.84,7.32,89.47-1.29,134.45,4.47-23.36-30.58-28.78-33.48-28.78-33.48l-11.83-9.16s-10.34-17.06-5.54-44C229.43,139.47,288.24,181.57,288.24,181.57Z"/><path class="cls-2" d="M246.6,249.85s-35.06,12.28-53.31,32.6c-26.94-21.35-37.83-33.87-37.83-33.87Z"/><path class="cls-8" d="M273.3,209.67c-4.51.16-8.8,1.53-13.19,2.46a135,135,0,0,0-13.41,3.69c-3.87,1.25-7.7,2.6-11.48,4.08a18.35,18.35,0,0,0-1,1.55l21.65,29.44s31.41,6,50.39,13.24C306.56,241.9,289.28,218.62,273.3,209.67Z"/><path class="cls-2" d="M254.14,248.58s54-20.11,74.37-9.54C315.76,215.61,313.85,215,313.85,215l-65.66,24.35Z"/><ellipse class="cls-9" cx="165.2" cy="311.84" rx="25.95" ry="19.81" transform="translate(-166.01 190.05) rotate(-41.9)"/><path class="cls-4" d="M167.91,285.75s23.22,26,23.44,26.09,11.06,11.48,12.74,16.5S152.55,359.71,152,360.08s-12.52,12.59-14.34,8,.48-14.67,11.72-27.08c12.44-13.76,12.3-19.88,12.3-19.88l-20.38-24.46Z"/><path class="cls-5" d="M175.89,329.5c-4.73,3.14-10.28,7-15.94,8.1-3.59.72-7.12.4-10.67.67-6.72,7.93-14.13,19.07-12.13,27.88,19.67-1.56,66.94-37.81,66.94-37.81a74.87,74.87,0,0,0-7.86-12.43C189.12,319.61,183,324.79,175.89,329.5Z"/><path class="cls-10" d="M137.15,366.15c-1-4.34.31-9.24,2.68-14,.45-.54.93-1.09,1.46-1.64,8.59-9,25.26-7.14,32.76-12.45S182.32,327,190.35,323s11,.51,11.87,2.26a9.84,9.84,0,0,1,.87,3.88C196.21,334.28,155.14,364.72,137.15,366.15Z"/><path class="cls-6" d="M204.09,328.34c.87,1.75,2.6,7.86-3.76,14.63s-9.27,4.88-13.79,9.54-9.24,13.61-22,19.07-22,5.75-24.75,2.62-5.17-11.65,3.42-20.6,25.26-7.13,32.76-12.45,8.27-11.06,16.3-15.07S203.21,326.59,204.09,328.34Z"/><path class="cls-11" d="M228.55,153.05s-39.17-13-124.27-18.3c-53.95-3.38-73.52,4.93-73.23,21.68s14.6,45.35,37.57,74.21c20.72,26.05,47.79,53.8,55.25,63.85s14.38,29.83,21.91,34.54c-7.17-8.16-4.42-22.42,6.19-31.94,9.63-8.64,22.44-10.42,30.22-4.69,0-.1-.05-.21-.09-.31-22.77-22.95-48.13-78.45-73.5-97.38,47.14,19.95,107,13.67,107,13.67s-8.3-14.13-5.88-43C210.87,151.58,228.55,153.05,228.55,153.05Z"/><path class="cls-12" d="M107.7,194s-15.78-20-34.57-30.29c26.36-9.39,104.82,17.88,105,18.16s4.56,10.46,4.56,10.46Z"/><path class="cls-13" d="M173.82,141.79l.67.11,20.3,3.34s-17.86,18.06-9.24,50.1c-17.87,6.44-21.55-36.4-21.55-36.4"/><path class="cls-2" d="M145.83,241.12s-42.63-24.59-51-31.45,40.78-8.52,40.78-8.52l-3.83,11.33Z"/><path class="cls-14" d="M254.52,239.56l-2.16.22v.54l-73.66-57a1.58,1.58,0,0,0-1.58-.23l-59.33,25.13c0-.22.08-.36.1-.35l-2.28-.66-.38,2.85,0,.21v0h0a1.6,1.6,0,0,0,.62,1.34l74,57.07a1.58,1.58,0,0,0,1.71.15l61.75-24.94a1.58,1.58,0,0,0,.85-1.29h0Z"/><path class="cls-15" d="M190.19,265.67l-74-57.08a1.59,1.59,0,0,1,.37-2.74L177.52,180a1.62,1.62,0,0,1,1.59.23l74.8,57.94a1.6,1.6,0,0,1-.26,2.67L191.9,265.82A1.63,1.63,0,0,1,190.19,265.67Z"/><path class="cls-16" d="M205.34,227.27,178,206.19a.4.4,0,0,1,.09-.69l16.54-7.05a.42.42,0,0,1,.4.06l27.57,21.29a.4.4,0,0,1-.07.67l-16.74,6.84A.42.42,0,0,1,205.34,227.27Z"/><path class="cls-17" d="M159.31,197.93l3.41,2.64a.11.11,0,0,1,0,.21l-3.28,1.44a.4.4,0,0,1-.35-.05l-3.41-2.64c-.09-.07-.08-.16,0-.2l3.28-1.45A.4.4,0,0,1,159.31,197.93Z"/><path class="cls-17" d="M164.06,201.61l4.45,3.45c.09.07.08.16,0,.2l-3.28,1.45a.38.38,0,0,1-.34-.05l-4.46-3.45c-.09-.07-.08-.16,0-.2l3.29-1.45A.38.38,0,0,1,164.06,201.61Z"/><path class="cls-17" d="M137.16,208.8l-2.81-2.17c-.09-.07-.08-.16,0-.2l1.61-.71a.4.4,0,0,1,.35.05l2.8,2.17c.09.07.08.16,0,.2l-1.61.71A.38.38,0,0,1,137.16,208.8Z"/><path class="cls-17" d="M153.61,193.52l4.34,3.36c.09.07.09.16,0,.21l-3.29,1.44a.37.37,0,0,1-.34,0L150,195.12c-.09-.07-.08-.16,0-.2l3.29-1.45A.38.38,0,0,1,153.61,193.52Z"/><path class="cls-17" d="M140,207.26a.4.4,0,0,1-.35,0l-2.43-1.88c-.09-.07-.08-.16,0-.2l2.7-1.19a.37.37,0,0,1,.35,0l2.43,1.89a.11.11,0,0,1,0,.2Z"/><path class="cls-17" d="M198.45,228.23l3.41,2.64c.09.07.08.17,0,.21l-3.28,1.44a.37.37,0,0,1-.35,0l-3.41-2.64c-.09-.07-.08-.17,0-.21l3.29-1.44A.35.35,0,0,1,198.45,228.23Z"/><path class="cls-17" d="M180.39,220l2.43,1.89c.09.07.08.16,0,.2l-2.7,1.19a.4.4,0,0,1-.35,0l-2.43-1.89c-.09-.07-.08-.16,0-.2L180,220A.4.4,0,0,1,180.39,220Z"/><path class="cls-17" d="M141.16,211.9l-2.81-2.17c-.09-.07-.08-.16,0-.2l1.61-.71a.37.37,0,0,1,.35,0l2.8,2.17c.09.07.08.17,0,.21l-1.61.71A.38.38,0,0,1,141.16,211.9Z"/><path class="cls-17" d="M190.39,228l-2.7,1.19a.4.4,0,0,1-.35-.05l-2.43-1.88c-.09-.07-.08-.16,0-.2l2.71-1.19a.35.35,0,0,1,.34,0l2.43,1.88C190.5,227.86,190.49,228,190.39,228Z"/><path class="cls-17" d="M161,205.22a.4.4,0,0,1,.35.05l2.43,1.88a.11.11,0,0,1,0,.21L161,208.55a.38.38,0,0,1-.34-.05l-2.43-1.88a.11.11,0,0,1,0-.21Z"/><path class="cls-17" d="M144.94,211.27c-.09-.07-.09-.16,0-.2l2.71-1.19a.35.35,0,0,1,.34,0l2.43,1.89c.09.07.08.16,0,.2l-2.7,1.19a.37.37,0,0,1-.34,0Z"/><path class="cls-17" d="M180.66,242.48l-2.8-2.16c-.09-.07-.08-.17,0-.21l1.61-.71a.38.38,0,0,1,.34,0l2.8,2.17c.09.07.09.16,0,.2l-1.62.71A.38.38,0,0,1,180.66,242.48Z"/><path class="cls-17" d="M167.56,210.1a.11.11,0,0,1,0,.21l-2.7,1.19a.4.4,0,0,1-.35-.05l-2.43-1.88a.11.11,0,0,1,0-.21l2.7-1.19a.4.4,0,0,1,.35.05Z"/><path class="cls-17" d="M160.94,227.22l-2.8-2.17a.11.11,0,0,1,0-.21l1.61-.7a.34.34,0,0,1,.34,0l2.81,2.17a.11.11,0,0,1,0,.21l-1.61.71A.4.4,0,0,1,160.94,227.22Z"/><path class="cls-17" d="M176.66,239.39l-2.8-2.17c-.09-.07-.09-.16,0-.21l1.61-.71a.38.38,0,0,1,.34,0l2.8,2.17a.11.11,0,0,1,0,.21l-1.61.7A.35.35,0,0,1,176.66,239.39Z"/><path class="cls-17" d="M157,224.15l-2.8-2.17c-.09-.07-.08-.16,0-.2l1.61-.71a.37.37,0,0,1,.34,0l2.8,2.17c.09.07.09.17,0,.21l-1.61.71A.4.4,0,0,1,157,224.15Z"/><path class="cls-17" d="M164.94,230.32l-2.8-2.17a.11.11,0,0,1,0-.21l1.61-.71a.38.38,0,0,1,.34.05l2.81,2.17c.09.07.08.16,0,.2l-1.61.71A.37.37,0,0,1,164.94,230.32Z"/><path class="cls-17" d="M172.8,236.4l-2.8-2.17c-.09-.07-.08-.16,0-.2l1.61-.71a.4.4,0,0,1,.35,0l2.8,2.17c.09.07.08.17,0,.21l-1.61.71A.4.4,0,0,1,172.8,236.4Z"/><path class="cls-17" d="M168.84,233.33l-2.8-2.16c-.09-.07-.08-.17,0-.21l1.61-.71a.38.38,0,0,1,.34.05l2.81,2.17c.09.07.08.16,0,.2l-1.61.71A.37.37,0,0,1,168.84,233.33Z"/><path class="cls-17" d="M186.63,224.87a.11.11,0,0,1,0,.21l-2.7,1.19a.38.38,0,0,1-.34-.05l-2.43-1.88c-.09-.07-.09-.17,0-.21l2.71-1.19a.38.38,0,0,1,.34.05Z"/><path class="cls-17" d="M214.22,246.38c.1.07.09.16,0,.2l-2.71,1.19a.35.35,0,0,1-.34-.05l-2.43-1.88c-.09-.07-.09-.16,0-.2l2.71-1.19a.35.35,0,0,1,.34,0Z"/><path class="cls-17" d="M204.74,247.39l2.71-1.18a.35.35,0,0,1,.34,0l2.43,1.88c.09.07.09.17,0,.21l-2.71,1.19a.38.38,0,0,1-.34-.05l-2.43-1.88C204.64,247.53,204.64,247.44,204.74,247.39Z"/><path class="cls-17" d="M196,254.39l-2.49-1.93c-.09-.07-.08-.17,0-.21l1.61-.71a.38.38,0,0,1,.34.05l2.5,1.93a.11.11,0,0,1,0,.21l-1.61.71A.4.4,0,0,1,196,254.39Z"/><path class="cls-17" d="M216.68,242.34l2.52,2c.09.07.08.16,0,.2L215.9,246a.4.4,0,0,1-.35,0L213,244c-.09-.07-.08-.17,0-.21l3.28-1.44A.37.37,0,0,1,216.68,242.34Z"/><path class="cls-17" d="M198.26,248.83c.09.07.08.17,0,.21l-2.7,1.19a.37.37,0,0,1-.34,0l-2.44-1.88c-.08-.07-.08-.16,0-.2l2.71-1.19a.35.35,0,0,1,.34,0Z"/><path class="cls-17" d="M200.54,249.24l2.7-1.19a.4.4,0,0,1,.35,0L206,250c.09.07.08.17,0,.21l-2.7,1.19a.4.4,0,0,1-.35,0l-2.43-1.88A.11.11,0,0,1,200.54,249.24Z"/><path class="cls-17" d="M220.43,245.33l2.42,1.88c.1.07.09.16,0,.21l-7.48,3.29a.38.38,0,0,1-.34-.05l-2.43-1.88c-.09-.07-.08-.16,0-.2l7.48-3.29A.37.37,0,0,1,220.43,245.33Z"/><path class="cls-17" d="M209.83,252.94c.09.07.09.16,0,.21l-2.71,1.18a.35.35,0,0,1-.34,0l-2.43-1.88a.11.11,0,0,1,0-.21l2.7-1.19a.38.38,0,0,1,.34.05Z"/><path class="cls-17" d="M202,251.74c.09.07.08.17,0,.21l-2.7,1.19a.4.4,0,0,1-.35,0l-2.43-1.88a.11.11,0,0,1,0-.21l2.7-1.19a.4.4,0,0,1,.35.05Z"/><path class="cls-17" d="M199.87,257.36l-2.49-1.93c-.09-.07-.09-.17,0-.21l1.62-.71a.38.38,0,0,1,.34.05l2.5,1.93a.11.11,0,0,1,0,.21l-1.61.71A.4.4,0,0,1,199.87,257.36Z"/><path class="cls-17" d="M205.83,254.7c.09.07.09.16,0,.2l-2.71,1.19a.35.35,0,0,1-.34,0l-2.43-1.88c-.09-.08-.08-.17,0-.21l2.7-1.19a.38.38,0,0,1,.34,0Z"/><path class="cls-17" d="M196.78,246.34l2.71-1.19a.37.37,0,0,1,.34,0l2.43,1.89c.09.07.08.16,0,.2l-2.7,1.19a.43.43,0,0,1-.35,0l-2.43-1.89C196.67,246.47,196.68,246.38,196.78,246.34Z"/><path class="cls-17" d="M211.61,249.21l2.43,1.88a.11.11,0,0,1,0,.21l-2.7,1.19a.4.4,0,0,1-.35-.05l-2.43-1.88a.11.11,0,0,1,0-.21l2.71-1.19A.38.38,0,0,1,211.61,249.21Z"/><path class="cls-17" d="M209.09,236.47l6.36,4.92a.11.11,0,0,1,0,.21L212.14,243a.37.37,0,0,1-.34,0l-6.36-4.93a.12.12,0,0,1,0-.21l3.29-1.44A.37.37,0,0,1,209.09,236.47Z"/><path class="cls-17" d="M188.86,245.28a.11.11,0,0,1,0-.21l2.7-1.19a.4.4,0,0,1,.35.05l2.43,1.88a.11.11,0,0,1,0,.21l-2.71,1.19a.38.38,0,0,1-.34-.05Z"/><path class="cls-17" d="M188.38,248.46l-2.6-2a.11.11,0,0,1,0-.21l1.61-.7a.34.34,0,0,1,.34,0l2.6,2a.11.11,0,0,1,0,.21l-1.61.71A.38.38,0,0,1,188.38,248.46Z"/><path class="cls-17" d="M192.28,251.48l-2.6-2a.11.11,0,0,1,0-.21l1.61-.71a.37.37,0,0,1,.34,0l2.6,2a.11.11,0,0,1,0,.21l-1.61.71A.38.38,0,0,1,192.28,251.48Z"/><path class="cls-17" d="M208,241.59l2.43,1.88c.09.07.08.16,0,.2l-2.71,1.19a.37.37,0,0,1-.34,0L205,242.93a.11.11,0,0,1,0-.2l2.7-1.19A.4.4,0,0,1,208,241.59Z"/><path class="cls-17" d="M198.34,244.26l-2.71,1.19a.38.38,0,0,1-.34,0l-2.43-1.88a.11.11,0,0,1,0-.21l2.7-1.19a.37.37,0,0,1,.34,0l2.44,1.88C198.44,244.12,198.44,244.21,198.34,244.26Z"/><path class="cls-17" d="M201,244.49l2.7-1.19a.4.4,0,0,1,.35,0l2.43,1.89c.09.07.08.16,0,.2l-2.71,1.19a.41.41,0,0,1-.34,0L201,244.69C200.88,244.62,200.89,244.53,201,244.49Z"/><path class="cls-17" d="M202.54,242.41l-2.7,1.19a.37.37,0,0,1-.34,0l-2.44-1.88c-.08-.07-.08-.16,0-.21l2.71-1.18a.35.35,0,0,1,.34,0l2.43,1.88A.11.11,0,0,1,202.54,242.41Z"/><path class="cls-17" d="M204.13,238.56l2.43,1.88c.09.07.08.17,0,.21l-2.7,1.19a.37.37,0,0,1-.34-.05l-2.43-1.88c-.09-.07-.09-.16,0-.2l2.71-1.19A.35.35,0,0,1,204.13,238.56Z"/><path class="cls-17" d="M148.84,195.61l7.23,5.6a.12.12,0,0,1,0,.21l-2.71,1.19a.38.38,0,0,1-.34-.05l-7.23-5.6c-.09-.07-.08-.16,0-.2l2.7-1.19A.35.35,0,0,1,148.84,195.61Z"/><path class="cls-17" d="M157.45,202.28l2.43,1.88c.09.07.09.16,0,.21l-2.71,1.19a.38.38,0,0,1-.34-.05l-2.43-1.88a.11.11,0,0,1,0-.21l2.7-1.19A.38.38,0,0,1,157.45,202.28Z"/><path class="cls-17" d="M141.83,203.93l-4.3-3.34c-.09-.07-.09-.16,0-.21l2.71-1.18a.35.35,0,0,1,.34,0l4.31,3.34c.09.07.08.16,0,.2l-2.7,1.19A.4.4,0,0,1,141.83,203.93Z"/><path class="cls-17" d="M182,226.22l2.43,1.88c.09.07.08.17,0,.21l-2.7,1.19a.4.4,0,0,1-.35-.05l-2.43-1.88c-.09-.07-.08-.16,0-.2l2.71-1.19A.35.35,0,0,1,182,226.22Z"/><path class="cls-17" d="M159.13,208.53l2.43,1.88a.11.11,0,0,1,0,.21l-2.7,1.19a.39.39,0,0,1-.35-.05l-2.43-1.88a.11.11,0,0,1,0-.21l2.7-1.19A.4.4,0,0,1,159.13,208.53Z"/><path class="cls-17" d="M145.64,206.88,143.21,205c-.09-.07-.08-.16,0-.2l2.71-1.19a.38.38,0,0,1,.34.05l2.43,1.88c.09.07.08.16,0,.2l-2.7,1.19A.37.37,0,0,1,145.64,206.88Z"/><path class="cls-17" d="M170.21,230.84,167.78,229c-.09-.07-.08-.16,0-.2l2.71-1.19a.37.37,0,0,1,.34,0l2.43,1.89c.09.07.08.16,0,.2l-2.7,1.19A.37.37,0,0,1,170.21,230.84Z"/><path class="cls-17" d="M174.08,233.84,171.65,232c-.09-.07-.08-.16,0-.2l2.7-1.19a.4.4,0,0,1,.35.05l2.43,1.88c.09.07.08.16,0,.2l-2.71,1.19A.35.35,0,0,1,174.08,233.84Z"/><path class="cls-17" d="M177.91,236.8l-2.43-1.88a.11.11,0,0,1,0-.21l2.7-1.18a.37.37,0,0,1,.35,0l2.43,1.88c.09.07.08.17,0,.21l-2.7,1.19A.4.4,0,0,1,177.91,236.8Z"/><path class="cls-17" d="M148.71,214.2c-.09-.07-.08-.17,0-.21l2.7-1.19a.4.4,0,0,1,.35,0l2.43,1.88a.11.11,0,0,1,0,.21l-2.7,1.19a.4.4,0,0,1-.35,0Z"/><path class="cls-17" d="M181.67,239.71l-2.44-1.88c-.08-.07-.08-.16,0-.21l2.71-1.19a.38.38,0,0,1,.34,0l2.43,1.88a.11.11,0,0,1,0,.21l-2.7,1.19A.37.37,0,0,1,181.67,239.71Z"/><path class="cls-17" d="M162.63,225l-2.43-1.88a.12.12,0,0,1,0-.21l2.71-1.19a.38.38,0,0,1,.34.05l2.43,1.88c.09.07.09.16,0,.21L163,225A.38.38,0,0,1,162.63,225Z"/><path class="cls-17" d="M166.41,227.9,164,226c-.09-.07-.08-.16,0-.2l2.71-1.19a.35.35,0,0,1,.34,0l2.43,1.89c.09.07.08.16,0,.2l-2.7,1.19A.41.41,0,0,1,166.41,227.9Z"/><path class="cls-17" d="M191.79,228.86l2.43,1.88c.09.07.08.17,0,.21l-2.7,1.19a.4.4,0,0,1-.35,0l-2.43-1.88c-.09-.07-.08-.16,0-.2l2.71-1.19A.35.35,0,0,1,191.79,228.86Z"/><path class="cls-17" d="M192.75,223.82l4.35,3.37a.11.11,0,0,1,0,.2l-3.29,1.45a.38.38,0,0,1-.34-.05l-4.34-3.36c-.09-.07-.09-.17,0-.21l3.29-1.44A.35.35,0,0,1,192.75,223.82Z"/><path class="cls-17" d="M169.74,206l21.69,16.8c.09.07.08.16,0,.2l-3.28,1.45a.4.4,0,0,1-.35,0l-21.69-16.79a.11.11,0,0,1,0-.21l3.28-1.44A.37.37,0,0,1,169.74,206Z"/><path class="cls-17" d="M133.45,202.38c-.09-.07-.08-.16,0-.2l2.7-1.19a.37.37,0,0,1,.35,0l2.43,1.88c.09.08.08.17,0,.21l-2.7,1.19a.4.4,0,0,1-.35-.05Z"/><path class="cls-17" d="M133.19,205.74l-2.8-2.17c-.09-.07-.08-.17,0-.21l1.61-.71a.4.4,0,0,1,.35,0l2.8,2.17c.09.07.08.16,0,.2l-1.61.71A.37.37,0,0,1,133.19,205.74Z"/><path class="cls-17" d="M197.14,258.62l-69.5-53.68c-.08-.07-.08-.16,0-.2l1.61-.71a.37.37,0,0,1,.35,0l69.5,53.68a.11.11,0,0,1,0,.21l-1.61.7A.37.37,0,0,1,197.14,258.62Z"/><path class="cls-17" d="M184.62,245.55l-2.8-2.17c-.09-.07-.08-.16,0-.2l1.61-.71a.35.35,0,0,1,.34,0l2.81,2.17c.09.07.08.17,0,.21l-1.61.71A.4.4,0,0,1,184.62,245.55Z"/><path class="cls-17" d="M203.2,231.91l4.46,3.45a.11.11,0,0,1,0,.21L204.35,237a.38.38,0,0,1-.34,0l-4.45-3.44c-.09-.07-.08-.17,0-.21l3.29-1.44A.35.35,0,0,1,203.2,231.91Z"/><path class="cls-17" d="M149,218l-2.8-2.17c-.09-.07-.09-.16,0-.21l1.62-.71a.38.38,0,0,1,.34,0l2.8,2.17a.11.11,0,0,1,0,.21l-1.61.7A.35.35,0,0,1,149,218Z"/><path class="cls-17" d="M152.52,217.15a.11.11,0,0,1,0-.21l2.71-1.19a.38.38,0,0,1,.34.05l2.43,1.88a.11.11,0,0,1,0,.21l-2.7,1.19A.4.4,0,0,1,155,219Z"/><path class="cls-17" d="M153,221.06l-2.8-2.17c-.09-.07-.08-.17,0-.21l1.61-.71a.38.38,0,0,1,.34.05l2.8,2.17c.09.07.08.16,0,.2l-1.61.71A.41.41,0,0,1,153,221.06Z"/><path class="cls-17" d="M141.12,208.32c-.09-.07-.08-.16,0-.2l2.71-1.19a.35.35,0,0,1,.34,0l2.43,1.89c.09.07.08.16,0,.2l-2.7,1.19a.41.41,0,0,1-.34,0Z"/><path class="cls-17" d="M156.39,220.14c-.09-.07-.09-.16,0-.21l2.71-1.19a.38.38,0,0,1,.34,0l2.43,1.88a.11.11,0,0,1,0,.21l-2.7,1.19a.38.38,0,0,1-.34,0Z"/><path class="cls-17" d="M145.12,215l-2.8-2.17c-.09-.07-.09-.16,0-.21l1.62-.71a.38.38,0,0,1,.34.05l2.8,2.17a.11.11,0,0,1,0,.21l-1.61.71A.38.38,0,0,1,145.12,215Z"/><path class="cls-17" d="M195.65,231.85l7.27,5.62c.09.07.08.17,0,.21l-2.71,1.19a.38.38,0,0,1-.34-.05l-7.26-5.62c-.09-.07-.09-.16,0-.2l2.71-1.19A.35.35,0,0,1,195.65,231.85Z"/><path class="cls-17" d="M157.73,212.51l2.43,1.88a.11.11,0,0,1,0,.21l-2.7,1.19a.37.37,0,0,1-.34,0l-2.44-1.88a.11.11,0,0,1,0-.21l2.71-1.19A.38.38,0,0,1,157.73,212.51Z"/><path class="cls-17" d="M153.66,212.86a.35.35,0,0,1-.34,0l-2.43-1.89c-.09-.06-.09-.16,0-.2l2.71-1.19a.38.38,0,0,1,.34.05l2.43,1.88c.09.07.09.16,0,.2Z"/><path class="cls-17" d="M183.84,236.45l-2.43-1.88a.11.11,0,0,1,0-.21l2.71-1.19a.38.38,0,0,1,.34.05l2.43,1.88a.11.11,0,0,1,0,.21l-2.7,1.19A.4.4,0,0,1,183.84,236.45Z"/><path class="cls-17" d="M176.58,217.08,179,219c.09.07.08.16,0,.2l-2.7,1.19a.37.37,0,0,1-.35-.05l-2.43-1.88c-.09-.07-.08-.16,0-.2l2.7-1.19A.4.4,0,0,1,176.58,217.08Z"/><path class="cls-17" d="M185.79,229.17l2.43,1.88c.09.07.08.17,0,.21l-2.7,1.19a.4.4,0,0,1-.35,0l-2.43-1.88c-.09-.07-.08-.16,0-.2l2.71-1.19A.35.35,0,0,1,185.79,229.17Z"/><path class="cls-17" d="M189.65,232.16l2.43,1.89c.09.06.09.16,0,.2l-2.71,1.19a.38.38,0,0,1-.34-.05l-2.43-1.88c-.09-.07-.09-.16,0-.2l2.71-1.19A.35.35,0,0,1,189.65,232.16Z"/><path class="cls-17" d="M187.65,239.4l-2.43-1.88a.11.11,0,0,1,0-.21l2.71-1.19a.38.38,0,0,1,.34,0l2.43,1.88a.11.11,0,0,1,0,.21l-2.7,1.19A.4.4,0,0,1,187.65,239.4Z"/><path class="cls-17" d="M149.51,209.87,147.08,208c-.09-.06-.09-.16,0-.2l2.71-1.19a.38.38,0,0,1,.34,0l2.43,1.88c.09.07.08.16,0,.2l-2.7,1.19A.35.35,0,0,1,149.51,209.87Z"/><path class="cls-17" d="M155.32,205.58l2.43,1.88a.11.11,0,0,1,0,.21L155,208.86a.38.38,0,0,1-.34-.05l-2.43-1.88a.11.11,0,0,1,0-.21l2.7-1.19A.4.4,0,0,1,155.32,205.58Z"/><path class="cls-17" d="M168.9,211.14l2.44,1.89c.08.07.08.16,0,.2l-2.71,1.19a.38.38,0,0,1-.34,0l-2.43-1.88c-.09-.07-.08-.16,0-.2l2.7-1.19A.34.34,0,0,1,168.9,211.14Z"/><path class="cls-17" d="M144.74,197.39l5.33,4.13c.09.07.09.16,0,.21l-2.71,1.19a.38.38,0,0,1-.34,0l-5.33-4.13c-.09-.07-.09-.16,0-.2l2.71-1.19A.35.35,0,0,1,144.74,197.39Z"/><path class="cls-17" d="M172.72,214.09l2.43,1.89c.09.07.08.16,0,.2l-2.71,1.19a.38.38,0,0,1-.34-.05l-2.43-1.88c-.09-.07-.08-.16,0-.2l2.7-1.19A.4.4,0,0,1,172.72,214.09Z"/><path class="cls-17" d="M151.45,202.59l2.43,1.88c.1.07.09.16,0,.21l-2.71,1.19a.38.38,0,0,1-.34-.05l-2.43-1.88c-.09-.07-.09-.16,0-.21l2.7-1.19A.38.38,0,0,1,151.45,202.59Z"/><path class="cls-17" d="M180.62,230.23l2.43,1.88a.11.11,0,0,1,0,.21l-2.71,1.19a.38.38,0,0,1-.34,0l-2.43-1.88a.11.11,0,0,1,0-.21l2.7-1.19A.4.4,0,0,1,180.62,230.23Z"/><path class="cls-17" d="M166.72,214.41l2.43,1.88c.09.07.08.16,0,.2l-2.71,1.19a.37.37,0,0,1-.34,0l-2.43-1.89c-.09-.07-.08-.16,0-.2l2.7-1.19A.4.4,0,0,1,166.72,214.41Z"/><path class="cls-17" d="M174.39,220.35l2.43,1.88c.09.07.08.16,0,.2l-2.7,1.19a.37.37,0,0,1-.35,0l-2.43-1.89c-.09-.07-.08-.16,0-.2l2.7-1.19A.4.4,0,0,1,174.39,220.35Z"/><path class="cls-17" d="M170.58,217.4l2.43,1.88c.09.07.08.16,0,.2l-2.7,1.19a.36.36,0,0,1-.35,0l-2.43-1.89c-.09-.07-.08-.16,0-.2l2.7-1.19A.4.4,0,0,1,170.58,217.4Z"/><path class="cls-17" d="M178.2,223.3l2.43,1.88a.11.11,0,0,1,0,.21l-2.7,1.19a.38.38,0,0,1-.34-.05l-2.43-1.88c-.09-.07-.09-.16,0-.21l2.71-1.19A.38.38,0,0,1,178.2,223.3Z"/><path class="cls-17" d="M198.78,239.23a.11.11,0,0,1,0,.21l-2.7,1.18a.37.37,0,0,1-.35,0l-5.31-4.12c-.09-.07-.09-.16,0-.2l2.7-1.19a.35.35,0,0,1,.34,0Z"/><path class="cls-17" d="M194.5,241c.09.07.09.16,0,.21l-2.71,1.19a.38.38,0,0,1-.34,0L189,240.45c-.09-.07-.09-.16,0-.21l2.71-1.19a.38.38,0,0,1,.34,0Z"/><path class="cls-17" d="M164.77,221.68l-2.43-1.88c-.09-.07-.09-.16,0-.21l2.71-1.19a.38.38,0,0,1,.34,0l2.43,1.88c.09.07.09.17,0,.21l-2.71,1.19A.38.38,0,0,1,164.77,221.68Z"/><path class="cls-17" d="M168.58,224.63l-2.43-1.88a.11.11,0,0,1,0-.21l2.7-1.18a.35.35,0,0,1,.34,0l2.43,1.88c.09.07.09.17,0,.21l-2.71,1.19A.38.38,0,0,1,168.58,224.63Z"/><path class="cls-17" d="M162.9,211.45l2.44,1.89c.08.07.08.16,0,.2l-2.71,1.19a.35.35,0,0,1-.34,0l-2.43-1.88c-.09-.07-.09-.16,0-.2l2.7-1.19A.37.37,0,0,1,162.9,211.45Z"/><path class="cls-17" d="M160.91,218.69l-2.43-1.88c-.09-.07-.09-.16,0-.21l2.71-1.19a.38.38,0,0,1,.34.05l2.43,1.88a.11.11,0,0,1,0,.21l-2.7,1.19A.38.38,0,0,1,160.91,218.69Z"/><path class="cls-17" d="M172.39,227.58,170,225.7c-.09-.07-.08-.16,0-.2l2.7-1.19a.37.37,0,0,1,.35.05l2.43,1.88c.09.07.08.16,0,.2l-2.7,1.19A.37.37,0,0,1,172.39,227.58Z"/><path class="cls-17" d="M187.49,244.22l-4.6-3.56c-.08-.07-.07-.16,0-.2l2.71-1.19a.35.35,0,0,1,.34,0l4.59,3.56c.09.07.09.16,0,.2l-2.71,1.19A.35.35,0,0,1,187.49,244.22Z"/><path class="cls-17" d="M176.81,227.28l2.43,1.88c.08.07.08.16,0,.21l-2.71,1.19a.38.38,0,0,1-.34-.05l-2.43-1.88a.11.11,0,0,1,0-.21l2.7-1.19A.4.4,0,0,1,176.81,227.28Z"/><ellipse class="cls-18" cx="161.31" cy="175.95" rx="14.86" ry="14.03"/><path class="cls-19" d="M171,192.29s2.18,10.84,5.82,15.43c-.8,6.33-1.89,9.1-1,11.35-1.41,1.53-5.89-.51-4.87-8.26-7.14-7.24-5.1-15.39-5.1-15.39Z"/><path class="cls-20" d="M155.18,156.82s2.48,12.46,1.46,19-10,20.39-10.63,23.23.44,15.28.44,15.28,8.44,13.18,11.64,12.38.36-11.43,1.49-15.22,2.3-4.95,2.3-4.95l-.95,9,2.62,16.89s3.64.87,3.57-6,0-13.18,0-13.18,4.39-14.1,4.83-19.07c.25-2.87-.74-16-.74-16s2.5-11.09,2.61-19.12C174,144.71,155.18,156.82,155.18,156.82Z"/><path class="cls-5" d="M243.21,67.73S201.86,66,166.44,95.13c-8.18,7-9.94,24.76-9.94,24.76s-7.89,37.69-9.68,53a14.68,14.68,0,0,1,14.49-11c8.21,0,14.86,6.28,14.86,14,0,.38,0,.74,0,1.11a1.21,1.21,0,0,1,0,.18c0-26.27,11.42-57.35,11.42-57.35L237,102.75s12.44-4.37,12.52-19.82S243.21,67.73,243.21,67.73Z"/><path class="cls-6" d="M221.92,77.4c-2.53,5.69-23.15,35-21.07,48.28a33.65,33.65,0,0,0,11.46,20.42l-2.62,18.12s-.87,22.06,22.93,31.45,51.11,6,57.66-10.59c3.05-7-2-16.82,5.24-36s21.62-44.55-3.39-60.49a164.8,164.8,0,0,0-48.15-21S227.05,65.84,221.92,77.4Z"/><path class="cls-4" d="M255.81,65.21l.86-1.85s3.45,10.9,7,16.24c3.83,5.42-1.08,11.15-3.94,12.88s-11,3.31-12.6,0-4.56-9.87-4.56-9.87l10.29-16.75Z"/><path class="cls-21" d="M216.37,66A48.76,48.76,0,0,0,218,73.7c.84,2,2.53,3.3,3.44,5.26.72,1.55.25,4.25,3.74,7.65,3.75,3.65,8.52,7,12.82,5.7,6.34-1.89,15.84-9.59,15.77-21.33s-21.5-15.53-21.5-15.53Z"/><path class="cls-10" d="M254.36,65.14a3.15,3.15,0,0,0-2.21,3.17c-.19,3.29.57,5.26-1,6.39-4.2,3-7-9.45-14.2-4s-20.49,2.19-24.31-7,1.8-14.69,5.12-18c5.06-5.11,10.71-24,33.16-15,15,6,8.66,23.73,10.35,32.16.72,3.61-1.7,7.3-3.67,6.95S254.36,65.14,254.36,65.14Z"/><path class="cls-22" d="M235,29.06c-.3-2,11.6-2.47,11.72-.16s-3.84,3.15-3.89,3.15l-6.2-.86Z"/><path class="cls-21" d="M257.27,69.53c0,4-1.62,6.35-3.1,6.31-1.93-.06-3.58-2-3.88-5s1-5.62,3-6S257.3,65.89,257.27,69.53Z"/><path class="cls-3" d="M245.64,26.15a44,44,0,0,1-7.89-2,24.89,24.89,0,0,0,.14,8.89c.58,2.4,6.58,2.38,6.07-.68A8.61,8.61,0,0,1,245.64,26.15Z"/><path class="cls-22" d="M237.49,29.41c0,.53,1.92,1.17,3.57,1.17s3.16-.66,3.25-1.18c.2-1.09.48,1.28.48,1.28S242.68,32,242.59,32s-4.31,0-4.42-.13S237,30.54,237,30.5,237.42,28.41,237.49,29.41Z"/><path class="cls-7" d="M246.75,28.9c-.95,1.63-3.21,2.43-5.54,2.47s-5-.76-6.18-2.31a29.31,29.31,0,0,0,.56,3.13c1.09,4.47,12.27,4.45,11.32-1.26A12.45,12.45,0,0,1,246.75,28.9Z"/><path class="cls-18" d="M246.66,229.08c1.56,8.35-.54,16-4.7,17.2s-8.79-4.69-10.35-13,.54-16.05,4.7-17.19S245.1,220.73,246.66,229.08Z"/><path class="cls-19" d="M217.56,224.5l-7.35.18s-6,2-6.69,3.25-.52,8.85-.52,8.85l10.92-3.14Z"/><path class="cls-20" d="M240.85,215l-24.93,9.74-17.8,16-4,17.72s3.57,1.57,5.75-3.56a62.77,62.77,0,0,0,3.31-11.21l2-1.43s-.64,1.5-.28,2.13c1.37,2.41,12.46,4.65,21.16,2.28,8.27-5.53,10.12-13.39,12.84-14.09l44.19-11.13Z"/><path class="cls-20" d="M232.18,243.11c-.73,1.15-5.05,3.73-3.87,1.77s-19.53,1.54-19.53,1.54,15.81,5.49,20.48,1.91S232.92,243.71,232.18,243.11Z"/><path class="cls-23" d="M242,246.26v.08l.36-.2C242.25,246.18,242.13,246.23,242,246.26Z"/><path class="cls-5" d="M290.17,94s-16.82,7.54-12.45,27.52,28.51,66.28,28.51,66.28L237,215.87v0c4-.35,8.16,5.29,9.63,13.16,1.38,7.35-.09,14.2-3.3,16.51l27.7-15.31s73.52-11.16,79.6-26.31C357.76,186.28,316.92,80.91,290.17,94Z"/><path class="cls-14" d="M190.55,266a.81.81,0,0,0,.14-.88L159,190.69a.85.85,0,0,0-.24-.32L86.58,132.84a.83.83,0,0,0-1,0h0a.7.7,0,0,0-.16.13l-1.9,1.64,4,4.7,27.92,69.16a.75.75,0,0,0,.26.35l70,54.41-1.51.87,4.34,3.62,1.84-1.59a1.07,1.07,0,0,0,.16-.14Z"/><path class="cls-15" d="M187.54,267.68,113.81,210.4a.85.85,0,0,1-.27-.35L83.41,135.42a.83.83,0,0,1,1.29-1L156.84,192a.9.9,0,0,1,.25.33l31.73,74.38A.84.84,0,0,1,187.54,267.68Z"/><path class="cls-16" d="M137.89,204.56c.49,6-1.29,9.28-4,7.4s-5.26-8.25-5.75-14.22,1.29-9.27,4-7.39S137.4,198.59,137.89,204.56Z"/><path class="cls-10" d="M224.16,79.09c.38,1,.21,1.91-.37,2.14s-1.36-.36-1.73-1.31-.21-1.91.37-2.14S223.79,78.14,224.16,79.09Z"/><path class="cls-10" d="M230.9,79.14c.38,1,.21,1.91-.37,2.14s-1.36-.35-1.73-1.31-.21-1.91.37-2.14S230.53,78.19,230.9,79.14Z"/><path class="cls-10" d="M219.64,76.93a.49.49,0,0,1-.24,0,.38.38,0,0,1-.29-.48,4.68,4.68,0,0,1,3.21-3.16.39.39,0,0,1,.49.26.38.38,0,0,1-.26.5,3.89,3.89,0,0,0-2.67,2.59A.42.42,0,0,1,219.64,76.93Z"/><path class="cls-10" d="M231.77,76.28a.41.41,0,0,1-.4-.06,8.87,8.87,0,0,0-3.76-1.59.4.4,0,1,1,.13-.79,9.75,9.75,0,0,1,4.14,1.77.41.41,0,0,1,.05.56A.42.42,0,0,1,231.77,76.28Z"/><path class="cls-10" d="M228.16,86.38l0,0a2.16,2.16,0,0,1-2-.17c-.63-.57-.46-1.65-.3-2.69q.06-.3.09-.6a.4.4,0,0,1,.45-.34.4.4,0,0,1,.34.45l-.09.61c-.13.8-.27,1.7,0,2s.65.17,1.29,0a.4.4,0,0,1,.49.28A.4.4,0,0,1,228.16,86.38Z"/><path class="cls-10" d="M233,89.62l-.14,0a3.1,3.1,0,0,1-3.57-1,.4.4,0,1,1,.67-.43,2.38,2.38,0,0,0,2.64.65,2.15,2.15,0,0,0,1.4-2.51.4.4,0,0,1,.35-.44.41.41,0,0,1,.44.36A3,3,0,0,1,233,89.62Z"/></g></g></g></svg>