<svg xmlns="http://www.w3.org/2000/svg" viewBox="0 0 533.43 510.59"><defs><style>.cls-1{isolation:isolate;}.cls-2{fill:#ffef99;}.cls-3{fill:#ffc271;}.cls-27,.cls-4,.cls-6{fill:#002e61;}.cls-4,.cls-5{opacity:0.06;}.cls-7{fill:#afbbd2;}.cls-8{fill:#d8e4ef;}.cls-9{fill:#c3d1de;}.cls-10{fill:#757f96;}.cls-11{fill:#0019ca;}.cls-12{fill:#1d4e7f;}.cls-13{fill:#ffa8a4;}.cls-14{fill:#4a8dbd;}.cls-15{fill:#265b9c;}.cls-16{fill:#6f2f9d;}.cls-17{fill:#824baa;}.cls-18{fill:#87b6c1;}.cls-19{fill:#ffb9b3;}.cls-20{fill:#d7f2f9;}.cls-21{fill:#b4e6f3;}.cls-22{fill:#001784;}.cls-23{fill:#030058;}.cls-24{fill:#1a3474;}.cls-25{fill:#ffb510;}.cls-26{fill:#ffd19d;}.cls-27{opacity:0.07;mix-blend-mode:multiply;}.cls-28{fill:#faf2ef;}.cls-29{fill:#1c4c7c;}.cls-30{fill:#c6b9cd;}.cls-31{fill:#b5a4be;}.cls-32{fill:#f9f9f9;}.cls-33{fill:#ffd600;}.cls-34{fill:#00ac59;fill-rule:evenodd;}</style></defs><g class="cls-1"><g id="圖層_2" data-name="圖層 2"><g id="design"><path class="cls-2" d="M156.52,268.3C191.71,255.71,238,220.85,251.69,153,278.07,22.73,168.14-12,121.92,14c-71.6,40.34-30.59,99.84-37.64,128.12C72.89,187.86.69,190.15,0,233.34-1.16,307.11,118.77,281.8,156.52,268.3Z"/><circle class="cls-3" cx="195.54" cy="22.5" r="22.5"/><path class="cls-4" d="M325.9,469.94s-18-12.63-18.39-24.86-.16-25.27-.16-25.27-10.66-6.87-32.67-12.94-72.27-32.23-117.13-60.47C97.91,308.86,140,309.66,153,313.47s207.6,49.59,207.6,49.59L418,405.43s15.88,7.45,6.83,10.44-30.62-2.68-36.86-6.8c-7.83,9.31-38.05,23.08-38.05,23.08l9.27,36.07s22.93,2.24,22.93,6.86-22,3.19-30.91,2A92.81,92.81,0,0,1,325.9,469.94Z"/><g class="cls-5"><path class="cls-6" d="M467.39,415.29l46.54,21.16s6,3.29,1.19,8.08c-5.27,5.22-61.15,53.63-61.15,53.63s-3.66,4.83-12.54,1.24S394.23,476,394.23,476s-6.7-3.17,1.87-8.87,61.7-51.57,61.7-51.57S462.94,413.27,467.39,415.29Z"/></g><path class="cls-7" d="M394.6,469.67l.21,1.09c.17,1.81,2,3.46,4.45,4.5,9.47,4.09,34.58,17.72,39.5,20a11.89,11.89,0,0,0,12.34-.95c7.12-4.92,61-51.49,62.18-52.39a4.16,4.16,0,0,0,1.56-3.88l-26,2.65Z"/><path class="cls-8" d="M468.57,413.35l43.31,20.13s6.08,3.72.86,7.69-61.08,50-61.08,50-3.61,4.59-11.88,1.18-44-20.68-44-20.68-4.53-3.57,3.75-9,60-49.05,60-49.05S464.43,411.43,468.57,413.35Z"/><path class="cls-9" d="M448.42,430.08l15.07,7s2.12,1.3.3,2.68-21.25,17.39-21.25,17.39-1.26,1.6-4.14.41-15.3-7.19-15.3-7.19-1.58-1.24,1.3-3.13,20.86-17.06,20.86-17.06A4.3,4.3,0,0,1,448.42,430.08Z"/><polygon class="cls-10" points="437.63 492.27 440.53 493.49 440.84 495.12 437.94 493.87 437.63 492.27"/><polygon class="cls-10" points="436.17 491.63 436.47 493.21 433.94 492.08 433.64 490.53 436.17 491.63"/><polygon class="cls-11" points="462.63 483.06 462.77 483.75 452.51 492.32 452.35 491.49 462.63 483.06"/><polygon class="cls-11" points="510.2 443.49 510.33 444.18 500.07 452.75 499.92 451.92 510.2 443.49"/><path class="cls-10" d="M480.83,429.93l-3.19,2.62c-.08.07-.06.17.05.22l3.63,1.64a.36.36,0,0,0,.35,0l3.19-2.63c.08-.07.06-.17-.05-.22l-3.63-1.64A.36.36,0,0,0,480.83,429.93Z"/><path class="cls-10" d="M476.39,433.59,472.23,437c-.09.07-.07.17,0,.22l3.63,1.64a.36.36,0,0,0,.35,0l4.16-3.43c.09-.07.07-.16,0-.21l-3.63-1.65A.36.36,0,0,0,476.39,433.59Z"/><path class="cls-10" d="M505.43,442.18l2.62-2.15c.08-.07.06-.17-.05-.22l-1.78-.81a.36.36,0,0,0-.35,0l-2.62,2.16c-.08.07-.06.16.05.21l1.77.81A.38.38,0,0,0,505.43,442.18Z"/><path class="cls-10" d="M486.16,425.53l-4.06,3.35c-.09.07-.07.17,0,.22l3.62,1.64a.36.36,0,0,0,.35,0l4.06-3.35c.09-.07.07-.17,0-.22l-3.63-1.64A.39.39,0,0,0,486.16,425.53Z"/><path class="cls-10" d="M502.21,440.45a.36.36,0,0,0,.35,0l2.28-1.87c.08-.07.06-.17,0-.22l-3-1.35a.38.38,0,0,0-.36,0l-2.27,1.88c-.08.07-.06.16.05.21Z"/><path class="cls-10" d="M444.24,460.09l-3.19,2.63c-.08.07-.06.17.05.22l3.62,1.64a.41.41,0,0,0,.36,0l3.19-2.63c.08-.07.06-.17,0-.22l-3.63-1.64A.36.36,0,0,0,444.24,460.09Z"/><path class="cls-10" d="M461.93,452.23l-2.27,1.87c-.09.07-.07.17,0,.22l3,1.35a.36.36,0,0,0,.35,0l2.27-1.87c.09-.07.06-.17-.05-.22l-3-1.35A.36.36,0,0,0,461.93,452.23Z"/><path class="cls-10" d="M501.69,445.27l2.62-2.16c.08-.07.06-.17-.05-.22l-1.78-.8a.36.36,0,0,0-.35,0l-2.62,2.16c-.09.07-.06.17.05.22l1.78.8A.36.36,0,0,0,501.69,445.27Z"/><path class="cls-10" d="M452.61,460.17l3,1.35a.36.36,0,0,0,.35,0l2.28-1.87c.08-.07.06-.16-.05-.21l-3-1.36a.38.38,0,0,0-.36,0L452.56,460C452.48,460,452.5,460.12,452.61,460.17Z"/><path class="cls-10" d="M480.11,437.49a.36.36,0,0,0-.35,0l-2.27,1.87c-.09.07-.07.17,0,.22l3,1.35a.39.39,0,0,0,.35,0l2.27-1.88c.09-.07.06-.16-.05-.21Z"/><path class="cls-10" d="M497.66,444.46c.09-.07.06-.17,0-.22l-3-1.35a.36.36,0,0,0-.35,0L492,444.8c-.09.07-.06.17.05.22l3,1.35a.39.39,0,0,0,.35,0Z"/><path class="cls-10" d="M464.76,475.71l2.62-2.16c.08-.06.06-.16-.05-.21l-1.78-.81a.36.36,0,0,0-.35,0l-2.62,2.16c-.08.07-.06.16.05.21l1.78.81A.36.36,0,0,0,464.76,475.71Z"/><path class="cls-10" d="M473.92,442.34c-.08.07-.06.17.05.22l3,1.35a.38.38,0,0,0,.36,0l2.27-1.87c.08-.07.06-.17-.05-.22l-3-1.35a.38.38,0,0,0-.36,0Z"/><path class="cls-10" d="M483.19,460.52l2.62-2.16c.08-.07.06-.17-.05-.22l-1.77-.8a.38.38,0,0,0-.36,0L481,459.53c-.08.07-.06.17.05.22l1.78.8A.36.36,0,0,0,483.19,460.52Z"/><path class="cls-10" d="M468.5,472.63l2.62-2.16c.08-.07.06-.17-.05-.22l-1.78-.8a.39.39,0,0,0-.35,0l-2.62,2.16c-.08.07-.06.17.05.22l1.78.81A.36.36,0,0,0,468.5,472.63Z"/><path class="cls-10" d="M486.89,457.46l2.62-2.16c.09-.06.07-.16,0-.21l-1.78-.81a.36.36,0,0,0-.35,0l-2.62,2.16c-.09.07-.07.16,0,.21l1.77.81A.36.36,0,0,0,486.89,457.46Z"/><path class="cls-10" d="M479.45,463.6l2.62-2.16c.09-.07.06-.17-.05-.22l-1.77-.8a.38.38,0,0,0-.36,0l-2.62,2.16c-.08.07-.06.17.05.22l1.78.81A.36.36,0,0,0,479.45,463.6Z"/><path class="cls-10" d="M472.1,469.66l2.62-2.16c.09-.07.07-.17,0-.22l-1.78-.8a.36.36,0,0,0-.35,0l-2.62,2.16c-.09.07-.07.17,0,.22l1.78.8A.36.36,0,0,0,472.1,469.66Z"/><path class="cls-10" d="M475.81,466.6l2.62-2.15c.08-.07.06-.17-.05-.22l-1.78-.81a.36.36,0,0,0-.35,0l-2.62,2.16c-.08.07-.06.17.05.22l1.78.8A.36.36,0,0,0,475.81,466.6Z"/><path class="cls-10" d="M456.09,457c-.08.07-.06.17.05.22l3,1.35a.36.36,0,0,0,.35,0l2.28-1.87c.08-.07.06-.17-.05-.21l-3-1.36a.38.38,0,0,0-.36,0Z"/><path class="cls-10" d="M430.32,478.46c-.09.07-.06.17.05.22l3,1.35a.36.36,0,0,0,.35,0l2.27-1.87c.09-.07.07-.17,0-.22l-3-1.35a.38.38,0,0,0-.36,0Z"/><path class="cls-10" d="M440.34,479.9l-3-1.35a.36.36,0,0,0-.36,0l-2.27,1.87c-.08.07-.06.17,0,.21l3,1.36a.38.38,0,0,0,.36,0l2.27-1.87C440.47,480.05,440.45,480,440.34,479.9Z"/><path class="cls-10" d="M450.39,487.56l2.33-1.92c.08-.07.06-.17-.05-.22l-1.77-.8a.38.38,0,0,0-.36,0l-2.33,1.93c-.08.07-.06.16.05.21l1.77.81A.38.38,0,0,0,450.39,487.56Z"/><path class="cls-10" d="M427.21,474.14l-2.36,1.94c-.09.07-.07.17,0,.22l3.63,1.64a.36.36,0,0,0,.35,0l2.36-2c.08-.07.06-.16-.05-.21l-3.62-1.64A.36.36,0,0,0,427.21,474.14Z"/><path class="cls-10" d="M447.3,481.66c-.09.07-.06.17.05.22l3,1.35a.39.39,0,0,0,.35,0l2.27-1.88c.09-.07.06-.16-.05-.21l-3-1.35a.36.36,0,0,0-.35,0Z"/><path class="cls-10" d="M445,482l-3-1.35a.38.38,0,0,0-.36,0l-2.27,1.87c-.08.07-.06.17.05.22l3,1.35a.38.38,0,0,0,.36,0l2.27-1.87C445.11,482.15,445.09,482.05,445,482Z"/><path class="cls-10" d="M423.71,477.12,421.44,479c-.08.07-.06.17.05.22l8.25,3.74a.38.38,0,0,0,.36,0l2.27-1.87c.08-.07.06-.16-.05-.21l-8.26-3.74A.36.36,0,0,0,423.71,477.12Z"/><path class="cls-10" d="M435.81,485.5c-.09.07-.07.17,0,.22l3,1.35a.36.36,0,0,0,.35,0l2.27-1.87c.09-.07.06-.16,0-.21l-3-1.36a.39.39,0,0,0-.35,0Z"/><path class="cls-10" d="M443.79,484.56c-.09.07-.07.17,0,.22l3,1.35a.37.37,0,0,0,.35,0l2.27-1.87c.09-.07.06-.17-.05-.22l-3-1.35a.36.36,0,0,0-.35,0Z"/><path class="cls-10" d="M446.8,490.52l2.33-1.92c.09-.07.07-.17,0-.22l-1.78-.8a.38.38,0,0,0-.36,0l-2.33,1.93c-.08.06-.06.16.05.21l1.78.81A.36.36,0,0,0,446.8,490.52Z"/><path class="cls-10" d="M440.22,487.5c-.09.07-.07.17,0,.22l3,1.35a.36.36,0,0,0,.35,0l2.27-1.87c.09-.07.06-.16-.05-.21l-3-1.36a.36.36,0,0,0-.35,0Z"/><path class="cls-10" d="M448.49,479.11l-3-1.35a.36.36,0,0,0-.35,0l-2.28,1.88c-.08.06-.06.16.05.21l3,1.35a.36.36,0,0,0,.35,0l2.27-1.88C448.62,479.26,448.6,479.16,448.49,479.11Z"/><path class="cls-10" d="M433.44,481.53l-2.28,1.87c-.08.07-.06.17,0,.22l3,1.35a.38.38,0,0,0,.36,0l2.27-1.87c.08-.07.06-.17-.05-.22l-3-1.35A.36.36,0,0,0,433.44,481.53Z"/><path class="cls-10" d="M434.3,468.29l-5.95,4.9c-.08.07-.06.17,0,.22l3.62,1.64a.41.41,0,0,0,.36,0l5.94-4.91c.09-.07.07-.16,0-.22l-3.63-1.64A.36.36,0,0,0,434.3,468.29Z"/><path class="cls-4" d="M395.22,471.07s9.66-4.18,19.68-3.8,24.57,5.33,28.14,5.56,9.85-.94,11.15-8.9-3.42-13.79-12.35-13.58-33.7,13.26-39,13.34S392.84,467.05,395.22,471.07Z"/><path class="cls-4" d="M479.52,426.09s4.06,5.05.4,8.9a26.87,26.87,0,0,1-7.12,4.63c-1.57.76-3.37,7.35-5.05,7.92-2.05.7-4-4.7-5.81-4.53a7.94,7.94,0,0,1-4.77-.74c-5-3-1.54-14.26-4.66-18.39s-1.95-2.74-1.95-2.74,8.26-8.35,11.67-8.32S479.52,426.09,479.52,426.09Z"/><path class="cls-10" d="M456.6,478.31c.09-.06.06-.16-.05-.21l-3-1.35a.36.36,0,0,0-.35,0L451,478.66c-.09.06-.06.16.05.21l3,1.35a.39.39,0,0,0,.35,0Z"/><path class="cls-10" d="M457.54,481.66l2.43-2c.09-.07.06-.16-.05-.21l-1.77-.81a.39.39,0,0,0-.35,0l-2.44,2c-.08.07-.06.16.05.21l1.78.81A.36.36,0,0,0,457.54,481.66Z"/><path class="cls-10" d="M453.9,484.67l2.43-2c.08-.07.06-.17-.05-.22l-1.78-.8a.36.36,0,0,0-.35,0l-2.43,2c-.08.07-.06.17,0,.22l1.78.8A.36.36,0,0,0,453.9,484.67Z"/><path class="cls-10" d="M436.1,473.69l-2.27,1.87c-.08.07-.06.17.05.22l3,1.35a.39.39,0,0,0,.35,0l2.28-1.88c.08-.07.06-.16-.05-.21l-3-1.35A.36.36,0,0,0,436.1,473.69Z"/><path class="cls-10" d="M446.58,476.87l3,1.35a.36.36,0,0,0,.35,0l2.27-1.88c.08-.06.06-.16-.05-.21l-3-1.35a.36.36,0,0,0-.35,0l-2.28,1.88C446.45,476.72,446.47,476.82,446.58,476.87Z"/><path class="cls-10" d="M443.85,477l-3-1.36a.39.39,0,0,0-.35,0l-2.28,1.87c-.08.07-.06.17.05.22l3,1.35a.41.41,0,0,0,.36,0l2.27-1.88C444,477.15,444,477.06,443.85,477Z"/><path class="cls-10" d="M441.94,474.77l3,1.35a.39.39,0,0,0,.35,0l2.27-1.88c.08-.07.06-.16-.05-.21l-3-1.35a.36.36,0,0,0-.35,0l-2.28,1.87C441.81,474.62,441.83,474.72,441.94,474.77Z"/><path class="cls-10" d="M439.75,470.68l-2.27,1.87c-.08.07-.06.17,0,.22l3,1.35a.39.39,0,0,0,.35,0l2.28-1.88c.08-.07.06-.16-.05-.21l-3-1.35A.38.38,0,0,0,439.75,470.68Z"/><path class="cls-10" d="M491.42,427.92l-6.76,5.57c-.09.07-.06.17,0,.22l3,1.35a.36.36,0,0,0,.35,0l6.76-5.57c.08-.07.06-.17-.05-.22l-3-1.35A.36.36,0,0,0,491.42,427.92Z"/><path class="cls-10" d="M483.37,434.55l-2.27,1.88c-.09.06-.07.16,0,.21l3,1.35a.36.36,0,0,0,.35,0l2.27-1.88c.09-.06.06-.16-.05-.21l-3-1.35A.36.36,0,0,0,483.37,434.55Z"/><path class="cls-10" d="M499.88,436.89l4-3.32c.09-.07.07-.16,0-.21l-3-1.35a.36.36,0,0,0-.35,0l-4,3.32c-.08.07-.06.17.05.22l3,1.35A.36.36,0,0,0,499.88,436.89Z"/><path class="cls-10" d="M461.13,458.64l-2.27,1.87c-.09.07-.07.17,0,.22l3,1.35a.36.36,0,0,0,.35,0l2.27-1.88c.09-.06.07-.16-.05-.21l-3-1.35A.36.36,0,0,0,461.13,458.64Z"/><path class="cls-10" d="M482.49,441l-2.27,1.87c-.09.07-.06.17,0,.22l3,1.35a.36.36,0,0,0,.35,0l2.27-1.88c.09-.07.07-.16,0-.21l-3-1.36A.36.36,0,0,0,482.49,441Z"/><path class="cls-10" d="M496.31,439.83l2.28-1.87c.08-.07.06-.17,0-.22l-3-1.35a.38.38,0,0,0-.36,0l-2.27,1.87c-.08.07-.06.16.05.21l3,1.36A.36.36,0,0,0,496.31,439.83Z"/><path class="cls-10" d="M474,463.94l2.27-1.87c.09-.07.06-.16,0-.21l-3-1.36a.36.36,0,0,0-.35,0l-2.27,1.87c-.09.07-.07.17,0,.22l3,1.35A.36.36,0,0,0,474,463.94Z"/><path class="cls-10" d="M470.42,466.92l2.27-1.87c.09-.07.06-.17-.05-.22l-3-1.35a.36.36,0,0,0-.35,0L467,465.39c-.09.07-.07.17,0,.22l3,1.35A.36.36,0,0,0,470.42,466.92Z"/><path class="cls-10" d="M466.84,469.88l2.27-1.88c.08-.07.06-.16-.05-.21l-3-1.36a.36.36,0,0,0-.35,0l-2.28,1.87c-.08.07-.06.17.05.22l3,1.35A.41.41,0,0,0,466.84,469.88Z"/><path class="cls-10" d="M494.13,447.37c.09-.07.06-.16-.05-.21l-3-1.36a.36.36,0,0,0-.35,0l-2.27,1.87c-.09.07-.07.17,0,.22l3,1.35a.36.36,0,0,0,.35,0Z"/><path class="cls-10" d="M463.33,472.77l2.27-1.87c.08-.07.06-.17-.05-.22l-3-1.35a.38.38,0,0,0-.36,0l-2.27,1.88c-.08.07-.06.16.05.21l3,1.35A.38.38,0,0,0,463.33,472.77Z"/><path class="cls-10" d="M481.12,458.1l2.28-1.88c.08-.07.06-.16,0-.21l-3-1.35a.38.38,0,0,0-.36,0l-2.27,1.87c-.08.07-.06.17.05.22l3,1.35A.36.36,0,0,0,481.12,458.1Z"/><path class="cls-10" d="M477.59,461l2.28-1.88c.08-.06.06-.16-.05-.21l-3-1.35a.36.36,0,0,0-.35,0l-2.27,1.88c-.09.06-.06.16.05.21l3,1.35A.36.36,0,0,0,477.59,461Z"/><path class="cls-10" d="M451.27,461,449,462.89c-.09.07-.06.17.05.22l3,1.35a.36.36,0,0,0,.35,0l2.27-1.87c.09-.07.07-.17,0-.22l-3-1.35A.36.36,0,0,0,451.27,461Z"/><path class="cls-10" d="M449.57,455.7l-4.06,3.35c-.09.07-.07.17,0,.22l3.63,1.64a.36.36,0,0,0,.35,0l4.06-3.34c.09-.07.06-.17,0-.22l-3.62-1.64A.36.36,0,0,0,449.57,455.7Z"/><path class="cls-10" d="M471.08,438l-20.27,16.72c-.09.07-.07.17,0,.22l3.63,1.64a.36.36,0,0,0,.35,0l20.28-16.71c.08-.07.06-.17-.05-.22l-3.62-1.64A.41.41,0,0,0,471.08,438Z"/><path class="cls-10" d="M508.4,435.61c.08-.07.06-.17,0-.22l-3-1.35a.38.38,0,0,0-.36,0L502.74,436c-.08.07-.06.17.05.22l3,1.35a.38.38,0,0,0,.36,0Z"/><path class="cls-10" d="M509.13,439.13l2.62-2.16c.09-.07.06-.17-.05-.22l-1.77-.8a.41.41,0,0,0-.36,0L507,438.14c-.08.07-.06.17.05.22l1.78.81A.36.36,0,0,0,509.13,439.13Z"/><path class="cls-10" d="M461.06,478.77l2.62-2.16c.08-.07.06-.17-.05-.22l-1.78-.8a.36.36,0,0,0-.35,0l-2.62,2.16c-.09.07-.06.17.05.22l1.77.8A.38.38,0,0,0,461.06,478.77Z"/><path class="cls-10" d="M439.8,463.76l-4.16,3.43c-.09.07-.07.16,0,.22l3.63,1.64a.36.36,0,0,0,.35,0l4.16-3.43c.09-.07.06-.17-.05-.22l-3.62-1.64A.36.36,0,0,0,439.8,463.76Z"/><path class="cls-10" d="M494.34,451.33l2.62-2.16c.08-.07.06-.17,0-.22l-1.78-.8a.36.36,0,0,0-.35,0l-2.62,2.16c-.08.07-.06.17,0,.22l1.78.8A.36.36,0,0,0,494.34,451.33Z"/><path class="cls-10" d="M490.57,450.31c.08-.07.06-.17-.05-.22l-3-1.35a.36.36,0,0,0-.35,0l-2.28,1.87c-.08.07-.06.17,0,.22l3,1.35a.38.38,0,0,0,.36,0Z"/><path class="cls-10" d="M490.64,454.38l2.61-2.16c.09-.07.07-.17,0-.22l-1.78-.8a.36.36,0,0,0-.35,0l-2.62,2.16c-.09.07-.06.17.05.22l1.77.8A.38.38,0,0,0,490.64,454.38Z"/><path class="cls-10" d="M501.23,441.52c.08-.07.06-.16-.05-.21l-3-1.35a.36.36,0,0,0-.35,0l-2.27,1.88c-.09.06-.06.16.05.21l3,1.35a.36.36,0,0,0,.35,0Z"/><path class="cls-10" d="M487,453.29c.08-.07.06-.17,0-.22l-3-1.35a.36.36,0,0,0-.35,0l-2.28,1.88c-.08.06-.06.16.05.21l3,1.35a.38.38,0,0,0,.36,0Z"/><path class="cls-10" d="M498,448.32l2.62-2.16c.09-.07.07-.16,0-.21l-1.78-.81a.36.36,0,0,0-.35,0l-2.62,2.15c-.09.08-.07.17,0,.22l1.78.81A.36.36,0,0,0,498,448.32Z"/><path class="cls-10" d="M447.66,464l-6.79,5.6c-.08.07-.06.17.05.22l3,1.35a.36.36,0,0,0,.35,0l6.79-5.59c.09-.07.07-.17,0-.22L448,464A.36.36,0,0,0,447.66,464Z"/><path class="cls-10" d="M484.5,445.25l-2.27,1.87c-.09.07-.07.17,0,.22l3,1.35a.39.39,0,0,0,.35,0l2.27-1.88c.09-.07.07-.16,0-.21l-3-1.36A.39.39,0,0,0,484.5,445.25Z"/><path class="cls-10" d="M488.79,445.78a.36.36,0,0,0,.35,0l2.27-1.87c.09-.07.07-.16,0-.21l-3-1.36a.36.36,0,0,0-.35,0l-2.27,1.87a.12.12,0,0,0,0,.22Z"/><path class="cls-10" d="M460.61,469.27l2.27-1.87c.08-.07.06-.17-.05-.22l-3-1.35a.36.36,0,0,0-.35,0l-2.28,1.87c-.08.07-.06.17,0,.22l3,1.35A.38.38,0,0,0,460.61,469.27Z"/><path class="cls-10" d="M465.49,449.29l-2.27,1.87c-.09.07-.06.17,0,.22l3,1.35a.36.36,0,0,0,.35,0l2.27-1.88c.09-.07.07-.16,0-.21l-3-1.35A.36.36,0,0,0,465.49,449.29Z"/><path class="cls-10" d="M457.57,461.58l-2.28,1.87c-.08.07-.06.17,0,.22l3,1.35a.38.38,0,0,0,.36,0l2.27-1.87c.08-.07.06-.16-.05-.21l-3-1.36A.36.36,0,0,0,457.57,461.58Z"/><path class="cls-10" d="M454,464.56l-2.28,1.87c-.08.07-.06.17.05.22l3,1.35a.38.38,0,0,0,.36,0l2.27-1.87c.08-.07.06-.17,0-.22l-3-1.35A.36.36,0,0,0,454,464.56Z"/><path class="cls-10" d="M457,472.21l2.27-1.87c.09-.07.07-.17,0-.22l-3-1.35a.36.36,0,0,0-.35,0l-2.27,1.88c-.08.07-.06.16,0,.21l3,1.35A.36.36,0,0,0,457,472.21Z"/><path class="cls-10" d="M492.7,442.81l2.27-1.88c.09-.06.07-.16,0-.21l-3-1.35a.36.36,0,0,0-.35,0l-2.27,1.88c-.08.06-.06.16.05.21l3,1.35A.36.36,0,0,0,492.7,442.81Z"/><path class="cls-10" d="M486.05,438.09,483.78,440c-.08.07-.06.16.05.21l3,1.35a.36.36,0,0,0,.35,0l2.28-1.87c.08-.07.06-.17-.05-.22l-3-1.35A.38.38,0,0,0,486.05,438.09Z"/><path class="cls-10" d="M472.66,443.38l-2.27,1.87c-.08.07-.06.17.05.22l3,1.35a.38.38,0,0,0,.36,0l2.27-1.87c.08-.07.06-.17-.05-.22l-3-1.35A.38.38,0,0,0,472.66,443.38Z"/><path class="cls-10" d="M495.94,429.94l-5,4.11c-.08.07-.06.17.05.22l3,1.35a.36.36,0,0,0,.35,0l5-4.1c.09-.07.07-.17-.05-.22l-3-1.35A.36.36,0,0,0,495.94,429.94Z"/><path class="cls-10" d="M469.1,446.31l-2.27,1.88c-.08.07-.06.16.05.21l3,1.36a.36.36,0,0,0,.35,0l2.28-1.87c.08-.07.06-.17-.05-.22l-3-1.35A.39.39,0,0,0,469.1,446.31Z"/><path class="cls-10" d="M489.66,435.12,487.39,437c-.08.07-.06.17.05.21l3,1.36a.38.38,0,0,0,.36,0l2.27-1.87c.08-.07.06-.17-.05-.22l-3-1.35A.38.38,0,0,0,489.66,435.12Z"/><path class="cls-10" d="M463.11,462.89l-2.28,1.87c-.08.07-.06.17.05.22l3,1.35a.38.38,0,0,0,.36,0l2.27-1.87c.08-.07.06-.16-.05-.21l-3-1.36A.36.36,0,0,0,463.11,462.89Z"/><path class="cls-10" d="M475.4,446.88l-2.27,1.87c-.09.07-.07.17,0,.22l3,1.35a.36.36,0,0,0,.35,0l2.27-1.87c.08-.07.07-.17,0-.22l-3-1.35A.36.36,0,0,0,475.4,446.88Z"/><path class="cls-10" d="M468.22,452.79,466,454.66c-.08.07-.06.17.05.22l3,1.35a.38.38,0,0,0,.36,0l2.27-1.88c.08-.07.06-.16-.05-.21l-3-1.35A.38.38,0,0,0,468.22,452.79Z"/><path class="cls-10" d="M471.79,449.85l-2.28,1.88c-.08.07-.06.16.05.21l3,1.35a.34.34,0,0,0,.35,0l2.27-1.87c.08-.07.06-.17-.05-.22l-3-1.35A.36.36,0,0,0,471.79,449.85Z"/><path class="cls-10" d="M464.66,455.73l-2.27,1.87c-.09.07-.06.17.05.22l3,1.35a.36.36,0,0,0,.35,0l2.27-1.88c.09-.07.07-.16,0-.21l-3-1.35A.36.36,0,0,0,464.66,455.73Z"/><path class="cls-10" d="M445.42,471.59c-.08.07-.06.17.05.22l3,1.35a.38.38,0,0,0,.36,0l5-4.09c.08-.07.06-.17,0-.22l-3-1.35a.38.38,0,0,0-.36,0Z"/><path class="cls-10" d="M450.12,473.59c-.08.07-.06.17.05.22l3,1.35a.34.34,0,0,0,.34,0l2.28-1.87c.08-.07.06-.16,0-.21l-3-1.36a.36.36,0,0,0-.35,0Z"/><path class="cls-10" d="M478.44,454.57l2.27-1.87c.08-.07.06-.17,0-.22l-3-1.35a.39.39,0,0,0-.35,0L475.06,453c-.09.07-.07.16,0,.21l3,1.36A.36.36,0,0,0,478.44,454.57Z"/><path class="cls-10" d="M474.87,457.51l2.28-1.88c.08-.07.06-.16,0-.21l-3-1.35a.38.38,0,0,0-.36,0L471.49,456c-.08.07-.06.17.05.22l3,1.35A.36.36,0,0,0,474.87,457.51Z"/><path class="cls-10" d="M479,443.94l-2.27,1.87c-.09.07-.06.17.05.22l3,1.35a.36.36,0,0,0,.35,0l2.27-1.88c.09-.07.07-.16,0-.21l-3-1.35A.36.36,0,0,0,479,443.94Z"/><path class="cls-10" d="M482.05,451.59l2.27-1.87c.08-.07.06-.17-.05-.22l-3-1.35a.36.36,0,0,0-.35,0l-2.27,1.87c-.09.07-.07.17,0,.22l3,1.35A.36.36,0,0,0,482.05,451.59Z"/><path class="cls-10" d="M471.31,460.45l2.27-1.88c.08-.07.07-.16-.05-.21l-3-1.35a.36.36,0,0,0-.35,0l-2.27,1.87c-.09.07-.07.17,0,.22l3,1.35A.36.36,0,0,0,471.31,460.45Z"/><path class="cls-10" d="M457.89,477.26l4.29-3.54c.08-.07.06-.17-.05-.22l-3-1.35a.38.38,0,0,0-.36,0l-4.29,3.54c-.08.07-.06.17.05.22l3,1.35A.41.41,0,0,0,457.89,477.26Z"/><path class="cls-10" d="M466.67,460l-2.27,1.88c-.09.06-.07.16,0,.21l3,1.35a.36.36,0,0,0,.35,0l2.27-1.88c.08-.06.06-.16-.05-.21l-3-1.35A.36.36,0,0,0,466.67,460Z"/><path class="cls-7" d="M533.43,404.65l-3-1.75s-58,51.84-58.5,52.13S450,492.19,450,492.19l3.48,3.29,21.16-38.78Z"/><polygon class="cls-8" points="533.43 404.65 515.85 440.81 453.49 495.48 474.75 456.14 533.43 404.65"/><path class="cls-7" d="M491.81,448.77c-1.71,4.45-.88,7.63,1.86,7.1s6.35-4.54,8.06-9,.88-7.62-1.86-7.1S493.52,444.33,491.81,448.77Z"/><ellipse class="cls-12" cx="242.3" cy="171.45" rx="8.68" ry="19.44" transform="translate(-25.24 300.01) rotate(-60.95)"/><ellipse class="cls-12" cx="192.81" cy="158.07" rx="19.44" ry="8.68" transform="matrix(0.96, -0.28, 0.28, 0.96, -36.79, 60.87)"/><path class="cls-13" d="M244.72,86.86S229.2,89.75,234,108.3c4.78,18.39,7.82,20.08,8.93,30.36s-17.05,33.74-17.05,33.74,7.59,10.22,19.68,13.43c5.84-8.35,14.3-23.53,18-27.09s13.08-13.91,13.08-13.91l-18-28.53Z"/><path class="cls-14" d="M239.07,124.36c2.45.66,5.25.81,7.27,1.63,4.2,1.71,5.35,6.24,7.65,9.74,2.85,4.36,5.53,10,9.35,13.56a29.1,29.1,0,0,0,5.66,3.93c3.78-4,7.71-8.39,7.71-8.39l-18-28.53-14-29.44S229.2,89.75,234,108.3A154,154,0,0,0,239.07,124.36Z"/><path class="cls-15" d="M244.72,86.86C240.64,88,235.37,95,237,103.12s15.07,19,18.58,24.6c4.16,6.68,6.2,21.38,17,19.67,7.16-1.14,6.8-12.27,2.09-17.41-4-4.4-7.72-6.55-9.79-10.66-1.44-2.86-3-9.74-5.62-16.27C255.65,93.94,250.3,85.27,244.72,86.86Z"/><path class="cls-13" d="M200.68,119.8c0,7.33-1.82,11-1.46,17.29s3.36,27.63,3.36,27.63-13,10.4-23.34,4.48C178.52,157.05,176.47,141,171,136c-7.87-7.26-35.6-16.35-28-37.11,8.3,1.86,22.31,10.38,33.72,13.78C190.27,116.68,200.68,115.81,200.68,119.8Z"/><path class="cls-14" d="M157.31,126.91c2.49-.45,4.67-2.09,6.94-3.13,4.22-1.93,7.92-.9,12,1,2.77,1.33,5.32,3.29,8.24,4.28a23.57,23.57,0,0,0,8.9.71,29.81,29.81,0,0,0,6.49-1.2,51.88,51.88,0,0,0,.83-8.82c0-4-10.41-3.12-24-7.18-11.41-3.4-25.42-11.92-33.72-13.78C138.13,112.11,147.71,120.61,157.31,126.91Z"/><polygon class="cls-16" points="211.6 153.4 211.6 153.4 211.6 153.4 211.6 153.4"/><path class="cls-16" d="M175.84,289a.71.71,0,0,1,0-.14S175.83,288.92,175.84,289Z"/><path class="cls-15" d="M195.26,166.4c8.37-2.46,14.72-7,16.09-11.09-5.06,40.13,18.73,91.19,7,124,26.81,13.27,53.38,2.16,80.54,12.78s32.9,37.44,32.9,37.44l-32.9,16.71s-99.9-41.73-111.47-45.15c-9.94-2.95-11.34-10.12-11.53-12.09,0,.09,0-1.24-.21-9.59-.34-12.85-1.47-115.82-1.47-115.82C175.52,168.16,185,169.43,195.26,166.4Z"/><path class="cls-16" d="M175.82,288.83c0-.24,0-.37,0-.37S175.81,288.68,175.82,288.83Z"/><path class="cls-15" d="M199.94,122.56c-2.32,4.31-7.67,6.23-13.75,4.52-4.63-1.31-6.12-3.79-8.59-4.76-7.42-2.93-16.71-1.16-24.63-5s-10.63-8.12-10.71-14.32,3.53-7.48,5.44-7.75c2.76-.4,10.75,0,19.79,4.87,7.25,3.89,8.63,6.6,12.35,8.4s8.95,1.36,13.51,2.85S202.55,117.7,199.94,122.56Z"/><polygon class="cls-17" points="225.91 161.21 225.91 161.2 225.91 161.2 225.91 161.21"/><path class="cls-14" d="M138.15,281.6C144.9,271.51,217.86,172.16,225.3,162c-2.3,4.19,3.42,11.8,12.79,17,8.15,4.53,16.38,5.75,19.93,3.24-29.44,32.44-37.5,64-49.88,84.91-6.3,10.64-13.34,18.71-20.67,24.24C206,308,251,302.94,271.49,308.3c17.14,4.48,23.82,10.87,32.45,25.82s-25.1,61.15-25.1,61.15a283,283,0,0,1-50.6-18.7c-25.34-12.48-65.39-40.29-84.34-56S131,292.23,138.15,281.6Z"/><ellipse class="cls-18" cx="399.4" cy="455.02" rx="7.04" ry="12.65" transform="translate(-44.25 43.03) rotate(-5.84)"/><path class="cls-13" d="M445.4,444.65l-2.91-4.33a3.34,3.34,0,0,0-2.43-1.47l-4.93-.55a3.41,3.41,0,0,0-2.82,1l-7.6,8Z"/><path class="cls-19" d="M363.74,469.54s55.16-6.54,55-6.54h18.46s7.68,2.06,8.4,4.63-2,2.91-1.26,4.09,8.69,0,7.67-16.15c-2.4-3.9-3.18-4.32-3.18-4.32l5.83,2.4s3.59,7.49,7.3,6.83a79.42,79.42,0,0,0-5.57-10.85s-14.21-7.79-16.37-7.79-23.92,8.33-23.92,8.33-48.27-.12-63.13-1.92C355.76,458,363.74,469.54,363.74,469.54Z"/><ellipse class="cls-18" cx="454.64" cy="411.38" rx="12.65" ry="7.04" transform="translate(-129.59 597.43) rotate(-59.81)"/><path class="cls-19" d="M404.77,403.11l13.11-18.41,47.89,20.74s16.48,14.9,10.65,23.18c-.5.47-5.72,4.9-5.72,4.9s-2.11,14-3.39,13.51c-1.43-.54-.14-18.35-6.11-18.9-3.48-.31,3.78,8.19-2.61,10.44-2.42-7.66-2.59-8-2.6-8s.22-15.72.22-15.72Z"/><path class="cls-16" d="M448.16,422.24a.3.3,0,0,1-.11-.06l-.11-.1Z"/><path class="cls-20" d="M391.71,350.47c13.06,11.87,29,34.78,29,34.78L459.6,400c-3.36-.56-8,2.63-11.05,7.89S445,418.42,447,421.14c-2.47-2.75-5.18-7.12-6.95-8.14s-16.73-1.62-39.76-7.74c-20.48-14.87-33.84-32.49-35.47-44.12C362.89,347.28,382.42,342,391.71,350.47Z"/><path class="cls-21" d="M394.94,361.62c-7.3-22.79-49.25-20.93-54.46-24.11s-10.68-17.14-10.68-17.14-.48-2.28-3.59-1.2-38.5,21.46-48.45,43.77c-4.32,9.67-4.07,32.73.6,34.89,1.32.61,2.92-.09,7.57,1.12,15.33,4,34.4,19.26,34.4,19.26s29.92,8.24,56.72-12.65S396.3,365.85,394.94,361.62Z"/><path class="cls-20" d="M317.61,399.37c5.66-17.83,26.94-15.69,33.44-.38s1.62,46.24,1.62,46.24L381,449.36l15.15-6.2c-2.73,1.85-4.35,6.87-3.76,12.58.69,6.72,4.18,11.91,7.9,11.88-5.75,1.26-45.76,9-72.21-.83C315.54,451.41,312,417.2,317.61,399.37Z"/><path class="cls-16" d="M397.89,442.46h0Z"/><path class="cls-13" d="M386.73,383.4l-5.59,7.23s-3.43,3.7-9.64-.19-3.31-8.54-3.31-8.54l6-10.29,9.78-7.87Z"/><path class="cls-19" d="M410.05,365.61a57.29,57.29,0,0,1-.36,6.32c-.32,1.68-2.08,2.88-2.56,4.89s-.56,4.1-1.12,5.14-5.28,8.27-10.83,7.68-11.91-7.2-12.83-14.43,3-14.87,3-14.87Z"/><path class="cls-22" d="M403.79,376.87c-.19.91.11,1.74.67,1.85s1.16-.53,1.34-1.44-.12-1.74-.67-1.86S404,376,403.79,376.87Z"/><path class="cls-22" d="M397.78,378c-.19.92.12,1.74.67,1.86s1.16-.54,1.34-1.45-.12-1.74-.67-1.85S398,377.08,397.78,378Z"/><path class="cls-22" d="M407.55,374.1a.16.16,0,0,0,.1,0,.23.23,0,0,0,.12-.31,4.12,4.12,0,0,0-3.28-2.24.22.22,0,0,0-.26.21.23.23,0,0,0,.21.26,3.66,3.66,0,0,1,2.89,2A.24.24,0,0,0,407.55,374.1Z"/><path class="cls-22" d="M397.1,374.53a.21.21,0,0,0,.18-.09,8.35,8.35,0,0,1,3.15-2.05.24.24,0,0,0-.15-.46,8.74,8.74,0,0,0-3.36,2.21.23.23,0,0,0,0,.33A.25.25,0,0,0,397.1,374.53Z"/><path class="cls-22" d="M401.85,383.93a1.5,1.5,0,0,0,1.26-.45c.43-.56.13-1.42-.18-2.34l-.18-.52a.24.24,0,1,0-.45.15c.05.17.11.35.17.53.27.75.54,1.53.26,1.88s-.6.31-1.26.25a.24.24,0,0,0-.26.22.25.25,0,0,0,.22.26Z"/><path class="cls-22" d="M397,387.08a2.58,2.58,0,0,0,2.42-1.4.23.23,0,0,0-.13-.31.24.24,0,0,0-.31.13,2.24,2.24,0,0,1-2.38,1.07,2.08,2.08,0,0,1-1.75-2.12.24.24,0,0,0-.26-.22.23.23,0,0,0-.22.25,2.56,2.56,0,0,0,2.15,2.56A2.59,2.59,0,0,0,397,387.08Z"/><path class="cls-22" d="M393.93,384.83a1.68,1.68,0,0,0,1-.3,1.77,1.77,0,0,0,.63-1.27.23.23,0,0,0-.23-.24.25.25,0,0,0-.25.23,1.28,1.28,0,0,1-.44.89,1.68,1.68,0,0,1-1.46.09.24.24,0,0,0-.29.17.24.24,0,0,0,.16.3A3.67,3.67,0,0,0,393.93,384.83Z"/><path class="cls-23" d="M389.82,366.75s3.11,3.82,13.27,2.14S420.68,361.1,417,352.1s-10.13-4.75-10.13-4.75-7.84-18.78-30.36-9.16c-16.47,7-.28,26.5-4.59,36.38a5.78,5.78,0,0,0,.79,1.74,4.21,4.21,0,0,0,7.23-.65l2.41-5s3.27,2.68,4.11,2.36S387.38,368.35,389.82,366.75Z"/><path class="cls-19" d="M379.69,370.61c-.53,2.17.44,4.72,1.88,5.16s2.67-1.44,3.32-3.59,0-4.23-1.42-4.67S380.37,367.87,379.69,370.61Z"/><path class="cls-24" d="M391.13,339.27s6-6.55,4-18-10.79-11.71-15.59-9.76-11.31,8.8-7,16.35,8.15,7.32,8.93,11.39c1.55,3.32,5.5,3.2,5.5,3.2Z"/><path class="cls-25" d="M386.32,341a6.47,6.47,0,0,0,4.81-1.72,2.09,2.09,0,0,1,.53,1.32c0,1.68-2.39,3-5.34,3s-5.33-1.36-5.33-3a2,2,0,0,1,.53-1.32A6.46,6.46,0,0,0,386.32,341Z"/><path class="cls-26" d="M456,430.53Z"/><path class="cls-27" d="M421.47,297.61a3.54,3.54,0,0,1-3.83,0c-9.81-6.17-54.15-32.52-54.15-32.52a1.5,1.5,0,0,1,0-2.59l72.55-42.23a1.5,1.5,0,0,1,1.52,0c4.76,2.87,40.42,24.16,52.24,31.31a2.85,2.85,0,0,1,.23,4.72C487.11,258.54,427.62,293.57,421.47,297.61Z"/><path class="cls-7" d="M416.87,293.28,368.65,264.2a1.26,1.26,0,0,1,.05-2.2l18.93-10.21L424.08,283l-4,9.49-2.44,1.16Z"/><polygon class="cls-28" points="369.59 248.74 405.05 250.7 423.36 285.15 419.37 292.57 369.59 262.83 369.59 248.74"/><path class="cls-7" d="M418.47,291.42v-8.48a5.93,5.93,0,0,0-1.2-3.49q3.35-2.25,6.77-4.36c7.93-4.91,26.67-16.49,35-20.73,4-2.05,8.15-3.84,11.93-6.31a38.66,38.66,0,0,0,4.45-3.42,16.56,16.56,0,0,1,4.81-3.28,4.54,4.54,0,0,1,1,2.59v11.33a3,3,0,0,1-1.48,2.6c-8.06,4.81-57.22,34.15-58.8,35.26-1.77,1.25-3,.73-4.37,0C418.84,294.23,418.47,291.42,418.47,291.42Z"/><path class="cls-8" d="M475,243.37a42.29,42.29,0,0,1-5.62,4.25c-3.93,2.42-8.17,4.21-12.25,6.35s-19,11.12-23.07,13.58c-5.88,3.61-11.82,7.13-17.54,11a9.19,9.19,0,0,0-1.81-1.46l-45.74-27.19a1.27,1.27,0,0,1,0-2.19l61.55-35.82a1.25,1.25,0,0,1,1.29,0c4.82,2.91,42.12,25.46,45.67,27.28a9.1,9.1,0,0,1,1.86,1.25A17.48,17.48,0,0,0,475,243.37Z"/><path class="cls-8" d="M478.75,240a5.93,5.93,0,0,1,2.35,3.1l-63.17,37.53a8.69,8.69,0,0,0-3-3.36Z"/><path class="cls-29" d="M413.18,274.31,372.78,250a.61.61,0,0,1,0-1L394,237.47l26.81,25.93-4.22,10.06L414,274.69Z"/><polygon class="cls-28" points="373.53 234.16 373.53 249.22 415.53 274.1 420.05 265.7 412.45 236.32 373.53 234.16"/><path class="cls-15" d="M414.87,272.34v-9a6.25,6.25,0,0,0-1.27-3.69q3.54-2.39,7.17-4.62c8.4-5.2,16.79-10.6,25.6-15.09,4.25-2.17,8.63-4.06,12.64-6.68a40.22,40.22,0,0,0,4.7-3.62,17.63,17.63,0,0,1,5.1-3.48,4.75,4.75,0,0,1,1.1,2.74v12a3.18,3.18,0,0,1-1.56,2.75c-8.54,5.09-49.16,29.29-50.83,30.48-1.87,1.32-3.2.77-4.63,0C415.26,275.31,414.87,272.34,414.87,272.34Z"/><path class="cls-30" d="M463.26,228.32a44.89,44.89,0,0,1-5.95,4.5c-4.16,2.56-8.66,4.46-13,6.73s-8.72,4.9-13,7.51c-6.23,3.82-12.51,7.55-18.58,11.62a10,10,0,0,0-1.92-1.55l-38.62-22.86,56.42-32.62s33.17,20.11,37.24,22.2a9.36,9.36,0,0,1,2,1.33A18.67,18.67,0,0,0,463.26,228.32Z"/><path class="cls-31" d="M467.27,224.7a6.36,6.36,0,0,1,2.48,3.29L414.3,260.86a9.36,9.36,0,0,0-3.18-3.56Z"/><path class="cls-21" d="M418,267.37,370.57,239a1.1,1.1,0,0,1,0-1.9l56.74-32.5a1.11,1.11,0,0,1,1.09,0l49.18,28.81Z"/><polygon class="cls-32" points="419.32 265.85 372.05 238.57 372.05 213.5 421.13 242.21 420.56 259.99 419.32 265.85"/><path class="cls-20" d="M418.11,242.13l-47.54-27.66a1.09,1.09,0,0,1,0-1.89l56.74-32.5a1.11,1.11,0,0,1,1.09,0l49.28,28.14Z"/><path class="cls-21" d="M477.69,208.21s2.2,1.81,2.2,12.34-2.2,12.77-2.2,12.77l-59.58,34s2.2-3.54,2.2-13.9-2.2-11.28-2.2-11.28Z"/><path class="cls-27" d="M405.55,251.11l-15.13-6.56c-13.83,8.26-3.18,28.88-18.6,37.5a.36.36,0,0,0,.19.68l11.55-.38.65,7.81a.37.37,0,0,0,.52.3C408.9,278.79,393,259.14,405.55,251.11Z"/><path class="cls-33" d="M405.55,251.11l-15.13-8.33c-14.07,8.4-2.8,29.6-19.43,37.93a.15.15,0,0,0,.07.28l12.5-.41.68,8.1a.15.15,0,0,0,.22.12C403.53,278.19,390.73,259.24,405.55,251.11Z"/><path class="cls-34" d="M121.89,455.31a39.14,39.14,0,1,1,52.06.13A13.62,13.62,0,0,0,159,450.19a14.75,14.75,0,0,0-9.92-6.59,45.81,45.81,0,0,1-1.36-9.5,9.87,9.87,0,0,1,4-3.32c.92,3.88,5,7,12.11,5.09,5.22-1.39,7.29-6.8,14.29-10.1-5.63-1-8.83-3.29-11.58-4.11-7.56-2.25-12.25.19-14.11,3.7,8-1.91,8.9-.85,15.81.82-4.81-.18-10.9-.42-16.64,1.66v.07a15,15,0,0,0-4.11,2.58v-.1a36.18,36.18,0,0,1,1.27-9.48c4.51,1,10.53-1.28,11.47-10.71.28-2.83-.63-6.62.57-12.14-5.65,5.17-12.37,3.71-15.6,8-3.71,4.9-2.91,9.57-.62,12.32,3.51-8.31,4.79-8.22,10.43-12.9-3,3.77-6.92,8.56-8.67,14.47-1.08,3.15-2,11.38-1.83,15a8.9,8.9,0,0,0-2.26-2.05c-6.28-3.82-9.9-4.38-17.76-13.78,8.07,6.3,13.29,7,17.8,12,1.52-4.83-.92-11.29-10.77-14.27-3.15-1-7.66-.77-13.65-3.38,4.6,7.57,3.17,14,7.28,18.66,5.76,6.46,11.74,5.86,15,2.53,3.45,1.59,3.86,5,4.18,8.92a14.74,14.74,0,0,0-10,6.31,8.84,8.84,0,0,0-12.5,5.44Z"/><path class="cls-15" d="M82,505.43c1.36,0,1.64-.72,1.8-5.12a14.21,14.21,0,0,0,4.31,1.84c-.52,5.88-1.76,7.52-5.71,7.52H77c-4.8,0-6-1.4-6-5.68v-7.4H70.4c-2.08,5.88-6.44,10.72-16.52,13.52a14.92,14.92,0,0,0-2.68-4c8.2-2.08,12-5.44,14-9.52h-10v-8.91a13.65,13.65,0,0,1-1.28,1,14.53,14.53,0,0,0-3.36-3.59,33.79,33.79,0,0,0,11.24-12.2l5.12,1c-.32.6-.68,1.24-1.08,1.84h8l.8-.2,3.32,2.12a40.28,40.28,0,0,1-3.76,5.4H84.91v13.59H76v7.32c0,1.36.24,1.52,1.76,1.52ZM66.52,492.35a42.07,42.07,0,0,0,.68-5.15H59.92v5.15Zm-3.4-12.79A39.09,39.09,0,0,1,60.2,483h8.32A31.71,31.71,0,0,0,71,479.56Zm9.12,7.64a51.51,51.51,0,0,1-.72,5.15h8.36V487.2Z"/><path class="cls-15" d="M126.8,504.31c3.28,1.12,6.51,2.32,8.63,3.28L132,510.43a90.29,90.29,0,0,0-11.36-4.6l1.52-1.52h-9.76l2.92,1.36a50.87,50.87,0,0,1-12.52,4.8A25.4,25.4,0,0,0,99.32,507a49.65,49.65,0,0,0,10.44-2.72h-5.24V492.43c-.92.2-1.92.4-3,.56a16.48,16.48,0,0,0-2.28-3.71c4.76-.61,7.6-1.57,9.32-2.8h-6.44a71.24,71.24,0,0,0,1.16-7.28H111v-1.6h-9.08v-2.8H111V473h4.32v1.76h4.44V473h4.52v1.76h8.48V482h-8.48v1.76h11s0,.76,0,1.24c-.2,2.48-.44,3.87-1.12,4.59a3.06,3.06,0,0,1-2.27,1c-.16,0-.4,0-.64,0v13.76Zm-20-20.59h3.8a8.51,8.51,0,0,0,.28-1.76h-3.8Zm2.32,7.95v1.6h17.2v-1.6Zm0,4.12v1.64h17.2v-1.64Zm0,5.84h17.2V500h-17.2Zm5.16-15.15a8.64,8.64,0,0,1-1.88,2.52h7.28v-2.52Zm5.4-4.52h-4.44c0,.6-.08,1.2-.16,1.76h4.6Zm-4.44-2.76h4.44v-1.6h-4.44Zm9-1.6v1.6h4.16v-1.6Zm0,8.88V489h3.56a5.7,5.7,0,0,0-.56-1.32,13.09,13.09,0,0,0,2.24.11,1,1,0,0,0,.84-.23,2.39,2.39,0,0,0,.28-1.08Z"/><path class="cls-15" d="M160.52,483.4H147.16v-3.76h6c-.64-1.52-1.68-3.52-2.52-5l3.68-1.72a39.24,39.24,0,0,1,2.88,5.32l-2.64,1.44h6Zm-11.64,5.39V485.2h11v3.59Zm11,5.36h-11v-3.6h11Zm.16,14h-7.2v1.68h-4v-13.8h11.16Zm-7.2-8.32v4.48H156v-4.48Zm16,1.36,4.4-1,.4,4.12c-4.2,1.12-8.68,2.2-12.2,3.08l-1.16-4.64c1.24-.2,2.64-.48,4.2-.72v-8.64h-3.28v-4.19h11v4.19h-3.4Zm8.44-16.51c.32,11.51,1.52,21,3,21,.44,0,.72-2,.8-6a13.28,13.28,0,0,0,3.39,2.64c-.56,6.24-1.76,8-4.87,8-5,0-6.44-12-6.8-25.63H161.48v-4.4h11.24c0-2.4,0-4.84,0-7.24h4.64c-.08,2.4-.08,4.88-.08,7.24h3.28a28.85,28.85,0,0,0-3.08-4.76l3.2-1.88A23.59,23.59,0,0,1,184,478.4L181,480.32h3.27v4.4Z"/><path class="cls-15" d="M229.52,504.75c0,2.56-.56,3.84-2.16,4.56s-4.08.88-7.68.84a18,18,0,0,0-1.52-4.56c2.24.12,4.88.08,5.6.08s1-.24,1-1v-6h-8.44v11.16h-4.8V498.71H203.4c-.72,4.36-2.16,8.76-5,11.88a17.57,17.57,0,0,0-3.76-3.08c4.36-4.8,4.72-11.92,4.72-17.51V475.72h30.2Zm-18-10.52v-4.91H204V490c0,1.27,0,2.71-.12,4.19Zm-7.52-14v4.64h7.52v-4.64Zm20.76,0h-8.44v4.64h8.44Zm0,14v-4.91h-8.44v4.91Z"/></g></g></g></svg>