<svg xmlns="http://www.w3.org/2000/svg" viewBox="0 0 1061.2 558.98"><defs><style>.cls-1{fill:#fff;}.cls-2{fill:#f2f2f2;}.cls-3,.cls-4,.cls-5,.cls-9{font-size:35.65px;}.cls-13,.cls-3{fill:#e79258;}.cls-10,.cls-11,.cls-12,.cls-13,.cls-3,.cls-4,.cls-5,.cls-7,.cls-8,.cls-9{font-family:NotoSansTC-Bold-83pv-RKSJ-H, Noto Sans TC;}.cls-3{letter-spacing:0.15em;}.cls-12,.cls-4{fill:#eb3d89;}.cls-4,.cls-5,.cls-9{letter-spacing:0.15em;}.cls-11,.cls-5{fill:#29abe2;}.cls-6{font-size:27.6px;font-family:NotoSansTC-Medium-83pv-RKSJ-H, Noto Sans TC;letter-spacing:0.2em;}.cls-7,.cls-8{font-size:27px;}.cls-7{letter-spacing:0.07em;}.cls-8{letter-spacing:0.08em;}.cls-10,.cls-9{fill:#950c88;}.cls-10,.cls-11,.cls-12,.cls-13{font-size:30px;letter-spacing:0em;}</style></defs><g id="圖層_2" data-name="圖層 2"><g id="design"><rect class="cls-1" x="2.3" y="2.3" width="1056.6" height="554.3"/><path class="cls-2" d="M1056.6,4.6V554.3H4.6V4.6h1052m4.6-4.6H0V558.9H1061.2V0Z"/><polygon class="cls-2" points="1061.2 97.75 0 97.75 0 97.75 0 189.98 1061.2 189.98 1061.2 97.75"/><polygon class="cls-2" points="1061.2 282.21 0 282.21 0 282.21 0 374.44 1061.2 374.44 1061.2 282.21"/><polygon class="cls-2" points="1061.2 466.67 0 466.67 0 466.67 0 558.9 1061.2 558.9 1061.2 466.67"/><text class="cls-3" transform="translate(254.05 66.19)">入門</text><text class="cls-4" transform="translate(470.85 66.19)">超值</text><text class="cls-5" transform="translate(687.64 66.19)">加速</text><text class="cls-6" transform="translate(43.67 152.88)">網紅數量<tspan x="0" y="94.3">總追蹤數</tspan><tspan x="0" y="188.6">預估曝光</tspan><tspan x="0" y="282.9">預估互動</tspan></text><text class="cls-7" transform="translate(269.17 152.35)">3~5<tspan x="-14.36" y="95">7,000</tspan><tspan x="-5.55" y="190">30萬</tspan><tspan x="-14.36" y="285">4,350</tspan></text><text class="cls-8" transform="translate(477 152.35)">5~10<tspan x="-14.36" y="95">16,000</tspan><tspan x="3.42" y="190">50萬</tspan><tspan x="-5.4" y="285">6,800</tspan></text><text class="cls-8" transform="translate(684.83 152.35)">10~20<tspan x="-5.4" y="95">40,000</tspan><tspan x="12.38" y="190">72萬</tspan><tspan x="-5.4" y="285">10,000</tspan></text><text class="cls-9" transform="translate(904.44 66.19)">擴散</text><text class="cls-8" transform="translate(901.63 152.35)">20~30<tspan x="-5.4" y="95">60,000</tspan><tspan x="3.42" y="190">110萬</tspan><tspan x="-5.4" y="285">15,000</tspan></text><text class="cls-10" transform="translate(887.2 523.59)">$90,000</text><text class="cls-11" transform="translate(673.2 523.59)">$60,000</text><text class="cls-12" transform="translate(457.2 523.59)">$30,000</text><text class="cls-13" transform="translate(237.2 523.59)">$20,000</text></g></g></svg>