<svg xmlns="http://www.w3.org/2000/svg" viewBox="0 0 2883 410"><defs><style>.cls-1{fill:#264dab;}.cls-2{fill:#ffb510;}.cls-3{fill:#ffd600;}.cls-4{fill:#d7f2f9;}.cls-5{fill:#4a8dbd;}</style></defs><g id="圖層_2" data-name="圖層 2"><g id="design"><rect class="cls-1" x="2148" width="735" height="409"/><polygon class="cls-2" points="722 410 0 409 0 0 722 0 722 410"/><path class="cls-1" d="M2148,409,2214,0H1987.55c28.64,38.11,49.13,85.49,54.61,144.33C2054.67,278.76,2099.23,360.73,2148,409Z"/><circle class="cls-3" cx="2032.48" cy="98.35" r="41.49" transform="translate(1909.57 2129.49) rotate(-89.31)"/><path class="cls-4" d="M2106.35,162.13A11.15,11.15,0,1,0,2095.2,151,11.14,11.14,0,0,0,2106.35,162.13Z"/><path class="cls-2" d="M1033.48,410C891,354,800,280,782,158,772,90.33,769,46,722,0L699,410Z"/><path class="cls-1" d="M831.9,314a34.09,34.09,0,1,0-31.8-31.8A34.09,34.09,0,0,0,831.9,314Z"/><path class="cls-5" d="M901.23,292.3a12.39,12.39,0,1,0-10.68-10.68A12.39,12.39,0,0,0,901.23,292.3Z"/></g></g></svg>