<svg xmlns="http://www.w3.org/2000/svg" viewBox="0 0 382 566"><defs><style>.cls-1{fill:#f2f2f2;}.cls-2,.cls-4{fill:#6649ff;}.cls-3,.cls-4{font-size:36px;}.cls-3{fill:#fff;font-family:NotoSansTC-Bold-83pv-RKSJ-H, Noto Sans TC;letter-spacing:0.15em;}.cls-4{font-family:NotoSansTC-Black-83pv-RKSJ-H, Noto Sans TC;letter-spacing:-0.11em;}.cls-5{letter-spacing:0.02em;}.cls-6{fill:none;stroke:#00b900;stroke-miterlimit:10;stroke-width:4px;}.cls-7{font-size:27px;letter-spacing:0.07em;}.cls-10,.cls-7{font-family:NotoSansTC-Medium-83pv-RKSJ-H, Noto Sans TC;}.cls-8{letter-spacing:0.02em;}.cls-9{letter-spacing:0.08em;}.cls-10{font-size:20px;letter-spacing:0.07em;}</style></defs><g id="圖層_2" data-name="圖層 2"><g id="design"><rect class="cls-1" width="382" height="566" rx="16.66"/><path class="cls-2" d="M365.34,0H16.66A16.66,16.66,0,0,0,0,16.66V112H382V16.66A16.66,16.66,0,0,0,365.34,0Z"/><text class="cls-3" transform="translate(108.55 70.56)">豪華方案</text><text class="cls-4" transform="translate(103.1 518.56)">＄<tspan class="cls-5" x="32.18" y="0" xml:space="preserve"> 70,000</tspan></text><circle class="cls-6" cx="74.5" cy="428.5" r="11.89"/><circle class="cls-6" cx="74.5" cy="376.5" r="11.89"/><circle class="cls-6" cx="74.5" cy="322.5" r="11.89"/><circle class="cls-6" cx="74.5" cy="268.5" r="11.89"/><circle class="cls-6" cx="74.5" cy="214.5" r="11.89"/><circle class="cls-6" cx="74.5" cy="160.5" r="11.89"/><text class="cls-7" transform="translate(106.84 169.13)">購物平台直播<tspan x="0" y="54">購物專家</tspan><tspan x="0" y="108">前置製播會</tspan><tspan x="0" y="162">D</tspan><tspan class="cls-8" x="20.9" y="162">P</tspan><tspan class="cls-9" x="38.88" y="162">A 再行銷</tspan><tspan x="0" y="216">D</tspan><tspan class="cls-8" x="20.9" y="216">P</tspan><tspan class="cls-9" x="38.88" y="216">A 新客推廣</tspan><tspan x="0" y="270">影片授權期</tspan></text><text class="cls-10" transform="translate(255.69 440.38)">(一個月)</text></g></g></svg>